<svg width="324" height="642" viewBox="0 0 324 642" fill="none" xmlns="http://www.w3.org/2000/svg">
<g clip-path="url(#clip0_3532_106)">
<g opacity="0.1">
<path d="M163.453 323.598C162.223 414.308 88.2781 487.468 -2.76489 487.468C-93.8079 487.468 -168.997 413.071 -168.997 321.3C-168.997 229.53 -94.5716 155.133 -2.76489 155.133C89.0418 155.133 156.721 222.97 163.015 308.994" stroke="#476262" stroke-width="1.5" stroke-miterlimit="10"/>
<path d="M154.557 330.398L156.071 331.882L163.382 324.403L170.312 332.242L171.903 330.836L163.467 321.293L154.557 330.398Z" fill="#476262"/>
</g>
<path opacity="0.1" d="M-2.87097 525.221C109.959 525.221 201.426 433.79 201.426 321.004C201.426 208.218 109.959 116.786 -2.87097 116.786C-115.701 116.786 -207.168 208.218 -207.168 321.004C-207.168 433.79 -115.701 525.221 -2.87097 525.221Z" stroke="#476262" stroke-width="1.5" stroke-miterlimit="10"/>
<path opacity="0.1" d="M-2.87099 564.571C131.7 564.571 240.792 455.522 240.792 321.004C240.792 186.485 131.7 77.4358 -2.87099 77.4358C-137.442 77.4358 -246.534 186.485 -246.534 321.004C-246.534 455.522 -137.442 564.571 -2.87099 564.571Z" stroke="#476262" stroke-width="1.5" stroke-miterlimit="10"/>
<path opacity="0.1" d="M-2.87091 603.922C153.442 603.922 280.158 477.255 280.158 321.004C280.158 164.752 153.442 38.0853 -2.87091 38.0853C-159.183 38.0853 -285.9 164.752 -285.9 321.004C-285.9 477.255 -159.183 603.922 -2.87091 603.922Z" stroke="#476262" stroke-width="1.5" stroke-miterlimit="10"/>
<path opacity="0.1" d="M-2.87091 641.477C174.191 641.477 317.728 497.996 317.728 321.004C317.728 144.011 174.191 0.530144 -2.87091 0.530144C-179.933 0.530144 -323.47 144.011 -323.47 321.004C-323.47 497.996 -179.933 641.477 -2.87091 641.477Z" stroke="#476262" stroke-width="1.5" stroke-miterlimit="10"/>
<path d="M315.998 286.674L308.896 294.654L316.879 301.753L323.981 293.774L315.998 286.674Z" fill="#ECF8F9"/>
<path d="M162.231 200L160 210.447L170.448 212.674L172.679 202.227L162.231 200Z" fill="#ECF8F9"/>
<path d="M131.088 419.253L120.443 420.171L121.361 430.812L132.006 429.894L131.088 419.253Z" fill="#85C1C3"/>
<path d="M184.561 534.271L173.975 532.82L172.523 543.401L183.109 544.853L184.561 534.271Z" fill="#85C1C3"/>
</g>
<defs>
<clipPath id="clip0_3532_106">
<rect width="648" height="642" fill="white" transform="translate(-324)"/>
</clipPath>
</defs>
</svg>
