<svg width="362" height="4269" viewBox="0 0 362 4269" fill="none" xmlns="http://www.w3.org/2000/svg">
<path d="M-147.603 -126.65C-100.033 -114.15 3.3351 14.8495 9.76345 143.35C16.1918 271.85 -23.664 317.35 -21.0927 387.85C-18.5213 458.35 35.1916 478.924 56.3048 557.35C76.3612 631.85 75.4674 755.944 -1.55045 842.85C-72.0052 922.35 11.0708 1062.61 -34.4636 1191.35C-123.946 1444.35 214.957 1244.35 247.613 1513.85C271.259 1709 390.836 1712.11 275.897 1913.35C207.462 2033.17 311.382 2243.85 349.181 2341.35C386.979 2438.85 436.863 2569.85 399.836 2922.85C362.809 3275.85 307.268 3253.85 308.039 3421.85C308.811 3589.85 393.408 3637.85 399.836 3800.85C404.979 3931.25 333.667 4194.68 311.896 4268.35" stroke="#505050"/>
</svg>
