<svg width="362" height="4243" viewBox="0 0 362 4243" fill="none" xmlns="http://www.w3.org/2000/svg">
<path d="M228.477 -184.483C197.976 -85.8298 178.531 10.9332 224.265 60.4257C269.999 109.912 411.899 127.85 324.753 294.921C271.017 397.94 76.8215 426.096 313.22 666.849C384.408 739.349 382.209 923.392 325.781 1038.85C261.796 1169.77 249.327 1376.23 146.559 1413.85C59.1333 1445.85 -5.51035 1555.95 29.0485 1676.35C72.247 1826.85 -80.2335 1867.35 -82.2906 2045.35C-84.3477 2223.35 -25.9783 2317.35 -39.0921 2492.85C-52.2059 2668.35 -16.9785 2672.35 37.2768 2752.35C91.5321 2832.35 123.674 2926.35 80.4754 3011.85C34.1304 3103.58 -145.288 3253.85 21.0773 3527.85C79.6896 3624.38 -30.3495 3696.85 -60.6913 3847.85C-77.7305 3932.65 -91.2903 4095.85 5.13499 4242.35" stroke="#505050" stroke-width="1.1347"/>
</svg>
