<svg width="362" height="4246" viewBox="0 0 362 4246" fill="none" xmlns="http://www.w3.org/2000/svg">
<path d="M396.645 -140.448C420.036 -14.0339 431.868 107.459 314.278 239.216C269.204 289.72 333.412 409.25 308.443 497.993C266.531 646.959 458.096 602.959 302.015 823.959C243.033 907.475 406.109 1087.97 378.127 1258.96C356.38 1391.85 289.262 1436.86 328.758 1554.46C378.127 1701.46 431.721 1745.85 364.094 1877.35C296.468 2008.85 217.419 1973.46 142.592 2134.46C67.7664 2295.46 101.284 2481.81 86.1323 2555.85C66.5901 2651.35 -11.9652 2683.55 -46.1441 2766.46C-90.0046 2872.85 -94.2165 3194.85 43.8646 3239.85C137.204 3270.27 259.857 3350.85 304.599 3520.35C349.34 3689.85 327.998 3714.35 343.94 3911.85C351.875 4010.15 390.213 4204.96 420.555 4245.46" stroke="#505050" stroke-width="1.1347"/>
</svg>
