<svg width="362" height="718" viewBox="0 0 362 718" fill="none" xmlns="http://www.w3.org/2000/svg">
<g clip-path="url(#clip0_3532_252)">
<mask id="mask0_3532_252" style="mask-type:luminance" maskUnits="userSpaceOnUse" x="0" y="0" width="379" height="379">
<path d="M0 -6.10352e-05L0 378.884H378.414V-6.10352e-05H0Z" fill="white"/>
</mask>
<g mask="url(#mask0_3532_252)">
<g opacity="0.1">
<path d="M204.374 372.484C205.686 275.627 284.512 197.51 381.565 197.51C478.619 197.51 558.772 276.947 558.772 374.936C558.772 472.925 479.433 552.363 381.565 552.363C283.698 552.363 211.55 479.93 204.841 388.077" stroke="#476262" stroke-width="1.5" stroke-miterlimit="10"/>
<path d="M213.849 365.215L212.236 363.63L204.442 371.616L197.054 363.245L195.358 364.747L204.359 374.936L213.849 365.215Z" fill="#476262"/>
</g>
<path opacity="0.1" d="M381.671 593.3C501.95 593.3 599.455 495.674 599.455 375.246C599.455 254.818 501.95 157.192 381.671 157.192C261.392 157.192 163.887 254.818 163.887 375.246C163.887 495.674 261.392 593.3 381.671 593.3Z" stroke="#476262" stroke-width="1.5" stroke-miterlimit="10"/>
<path opacity="0.1" d="M381.671 635.317C525.126 635.317 641.42 518.879 641.42 375.246C641.42 231.613 525.126 115.175 381.671 115.175C238.215 115.175 121.922 231.613 121.922 375.246C121.922 518.879 238.215 635.317 381.671 635.317Z" stroke="#476262" stroke-width="1.5" stroke-miterlimit="10"/>
<path opacity="0.1" d="M381.671 677.334C548.303 677.334 683.384 542.085 683.384 375.246C683.384 208.407 548.303 73.1578 381.671 73.1578C215.039 73.1578 79.957 208.407 79.957 375.246C79.957 542.085 215.039 677.334 381.671 677.334Z" stroke="#476262" stroke-width="1.5" stroke-miterlimit="10"/>
<path opacity="0.1" d="M381.671 717.434C570.422 717.434 723.435 564.231 723.435 375.246C723.435 186.261 570.422 33.058 381.671 33.058C192.92 33.058 39.9069 186.261 39.9069 375.246C39.9069 564.231 192.92 717.434 381.671 717.434Z" stroke="#476262" stroke-width="1.5" stroke-miterlimit="10"/>
<path d="M238.863 270.349L250.211 269.369L249.233 258.007L237.885 258.987L238.863 270.349Z" fill="#85C1C3"/>
<path d="M181.848 147.539L193.133 149.088L194.68 137.79L183.396 136.24L181.848 147.539Z" fill="#85C1C3"/>
</g>
<g clip-path="url(#clip1_3532_252)">
<mask id="mask1_3532_252" style="mask-type:luminance" maskUnits="userSpaceOnUse" x="0" y="377" width="378" height="379">
<path d="M0 377.727L0 756H377.943V377.727H0Z" fill="white"/>
</mask>
<g mask="url(#mask1_3532_252)">
<g opacity="0.1">
<path d="M204.014 371.436C205.324 274.735 284.052 196.745 380.984 196.745C477.917 196.745 557.97 276.054 557.97 373.885C557.97 471.715 478.73 551.025 380.984 551.025C283.239 551.025 211.181 478.708 204.481 387.004" stroke="white" stroke-width="1.5" stroke-miterlimit="10"/>
</g>
<path opacity="0.1" d="M381.097 591.904C501.226 591.904 598.61 494.435 598.61 374.201C598.61 253.967 501.226 156.498 381.097 156.498C260.968 156.498 163.584 253.967 163.584 374.201C163.584 494.435 260.968 591.904 381.097 591.904Z" stroke="white" stroke-width="1.5" stroke-miterlimit="10"/>
<path opacity="0.1" d="M381.097 633.853C524.374 633.853 640.523 517.603 640.523 374.201C640.523 230.799 524.374 114.549 381.097 114.549C237.821 114.549 121.672 230.799 121.672 374.201C121.672 517.603 237.821 633.853 381.097 633.853Z" stroke="white" stroke-width="1.5" stroke-miterlimit="10"/>
<path opacity="0.1" d="M381.097 675.802C547.522 675.802 682.435 540.77 682.435 374.201C682.435 207.632 547.522 72.6003 381.097 72.6003C214.673 72.6003 79.7595 207.632 79.7595 374.201C79.7595 540.77 214.673 675.802 381.097 675.802Z" stroke="white" stroke-width="1.5" stroke-miterlimit="10"/>
<path opacity="0.1" d="M381.097 715.837C569.613 715.837 722.435 562.881 722.435 374.201C722.435 185.521 569.613 32.5652 381.097 32.5652C192.582 32.5652 39.7593 185.521 39.7593 374.201C39.7593 562.881 192.582 715.837 381.097 715.837Z" stroke="white" stroke-width="1.5" stroke-miterlimit="10"/>
<path d="M41.5664 410.779L49.1281 402.272L40.6291 394.704L33.0675 403.21L41.5664 410.779Z" fill="#85C1C3"/>
<path d="M183.069 602.069V590.683H171.693V602.069H183.069Z" fill="#85C1C3"/>
</g>
</g>
</g>
<defs>
<clipPath id="clip0_3532_252">
<rect width="724" height="718" fill="white"/>
</clipPath>
<clipPath id="clip1_3532_252">
<rect width="723" height="724" fill="white" transform="translate(0 32)"/>
</clipPath>
</defs>
</svg>
