<svg width="362" height="4392" viewBox="0 0 362 4392" fill="none" xmlns="http://www.w3.org/2000/svg">
<g style="mix-blend-mode:hard-light" opacity="0.3">
<path d="M228.477 -184.483C197.976 -85.8298 178.531 10.9332 224.265 60.4257C269.999 109.912 411.899 127.85 324.753 294.921C271.017 397.94 76.8215 426.096 313.22 666.849C384.408 739.349 382.209 923.392 325.781 1038.85C261.796 1169.77 249.327 1376.23 146.559 1413.85C59.1333 1445.85 -5.51035 1555.95 29.0485 1676.35C72.247 1826.85 -80.2335 1867.35 -82.2906 2045.35C-84.3477 2223.35 -25.9783 2317.35 -39.0921 2492.85C-52.2059 2668.35 -16.9785 2672.35 37.2768 2752.35C91.5321 2832.35 123.674 2926.35 80.4754 3011.85C34.1304 3103.58 -145.288 3253.85 21.0773 3527.85C79.6896 3624.38 -30.3495 3696.85 -60.6913 3847.85C-77.7305 3932.65 -91.2903 4095.85 5.13499 4242.35" stroke="#505050" stroke-width="1.1347"/>
<path d="M-147.603 -126.65C-100.033 -114.15 3.3351 14.8495 9.76345 143.35C16.1918 271.85 -23.664 317.35 -21.0927 387.85C-18.5213 458.35 35.1916 478.924 56.3048 557.35C76.3612 631.85 75.4674 755.944 -1.55045 842.85C-72.0052 922.35 11.0708 1062.61 -34.4636 1191.35C-123.946 1444.35 214.957 1244.35 247.613 1513.85C271.259 1709 390.836 1712.11 275.897 1913.35C207.462 2033.17 311.382 2243.85 349.181 2341.35C386.979 2438.85 436.863 2569.85 399.836 2922.85C362.809 3275.85 307.268 3253.85 308.039 3421.85C308.811 3589.85 393.408 3637.85 399.836 3800.85C404.979 3931.25 333.667 4194.68 311.896 4268.35" stroke="#505050"/>
<path d="M396.645 -140.448C420.036 -14.0339 431.868 107.459 314.278 239.216C269.204 289.72 333.412 409.25 308.443 497.993C266.531 646.959 458.096 602.959 302.015 823.959C243.033 907.475 406.109 1087.97 378.127 1258.96C356.38 1391.85 289.262 1436.86 328.758 1554.46C378.127 1701.46 431.721 1745.85 364.094 1877.35C296.468 2008.85 217.419 1973.46 142.592 2134.46C67.7664 2295.46 101.284 2481.81 86.1323 2555.85C66.5901 2651.35 -11.9652 2683.55 -46.1441 2766.46C-90.0046 2872.85 -94.2165 3194.85 43.8646 3239.85C137.204 3270.27 259.857 3350.85 304.599 3520.35C349.34 3689.85 327.998 3714.35 343.94 3911.85C351.875 4010.15 390.213 4204.96 420.555 4245.46" stroke="#505050" stroke-width="1.1347"/>
</g>
<path d="M295.129 263.084L299.844 271.903L308.664 267.185L303.949 258.367L295.129 263.084Z" fill="#453966"/>
<path d="M308.548 589.568L318.013 592.795L321.24 583.327L311.775 580.1L308.548 589.568Z" fill="#453966"/>
<path d="M53.0604 573.084L61.5105 578.431L66.8586 569.979L58.4085 564.631L53.0604 573.084Z" fill="#453966"/>
</svg>
