<svg width="112" height="42" viewBox="0 0 112 42" fill="none" xmlns="http://www.w3.org/2000/svg">
<g id="Artwork">
<g id="Group">
<g id="idh_Logo">
<path id="Idh" d="M53.1552 10.6946H59.3657V33.3481H53.1552V10.6946ZM80.7024 0.59686V13.857C79.8878 12.4585 77.1561 9.98206 73.1281 9.98206C71.2498 9.98206 69.3103 10.4965 67.5219 11.5235C65.7355 12.5504 64.3411 13.9734 63.3448 15.7904C62.3464 17.6074 61.8483 19.6776 61.8483 22.0009C61.8483 24.3242 62.3464 26.4026 63.3448 28.2339C64.3431 30.0652 65.7416 31.4882 67.5443 32.5008C69.3471 33.5134 71.3049 34.0198 73.5099 34.0198C77.4052 34.0198 80.1532 31.6781 80.7044 30.4776V33.3501H86.9149V0.59686H80.7044H80.7024ZM74.7103 28.7075C70.6843 28.7075 68.1486 25.7431 68.1486 21.9989C68.1486 18.2546 70.67 15.2902 74.7103 15.2902C78.7506 15.2902 81.272 18.2546 81.272 21.9989C81.272 25.7431 78.6792 28.7075 74.7103 28.7075ZM110.904 14.4695C110.173 12.9954 109.146 11.8787 107.821 11.1192C106.496 10.3598 104.893 9.98002 103.017 9.98002C99.1665 9.98002 96.6799 12.6137 96.047 13.8509V0.59686H89.8303V33.3501H96.0449V21.221C96.0449 17.6462 98.06 15.3535 101.024 15.3535C102.613 15.3535 105.787 16.4988 105.787 21.221V33.3501H111.998V19.9001C111.998 17.7544 111.632 15.9455 110.904 14.4715V14.4695ZM60.262 3.93895C60.5825 6.23778 58.2388 7.79347 56.2482 7.97722C54.6598 8.19567 52.998 7.54236 52.4651 5.89071C51.8506 4.02061 52.4427 1.58703 54.3332 0.73773C56.6504 -0.260608 59.8087 1.39308 60.264 3.93895H60.262ZM8.46884 35.9082C8.76283 36.0797 8.97515 36.3758 8.73628 36.7943C8.49742 37.2128 7.84003 37.0331 7.58074 36.8127C7.20509 36.4921 6.78044 35.7633 6.92743 35.6183C7.07239 35.4734 8.17485 35.7347 8.46884 35.9082ZM29.5462 20.0451C29.7034 21.0904 29.4319 22.1234 28.7623 23.0258C27.8762 24.2201 26.3532 25.1021 24.7873 25.3267C24.4667 25.3961 24.1319 25.4308 23.7889 25.4308C22.1148 25.4308 20.3121 24.5917 19.6445 22.891C18.6605 20.5024 19.3566 17.1399 21.9678 15.9476C23.4215 15.329 25.1241 15.4372 26.641 16.2477C28.1845 17.0705 29.242 18.4547 29.5462 20.041V20.0471V20.0451ZM28.1253 20.2696C27.8782 18.8895 26.6002 17.6625 25.0139 17.2828C24.6954 17.2073 24.3871 17.1685 24.0911 17.1685C23.1295 17.1685 22.3027 17.5604 21.7473 18.3036C20.996 19.3203 20.8164 20.9229 21.3125 22.1989C21.6677 23.1258 22.662 23.7363 23.8441 23.7546C25.1772 23.7934 26.6247 23.2197 27.4352 22.3296C27.9762 21.7355 28.2151 21.023 28.1273 20.2676L28.1253 20.2696ZM31.0835 17.9034C32.1635 20.8597 31.9921 25.0163 29.1726 27.6418C27.6598 29.0832 25.6835 29.8467 23.5644 29.8467C22.9356 29.8467 22.2945 29.7794 21.6514 29.6426C18.4726 28.9689 15.7573 26.768 14.565 23.8955C13.6075 21.7498 13.6218 19.2182 14.6038 16.9541C15.6103 14.6328 17.507 12.8485 19.8058 12.0563C21.9719 11.2826 24.1952 11.3867 26.2286 12.3585C28.4397 13.4119 30.2077 15.4331 31.0815 17.9034H31.0835ZM30.6446 18.0647V18.0606C29.6544 15.2351 26.639 13.2772 23.3275 13.3099C23.3153 13.3099 23.303 13.3099 23.2928 13.3099C20.7388 13.3099 18.4114 14.4511 16.9026 16.4457C15.3796 18.4567 14.9121 21.0352 15.6164 23.5199C16.2085 25.539 17.5498 27.1294 19.3934 27.995C21.2941 28.8872 23.5419 28.8994 25.559 28.0256C29.2053 26.572 32.188 22.1254 30.6446 18.0668V18.0647ZM22.0924 35.0426C20.3693 35.0426 18.6482 34.7017 17.0068 34.0157C10.0062 31.1268 6.28433 22.5399 8.8792 15.2637C10.6207 10.2148 14.8549 6.71347 20.2059 5.90296C25.5365 5.09449 30.5956 7.17487 33.7417 11.4683C36.5468 15.3024 37.1675 20.8086 35.3219 25.4961C33.8642 29.3118 30.9529 32.3947 27.3291 33.9544C25.6427 34.6812 23.8665 35.0426 22.0903 35.0426H22.0924ZM34.8993 25.3307C36.4754 21.3517 35.6975 16.4845 32.9149 12.9301C30.2832 9.48595 26.3573 7.54031 22.1822 7.54031C21.6391 7.54031 21.094 7.57298 20.5448 7.64035C15.8186 8.21404 11.8375 11.2111 9.89387 15.6618C7.70936 20.5555 9.0609 26.5986 13.1073 30.0325C16.4351 32.999 21.3452 34.1402 25.9224 33.0153C30.1771 31.968 33.4498 29.1689 34.8993 25.3348V25.3307ZM1.52538 20.2308C2.00924 15.2596 4.43873 10.6129 8.36471 7.14833C12.2825 3.68987 17.1762 1.85448 22.1536 1.98718C27.2045 2.11785 31.8573 4.28806 35.2566 8.09359C35.3158 8.16708 35.4015 8.212 35.4954 8.22221C35.5955 8.23241 35.6955 8.19771 35.769 8.13033C35.8405 8.06296 35.8792 7.96701 35.8772 7.86697C35.8752 7.77714 35.8384 7.69343 35.7772 7.63014C31.7614 2.9059 25.8959 0.292663 19.6772 0.449866C13.5667 0.60911 7.91148 3.51634 4.15904 8.42636C-1.74933 16.0946 -1.31651 27.2703 5.1635 34.4199C5.21454 34.4771 5.26558 34.5322 5.31662 34.5894L5.3942 34.6751L5.43503 34.6976C5.50649 34.7384 5.58611 34.7588 5.66573 34.7588C5.7086 34.7588 5.74944 34.7527 5.79027 34.7404C5.90255 34.7078 5.99647 34.6322 6.04955 34.5322C6.13121 34.377 6.10876 34.1872 5.9883 34.0402C2.61763 30.1836 1.03336 25.2777 1.52538 20.2308ZM40.7954 19.9675L40.7831 19.896C40.7239 19.7041 40.5504 19.5714 40.3646 19.5816C40.2462 19.5857 40.1339 19.6449 40.0563 19.7429C39.9788 19.8409 39.9461 19.9654 39.9645 20.09C40.0686 23.7444 39.1825 27.3029 37.4002 30.3857C34.148 36.1716 28.2559 39.92 21.6269 40.4161C21.3676 40.4508 21.1798 40.6835 21.2063 40.9387C21.2288 41.1449 21.3901 41.3164 21.6004 41.3552L21.6351 41.3613H21.6698C22.1659 41.3368 22.662 41.294 23.1418 41.2368C28.4315 40.5998 33.1394 37.9988 36.3998 33.9095C39.5398 29.9692 41.1037 25.0184 40.7995 19.9695L40.7954 19.9675ZM40.728 17.44C40.9016 16.7336 40.6484 14.1183 39.7726 13.0751C39.5031 12.7525 39.1887 12.4891 38.8293 12.7035C38.3537 12.9893 38.4516 13.5058 38.8008 13.9897C39.3887 14.8023 39.8379 16.6397 39.8665 17.3461C39.8787 17.6503 40.089 17.8565 40.336 17.8606C40.5831 17.8646 40.6525 17.7381 40.726 17.44H40.728Z" fill="white"/>
</g>
<g id="Group_2">
<path id="Vector" d="M53.5717 39.2544V38.0233H53.149V37.5292H53.49C53.5921 37.5292 53.6309 37.4741 53.6472 37.323L53.6737 36.9229H54.178V37.5292H55.1008V38.0233H54.178V39.2217C54.178 39.5688 54.3087 39.7423 54.6762 39.7423C54.8272 39.7423 55.0008 39.7158 55.0763 39.6933V40.1751C54.9946 40.2016 54.8109 40.2404 54.5884 40.2404C53.8554 40.2404 53.5696 39.8444 53.5696 39.2544H53.5717Z" fill="white"/>
<path id="Vector_2" d="M55.5826 37.529H56.189L56.1665 38.2986H56.1727C56.2972 37.8168 56.5749 37.4861 57.1261 37.4861C57.7059 37.4861 58.0264 37.8658 58.0264 38.5314C58.0264 38.6988 58.0101 38.9172 57.9999 39.0295H57.4466C57.4568 38.9274 57.4691 38.7907 57.4691 38.6661C57.4691 38.217 57.2955 38.0046 56.9383 38.0046C56.4769 38.0046 56.189 38.3946 56.189 39.0357V40.2075H55.5826V37.529Z" fill="white"/>
<path id="Vector_3" d="M58.4735 39.4379C58.4735 39.0317 58.7614 38.7111 59.4759 38.7111H60.4681V38.5213C60.4681 38.1191 60.2354 37.9414 59.7638 37.9414C59.3514 37.9414 59.1187 38.0987 59.1187 38.3967C59.1187 38.4131 59.1187 38.4559 59.1248 38.4988H58.5654C58.5593 38.46 58.5552 38.3906 58.5552 38.3416C58.5552 37.8047 59.0227 37.4841 59.7863 37.4841C60.5988 37.4841 61.0765 37.87 61.0765 38.5743V40.2056H60.4702C60.4804 40.0749 60.4967 39.832 60.4967 39.6156H60.4906C60.4049 40.0116 60.0843 40.2505 59.4923 40.2505C58.9002 40.2505 58.4735 39.9585 58.4735 39.4379ZM60.4681 39.1297V39.0807H59.5311C59.184 39.0807 59.0329 39.1991 59.0329 39.4114C59.0329 39.6564 59.2493 39.7973 59.6188 39.7973C60.1456 39.7973 60.4702 39.5421 60.4702 39.1297H60.4681Z" fill="white"/>
<path id="Vector_4" d="M61.6564 37.529H62.2627L62.2403 38.2436H62.2464C62.3934 37.7618 62.7405 37.4841 63.3631 37.4841C64.0409 37.4841 64.4574 37.87 64.4574 38.5294V40.2056H63.8511V38.6662C63.8511 38.2436 63.6122 38.0047 63.1304 38.0047C62.5996 38.0047 62.2627 38.3253 62.2627 38.9092V40.2056H61.6564V37.527V37.529Z" fill="white"/>
<path id="Vector_5" d="M64.9576 39.3134H65.5048C65.5048 39.6217 65.6844 39.8115 66.2051 39.8115C66.6991 39.8115 66.9155 39.6605 66.9155 39.4155C66.9155 39.3134 66.8767 39.2195 66.7359 39.1725C66.6052 39.1235 66.352 39.097 66.0519 39.0684C65.6334 39.0296 65.3517 38.9765 65.1904 38.8561C65.0434 38.7479 64.9576 38.5519 64.9576 38.3457C64.9576 37.8087 65.4782 37.4841 66.2051 37.4841C67.0401 37.4841 67.4096 37.8312 67.4096 38.4376H66.8624C66.8563 38.0905 66.6665 37.9231 66.2234 37.9231C65.7804 37.9231 65.562 38.0742 65.562 38.3028C65.562 38.4171 65.5885 38.5253 65.7457 38.5784C65.8764 38.6213 66.1295 38.6499 66.4562 38.6805C66.8359 38.7193 67.0523 38.756 67.2422 38.8642C67.4218 38.9622 67.5239 39.1684 67.5239 39.3849C67.5239 39.9279 67.0686 40.2464 66.2112 40.2464C65.2884 40.2464 64.9576 39.834 64.9576 39.3093V39.3134Z" fill="white"/>
<path id="Vector_6" d="M68.2119 38.0233H67.7832V37.5293H68.2119V37.2639C68.2119 36.6677 68.608 36.3411 69.1878 36.3411C69.4267 36.3411 69.6206 36.3839 69.7084 36.4166V36.8984C69.6227 36.8719 69.4798 36.8331 69.296 36.8331C68.9877 36.8331 68.8183 36.9964 68.8183 37.2884V37.5272H69.7513V38.0213H68.8183V40.2058H68.2119V38.0213V38.0233Z" fill="white"/>
<path id="Vector_7" d="M69.9043 38.8744C69.9043 38.0169 70.4514 37.4861 71.3028 37.4861C72.1541 37.4861 72.7074 38.0169 72.7074 38.8744C72.7074 39.7318 72.1603 40.2524 71.3028 40.2524C70.4453 40.2524 69.9043 39.7257 69.9043 38.8744ZM72.1011 38.8744C72.1011 38.3272 71.7969 37.9842 71.3048 37.9842C70.8128 37.9842 70.5127 38.3252 70.5127 38.8744C70.5127 39.4236 70.8108 39.7522 71.3048 39.7522C71.7989 39.7522 72.1011 39.4154 72.1011 38.8744Z" fill="white"/>
<path id="Vector_8" d="M73.2281 37.529H73.8344L73.812 38.2986H73.8181C73.9426 37.8168 74.2203 37.4861 74.7715 37.4861C75.3513 37.4861 75.6719 37.8658 75.6719 38.5314C75.6719 38.6988 75.6555 38.9172 75.6453 39.0295H75.0921C75.1023 38.9274 75.1145 38.7907 75.1145 38.6661C75.1145 38.217 74.941 38.0046 74.5837 38.0046C74.1223 38.0046 73.8344 38.3946 73.8344 39.0357V40.2075H73.2281V37.529Z" fill="white"/>
<path id="Vector_9" d="M76.1946 37.529H76.8009L76.7785 38.2333H76.7846C76.903 37.7719 77.2297 37.4861 77.7176 37.4861C78.2382 37.4861 78.5751 37.7576 78.6404 38.1904H78.6465C78.7445 37.7576 79.0691 37.4861 79.5795 37.4861C80.1757 37.4861 80.5166 37.8719 80.5166 38.5008V40.2096H79.9103V38.6375C79.9103 38.2476 79.7204 38.0087 79.357 38.0087C78.9344 38.0087 78.6629 38.3231 78.6629 38.8825V40.2116H78.0565V38.6294C78.0565 38.2496 77.8564 38.0108 77.493 38.0108C77.0806 38.0108 76.805 38.3313 76.805 38.905V40.2116H76.1987V37.533L76.1946 37.529Z" fill="white"/>
<path id="Vector_10" d="M81.1127 36.6187H81.7354V37.2148H81.1127V36.6187ZM81.1189 37.5292H81.7252V40.2078H81.1189V37.5292Z" fill="white"/>
<path id="Vector_11" d="M82.3602 37.529H82.9665L82.9441 38.2436H82.9502C83.0972 37.7618 83.4443 37.4841 84.0669 37.4841C84.7447 37.4841 85.1612 37.87 85.1612 38.5294V40.2056H84.5549V38.6662C84.5549 38.2436 84.316 38.0047 83.8342 38.0047C83.3034 38.0047 82.9665 38.3253 82.9665 38.9092V40.2056H82.3602V37.527V37.529Z" fill="white"/>
<path id="Vector_12" d="M88.5074 40.4631C88.5074 41.0266 87.9807 41.3635 87.0987 41.3635C86.2168 41.3635 85.6512 41.0878 85.6512 40.604C85.6512 40.3325 85.8513 40.1324 86.1718 40.116V40.1099C86.0208 40.0078 85.9391 39.8608 85.9391 39.671C85.9391 39.4423 86.0432 39.2851 86.1882 39.2157V39.2055C85.9228 39.0422 85.7758 38.7768 85.7758 38.4419C85.7758 37.856 86.2311 37.4885 86.9681 37.4885C87.2723 37.4885 87.5213 37.5477 87.7173 37.6621L87.7235 37.6559C87.6418 37.5681 87.5928 37.4661 87.5928 37.3517C87.5928 37.1353 87.799 36.9985 88.1195 36.9985C88.2502 36.9985 88.3257 37.0087 88.3911 37.0251V37.4538C88.3482 37.4375 88.289 37.4273 88.2114 37.4273C88.0317 37.4273 87.946 37.5028 87.946 37.6498C87.946 37.7253 87.9725 37.8172 88.0052 37.9213C88.1073 38.0622 88.1624 38.2419 88.1624 38.4419C88.1624 39.032 87.7071 39.3954 86.9701 39.3954C86.7966 39.3954 86.6394 39.3729 86.4985 39.3362C86.4658 39.3749 86.4332 39.4505 86.4332 39.5424C86.4332 39.6934 86.5414 39.7874 86.7374 39.7874H87.605C88.1787 39.7874 88.5095 40.0364 88.5095 40.4652L88.5074 40.4631ZM87.9011 40.5346C87.9011 40.3549 87.7663 40.259 87.4785 40.259H86.7517C86.4475 40.259 86.2535 40.3508 86.2535 40.557C86.2535 40.8122 86.5781 40.9368 87.0947 40.9368C87.6643 40.9368 87.9031 40.7734 87.9031 40.5366L87.9011 40.5346ZM86.3556 38.4419C86.3556 38.7625 86.5883 38.9625 86.9681 38.9625C87.3478 38.9625 87.5806 38.7625 87.5806 38.4419C87.5806 38.1214 87.3478 37.9213 86.9681 37.9213C86.5883 37.9213 86.3556 38.1214 86.3556 38.4419Z" fill="white"/>
<path id="Vector_13" d="M90.2325 37.529H90.8389L90.8164 38.2333H90.8226C90.941 37.7719 91.2676 37.4861 91.7556 37.4861C92.2762 37.4861 92.613 37.7576 92.6784 38.1904H92.6845C92.7825 37.7576 93.1071 37.4861 93.6175 37.4861C94.2136 37.4861 94.5546 37.8719 94.5546 38.5008V40.2096H93.9482V38.6375C93.9482 38.2476 93.7584 38.0087 93.395 38.0087C92.9724 38.0087 92.7008 38.3231 92.7008 38.8825V40.2116H92.0945V38.6294C92.0945 38.2496 91.8944 38.0108 91.531 38.0108C91.1186 38.0108 90.843 38.3313 90.843 38.905V40.2116H90.2366V37.533L90.2325 37.529Z" fill="white"/>
<path id="Vector_14" d="M95.0588 39.4379C95.0588 39.0317 95.3467 38.7111 96.0613 38.7111H97.0535V38.5213C97.0535 38.1191 96.8207 37.9414 96.3491 37.9414C95.9367 37.9414 95.704 38.0987 95.704 38.3967C95.704 38.4131 95.704 38.4559 95.7101 38.4988H95.1507C95.1446 38.46 95.1405 38.3906 95.1405 38.3416C95.1405 37.8047 95.608 37.4841 96.3716 37.4841C97.1841 37.4841 97.6619 37.87 97.6619 38.5743V40.2056H97.0555C97.0657 40.0749 97.0821 39.832 97.0821 39.6156H97.0759C96.9902 40.0116 96.6697 40.2505 96.0776 40.2505C95.4855 40.2505 95.0588 39.9585 95.0588 39.4379ZM97.0535 39.1297V39.0807H96.1164C95.7693 39.0807 95.6182 39.1991 95.6182 39.4114C95.6182 39.6564 95.8346 39.7973 96.2042 39.7973C96.7309 39.7973 97.0555 39.5421 97.0555 39.1297H97.0535Z" fill="white"/>
<path id="Vector_15" d="M98.2417 37.529H98.8481L98.8256 38.2986H98.8317C98.9563 37.8168 99.2339 37.4861 99.7851 37.4861C100.365 37.4861 100.685 37.8658 100.685 38.5314C100.685 38.6988 100.669 38.9172 100.659 39.0295H100.106C100.116 38.9274 100.128 38.7907 100.128 38.6661C100.128 38.217 99.9546 38.0046 99.5973 38.0046C99.1359 38.0046 98.8481 38.3946 98.8481 39.0357V40.2075H98.2417V37.529Z" fill="white"/>
<path id="Vector_16" d="M101.224 36.4512H101.831V38.9337H101.837L103.278 37.5291H104.064L102.811 38.6949L104.134 40.2077H103.311L102.368 39.0807L101.831 39.5748V40.2097H101.224V36.4532V36.4512Z" fill="white"/>
<path id="Vector_17" d="M106.873 38.9887H104.867C104.899 39.5032 105.187 39.7808 105.642 39.7808C106.032 39.7808 106.298 39.6073 106.326 39.2929H106.873C106.851 39.889 106.363 40.2524 105.632 40.2524C104.787 40.2524 104.254 39.7318 104.254 38.8907C104.254 38.0496 104.785 37.4861 105.632 37.4861C106.392 37.4861 106.873 37.9352 106.873 38.7702V38.9867V38.9887ZM106.326 38.5824C106.326 38.1823 106.077 37.9597 105.638 37.9597C105.199 37.9597 104.954 38.1761 104.885 38.6212H106.326V38.5824Z" fill="white"/>
<path id="Vector_18" d="M107.574 39.2544V38.0233H107.151V37.5292H107.492C107.594 37.5292 107.633 37.4741 107.649 37.323L107.676 36.9229H108.18V37.5292H109.103V38.0233H108.18V39.2217C108.18 39.5688 108.311 39.7423 108.678 39.7423C108.829 39.7423 109.003 39.7158 109.078 39.6933V40.1751C108.997 40.2016 108.813 40.2404 108.591 40.2404C107.858 40.2404 107.572 39.8444 107.572 39.2544H107.574Z" fill="white"/>
<path id="Vector_19" d="M109.434 39.3134H109.981C109.981 39.6217 110.161 39.8115 110.681 39.8115C111.175 39.8115 111.392 39.6605 111.392 39.4155C111.392 39.3134 111.353 39.2195 111.212 39.1725C111.081 39.1235 110.828 39.097 110.528 39.0684C110.109 39.0296 109.828 38.9765 109.666 38.8561C109.519 38.7479 109.434 38.5519 109.434 38.3457C109.434 37.8087 109.954 37.4841 110.681 37.4841C111.516 37.4841 111.886 37.8312 111.886 38.4376H111.339C111.332 38.0905 111.143 37.9231 110.699 37.9231C110.256 37.9231 110.038 38.0742 110.038 38.3028C110.038 38.4171 110.065 38.5253 110.222 38.5784C110.352 38.6213 110.606 38.6499 110.932 38.6805C111.312 38.7193 111.528 38.756 111.718 38.8642C111.898 38.9622 112 39.1684 112 39.3849C112 39.9279 111.545 40.2464 110.687 40.2464C109.764 40.2464 109.434 39.834 109.434 39.3093V39.3134Z" fill="white"/>
</g>
</g>
</g>
</svg>
