<svg width="81" height="17" viewBox="0 0 81 17" fill="none" xmlns="http://www.w3.org/2000/svg">
<path fill-rule="evenodd" clip-rule="evenodd" d="M37.9081 0.769131H54.5201V3.64621H49.2281V16.2246H43.2065V3.65261H37.9081V0.769131ZM56.5934 0.769131H73.0198V3.65261H67.7278V16.2246H61.7062V3.63339H56.5934V0.762723V0.769131ZM75.0867 16.231H80.6283V0.769131H75.0867V16.231ZM15.473 5.90173C16.42 5.3763 18.2374 4.45358 19.1908 3.92815C15.6585 -0.224069 7.71089 -1.10193 2.822 2.8965C-5.61197 10.1372 6.22631 22.2671 20.2851 13.8089C20.2851 12.3479 20.2851 9.63745 20.2851 8.18289H11.9791V10.3103C12.2798 10.3103 14.5451 10.3103 14.8459 10.3103C14.8459 11.1945 14.8459 11.0407 14.8459 11.925C11.6591 14.7829 6.11112 13.245 5.45202 9.34269C4.71612 3.69747 12.5102 1.84563 15.473 5.90173ZM22.32 0.775539H28.1943H35.822V3.6398H28.0407V7.23454H34.0879V9.36832H28.0407V13.3091H35.8284V16.2246H22.32V0.781947V0.775539Z" fill="white"/>
</svg>
