<svg width="119" height="46" viewBox="0 0 119 46" fill="none" xmlns="http://www.w3.org/2000/svg">
<path d="M64.2991 0.91222C63.62 0.611693 62.868 0.457764 62.0502 0.457764C61.079 0.457764 60.2393 0.626352 59.5384 0.963529C58.8374 1.30071 58.2606 1.74783 57.8078 2.31224C57.3332 2.87664 56.9754 3.55099 56.7418 4.32797C56.5008 5.10494 56.384 5.93322 56.384 6.79815C56.384 8.24948 56.625 9.45892 57.1142 10.4265C57.6034 11.394 58.5526 12.1637 59.9838 12.7501L62.3495 13.7249C62.7584 13.9009 63.087 14.0621 63.3353 14.216C63.5835 14.37 63.7807 14.5605 63.934 14.8024C64.0654 15.0443 64.1531 15.3522 64.1896 15.748C64.2334 16.1365 64.2553 16.6349 64.2553 17.2433C64.2553 17.7637 64.2407 18.2328 64.2042 18.658C64.175 19.0831 64.0654 19.4423 63.8975 19.7501C63.7223 20.0507 63.4813 20.2852 63.1673 20.4465C62.8533 20.6077 62.4152 20.6884 61.853 20.6884C61.0133 20.6884 60.4146 20.4465 60.0568 19.9554C59.699 19.4643 59.5238 18.9219 59.5238 18.3135V14.9564H56.2161V18.5114C56.2161 19.2884 56.3621 20.014 56.6542 20.6737C56.9462 21.3334 57.3405 21.9125 57.8371 22.4109C58.3336 22.9093 58.925 23.2978 59.6187 23.5837C60.3123 23.8622 61.0571 24.0088 61.853 24.0088C62.9118 24.0088 63.8099 23.8329 64.54 23.4884C65.2775 23.1439 65.869 22.6674 66.3217 22.0591C66.7525 21.4727 67.0665 20.7617 67.2636 19.9261C67.4607 19.0904 67.5557 18.1889 67.5557 17.2067C67.5557 16.3637 67.5119 15.6087 67.4242 14.949C67.3366 14.2893 67.176 13.6956 66.935 13.1752C66.6795 12.6768 66.3217 12.237 65.869 11.8558C65.4163 11.4746 64.8175 11.1448 64.0873 10.8663L61.5609 9.85473C61.1301 9.67881 60.787 9.51023 60.5387 9.33431C60.2904 9.15839 60.1006 8.95315 59.9692 8.71859C59.8377 8.47671 59.7574 8.21283 59.7282 7.90497C59.699 7.60444 59.6771 7.22329 59.6771 6.76883C59.6771 6.38035 59.7063 6.00652 59.772 5.64736C59.8377 5.28819 59.9546 4.973 60.1298 4.68713C60.305 4.42326 60.5314 4.21069 60.8089 4.03477C61.0863 3.85885 61.4587 3.77089 61.9114 3.77089C62.7511 3.77089 63.3499 4.04943 63.7077 4.59917C64.0654 5.14892 64.2407 5.80861 64.2407 6.5636V7.31125H67.5484V5.684C67.5484 4.34263 67.0518 3.14785 66.0588 2.107C65.5623 1.60856 64.9709 1.20542 64.2918 0.90489L64.2991 0.91222Z" fill="white"/>
<path d="M73.1269 2.30493H69.8192V19.9334C69.8192 20.3659 69.8922 20.8203 70.031 21.2821C70.1697 21.7512 70.3887 22.169 70.6954 22.5355C70.9948 22.902 71.4037 23.2099 71.9075 23.4444C72.4113 23.6863 73.0466 23.8036 73.806 23.8036H75.1641V20.6811C74.799 20.6811 74.485 20.6737 74.2441 20.6517C73.9958 20.6298 73.7841 20.5638 73.6088 20.4538C73.4336 20.3439 73.3094 20.1826 73.2364 19.9627C73.1634 19.7428 73.1196 19.4423 73.1196 19.0538V9.9134H75.1641V7.31127H73.1196V2.30493H73.1269Z" fill="white"/>
<path d="M85.4668 8.42533C85.0141 7.99286 84.4811 7.66302 83.8823 7.45045C83.2763 7.23055 82.6264 7.12793 81.9401 7.12793C81.1807 7.12793 80.5016 7.25254 79.8956 7.50176C79.2895 7.75098 78.7711 8.09548 78.3403 8.52795C77.4349 9.43686 76.9384 10.6316 76.8507 12.105H80.0562C80.1657 11.5625 80.3994 11.1521 80.7499 10.8662C81.1077 10.5877 81.502 10.4411 81.9328 10.4411C82.5607 10.4411 82.9915 10.6243 83.2325 10.9908C83.4734 11.3573 83.5903 11.8264 83.5903 12.3908V14.1134C83.415 14.0914 83.2544 14.084 83.101 14.084C82.9477 14.084 82.8236 14.0767 82.714 14.0547C82.6045 14.0327 82.4877 14.0254 82.3563 14.0254H81.9985C80.9616 14.0254 80.1073 14.1427 79.4356 14.3699C78.7638 14.5971 78.2381 14.9416 77.8511 15.3961C77.4422 15.8725 77.1574 16.4663 77.0114 17.1699C76.858 17.8736 76.785 18.6946 76.785 19.6255C76.785 20.5564 76.9019 21.282 77.1282 21.8538C77.3546 22.4255 77.6539 22.8653 78.019 23.1731C78.3841 23.4957 78.7711 23.7229 79.1727 23.8402C79.5743 23.9574 79.9686 24.0161 80.3556 24.0161C81.1515 24.0161 81.7721 23.8548 82.2175 23.525C82.6629 23.2025 83.0937 22.7334 83.5318 22.125H83.5976V23.8182H86.9052V12.3395C86.9052 11.4746 86.7738 10.7123 86.5182 10.0599C86.2627 9.40754 85.9122 8.86512 85.4814 8.43266L85.4668 8.42533ZM83.583 18.9584C83.583 19.6328 83.4296 20.1532 83.1156 20.5197C82.8017 20.8862 82.3636 21.0695 81.8013 21.0695C81.2391 21.0695 80.8375 20.8715 80.5381 20.4831C80.2388 20.0946 80.0854 19.5815 80.0854 18.9511C80.0854 18.0642 80.341 17.4485 80.8448 17.1113C81.3486 16.7741 81.962 16.6055 82.6775 16.6055C82.9185 16.6055 83.2179 16.6348 83.583 16.7008V18.9438V18.9584Z" fill="white"/>
<path d="M98.1353 8.02968C97.814 7.70716 97.4417 7.4726 97.0328 7.33333C96.6239 7.19406 96.215 7.12076 95.7988 7.12076C95.0394 7.12076 94.4187 7.28935 93.9368 7.62653C93.4476 7.96371 93.0314 8.38884 92.6882 8.90927H92.6225V0.648438H89.3148V23.8037H92.6225V12.7135C92.6225 11.9732 92.7393 11.4088 92.9803 11.0203C93.2212 10.6318 93.6521 10.4339 94.2727 10.4339C94.7911 10.4339 95.1927 10.6098 95.4702 10.9543C95.7477 11.2988 95.8937 11.7753 95.8937 12.3837V23.8037H99.2014V11.1522C99.2014 10.4119 99.1065 9.78886 98.9093 9.28309C98.7122 8.77733 98.4566 8.35952 98.1353 8.02968Z" fill="white"/>
<path d="M105.379 20.4392C105.152 20.212 105.035 19.7869 105.035 19.1565V0.648438H101.728V19.3837C101.728 20.3586 101.845 21.1429 102.071 21.744C102.297 22.3377 102.626 22.7995 103.057 23.1293C103.487 23.4738 104.006 23.7084 104.612 23.8257C105.218 23.943 105.897 24.0016 106.656 24.0016V20.879C106.029 20.8131 105.605 20.6665 105.379 20.4392Z" fill="white"/>
<path d="M65.3359 43.3086V44.9944H56.2161V30.5105H58.0415V43.3086H65.3359Z" fill="white"/>
<path d="M74.4193 39.0865V40.4206H67.8112V40.5892C67.8112 41.4761 68.0449 42.1944 68.5195 42.7295C68.9868 43.2719 69.6367 43.5431 70.4691 43.5431C71.3015 43.5431 72.0608 43.2206 72.791 42.5682L73.8863 43.7923C72.959 44.6793 71.7907 45.1264 70.3814 45.1264C69.2205 45.1264 68.2347 44.7965 67.4169 44.1295C66.4896 43.3086 66.0296 41.8939 66.0296 39.8855C66.0296 37.8771 66.4969 36.5284 67.4388 35.6854C68.3077 34.9378 69.2716 34.564 70.323 34.564C71.4986 34.564 72.4697 34.9744 73.2437 35.7881C74.0323 36.609 74.4266 37.7085 74.4266 39.0939L74.4193 39.0865ZM67.8039 38.9839H72.6304C72.5866 38.0823 72.3602 37.386 71.9367 36.9022C71.5132 36.4184 70.9437 36.1765 70.2281 36.1765C69.5125 36.1765 68.9576 36.4258 68.5268 36.9169C68.096 37.408 67.855 38.097 67.8039 38.9839Z" fill="white"/>
<path d="M79.6838 34.5713C82.4439 34.5713 83.8312 35.6781 83.8312 37.8991V44.9944H82.108V44.1002L82.0861 44.0782C81.8817 44.3861 81.5166 44.6353 81.0055 44.8259C80.4943 45.0164 79.9102 45.1191 79.2457 45.1191C78.114 45.1191 77.2232 44.8405 76.5733 44.2761C75.9235 43.7117 75.6022 42.9787 75.6022 42.0625C75.6022 41.1462 75.8942 40.4499 76.4711 39.8782C77.0479 39.3064 77.8511 39.0279 78.8733 39.0279H82.108V37.8624C82.108 36.741 81.3194 36.1765 79.7423 36.1765C78.6105 36.1765 77.7927 36.4771 77.2962 37.0708L76.2155 35.9273C76.9895 35.0257 78.1432 34.5786 79.6765 34.5786L79.6838 34.5713ZM77.2159 41.9599C77.2159 42.4583 77.4057 42.8541 77.7854 43.1326C78.1651 43.4185 78.72 43.5578 79.4575 43.5578C81.2245 43.5578 82.108 42.9201 82.108 41.6447V40.4352H79.2895C78.6251 40.4352 78.114 40.5672 77.7562 40.831C77.3984 41.0949 77.2159 41.4688 77.2159 41.9525V41.9599Z" fill="white"/>
<path d="M90.1108 43.4551V44.9944H88.8914C88.1758 44.9944 87.599 44.7818 87.1609 44.3494C86.7228 43.9169 86.511 43.3305 86.511 42.5829V36.1545H85.2916V34.6739H86.511V32.1157H88.2123V34.6739H89.7895V36.1545H88.2123V42.1651C88.2123 43.0227 88.5482 43.4551 89.2273 43.4551H90.1181H90.1108Z" fill="white"/>
<path d="M99.9316 38.1483V44.9944H98.2303V38.8153C98.2303 37.9577 98.055 37.3127 97.7045 36.8875C97.3541 36.4624 96.7772 36.2498 95.974 36.2498C95.2585 36.2498 94.6597 36.4844 94.1924 36.9608C93.7251 37.4373 93.4841 38.053 93.4841 38.8153V44.9944H91.7828V29.8875H93.4841V35.964H93.5499C94.2654 35.0331 95.222 34.5713 96.4121 34.5713C97.4782 34.5713 98.3325 34.8865 98.9751 35.5095C99.6176 36.1326 99.9389 37.0121 99.9389 38.1483H99.9316Z" fill="white"/>
<path d="M110.001 39.0865V40.4206H103.393V40.5892C103.393 41.4761 103.626 42.1944 104.101 42.7295C104.568 43.2719 105.218 43.5431 106.05 43.5431C106.883 43.5431 107.642 43.2206 108.372 42.5682L109.468 43.7923C108.54 44.6793 107.372 45.1264 105.963 45.1264C104.802 45.1264 103.816 44.7965 102.998 44.1295C102.071 43.3086 101.611 41.8939 101.611 39.8855C101.611 37.8771 102.078 36.5284 103.02 35.6854C103.889 34.9378 104.853 34.564 105.904 34.564C107.08 34.564 108.051 34.9744 108.825 35.7881C109.614 36.609 110.008 37.7085 110.008 39.0939L110.001 39.0865ZM103.393 38.9839H108.219C108.175 38.0823 107.949 37.386 107.525 36.9022C107.102 36.4184 106.532 36.1765 105.817 36.1765C105.101 36.1765 104.546 36.4258 104.116 36.9169C103.685 37.408 103.444 38.097 103.393 38.9839Z" fill="white"/>
<path d="M118.084 35.0111L117.361 36.653C116.974 36.3891 116.492 36.2572 115.908 36.2572C115.192 36.2572 114.623 36.4771 114.199 36.9095C113.776 37.3493 113.564 37.9577 113.564 38.7494V44.9944H111.863V34.6739H113.564V35.986H113.644C114.294 35.0404 115.192 34.5713 116.339 34.5713C117.054 34.5713 117.638 34.7179 118.076 35.0111H118.084Z" fill="white"/>
<path d="M21.9344 44.9943C25.7898 44.9943 29.4114 44.0048 32.5658 42.2676H11.3031C14.4575 44.0048 18.0791 44.9943 21.9344 44.9943Z" fill="white"/>
<path d="M21.9344 0.457764C18.0791 0.457764 14.4502 1.4473 11.2885 3.1845H32.5731C29.4114 1.4473 25.7898 0.457764 21.9271 0.457764H21.9344Z" fill="white"/>
<path d="M10.1421 12.2736H25.3589H41.525C40.8386 10.9835 40.0354 9.77407 39.1227 8.64526H17.7724H17.7578C16.3121 8.64526 14.9612 8.98977 13.7273 9.55417H4.07435C3.64355 10.1406 3.24196 10.7416 2.86957 11.372H11.0694C10.7554 11.6725 10.4196 11.9511 10.1421 12.2809V12.2736Z" fill="white"/>
<path d="M7.9881 20.4538H33.6756C33.3982 20.1239 33.0623 19.838 32.7483 19.5448H43.8688C43.7812 18.9291 43.679 18.3208 43.5403 17.727H30.0978C28.8638 17.1626 27.5056 16.8181 26.0599 16.8181H7.9881C7.93699 17.1113 7.92969 17.4192 7.90048 17.727H0.328578C0.189845 18.3208 0.0876209 18.9291 0 19.5448H7.90048C7.92969 19.8454 7.93699 20.1606 7.9881 20.4538Z" fill="white"/>
<path d="M33.6756 33.1858H2.35114C3.0375 34.4759 3.84069 35.6926 4.76071 36.8214H26.0672C27.5129 36.8214 28.871 36.4769 30.105 35.9125H39.7872C40.218 35.3261 40.6195 34.7251 40.9919 34.0947H32.7556C33.0695 33.8015 33.4054 33.523 33.6829 33.1858H33.6756Z" fill="white"/>
<path d="M35.8296 25.0056H10.1494C10.4269 25.3355 10.7628 25.614 11.0767 25.9145H0C0.0876209 26.5302 0.189845 27.1313 0.328578 27.7323H13.7127C14.9467 28.3041 16.3121 28.6413 17.7651 28.6413H35.8296C35.8807 28.3481 35.888 28.0329 35.9173 27.7323H43.533C43.6717 27.1386 43.7739 26.5302 43.8615 25.9145H35.9173C35.888 25.614 35.8807 25.2988 35.8296 25.0056Z" fill="white"/>
</svg>
