<svg width="128" height="58" viewBox="0 0 128 58" fill="none" xmlns="http://www.w3.org/2000/svg">
<g id="Group">
<g id="Group_2">
<path id="Vector" d="M13.1534 55.8378C12.8657 55.8378 12.6129 55.8029 12.3775 55.7158C12.1508 55.6286 11.959 55.5153 11.8108 55.3758C11.6626 55.2363 11.5319 55.0619 11.4273 54.8527C11.3226 54.6522 11.2529 54.4343 11.2093 54.2163C11.157 53.9984 11.1483 53.763 11.1483 53.5102V51.1564H11.8806V53.5102C11.8806 53.6845 11.898 53.8502 11.9154 54.0158C11.9416 54.164 11.9765 54.3209 12.0462 54.4691C12.1073 54.6086 12.1857 54.7394 12.2903 54.8353C12.3775 54.9399 12.5083 55.0271 12.6565 55.0881C12.8047 55.1491 12.9703 55.1753 13.1621 55.1753C13.3539 55.1753 13.5195 55.1491 13.6677 55.0881C13.8159 55.0271 13.9292 54.9399 14.0338 54.8353C14.121 54.7307 14.2082 54.6086 14.2605 54.4517C14.3215 54.3122 14.3651 54.164 14.3826 53.9984C14.4087 53.8502 14.4174 53.6845 14.4174 53.5015V51.1477H15.1672V53.5015C15.1672 53.8327 15.1323 54.1379 15.0538 54.3994C14.9754 54.6784 14.862 54.9225 14.6964 55.1317C14.5482 55.3496 14.3303 55.524 14.06 55.6373C13.7898 55.7594 13.4934 55.8117 13.1447 55.8117" fill="white"/>
<path id="Vector_2" d="M18.1835 52.5164V55.8117H17.4512V51.1477H18.0614L20.6942 54.5214V51.1477H21.4439V55.8117H20.7988L18.1922 52.5164H18.1835Z" fill="white"/>
<path id="Vector_3" d="M24.5299 51.1477H23.7976V55.8117H24.5299V51.1477Z" fill="white"/>
<path id="Vector_4" d="M28.2349 51.1476H28.9323L30.7456 55.8116H29.9698L29.4728 54.5475H27.677L27.1801 55.8116H26.3955L28.2175 51.1476H28.2349ZM28.1477 50.2758C28.0867 50.2758 28.017 50.2845 27.9734 50.3281C27.9211 50.3543 27.8949 50.3892 27.8688 50.4327C27.8426 50.4676 27.8339 50.5112 27.8339 50.5374V50.5984H27.4329C27.4329 50.5984 27.4329 50.5199 27.4591 50.4763C27.4678 50.4153 27.494 50.3456 27.5375 50.2845C27.5724 50.2061 27.616 50.1451 27.6683 50.084C27.7206 50.023 27.7816 49.9707 27.8688 49.9184C27.9559 49.8835 28.0431 49.8574 28.1477 49.8574C28.2611 49.8574 28.3657 49.8835 28.4529 49.9358C28.5575 49.9881 28.6447 50.0405 28.7319 50.0753C28.819 50.1276 28.9062 50.1538 28.9934 50.1538C29.0544 50.1538 29.1067 50.1538 29.159 50.1189C29.2113 50.0928 29.2375 50.0666 29.2636 50.0405C29.2898 50.0143 29.3159 49.9794 29.3247 49.9533C29.3421 49.9271 29.3508 49.8923 29.3508 49.8748V49.8225H29.7693C29.7693 49.8225 29.7692 49.8835 29.7431 49.9533C29.7344 50.0056 29.7082 50.0666 29.6646 50.1451C29.6297 50.2235 29.5775 50.2845 29.5251 50.3456C29.4728 50.4066 29.3944 50.4589 29.3072 50.5112C29.22 50.5635 29.1154 50.5722 29.0021 50.5722C28.8888 50.5722 28.7754 50.5461 28.6708 50.4938C28.5662 50.4415 28.4703 50.4066 28.3919 50.3543C28.3047 50.302 28.2262 50.2758 28.1477 50.2758ZM29.3247 53.9983L28.5749 51.9583L27.7991 53.9983H29.3159H29.3247Z" fill="white"/>
<path id="Vector_5" d="M32.1579 53.4841C32.1579 53.179 32.2102 52.8738 32.3323 52.5949C32.4456 52.3072 32.6025 52.0457 32.803 51.8364C32.9948 51.6185 33.2302 51.4441 33.5092 51.3134C33.7881 51.1826 34.0758 51.1216 34.3984 51.1216C34.7209 51.1216 35.0173 51.1826 35.3137 51.3221C35.5927 51.4616 35.8368 51.6359 36.0198 51.8626C36.2116 52.0892 36.3598 52.3421 36.4645 52.621C36.5778 52.9 36.6301 53.1877 36.6301 53.4841C36.6301 53.7805 36.5691 54.0943 36.4557 54.3733C36.3424 54.661 36.1854 54.9051 35.9849 55.123C35.7932 55.3409 35.5578 55.5153 35.2788 55.6461C34.9998 55.7681 34.6948 55.8378 34.3896 55.8378C34.1281 55.8378 33.884 55.803 33.6399 55.7071C33.3958 55.6199 33.1953 55.5066 33.021 55.3497C32.8466 55.2015 32.6897 55.0184 32.5502 54.8179C32.4195 54.6174 32.3235 54.3994 32.2451 54.1728C32.1841 53.9461 32.1405 53.702 32.1405 53.4754M34.3809 55.1753C34.6076 55.1753 34.8081 55.123 34.9999 55.0184C35.1917 54.9138 35.3399 54.7917 35.4706 54.6261C35.6014 54.4605 35.6886 54.2861 35.7496 54.0856C35.8106 53.8851 35.8542 53.6759 35.8542 53.4666C35.8542 53.2574 35.8193 53.0308 35.7496 52.8302C35.6711 52.6297 35.584 52.4467 35.4619 52.2898C35.3311 52.1415 35.183 52.0108 34.9912 51.9062C34.7994 51.819 34.5989 51.7667 34.3809 51.7667C34.163 51.7667 33.9537 51.819 33.7619 51.9149C33.5702 52.0108 33.4045 52.1415 33.2912 52.2985C33.1692 52.4554 33.0733 52.6385 33.0035 52.839C32.9425 53.0395 32.8989 53.2487 32.8989 53.4579C32.8989 53.7456 32.9599 54.0246 33.0733 54.2774C33.1866 54.5302 33.3609 54.7481 33.5963 54.9138C33.823 55.0794 34.0932 55.1579 34.3809 55.1579" fill="white"/>
<path id="Vector_6" d="M44.8159 55.1579V55.8204H41.6253V51.1565H44.7636V51.8016H42.3576V53.1354H44.4324V53.7456H42.3576V55.1666H44.8159V55.1579Z" fill="white"/>
<path id="Vector_7" d="M49.8286 55.8117V51.1477H51.8598C52.0604 51.1477 52.2521 51.2 52.4439 51.2698C52.6357 51.3569 52.7839 51.4703 52.8973 51.6097C53.028 51.7492 53.1239 51.9149 53.1849 52.0892C53.2634 52.2636 53.2983 52.4554 53.2983 52.6471C53.2983 52.961 53.2111 53.2574 53.0454 53.5102C52.8798 53.763 52.6532 53.9374 52.3829 54.0333L53.4813 55.8029H52.6619L51.6506 54.1815H50.5784V55.8029H49.8286V55.8117ZM50.5609 53.5451H51.8511C52.0516 53.5451 52.2173 53.4579 52.3568 53.2923C52.4875 53.1266 52.5572 52.9087 52.5572 52.6733C52.5572 52.4379 52.4788 52.2287 52.3306 52.0631C52.1824 51.8974 51.9993 51.8103 51.8075 51.8103H50.5696V53.5451H50.5522H50.5609Z" fill="white"/>
<path id="Vector_8" d="M58.6596 55.1579V55.8204H55.469V51.1565H58.616V51.8016H56.2099V53.1354H58.2848V53.7456H56.2099V55.1666H58.6683L58.6596 55.1579Z" fill="white"/>
<path id="Vector_9" d="M62.6 51.1304C63.0097 51.1304 63.3584 51.2175 63.6723 51.4093C63.9774 51.6011 64.2128 51.8365 64.3697 52.1416L63.8031 52.5339C63.742 52.3944 63.6636 52.2811 63.5764 52.1765C63.4718 52.0719 63.3759 52.0021 63.2713 51.9498C63.158 51.8975 63.0446 51.8627 62.9313 51.8365C62.818 51.8104 62.7046 51.8016 62.5913 51.8016C62.3995 51.8016 62.2252 51.8365 62.0595 51.9062C61.8939 51.976 61.7544 52.0544 61.6411 52.1591C61.5278 52.2724 61.4231 52.4032 61.3534 52.5426C61.2749 52.6821 61.2139 52.8303 61.1616 52.996C61.1267 53.1616 61.1006 53.3272 61.1006 53.4929C61.1006 53.798 61.1616 54.0769 61.2924 54.3385C61.4231 54.6087 61.5975 54.8092 61.8328 54.9749C62.0595 55.1405 62.3298 55.219 62.6087 55.219C62.7744 55.219 62.9226 55.1928 63.0795 55.1405C63.2277 55.0882 63.3846 55.001 63.5241 54.8877C63.6636 54.7744 63.7769 54.6174 63.8554 54.4431L64.4656 54.7831C64.3784 55.0097 64.2215 55.2015 64.021 55.3672C63.8205 55.5328 63.5938 55.6548 63.341 55.7507C63.0882 55.8379 62.8441 55.8815 62.5913 55.8815C62.2774 55.8815 61.9811 55.803 61.6934 55.6636C61.4144 55.5241 61.1703 55.3497 60.9873 55.1231C60.7955 54.8964 60.6473 54.6436 60.5339 54.3472C60.4206 54.0595 60.3683 53.7631 60.3683 53.4754C60.3683 53.2488 60.4032 53.0221 60.4729 52.8042C60.5339 52.5775 60.6385 52.3683 60.7606 52.1678C60.8914 51.9673 61.0395 51.8016 61.2139 51.6447C61.3882 51.4878 61.6062 51.3745 61.8503 51.2873C62.0944 51.2001 62.3559 51.1478 62.6262 51.1478" fill="white"/>
<path id="Vector_10" d="M66.0871 53.4841C66.0871 53.179 66.1481 52.8738 66.2614 52.5949C66.3748 52.3072 66.5229 52.0457 66.7322 51.8364C66.924 51.6185 67.1593 51.4441 67.4383 51.3134C67.7173 51.1826 68.0224 51.1216 68.3275 51.1216C68.6326 51.1216 68.9465 51.1826 69.2429 51.3221C69.5218 51.4616 69.7659 51.6359 69.949 51.8626C70.1408 52.0892 70.289 52.3421 70.3936 52.621C70.5069 52.9 70.5592 53.1877 70.5592 53.4841C70.5592 53.7805 70.4982 54.0943 70.3849 54.3733C70.2715 54.661 70.1234 54.9051 69.9141 55.123C69.7223 55.3409 69.487 55.5153 69.208 55.6461C68.929 55.7681 68.6239 55.8378 68.3188 55.8378C68.0573 55.8378 67.8132 55.803 67.5691 55.7071C67.3424 55.6199 67.1245 55.5066 66.9501 55.3497C66.7758 55.2015 66.6189 55.0184 66.4794 54.8179C66.3486 54.6174 66.2527 54.3994 66.1742 54.1728C66.1132 53.9461 66.0696 53.702 66.0696 53.4754M68.3101 55.1753C68.5367 55.1753 68.7372 55.123 68.929 55.0184C69.1208 54.9138 69.269 54.7917 69.3998 54.6261C69.5305 54.4605 69.6177 54.2861 69.6787 54.0856C69.7398 53.8851 69.7833 53.6759 69.7833 53.4666C69.7833 53.2574 69.7485 53.0308 69.6787 52.8302C69.6003 52.6297 69.5131 52.4467 69.391 52.2898C69.2603 52.1415 69.1121 52.0108 68.9203 51.9062C68.7285 51.819 68.528 51.7667 68.3101 51.7667C68.0921 51.7667 67.8829 51.819 67.6911 51.9149C67.4993 52.0195 67.3337 52.1415 67.2203 52.2985C67.0896 52.4554 67.0024 52.6385 66.9327 52.839C66.8716 53.0395 66.828 53.2487 66.828 53.4579C66.828 53.7456 66.8891 54.0246 67.0024 54.2774C67.1157 54.5302 67.2988 54.7481 67.5255 54.9138C67.7522 55.0794 68.0224 55.1579 68.3101 55.1579" fill="white"/>
<path id="Vector_11" d="M73.3663 52.5164V55.8117H72.6341V51.1477H73.2269L75.877 54.5214V51.1477H76.6093V55.8117H75.9642L73.3663 52.5164Z" fill="white"/>
<path id="Vector_12" d="M81.7353 52.2375C81.6307 52.1242 81.465 52.0196 81.2122 51.9237C80.9681 51.8191 80.7153 51.7667 80.4625 51.7667C80.1574 51.7667 79.9308 51.8278 79.7826 51.9324C79.6344 52.0457 79.5559 52.2026 79.5559 52.4031C79.5559 52.4642 79.5559 52.5339 79.582 52.5775C79.5907 52.6298 79.6169 52.6821 79.6431 52.717C79.6692 52.7518 79.7041 52.7954 79.7564 52.8303C79.8087 52.8652 79.861 52.8913 79.9046 52.9175C79.9569 52.9436 80.0353 52.9698 80.1225 52.9959C80.2097 53.0221 80.2969 53.0482 80.3754 53.0744C80.4538 53.1006 80.5497 53.1267 80.6805 53.1529C80.881 53.2052 81.064 53.2575 81.2122 53.2923C81.3604 53.3272 81.4999 53.397 81.6307 53.4667C81.7702 53.5452 81.8748 53.6149 81.962 53.7195C82.0404 53.8067 82.1014 53.92 82.1538 54.0508C82.2061 54.1728 82.2322 54.3297 82.2322 54.4954C82.2322 54.6872 82.206 54.8528 82.145 55.001C82.084 55.1579 82.0056 55.28 81.901 55.3846C81.7963 55.4892 81.6743 55.5764 81.5348 55.6374C81.3953 55.7159 81.2297 55.7594 81.064 55.7856C80.8984 55.8117 80.7241 55.8379 80.5323 55.8379C80.1749 55.8379 79.8349 55.7856 79.5036 55.6723C79.1723 55.5677 78.8672 55.402 78.6057 55.2015L78.9457 54.5651C79.0851 54.7046 79.3031 54.8354 79.6082 54.9661C79.9133 55.0969 80.2272 55.1579 80.5497 55.1579C80.8374 55.1579 81.0728 55.1056 81.221 55.0097C81.3692 54.9051 81.4651 54.7569 81.4651 54.5651C81.4651 54.4867 81.465 54.4169 81.4302 54.3472C81.404 54.2862 81.3692 54.2339 81.2994 54.1815C81.2384 54.1292 81.1861 54.0769 81.1251 54.0508C81.064 54.0159 80.9769 53.9723 80.8723 53.9375C80.7589 53.9026 80.6543 53.859 80.5671 53.8328C80.48 53.8067 80.3492 53.7718 80.1835 53.7282C79.9307 53.6672 79.7302 53.5975 79.5733 53.5364C79.4251 53.4754 79.2682 53.3882 79.1549 53.2923C79.0241 53.1877 78.9369 53.0918 78.8933 52.9524C78.841 52.8216 78.8062 52.6647 78.8062 52.4816C78.8062 52.2549 78.841 52.0457 78.9369 51.8714C79.0241 51.697 79.1375 51.5401 79.2944 51.4268C79.4426 51.3134 79.6256 51.2263 79.8261 51.1565C80.0267 51.0955 80.2533 51.0693 80.4974 51.0693C81.0641 51.0693 81.5871 51.2437 82.0666 51.5924L81.7353 52.2026H81.7527L81.7353 52.2375Z" fill="white"/>
<path id="Vector_13" d="M87.7156 51.8016H86.1726V55.8204H85.4229V51.8016H83.8624V51.1565H87.7156V51.8016Z" fill="white"/>
<path id="Vector_14" d="M89.651 55.8117V51.1477H91.6821C91.8827 51.1477 92.0745 51.2 92.2663 51.2698C92.4581 51.3569 92.6062 51.4703 92.7196 51.6097C92.8503 51.7492 92.9462 51.9149 93.0073 52.0892C93.0857 52.2636 93.1206 52.4554 93.1206 52.6471C93.1206 52.961 93.0334 53.2574 92.8677 53.5102C92.7021 53.763 92.4755 53.9374 92.2052 54.0333L93.2949 55.8029H92.4668L91.4555 54.1815H90.3745V55.8029H89.6422L89.651 55.8117ZM90.3832 53.5451H91.6734C91.8739 53.5451 92.0396 53.4579 92.1791 53.2923C92.3011 53.1266 92.3796 52.9087 92.3796 52.6733C92.3796 52.4379 92.3011 52.2287 92.1529 52.0631C92.0047 51.8974 91.8391 51.8103 91.6298 51.8103H90.3919V53.5451H90.3832Z" fill="white"/>
<path id="Vector_15" d="M97.2353 55.8378C96.9476 55.8378 96.6949 55.8029 96.4595 55.7158C96.2328 55.6286 96.041 55.5153 95.8928 55.3758C95.7446 55.2363 95.6138 55.0619 95.5092 54.8527C95.4046 54.6522 95.3349 54.4343 95.2913 54.2163C95.239 53.9984 95.2303 53.763 95.2303 53.5102V51.1564H95.9626V53.5102C95.9626 53.6845 95.98 53.8502 95.9974 54.0158C96.0236 54.164 96.0759 54.3209 96.1195 54.4691C96.1805 54.6086 96.2589 54.7394 96.3635 54.8353C96.4507 54.9399 96.5815 55.0271 96.7297 55.0881C96.8779 55.1491 97.0435 55.1753 97.2353 55.1753C97.4271 55.1753 97.5927 55.1491 97.7409 55.0881C97.8891 55.0271 98.0025 54.9399 98.1071 54.8353C98.1943 54.7307 98.2814 54.6086 98.3337 54.4517C98.3948 54.3122 98.4384 54.164 98.4645 53.9984C98.4907 53.8502 98.4994 53.6845 98.4994 53.5015V51.1477H99.2491V53.5015C99.2491 53.8327 99.2142 54.1379 99.1358 54.3994C99.0573 54.6784 98.944 54.9225 98.7784 55.1317C98.6302 55.3496 98.4122 55.524 98.142 55.6373C97.8717 55.7594 97.5753 55.8117 97.2266 55.8117" fill="white"/>
<path id="Vector_16" d="M105.343 54.7656C105.229 55.0533 105.012 55.2886 104.724 55.4717C104.436 55.6548 104.114 55.7768 103.765 55.8291C103.992 56.0209 104.105 56.2214 104.105 56.4655C104.105 56.6573 104.044 56.8055 103.913 56.9101C103.782 57.0234 103.608 57.0758 103.381 57.0758C103.12 57.0758 102.85 57.0147 102.605 56.884L102.78 56.4917C102.945 56.5788 103.094 56.6312 103.251 56.6312C103.373 56.6312 103.468 56.605 103.538 56.5527C103.608 56.5004 103.643 56.4219 103.643 56.326C103.643 56.1517 103.529 55.9948 103.285 55.8466C102.998 55.8204 102.719 55.7332 102.449 55.5937C102.196 55.4455 101.969 55.2625 101.786 55.0358C101.612 54.8092 101.472 54.5651 101.367 54.2861C101.263 54.0071 101.219 53.7282 101.219 53.4492C101.219 53.2225 101.254 52.9959 101.324 52.7779C101.385 52.5513 101.49 52.3508 101.62 52.1415C101.742 51.9498 101.899 51.7754 102.074 51.6185C102.248 51.4703 102.466 51.3482 102.71 51.2523C102.954 51.1652 103.216 51.1216 103.486 51.1216C103.887 51.1216 104.244 51.2088 104.567 51.4005C104.872 51.5923 105.107 51.8277 105.264 52.1328L104.68 52.5251C104.619 52.3856 104.541 52.2723 104.454 52.1677C104.366 52.0631 104.253 51.9933 104.148 51.941C104.035 51.8887 103.922 51.8364 103.817 51.819C103.713 51.7928 103.591 51.7841 103.477 51.7841C103.285 51.7841 103.111 51.819 102.954 51.8887C102.788 51.9498 102.649 52.0369 102.536 52.159C102.422 52.2723 102.318 52.4031 102.231 52.5426C102.152 52.6908 102.091 52.8477 102.056 52.9959C102.021 53.1615 101.995 53.3097 101.995 53.4754C101.995 53.7805 102.056 54.0594 102.187 54.321C102.318 54.5912 102.492 54.7917 102.727 54.9574C102.954 55.123 103.224 55.2015 103.503 55.2015C103.652 55.2015 103.817 55.1753 103.974 55.123C104.122 55.0707 104.279 54.9835 104.419 54.8702C104.558 54.7569 104.671 54.5999 104.75 54.4256L105.36 54.7656H105.343Z" fill="white"/>
<path id="Vector_17" d="M108.621 51.1476H109.318L111.131 55.8116H110.355L109.859 54.5475H108.054L107.574 55.8116H106.79L108.612 51.1476H108.621ZM108.533 50.2758C108.455 50.2758 108.403 50.2845 108.359 50.3281C108.307 50.3543 108.281 50.3892 108.254 50.4327C108.228 50.4676 108.22 50.5112 108.22 50.5374V50.5984H107.81C107.81 50.5984 107.81 50.5199 107.836 50.4763C107.845 50.4153 107.871 50.3456 107.914 50.2845C107.949 50.2061 107.993 50.1451 108.037 50.084C108.089 50.023 108.15 49.9707 108.237 49.9184C108.324 49.8835 108.411 49.8574 108.516 49.8574C108.629 49.8574 108.734 49.8835 108.821 49.9358C108.926 49.9881 109.013 50.0405 109.1 50.0753C109.187 50.1276 109.274 50.1538 109.37 50.1538C109.431 50.1538 109.484 50.1538 109.536 50.1189C109.588 50.0928 109.614 50.0666 109.641 50.0405C109.667 50.0143 109.693 49.9794 109.702 49.9533C109.71 49.9271 109.728 49.8923 109.728 49.8748V49.8225H110.146C110.146 49.8225 110.146 49.8835 110.12 49.9533C110.111 50.0056 110.085 50.0666 110.042 50.1451C110.007 50.2235 109.954 50.2845 109.902 50.3456C109.85 50.4066 109.771 50.4589 109.684 50.5112C109.597 50.5635 109.492 50.5722 109.379 50.5722C109.266 50.5722 109.152 50.5461 109.048 50.4938C108.943 50.4415 108.847 50.4066 108.769 50.3543C108.682 50.302 108.603 50.2758 108.525 50.2758M109.702 53.9983L108.952 51.9583L108.176 53.9983H109.693H109.702Z" fill="white"/>
<path id="Vector_18" d="M112.535 53.4841C112.535 53.179 112.596 52.8738 112.709 52.5949C112.822 52.3072 112.971 52.0457 113.18 51.8364C113.38 51.6185 113.607 51.4441 113.886 51.3134C114.165 51.1826 114.47 51.1216 114.775 51.1216C115.08 51.1216 115.394 51.1826 115.673 51.3221C115.952 51.4616 116.196 51.6359 116.379 51.8626C116.571 52.0892 116.719 52.3421 116.824 52.621C116.937 52.9 116.99 53.1877 116.99 53.4841C116.99 53.7805 116.929 54.0943 116.815 54.3733C116.702 54.661 116.545 54.9051 116.344 55.123C116.153 55.3409 115.917 55.5153 115.638 55.6461C115.359 55.7681 115.054 55.8378 114.749 55.8378C114.488 55.8378 114.244 55.803 113.999 55.7071C113.773 55.6199 113.555 55.5066 113.38 55.3497C113.206 55.2015 113.049 55.0184 112.91 54.8179C112.788 54.6174 112.683 54.3994 112.605 54.1728C112.544 53.9461 112.5 53.702 112.5 53.4754M114.74 55.1753C114.967 55.1753 115.168 55.123 115.359 55.0184C115.551 54.9138 115.699 54.7917 115.83 54.6261C115.961 54.4605 116.048 54.2861 116.109 54.0856C116.17 53.8851 116.214 53.6759 116.214 53.4666C116.214 53.2574 116.179 53.0308 116.109 52.8302C116.031 52.6297 115.943 52.4467 115.821 52.2898C115.691 52.1415 115.542 52.0108 115.351 51.9062C115.159 51.819 114.958 51.7667 114.74 51.7667C114.522 51.7667 114.313 51.819 114.121 51.9149C113.93 52.0195 113.764 52.1415 113.651 52.2985C113.52 52.4554 113.433 52.6385 113.363 52.839C113.302 53.0395 113.258 53.2487 113.258 53.4579C113.258 53.7456 113.319 54.0246 113.433 54.2774C113.546 54.5302 113.72 54.7481 113.956 54.9138C114.182 55.0794 114.453 55.1579 114.74 55.1579" fill="white"/>
<path id="Vector_19" d="M17.0414 2.8868V3.34012C17.0414 5.18827 15.8035 6.39131 14.1646 6.39131C12.4124 6.39131 11.0437 5.03135 11.0437 3.28782C11.0437 1.54428 12.4123 0.184326 14.1472 0.184326C15.2369 0.184326 16.2394 0.742257 16.7974 1.65761L15.4461 2.46836C15.1846 1.9976 14.6964 1.73607 14.1384 1.73607C13.2667 1.73607 12.639 2.40733 12.639 3.32269C12.639 4.23804 13.258 4.857 14.1559 4.857C14.7748 4.857 15.1846 4.54316 15.3241 4.15958H13.7287V2.89552H17.0327L17.0414 2.8868Z" fill="white"/>
<path id="Vector_20" d="M19.2383 3.28782C19.2383 1.56172 20.6157 0.184326 22.3593 0.184326C24.1028 0.184326 25.4627 1.56172 25.4627 3.28782C25.4627 5.01392 24.0854 6.39131 22.3593 6.39131C20.6332 6.39131 19.2383 5.01392 19.2383 3.28782ZM23.7366 3.28782C23.7366 2.45092 23.1438 1.81453 22.3593 1.81453C21.5747 1.81453 20.9557 2.45092 20.9557 3.28782C20.9557 4.12471 21.5659 4.7611 22.3593 4.7611C23.1526 4.7611 23.7366 4.12471 23.7366 3.28782Z" fill="white"/>
<path id="Vector_21" d="M33.1779 0.32373L30.8503 6.25175H29.2549L26.9622 0.32373H28.6882L30.0744 3.97644L31.4692 0.32373H33.1953H33.1779Z" fill="white"/>
<path id="Vector_22" d="M36.8654 1.77086V2.66007H38.6177V3.92413H36.8654V4.81333H39.4982V6.26047H35.2527V0.32373H39.4982V1.77086H36.8654Z" fill="white"/>
<path id="Vector_23" d="M44.2231 4.20309H43.5519V6.25175H41.9653V0.32373H44.8421C46.0103 0.32373 46.8908 1.14319 46.8908 2.25034C46.8908 3.00877 46.481 3.62773 45.8533 3.97644L47.1697 6.26047H45.3913L44.2144 4.21181L44.2231 4.20309ZM43.5519 2.84314H44.6678C45.0513 2.84314 45.278 2.57289 45.278 2.30264C45.278 2.03239 45.0513 1.74471 44.6678 1.74471H43.5519V2.84314Z" fill="white"/>
<path id="Vector_24" d="M54.6931 0.32373V6.25175H53.3418L50.9619 3.13082V6.25175H49.3753V0.32373H50.7178L53.1239 3.45337V0.32373H54.6931Z" fill="white"/>
<path id="Vector_25" d="M56.9946 3.28782C56.9946 1.56172 58.372 0.184326 60.1155 0.184326C61.859 0.184326 63.219 1.56172 63.219 3.28782C63.219 5.01392 61.8416 6.39131 60.1155 6.39131C58.3894 6.39131 56.9946 5.01392 56.9946 3.28782ZM61.4929 3.28782C61.4929 2.45092 60.9001 1.81453 60.1155 1.81453C59.3309 1.81453 58.7119 2.45092 58.7119 3.28782C58.7119 4.12471 59.3222 4.7611 60.1155 4.7611C60.9088 4.7611 61.4929 4.12471 61.4929 3.28782Z" fill="white"/>
<path id="Vector_26" d="M71.0387 1.74471V2.74724H72.791V4.1072H71.0387V6.26047H69.4434V0.32373H73.6889V1.74471H71.0387Z" fill="white"/>
<path id="Vector_27" d="M77.6903 1.77086V2.66007H79.4425V3.92413H77.6903V4.81333H80.3404V6.26047H76.0862V0.32373H80.3404V1.77086H77.6903Z" fill="white"/>
<path id="Vector_28" d="M88.3869 3.28774C88.3869 4.98769 87.0269 6.25175 85.2224 6.25175H82.7988V0.32373H85.2224C87.0356 0.32373 88.3869 1.58779 88.3869 3.28774ZM86.7305 3.28774C86.7305 2.42469 86.0854 1.86676 85.1439 1.86676H84.4204V4.70872H85.1439C86.0854 4.70872 86.7305 4.15079 86.7305 3.28774Z" fill="white"/>
<path id="Vector_29" d="M92.3011 1.77086V2.66007H94.0359V3.92413H92.3011V4.81333H94.9339V6.26047H90.6883V0.32373H94.9339V1.77086H92.3011Z" fill="white"/>
<path id="Vector_30" d="M99.6676 4.20309H98.9963V6.25175H97.4097V0.32373H100.286C101.455 0.32373 102.344 1.14319 102.344 2.25034C102.344 3.00877 101.934 3.62773 101.306 3.97644L102.623 6.26047H100.853L99.6763 4.21181L99.6676 4.20309ZM98.9963 2.84314H100.112C100.496 2.84314 100.722 2.57289 100.722 2.30264C100.722 2.03239 100.496 1.74471 100.112 1.74471H98.9963V2.84314Z" fill="white"/>
<path id="Vector_31" d="M108.786 5.2404H106.441L106.031 6.26908H104.358L106.842 0.341064H108.359L110.87 6.26908H109.213L108.795 5.2404H108.786ZM108.202 3.83685L107.609 2.381L107.017 3.83685H108.211H108.202Z" fill="white"/>
<path id="Vector_32" d="M117.129 4.73487V6.25175H112.945V0.32373H114.627V4.73487H117.12H117.129Z" fill="white"/>
<path id="Vector_33" d="M17.0414 2.8868V3.34012C17.0414 5.18827 15.8035 6.39131 14.1646 6.39131C12.4124 6.39131 11.0437 5.03135 11.0437 3.28782C11.0437 1.54428 12.4123 0.184326 14.1472 0.184326C15.2369 0.184326 16.2394 0.742257 16.7974 1.65761L15.4461 2.46836C15.1846 1.9976 14.6964 1.73607 14.1384 1.73607C13.2667 1.73607 12.639 2.40733 12.639 3.32269C12.639 4.23804 13.258 4.857 14.1559 4.857C14.7748 4.857 15.1846 4.54316 15.3241 4.15958H13.7287V2.89552H17.0327L17.0414 2.8868Z" fill="white"/>
<path id="Vector_34" d="M19.2383 3.28782C19.2383 1.56172 20.6157 0.184326 22.3593 0.184326C24.1028 0.184326 25.4627 1.56172 25.4627 3.28782C25.4627 5.01392 24.0854 6.39131 22.3593 6.39131C20.6332 6.39131 19.2383 5.01392 19.2383 3.28782ZM23.7366 3.28782C23.7366 2.45092 23.1438 1.81453 22.3593 1.81453C21.5747 1.81453 20.9557 2.45092 20.9557 3.28782C20.9557 4.12471 21.5659 4.7611 22.3593 4.7611C23.1526 4.7611 23.7366 4.12471 23.7366 3.28782Z" fill="white"/>
<path id="Vector_35" d="M33.1779 0.32373L30.8503 6.25175H29.2549L26.9622 0.32373H28.6882L30.0744 3.97644L31.4692 0.32373H33.1953H33.1779Z" fill="white"/>
<path id="Vector_36" d="M36.8654 1.77086V2.66007H38.6177V3.92413H36.8654V4.81333H39.4982V6.26047H35.2527V0.32373H39.4982V1.77086H36.8654Z" fill="white"/>
<path id="Vector_37" d="M44.2231 4.20309H43.5519V6.25175H41.9653V0.32373H44.8421C46.0103 0.32373 46.8908 1.14319 46.8908 2.25034C46.8908 3.00877 46.481 3.62773 45.8533 3.97644L47.1697 6.26047H45.3913L44.2144 4.21181L44.2231 4.20309ZM43.5519 2.84314H44.6678C45.0513 2.84314 45.278 2.57289 45.278 2.30264C45.278 2.03239 45.0513 1.74471 44.6678 1.74471H43.5519V2.84314Z" fill="white"/>
<path id="Vector_38" d="M54.6931 0.32373V6.25175H53.3418L50.9619 3.13082V6.25175H49.3753V0.32373H50.7178L53.1239 3.45337V0.32373H54.6931Z" fill="white"/>
<path id="Vector_39" d="M56.9946 3.28782C56.9946 1.56172 58.372 0.184326 60.1155 0.184326C61.859 0.184326 63.219 1.56172 63.219 3.28782C63.219 5.01392 61.8416 6.39131 60.1155 6.39131C58.3894 6.39131 56.9946 5.01392 56.9946 3.28782ZM61.4929 3.28782C61.4929 2.45092 60.9001 1.81453 60.1155 1.81453C59.3309 1.81453 58.7119 2.45092 58.7119 3.28782C58.7119 4.12471 59.3222 4.7611 60.1155 4.7611C60.9088 4.7611 61.4929 4.12471 61.4929 3.28782Z" fill="white"/>
<path id="Vector_40" d="M71.0387 1.74471V2.74724H72.791V4.1072H71.0387V6.26047H69.4434V0.32373H73.6889V1.74471H71.0387Z" fill="white"/>
<path id="Vector_41" d="M77.6903 1.77086V2.66007H79.4425V3.92413H77.6903V4.81333H80.3404V6.26047H76.0862V0.32373H80.3404V1.77086H77.6903Z" fill="white"/>
<path id="Vector_42" d="M88.3869 3.28774C88.3869 4.98769 87.0269 6.25175 85.2224 6.25175H82.7988V0.32373H85.2224C87.0356 0.32373 88.3869 1.58779 88.3869 3.28774ZM86.7305 3.28774C86.7305 2.42469 86.0854 1.86676 85.1439 1.86676H84.4204V4.70872H85.1439C86.0854 4.70872 86.7305 4.15079 86.7305 3.28774Z" fill="white"/>
<path id="Vector_43" d="M92.3011 1.77086V2.66007H94.0359V3.92413H92.3011V4.81333H94.9339V6.26047H90.6883V0.32373H94.9339V1.77086H92.3011Z" fill="white"/>
<path id="Vector_44" d="M99.6676 4.20309H98.9963V6.25175H97.4097V0.32373H100.286C101.455 0.32373 102.344 1.14319 102.344 2.25034C102.344 3.00877 101.934 3.62773 101.306 3.97644L102.623 6.26047H100.853L99.6763 4.21181L99.6676 4.20309ZM98.9963 2.84314H100.112C100.496 2.84314 100.722 2.57289 100.722 2.30264C100.722 2.03239 100.496 1.74471 100.112 1.74471H98.9963V2.84314Z" fill="white"/>
<path id="Vector_45" d="M108.786 5.2404H106.441L106.031 6.26908H104.358L106.842 0.341064H108.359L110.87 6.26908H109.213L108.795 5.2404H108.786ZM108.202 3.83685L107.609 2.381L107.017 3.83685H108.211H108.202Z" fill="white"/>
<path id="Vector_46" d="M117.129 4.73487V6.25175H112.945V0.32373H114.627V4.73487H117.12H117.129Z" fill="white"/>
</g>
<path id="Vector_47" d="M70.3413 35.1072L75.6503 44.0428H80.0441V27.1654H70.3413V35.1159V35.1072ZM83.906 24.6199H80.602V44.0341H83.906C89.2586 44.0341 93.6175 39.6753 93.6175 34.3226C93.6175 28.97 89.2586 24.6111 83.906 24.6111V24.6199ZM77.0365 26.5988H80.0441V13.2084H77.0365C73.3402 13.2084 70.3413 16.216 70.3413 19.9036C70.3413 23.5912 73.3402 26.5988 77.0365 26.5988ZM23.9807 13.871V31.6114H35.5055L23.9807 13.871ZM106.851 33.4944H117.146V13.2084H106.851V33.4944ZM91.778 13.2084H80.5933V24.0619H91.778V13.2084ZM117.704 34.0524V44.0341H128V34.0524H117.704ZM106.851 44.0341H117.146V34.0524H106.851V44.0341ZM94.1667 44.0341H104.462V13.2084H94.1667V44.0341ZM70.3326 44.0341H74.9965L70.3326 36.1882V44.0341ZM19.2644 19.2236C19.2644 15.9022 16.562 13.2084 13.2493 13.2084H11.0175V25.2475H13.2493C16.5707 25.2475 19.2644 22.5451 19.2644 19.2323V19.2236ZM0.155304 25.2388H10.4509V13.1997H0.155304V25.2388ZM0.155304 44.0341H10.4509V25.7967H0.155304V44.0341ZM14.2954 25.7967H11.0088V44.0341H14.2954C19.3255 44.0341 23.414 39.9455 23.414 34.9154C23.414 29.8853 19.3255 25.7967 14.2954 25.7967ZM40.9976 40.0676L38.6351 44.0341H43.578L40.9976 40.0676ZM41.3115 39.5358L44.2406 44.0341H45.0862C45.1559 40.9742 46.4026 38.1061 48.5994 35.9528C50.805 33.7821 53.7254 32.5878 56.8114 32.5878C59.8975 32.5878 62.818 33.7821 65.0235 35.9528C67.2204 38.1061 68.4583 40.9742 68.5367 44.0341H69.7659V35.2554L56.8114 13.47L41.3115 39.5271V39.5358ZM45.1995 22.4056C45.1995 17.3319 41.0761 13.2084 36.0024 13.2084H24.1987L36.1506 31.6027C41.1458 31.5243 45.1995 27.4008 45.1995 22.4056ZM56.8114 33.1457C53.8736 33.1457 51.0927 34.279 48.9917 36.3451C46.9082 38.3938 45.7139 41.1224 45.6441 44.0341H67.9788C67.909 41.1224 66.7235 38.3938 64.6312 36.3451C62.5303 34.279 59.7493 33.1457 56.8114 33.1457ZM35.8542 32.1694H23.972V44.0428H37.99L40.6576 39.5532L35.8542 32.1694Z" fill="white"/>
</g>
</svg>
