<svg width="114" height="45" viewBox="0 0 114 45" fill="none" xmlns="http://www.w3.org/2000/svg">
<g clip-path="url(#clip0_1281_83)">
<path d="M2.42772 25.6101H0V44.6132H2.42772V25.6101Z" fill="white"/>
<path d="M18.64 38.6629H7.83866C8.13081 41.5071 9.97835 42.9292 12.3526 42.9292C14.4635 42.9292 15.8913 42.0751 16.6813 40.2945L18.5042 41.8213C17.2615 44.017 14.7803 44.9999 12.2991 44.9999C8.10201 44.9999 5.32864 42.0792 5.32864 37.9176C5.32864 33.756 8.18019 30.7305 12.1139 30.7305C16.0476 30.7305 18.6893 33.5505 18.6893 37.6597C18.6893 37.97 18.6893 38.3043 18.6358 38.6669M7.88804 36.8057H16.0723C16.0723 34.3482 14.4881 32.8254 12.0604 32.8254C9.99892 32.8254 8.25837 34.1709 7.88804 36.8057Z" fill="white"/>
<path d="M34.8234 44.6092L33.1075 39.4887L32.8442 42.7721C31.7867 44.0371 30.1243 44.9959 27.746 44.9959C23.5489 44.9959 20.8002 41.8697 20.8002 37.8853C20.8002 33.901 23.5448 30.7224 27.746 30.7224C30.0708 30.7224 31.8114 31.6772 32.9224 33.1275V31.1615H35.3501V38.7878L37.3828 44.6051H34.8193L34.8234 44.6092ZM33.0006 37.8894C33.0006 35.0975 31.0748 32.8979 28.141 32.8979C25.2072 32.8979 23.2814 35.0975 23.2814 37.8894C23.2814 40.6812 25.1043 42.8285 28.141 42.8285C31.1777 42.8285 33.0006 40.6812 33.0006 37.8894Z" fill="white"/>
<path d="M43.1928 33.2888V40.6572C43.1928 42.4942 43.9582 42.7763 45.4395 42.7763C45.8098 42.7763 46.4682 42.6715 46.8632 42.595V44.6899C46.4394 44.8429 45.4642 44.9477 45.0692 44.9477C42.2958 44.9477 40.7651 43.864 40.7651 40.9674V33.2888H38.3374V31.1697H40.7651V27.9629L43.1928 26.1782V31.1697H47.1266V33.2888H43.1928Z" fill="white"/>
<path d="M62.1784 36.3103V44.6093H59.7507V36.6729C59.7507 34.163 58.615 32.9222 56.319 32.9222C54.023 32.9222 52.41 34.5015 52.41 37.3699V44.6093H49.9822V25.6062H52.41V35.2226L53.1218 32.326C53.7802 31.5243 54.7842 30.7468 56.8992 30.7468C60.2774 30.7468 62.1826 32.8135 62.1826 36.3063" fill="white"/>
<path d="M78.0944 38.6629H67.2931C67.5853 41.5071 69.4328 42.9292 71.807 42.9292C73.9179 42.9292 75.3458 42.0751 76.1358 40.2945L77.9586 41.8213C76.716 44.017 74.2348 44.9999 71.7536 44.9999C67.5565 44.9999 64.7831 42.0792 64.7831 37.9176C64.7831 33.756 67.6347 30.7305 71.5684 30.7305C75.5021 30.7305 78.1438 33.5505 78.1438 37.6597C78.1438 37.97 78.1438 38.3043 78.0903 38.6669M67.3425 36.8057H75.5268C75.5268 34.3482 73.9426 32.8254 71.5149 32.8254C69.4534 32.8254 67.7128 34.1709 67.3425 36.8057Z" fill="white"/>
<path d="M88.8669 31.0126V33.4419C88.4431 33.3371 88.0481 33.2888 87.6242 33.2888C85.2747 33.2888 83.53 34.6061 83.53 38.099V44.6133H81.1023V31.1697H83.53V35.8228L84.2419 32.3863C84.8756 31.7418 86.0894 30.9119 87.8876 30.9119C88.2579 30.9119 88.5213 30.936 88.8628 31.0166" fill="white"/>
<path d="M29.7128 6.31299H25.919V21.1666H29.7128V6.31299Z" fill="white"/>
<path d="M47.534 12.4526V21.1625H43.7401V12.9924C43.7401 10.3375 42.8349 9.19339 40.7363 9.19339C38.5185 9.19339 37.2347 10.7082 37.2347 13.3066V21.1625H33.4408V6.31291H37.2347V10.6276L38.0823 7.25561C38.9299 6.36931 40.0944 5.76904 41.9625 5.76904C45.5794 5.76904 47.534 8.10969 47.534 12.4526Z" fill="white"/>
<path d="M54.1629 12.255H60.9893C60.9893 10.2286 59.7919 8.85486 57.6933 8.85486C55.9158 8.85486 54.5414 9.88217 54.1629 12.255ZM64.9271 14.8817H54.1341C54.4838 17.4802 56.0022 18.5075 58.1007 18.5075C60.084 18.5075 61.339 17.738 62.125 16.0218L64.8078 18.4229C63.3182 20.5661 60.8411 21.5934 57.9814 21.5934C53.1095 21.5934 50.1057 18.3383 50.1057 13.798C50.1057 9.25773 53.3152 5.77295 57.8086 5.77295C62.3019 5.77295 65.0135 8.9153 65.0135 13.4556C65.0135 13.9108 65.0135 14.3137 64.9271 14.8817Z" fill="white"/>
<path d="M77.2756 6.16774V9.79353C76.5761 9.59209 76.0494 9.50749 75.3211 9.50749C73.1608 9.50749 71.733 11.0787 71.733 13.9914V21.1624H67.9391V6.31277H71.733V11.1955L72.5806 7.31188C73.1073 6.73981 74.2142 5.94214 75.7613 5.94214C76.3456 5.94214 76.753 5.97034 77.2797 6.17177" fill="white"/>
<path d="M95.1955 6.31299L89.0974 21.1626H85.1019L78.8886 6.31299H83.061L87.114 16.8237L91.1424 6.31299H95.1955Z" fill="white"/>
<path d="M108.05 13.7377C108.05 10.9378 106.038 9.14102 103.614 9.14102C101.191 9.14102 99.1827 10.9982 99.1827 13.7377C99.1827 16.4772 101.08 18.2216 103.614 18.2216C106.149 18.2216 108.05 16.4812 108.05 13.7377ZM110.005 21.1625L108.223 15.7641L107.96 19.5067C106.853 20.7637 105.248 21.5936 102.915 21.5936C98.3926 21.5936 95.2448 18.2216 95.2448 13.7377C95.2448 9.25382 98.3638 5.76904 102.886 5.76904C105.075 5.76904 106.737 6.59894 107.902 7.85588V6.31291H111.696V14.5112L114 21.1665H110.005V21.1625Z" fill="white"/>
<path d="M22.7547 11.5299V21.1624H18.9156V12.1342C18.9156 10.0514 17.9692 9.012 16.2534 9.012C14.2742 9.012 13.299 10.4019 13.299 12.8594V21.1624H9.45988V12.1664C9.45988 10.5751 8.78094 9.012 6.85934 9.012C4.93774 9.012 3.93373 10.5469 3.84732 12.9158V21.1624H0V6.11943H3.84321V10.2569L4.7608 6.78416C5.234 6.34906 6.23801 5.57153 8.06909 5.57153C10.789 5.57153 12.7394 7.27968 13.2126 10.0836L14.0396 6.78416C14.5704 6.23626 15.665 5.57153 17.3191 5.57153C20.7179 5.57153 22.7547 7.68255 22.7547 11.5299Z" fill="white"/>
<path d="M25.3512 2.39705C25.3512 1.07162 26.4457 0 27.7995 0C29.1532 0 30.2478 1.07162 30.2478 2.39705C30.2478 3.72247 29.1532 4.79409 27.7995 4.79409C26.4457 4.79409 25.3512 3.72247 25.3512 2.39705Z" fill="white"/>
</g>
<defs>
<clipPath id="clip0_1281_83">
<rect width="114" height="45" fill="white"/>
</clipPath>
</defs>
</svg>
