<svg width="88" height="29" viewBox="0 0 88 29" fill="none" xmlns="http://www.w3.org/2000/svg">
<g id="Group">
<path id="Vector" d="M57.9723 7.80176H55.9498V20.9567H57.9723V7.80176Z" fill="white"/>
<path id="Vector_2" d="M85.6335 13.8605C86.2611 13.1718 86.6447 12.2391 86.6447 11.3586C86.6447 9.52786 84.814 7.80176 82.87 7.80176H76.942V20.9567H83.2884C85.4504 20.9567 87.2027 19.187 87.2027 17.0163C87.2027 15.7784 86.6186 14.6364 85.6335 13.8693M79.0429 14.9241H83.1228C84.3171 14.959 85.1104 15.8307 85.1104 17.1122C85.1104 18.3937 84.2822 19.3004 83.1315 19.3004H79.0342V14.9328L79.0429 14.9241ZM82.87 13.259H79.0429V9.47555H82.87C83.8899 9.47555 84.5525 10.2166 84.5525 11.3673C84.5525 12.4483 83.8551 13.2329 82.87 13.259Z" fill="white"/>
<path id="Vector_3" d="M50.7715 17.7837C49.8126 18.7688 48.5224 19.318 47.1363 19.318C44.8174 19.318 42.8123 17.775 42.2631 15.5607C42.1672 15.1771 42.1149 14.7848 42.1149 14.3925C42.1149 14.0002 42.1672 13.5992 42.2631 13.2156C42.8123 11.01 44.8174 9.46701 47.1363 9.46701C48.3393 9.46701 49.5075 9.89418 50.4228 10.6701L50.8238 11.01L52.053 9.88546L51.591 9.46701C50.3095 8.29013 48.6444 7.64502 46.8922 7.64502C43.1 7.64502 40.0139 10.6701 40.0139 14.3925C40.0139 18.1149 43.1 21.14 46.8922 21.14C48.8362 21.14 50.7018 20.3205 52.0007 18.9083L52.393 18.4898L51.1813 17.3739L50.7802 17.7924L50.7715 17.7837Z" fill="white"/>
<path id="Vector_4" d="M72.0251 17.7837C71.0662 18.7688 69.776 19.318 68.3899 19.318C66.071 19.318 64.0659 17.775 63.5167 15.5607C63.4208 15.1771 63.3685 14.7848 63.3685 14.3925C63.3685 14.0002 63.4208 13.5992 63.5254 13.2156C64.0746 11.01 66.0797 9.46701 68.3986 9.46701C69.6016 9.46701 70.7698 9.89418 71.6851 10.6701L72.0861 11.01L73.3066 9.88546L72.8446 9.46701C71.5631 8.29013 69.898 7.64502 68.1458 7.64502C64.3536 7.64502 61.2675 10.6701 61.2675 14.3925C61.2675 18.1149 64.3536 21.14 68.1458 21.14C70.0898 21.14 71.9554 20.3205 73.2543 18.9083L73.6379 18.4898L72.4261 17.3739L72.0251 17.7924V17.7837Z" fill="white"/>
<path id="Vector_5" d="M31.1306 28.6283L30.7208 28.6108C25.4379 28.3755 20.4253 26.8673 16.9644 24.4874L16.2408 23.9818L17.0777 23.4064C17.1213 23.3802 17.1649 23.3454 17.2084 23.3192C17.4002 23.1797 17.5833 23.0402 17.7664 22.9008C20.033 21.1049 21.4975 17.7661 21.5063 14.401C21.5063 10.9837 20.033 7.65355 17.7664 5.85771C17.592 5.71823 17.4002 5.57874 17.2084 5.43926L16.2495 4.77672L16.9731 4.27981C20.434 1.89989 25.4466 0.400447 30.7208 0.156352L31.1306 0.138916L34.3823 6.62486L33.7895 6.88639C30.8865 8.16789 27.9225 11.2191 28.1317 14.3487V14.4272C27.9225 17.5568 30.8865 20.608 33.7895 21.8895L34.3823 22.151L31.1306 28.637V28.6283ZM18.4115 23.9556C21.5498 25.8735 25.8389 27.1027 30.3721 27.3642L32.6997 22.7177C29.5614 21.1136 26.6758 17.8707 26.8851 14.3749C26.6758 10.8791 29.5614 7.63611 32.6997 6.03206L30.3721 1.38554C25.8302 1.64707 21.5498 2.86755 18.4115 4.79415C18.4551 4.82902 18.4987 4.8639 18.5422 4.89877C21.0878 6.92127 22.7355 10.6263 22.7442 14.3487C22.7442 18.1235 21.0878 21.8372 18.5422 23.851C18.4987 23.8859 18.4551 23.9207 18.4028 23.9643" fill="white"/>
<path id="Vector_6" d="M3.52171 28.6282L0.27002 22.1423L0.862821 21.8807C3.76581 20.5992 6.72981 17.548 6.52059 14.4184V14.3399C6.72981 11.2103 3.75709 8.1591 0.862821 6.87761L0.27002 6.61608L3.52171 0.130127L3.93144 0.147563C9.22307 0.38294 14.2357 1.8911 17.6879 4.27102L18.4115 4.76793L17.5746 5.3433C17.531 5.36945 17.4874 5.40432 17.4438 5.43047C17.252 5.56995 17.069 5.70944 16.8859 5.84892C14.6193 7.64476 13.1547 10.9836 13.146 14.3486C13.146 17.7573 14.6193 21.0961 16.8859 22.892C17.069 23.0315 17.252 23.1709 17.4438 23.3104L18.4028 23.973L17.6792 24.4699C14.2183 26.8498 9.20563 28.3492 3.93144 28.5933L3.52171 28.6108V28.6282ZM1.95253 22.7176L4.28015 27.3641C8.81334 27.1026 13.1024 25.8734 16.2321 23.9555C16.1885 23.9207 16.1449 23.8858 16.1013 23.8509C13.5558 21.8284 11.9081 18.1234 11.8994 14.401C11.8994 10.6262 13.5558 6.92119 16.1013 4.89869C16.1449 4.86382 16.1885 4.82895 16.2408 4.79408C13.1112 2.87619 8.82206 1.65572 4.28015 1.38547L1.95253 6.03199C5.09089 7.63604 7.97644 10.879 7.76722 14.3748C7.97644 17.8706 5.09089 21.1136 1.95253 22.7176Z" fill="white"/>
<path id="Vector_7" d="M17.3218 24.7401L16.8598 24.4263C16.8075 24.3914 16.7552 24.3565 16.7029 24.3217C16.4936 24.1735 16.2931 24.0253 16.1013 23.8683C13.5558 21.8458 11.9081 18.1408 11.8994 14.4184C11.8994 10.6436 13.5558 6.93863 16.1013 4.91613C16.3018 4.75921 16.5023 4.61101 16.7029 4.46281C16.7552 4.42794 16.8162 4.38435 16.8685 4.34948L17.3218 4.03564L17.7838 4.34948C17.8361 4.38435 17.8885 4.41922 17.9408 4.45409C18.15 4.60229 18.3505 4.75049 18.5423 4.90741C21.0878 6.92991 22.7355 10.6349 22.7442 14.3574C22.7442 18.1321 21.0878 21.8371 18.5423 23.8596C18.3418 24.0165 18.1413 24.1647 17.9408 24.3129C17.8885 24.3478 17.8274 24.3914 17.7751 24.4263L17.3218 24.7401ZM17.3218 5.52637C17.1736 5.6397 17.0254 5.74431 16.8772 5.86635C14.6106 7.66219 13.146 11.0011 13.1373 14.3661C13.1373 17.7834 14.6106 21.1223 16.8772 22.9181C17.0167 23.0315 17.1649 23.1448 17.3131 23.2494C17.4613 23.1361 17.6095 23.0227 17.7577 22.9094C20.0243 21.1136 21.4889 17.7747 21.4976 14.4097C21.4976 10.9923 20.0243 7.65348 17.7577 5.85764C17.6095 5.74431 17.47 5.63098 17.3218 5.52637Z" fill="white"/>
</g>
</svg>
