<svg width="154" height="31" viewBox="0 0 154 31" fill="none" xmlns="http://www.w3.org/2000/svg">
<g id="Group">
<path id="Vector" d="M147.824 0.425378C147.153 0.242307 146.455 0.137695 145.732 0.137695H142.951V5.49906H147.824V0.416662V0.425378Z" fill="white"/>
<path id="Vector_2" d="M152.043 3.25853C150.98 1.87242 149.707 1.14885 148.957 0.817582C148.565 0.643228 148.312 0.573486 148.312 0.573486V5.50769V10.8691H153.674V8.08812C153.674 6.77175 153.342 4.95848 152.035 3.25853H152.043Z" fill="white"/>
<path id="Vector_3" d="M143.439 15.9428C144.11 16.1259 144.808 16.2305 145.531 16.2305H148.312V10.8691H143.439V15.9515V15.9428Z" fill="white"/>
<path id="Vector_4" d="M137.581 8.27979C137.581 9.59616 137.912 11.4094 139.22 13.1094C140.841 15.2191 142.951 15.8031 142.951 15.8031V5.50757H137.59V8.28851L137.581 8.27979Z" fill="white"/>
<path id="Vector_5" d="M64.1257 10.5901H60.813L57.448 16.0125H57.2126L53.8738 10.5901H50.561L55.4255 17.9129L50.1513 25.8896H53.464L57.1516 19.9965H57.448L61.1704 25.8896H64.5355L59.2613 18.035L64.1257 10.5901Z" fill="white"/>
<path id="Vector_6" d="M32.219 12.4644C30.7544 10.9388 28.9412 10.1716 26.8315 10.1716C24.4951 10.1716 23.0742 11.0172 22.2286 11.8716H22.0281V10.5901H19.1861V31.0069H22.0891V24.3117H22.2286C23.0742 25.166 24.4951 26.0116 26.8315 26.0116C28.9673 26.0116 30.7806 25.2532 32.219 23.745C33.6749 22.2282 34.4159 20.3277 34.4159 18.0873C34.4159 15.8468 33.6749 13.9725 32.219 12.4557V12.4644ZM30.1442 21.7923C29.255 22.7599 28.174 23.2307 26.8315 23.2307C25.489 23.2307 24.2772 22.7425 23.3531 21.7923C22.4291 20.7898 21.9757 19.578 21.9757 18.0873C21.9757 16.5966 22.4378 15.3848 23.3531 14.4171C24.2859 13.432 25.4279 12.9439 26.8402 12.9439C28.2525 12.9439 29.2724 13.4233 30.1529 14.4171C31.0596 15.3761 31.4954 16.5704 31.4954 18.0873C31.4954 19.6042 31.0508 20.8072 30.1442 21.7923Z" fill="white"/>
<path id="Vector_7" d="M15.9257 23.1263V10.4683H13.0227V12.6651H12.9094C12.334 11.6974 11.0961 10.0498 7.97519 10.0498C5.86552 10.0498 4.05223 10.8257 2.58767 12.3426C1.13181 13.8594 0.390808 15.7512 0.390808 17.9742C0.390808 20.1972 1.13181 22.1151 2.58767 23.6319C4.0348 25.1314 5.83936 25.8985 7.97519 25.8985C11.6976 25.8985 12.9966 23.6668 12.9966 23.6668H13.0837C13.0837 24.9832 14.0514 25.7765 15.3067 25.7765H17.3903V23.1437H15.9257V23.1263ZM11.5843 21.6617C10.6602 22.6207 9.47462 23.1002 8.06236 23.1002C6.6501 23.1002 5.58655 22.6294 4.66248 21.6705C3.75584 20.6766 3.31123 19.4649 3.31123 17.9655C3.31123 16.466 3.74711 15.2543 4.65375 14.2953C5.57782 13.3102 6.69369 12.8307 8.05365 12.8307C9.41361 12.8307 10.6602 13.3276 11.5756 14.304C12.5345 15.2717 12.9966 16.466 12.9966 17.9742C12.9966 19.4823 12.5258 20.6766 11.5669 21.6705L11.5843 21.6617Z" fill="white"/>
<path id="Vector_8" d="M50.3256 18.0961C50.3256 13.528 47.597 10.2153 42.9417 10.2153C38.8357 10.2153 35.4097 13.4409 35.4097 18.2705C35.4097 23.1 38.426 26.2733 43.0899 26.2733C46.4288 26.2733 49.0964 24.4862 50.0379 21.4698H47.0565C46.3329 22.9431 44.755 23.7539 43.0899 23.7539C40.248 23.7539 38.4347 21.9929 38.3998 19.0115H50.3256V18.1048V18.0961ZM38.426 16.8059C38.6352 14.4608 40.5967 12.7609 42.9417 12.7609C45.2868 12.7609 47.2221 14.1993 47.3703 16.8059H38.4347H38.426Z" fill="white"/>
<path id="Vector_9" d="M77.673 15.1669V14.9925C79.1376 14.1382 80.0442 12.6736 80.0442 10.7732C80.0442 7.69585 77.7602 5.37695 73.7413 5.37695H65.6513V7.89636H67.5605V23.3702H65.6513V25.8896H74.3254C77.7253 25.8896 80.7416 23.6928 80.7416 19.9093C80.7416 17.2156 79.0155 15.751 77.6643 15.1669H77.673ZM70.4896 8.04456H73.7152C75.6156 8.04456 77.0279 9.21273 77.0279 11.0086C77.0279 12.8044 75.6766 14.0598 73.6628 14.0598H70.4896V8.05328V8.04456ZM73.8895 23.222H70.4896V16.4833H73.689C75.7987 16.4833 77.673 17.4771 77.673 19.8221C77.673 22.1672 76.0341 23.222 73.8982 23.222H73.8895Z" fill="white"/>
<path id="Vector_10" d="M86.1639 12.9961H85.9547V10.59H83.0866V25.8808H85.9896V13.9812H91.351V10.1978H90.27C88.1865 10.1978 86.6957 11.6885 86.1639 12.9787V12.9961Z" fill="white"/>
<path id="Vector_11" d="M112.613 14.6962C112.613 13.5804 113.668 12.7958 115.342 12.7958C117.016 12.7958 118.297 13.6414 118.568 15.2018H121.131V15.1147C121.113 14.1557 120.834 13.1968 120.276 12.4209C119.23 10.9825 117.426 10.2153 115.438 10.2153C112.099 10.2153 109.841 12.0635 109.841 14.6701C109.841 20.7899 118.541 17.8607 118.541 21.557C118.541 22.8472 117.487 23.6929 115.525 23.6929C113.755 23.6929 112.561 22.7949 112.247 21.2955H109.344V21.5832C109.728 24.5385 112.038 26.2733 115.412 26.2733C119.073 26.2733 121.479 24.2769 121.479 21.3216C121.479 15.0798 112.631 18.0438 112.631 14.6962H112.613Z" fill="white"/>
<path id="Vector_12" d="M133.51 8.72458C133.51 7.09437 132.185 5.76929 130.554 5.76929H129.037V8.31485H130.615V23.3615C130.615 24.7564 131.74 25.881 133.135 25.881H136.003V23.3615H133.518V8.72458H133.51Z" fill="white"/>
<path id="Vector_13" d="M106.912 23.3092V10.6511H104.009V12.848H103.896C103.32 11.8803 102.082 10.2327 98.9615 10.2327C96.8518 10.2327 95.0385 10.9998 93.574 12.5254C92.1181 14.0423 91.3771 15.934 91.3771 18.157C91.3771 20.38 92.1181 22.2979 93.574 23.8148C95.0211 25.3142 96.8257 26.0814 98.9615 26.0814C102.684 26.0814 103.983 23.841 103.983 23.841H104.07C104.07 25.1573 105.038 25.9506 106.293 25.9506H108.377V23.3092H106.912ZM102.571 21.8533C101.647 22.8123 100.461 23.2917 99.0487 23.2917C97.6364 23.2917 96.5729 22.821 95.6488 21.862C94.7422 20.8682 94.2975 19.6565 94.2975 18.157C94.2975 16.6576 94.7334 15.4546 95.6401 14.4869C96.5642 13.5018 97.68 13.0223 99.04 13.0223C100.4 13.0223 101.647 13.5105 102.562 14.4956C103.521 15.4633 103.983 16.6576 103.983 18.157C103.983 19.6565 103.512 20.8595 102.553 21.8533H102.571Z" fill="white"/>
<path id="Vector_14" d="M123.798 13.1095V25.8809H126.701V10.5901H123.746L123.798 13.1095Z" fill="white"/>
<path id="Vector_15" d="M125.263 4.94971C124.147 4.94971 123.327 5.79532 123.327 6.85016C123.327 7.96602 124.147 8.81164 125.263 8.81164C126.379 8.81164 127.224 7.96602 127.224 6.85016C127.224 5.79532 126.405 4.94971 125.263 4.94971Z" fill="white"/>
</g>
</svg>
