<svg width="131" height="49" viewBox="0 0 131 49" fill="none" xmlns="http://www.w3.org/2000/svg">
<g id="Group">
<path id="Vector" d="M50.3067 8.99174V4.50214L48.4586 7.90203H47.8745L46.0089 4.50214V8.99174H45.0238V2.7063H46.0874L48.1622 6.54207L50.237 2.7063H51.3005V8.99174H50.298H50.3067Z" fill="white"/>
<path id="Vector_2" d="M55.4938 2.7063H54.5087V8.99174H55.4938V2.7063Z" fill="white"/>
<path id="Vector_3" d="M59.6783 4.54573V8.99174H58.6932V2.7063H59.5039L63.0607 7.23949V2.7063H64.0633V8.99174H63.1915L59.6783 4.54573Z" fill="white"/>
<path id="Vector_4" d="M68.2303 2.7063H67.2452V8.99174H68.2303V2.7063Z" fill="white"/>
<path id="Vector_5" d="M75.1521 4.1794C75.0126 4.0312 74.786 3.89172 74.4547 3.75224C74.1234 3.61275 73.7922 3.55173 73.4522 3.55173C73.0511 3.55173 72.7286 3.63019 72.5281 3.77839C72.3276 3.92659 72.223 4.14453 72.223 4.4235C72.223 4.51067 72.223 4.58913 72.2578 4.65016C72.284 4.71118 72.3102 4.78092 72.345 4.82451C72.3799 4.87681 72.4322 4.92912 72.5107 4.97271C72.5891 5.02502 72.6501 5.05989 72.7286 5.10347C72.8071 5.13835 72.8942 5.18193 73.0163 5.2168C73.1383 5.25167 73.2604 5.29526 73.3563 5.32142C73.4609 5.34757 73.6004 5.38244 73.7747 5.42603C74.0537 5.48705 74.2978 5.55679 74.4808 5.61782C74.6813 5.67884 74.8644 5.76602 75.0475 5.87063C75.2219 5.97524 75.3788 6.08857 75.4747 6.2019C75.588 6.33267 75.6752 6.47215 75.7449 6.6465C75.8059 6.82086 75.8495 7.03008 75.8495 7.25674C75.8495 7.50955 75.8146 7.73621 75.7362 7.928C75.6577 8.12851 75.5444 8.29414 75.4049 8.43362C75.2654 8.57311 75.0998 8.68644 74.8993 8.77361C74.7075 8.86079 74.4983 8.93925 74.2629 8.97412C74.0362 9.00899 73.7922 9.03514 73.5393 9.03514C73.0599 9.03514 72.5978 8.95669 72.1445 8.8172C71.6999 8.669 71.2989 8.45978 70.9415 8.18081L71.3948 7.3352C71.5692 7.52699 71.8743 7.70134 72.284 7.88441C72.7024 8.05876 73.1209 8.15466 73.5481 8.15466C73.9404 8.15466 74.2455 8.09364 74.446 7.95415C74.6639 7.81467 74.7598 7.61416 74.7598 7.36135C74.7598 7.25674 74.7511 7.16085 74.7075 7.08239C74.6814 6.99521 74.6203 6.91675 74.5419 6.85573C74.4634 6.7947 74.3937 6.72496 74.2978 6.68137C74.2106 6.62907 74.0973 6.57676 73.9403 6.53317C73.7921 6.48087 73.6527 6.42856 73.5219 6.40241C73.3912 6.36754 73.2342 6.32395 73.0163 6.27164C72.685 6.18447 72.4061 6.09729 72.1881 6.00139C71.9702 5.91422 71.7784 5.80089 71.6214 5.67012C71.4558 5.53936 71.3338 5.39116 71.2553 5.2168C71.1769 5.04245 71.142 4.82451 71.142 4.58041C71.142 4.2753 71.203 4.01377 71.3163 3.76095C71.4297 3.51686 71.5953 3.31635 71.7958 3.15072C71.9963 2.98508 72.2404 2.87175 72.5194 2.78457C72.7983 2.6974 73.1034 2.65381 73.4173 2.65381C74.1932 2.65381 74.8993 2.8979 75.5357 3.35994L75.0911 4.17068H75.1172L75.1521 4.1794Z" fill="white"/>
<path id="Vector_6" d="M83.216 3.57807H81.1237V8.99174H80.1212V3.57807H78.0202V2.7063H83.216V3.57807Z" fill="white"/>
<path id="Vector_7" d="M90.1378 8.11977V8.99154H85.8313V2.7061H90.0594V3.57787H86.8164V5.36499H89.6148V6.18445H86.8164V8.11105H90.1378V8.11977ZM88.3768 2.06099L87.7317 1.8692L88.2374 0.892822H89.1614L88.3594 2.06099H88.3768Z" fill="white"/>
<path id="Vector_8" d="M92.9362 8.99174V2.7063H95.6735C95.9525 2.7063 96.2053 2.76732 96.4581 2.88065C96.7022 2.99398 96.9114 3.15962 97.0771 3.35141C97.2427 3.5432 97.3822 3.76985 97.4694 4.01395C97.574 4.25804 97.6176 4.51086 97.6176 4.76367C97.6176 5.19084 97.5043 5.57441 97.2776 5.9144C97.0509 6.25439 96.7545 6.48105 96.3884 6.61182L97.8704 9.00918H96.7545L95.3858 6.82104H93.93V9.00918H92.9275L92.9362 8.99174ZM93.9213 5.92312H95.6561C95.9351 5.92312 96.1617 5.80979 96.3361 5.58313C96.5104 5.35647 96.5976 5.07751 96.5976 4.74623C96.5976 4.41496 96.493 4.15343 96.2925 3.92677C96.092 3.70011 95.8653 3.58678 95.5951 3.58678H93.9126V5.93184L93.9213 5.92312Z" fill="white"/>
<path id="Vector_9" d="M101.541 2.7063H100.555V8.99174H101.541V2.7063Z" fill="white"/>
<path id="Vector_10" d="M104.348 5.85334C104.348 5.43489 104.426 5.04259 104.574 4.6503C104.722 4.258 104.94 3.92673 105.211 3.63905C105.472 3.35137 105.795 3.11599 106.17 2.94163C106.553 2.76728 106.945 2.67139 107.373 2.67139C107.8 2.67139 108.218 2.75856 108.602 2.95035C108.985 3.14214 109.299 3.37752 109.552 3.67392C109.805 3.97904 110.005 4.31903 110.162 4.7026C110.302 5.08618 110.38 5.47848 110.38 5.87077C110.38 6.28922 110.302 6.68152 110.154 7.07381C109.997 7.46611 109.787 7.79738 109.535 8.08506C109.264 8.37274 108.951 8.60812 108.576 8.78247C108.201 8.95683 107.8 9.05272 107.373 9.05272C107.015 9.05272 106.684 9.00042 106.37 8.87837C106.056 8.76504 105.777 8.5994 105.533 8.3989C105.289 8.19839 105.08 7.9543 104.914 7.69277C104.74 7.42252 104.6 7.13484 104.505 6.821C104.417 6.50716 104.365 6.18461 104.365 5.87077M107.381 8.16352C107.686 8.16352 107.965 8.1025 108.227 7.96301C108.48 7.83225 108.698 7.6579 108.863 7.43995C109.029 7.22201 109.151 6.98663 109.247 6.70767C109.334 6.43742 109.386 6.16717 109.386 5.87077C109.386 5.57437 109.334 5.28669 109.247 5.00772C109.142 4.72876 109.02 4.48466 108.855 4.27544C108.689 4.0575 108.471 3.89186 108.218 3.76981C107.965 3.63905 107.686 3.57802 107.39 3.57802C107.094 3.57802 106.806 3.63905 106.544 3.77853C106.292 3.9093 106.074 4.08365 105.908 4.30159C105.742 4.51953 105.62 4.75491 105.516 5.03388C105.429 5.30412 105.376 5.57437 105.376 5.87077C105.376 6.26307 105.455 6.64665 105.62 6.98663C105.786 7.32662 106.013 7.62302 106.326 7.83225C106.64 8.05019 106.998 8.16352 107.39 8.16352" fill="white"/>
<path id="Vector_11" d="M117.128 8.99174V2.7063H119.359C119.856 2.7063 120.301 2.79348 120.693 2.95039C121.086 3.11603 121.417 3.33397 121.652 3.62165C121.905 3.90934 122.097 4.24061 122.219 4.60675C122.35 4.99033 122.419 5.39134 122.419 5.83594C122.419 6.78617 122.14 7.54461 121.582 8.12869C121.025 8.69534 120.275 8.99174 119.351 8.99174H117.119H117.128ZM119.359 3.57807H118.122V8.11126H119.359C119.787 8.11126 120.17 8.00664 120.475 7.80614C120.789 7.60563 121.016 7.33538 121.181 6.99539C121.33 6.6554 121.408 6.26311 121.408 5.82723C121.408 5.15596 121.234 4.60675 120.868 4.1883C120.501 3.76985 120.005 3.56935 119.359 3.56935V3.57807Z" fill="white"/>
<path id="Vector_12" d="M124.852 5.85334C124.852 5.43489 124.93 5.04259 125.078 4.6503C125.226 4.258 125.444 3.92673 125.715 3.63905C125.976 3.35137 126.299 3.11599 126.674 2.94163C127.057 2.76728 127.449 2.67139 127.877 2.67139C128.304 2.67139 128.722 2.75856 129.106 2.95035C129.489 3.14214 129.803 3.37752 130.056 3.67392C130.309 3.97904 130.509 4.31903 130.666 4.7026C130.814 5.08618 130.884 5.47848 130.884 5.87077C130.884 6.28922 130.806 6.68152 130.658 7.07381C130.509 7.46611 130.291 7.79738 130.039 8.08506C129.768 8.37274 129.455 8.60812 129.071 8.78247C128.687 8.95683 128.295 9.05272 127.868 9.05272C127.51 9.05272 127.179 9.00042 126.865 8.87837C126.552 8.76504 126.273 8.5994 126.028 8.3989C125.784 8.19839 125.575 7.9543 125.41 7.69277C125.235 7.42252 125.096 7.13484 125 6.821C124.913 6.50716 124.86 6.18461 124.86 5.87077M127.877 8.16352C128.182 8.16352 128.461 8.1025 128.722 7.96301C128.975 7.83225 129.193 7.6579 129.359 7.43995C129.524 7.22201 129.646 6.98663 129.742 6.70767C129.829 6.43742 129.882 6.16717 129.882 5.87077C129.882 5.57437 129.829 5.28669 129.742 5.00772C129.638 4.72876 129.516 4.48466 129.35 4.27544C129.184 4.0575 128.966 3.89186 128.714 3.76981C128.461 3.63905 128.182 3.57802 127.885 3.57802C127.589 3.57802 127.301 3.63905 127.04 3.77853C126.787 3.9093 126.569 4.08365 126.403 4.30159C126.238 4.51953 126.116 4.75491 126.011 5.03388C125.924 5.30412 125.872 5.57437 125.872 5.87077C125.872 6.26307 125.95 6.64665 126.116 6.98663C126.281 7.32662 126.508 7.62302 126.822 7.83225C127.136 8.05019 127.493 8.16352 127.885 8.16352" fill="white"/>
<path id="Vector_13" d="M17.3017 21.4228V15.1897H19.699C20.2046 15.1897 20.6667 15.2682 21.0503 15.4338C21.46 15.5994 21.7825 15.8174 22.0354 16.1051C22.2882 16.384 22.4887 16.7153 22.6194 17.0902C22.7589 17.4563 22.82 17.866 22.82 18.3106C22.82 19.2521 22.5323 20.0106 21.9569 20.5772C21.3902 21.1439 20.6231 21.4228 19.6729 21.4228H17.2755H17.2842H17.3017ZM19.699 16.6717H19.019V19.9321H19.699C20.1436 19.9321 20.4836 19.7839 20.7277 19.4788C20.9805 19.1737 21.1113 18.7814 21.1113 18.3019C21.1113 17.8224 20.9805 17.4127 20.7277 17.125C20.4749 16.8373 20.1349 16.6804 19.699 16.6804V16.6717Z" fill="white"/>
<path id="Vector_14" d="M29.7941 19.9323V21.4317H25.3481V15.1812H29.7156V16.6806H27.0655V17.5698H29.3321V18.9472H27.0655V19.9323H29.7854H29.7941Z" fill="white"/>
<path id="Vector_15" d="M36.1318 17.2125C36.1318 17.2125 36.0708 17.1776 36.0272 17.1514C35.9923 17.1253 35.8964 17.073 35.7656 17.012C35.6349 16.9509 35.4954 16.8812 35.3821 16.8376C35.26 16.7853 35.1206 16.7504 34.9375 16.6981C34.7718 16.6632 34.6237 16.6371 34.4842 16.6371C34.1442 16.6371 33.9785 16.7417 33.9785 16.9422C33.9785 16.9945 33.9785 17.0294 34.0047 17.073C34.0221 17.1078 34.057 17.1514 34.0919 17.1776C34.1267 17.2037 34.1703 17.2386 34.2052 17.256C34.2401 17.2822 34.3098 17.3084 34.3795 17.3345C34.458 17.3607 34.5365 17.3868 34.5801 17.3955C34.6411 17.4042 34.7195 17.4478 34.8416 17.474C34.9549 17.5089 35.0595 17.535 35.1293 17.5612C35.3821 17.6396 35.6 17.7094 35.7744 17.7878C35.9487 17.8663 36.1144 17.9535 36.2974 18.0581C36.4631 18.1714 36.5851 18.2847 36.6897 18.4155C36.7944 18.5463 36.8641 18.6945 36.9338 18.8863C36.9949 19.0606 37.021 19.2785 37.021 19.5052C37.021 19.7929 36.9687 20.0544 36.8815 20.2898C36.7944 20.5165 36.6636 20.7082 36.5154 20.8564C36.3672 21.0046 36.1841 21.1267 35.9836 21.2226C35.7656 21.3272 35.5651 21.3882 35.3385 21.4231C35.1205 21.458 34.8852 21.4841 34.6411 21.4841C34.1965 21.4841 33.7257 21.4231 33.2375 21.2836C32.7406 21.1441 32.3135 20.9785 31.9473 20.7518L32.6796 19.2437C32.6796 19.2437 32.7406 19.296 32.7929 19.3221C32.8452 19.3483 32.9411 19.4093 33.098 19.4878C33.2462 19.5662 33.4032 19.636 33.5514 19.6883C33.6996 19.7493 33.8826 19.8016 34.0919 19.8539C34.2924 19.9062 34.4842 19.9324 34.6585 19.9324C34.9898 19.9324 35.1554 19.8452 35.1554 19.6621C35.1554 19.5837 35.1293 19.5314 35.0944 19.4703C35.0595 19.418 34.9811 19.3657 34.8765 19.3309C34.7718 19.2785 34.6759 19.2437 34.5801 19.2175C34.4929 19.1914 34.3534 19.1391 34.1877 19.0868C34.0134 19.0345 33.8739 18.9996 33.7519 18.956C33.1939 18.7642 32.7929 18.5375 32.5401 18.276C32.2873 18.0058 32.174 17.6571 32.174 17.2125C32.174 16.8812 32.235 16.5761 32.3658 16.2971C32.4965 16.0269 32.6709 15.8002 32.8888 15.6346C33.1068 15.4602 33.3421 15.3294 33.6211 15.2423C33.9001 15.1551 34.1878 15.1028 34.5103 15.1028C35.1816 15.1028 35.9574 15.3294 36.8554 15.774L36.1231 17.195V17.2212L36.1318 17.2125Z" fill="white"/>
<path id="Vector_16" d="M43.9777 19.9323V21.4317H39.5404V15.1812H43.8993V16.6806H41.2491V17.5698H43.5157V18.9472H41.2491V19.9323H43.969H43.9777Z" fill="white"/>
<path id="Vector_17" d="M48.2494 18.3543V21.4229H46.5407V15.1724H47.8745L50.3852 18.3543V15.1724H52.0939V21.4229H50.7426L48.2581 18.3543H48.2494Z" fill="white"/>
<path id="Vector_18" d="M56.1302 15.1724L57.3506 19.444L58.5537 15.1724H60.3495L58.1962 21.4229H56.4963L54.3169 15.1724H56.1302Z" fill="white"/>
<path id="Vector_19" d="M61.9972 18.2933C61.9972 17.8836 62.0756 17.4826 62.2413 17.099C62.3895 16.7154 62.6248 16.3754 62.9038 16.0965C63.1827 15.8088 63.5227 15.5734 63.915 15.3991C64.3248 15.2247 64.7432 15.1462 65.1965 15.1462C65.6499 15.1462 66.0857 15.2334 66.4868 15.4165C66.8965 15.5908 67.219 15.8349 67.4893 16.1401C67.7595 16.4452 67.9688 16.7764 68.1257 17.1513C68.2826 17.5349 68.3523 17.9272 68.3523 18.3195C68.3523 18.7118 68.2739 19.1215 68.1082 19.4964C67.96 19.8799 67.7247 20.2025 67.4457 20.4989C67.1667 20.7953 66.8355 21.022 66.4345 21.1963C66.0334 21.3707 65.6063 21.4666 65.153 21.4666C64.6996 21.4666 64.2637 21.3794 63.8627 21.1963C63.4704 21.022 63.1305 20.7779 62.8602 20.4727C62.59 20.1851 62.3807 19.8363 62.2238 19.4441C62.0756 19.0605 61.9972 18.6682 61.9972 18.2759M65.1617 19.9322C65.4057 19.9322 65.6063 19.8799 65.7981 19.7928C65.9898 19.6881 66.1293 19.5661 66.2427 19.4092C66.356 19.2435 66.4344 19.0692 66.4955 18.8774C66.5565 18.6856 66.5826 18.4851 66.5826 18.2672C66.5826 17.9795 66.5303 17.7092 66.4345 17.4651C66.3298 17.221 66.1729 17.0205 65.955 16.8723C65.7283 16.7241 65.4755 16.6457 65.153 16.6457C64.9089 16.6457 64.6996 16.698 64.5166 16.7852C64.3248 16.8723 64.1853 17.0031 64.0719 17.1687C63.9586 17.3169 63.8715 17.5 63.8192 17.6918C63.7668 17.8836 63.732 18.0841 63.732 18.302C63.732 18.52 63.7668 18.7205 63.8192 18.9123C63.8802 19.1041 63.9586 19.2784 64.0719 19.4353C64.1853 19.5835 64.3335 19.7143 64.5253 19.8015C64.7171 19.8887 64.9176 19.941 65.1617 19.941V19.9322Z" fill="white"/>
<path id="Vector_20" d="M70.8107 21.4229V15.1724H72.5194V19.9235H75.3614V21.4229H70.8107Z" fill="white"/>
<path id="Vector_21" d="M78.2033 15.1724L79.4238 19.444L80.6268 15.1724H82.4401L80.2868 21.4229H78.5782L76.3987 15.1724H78.212H78.2033Z" fill="white"/>
<path id="Vector_22" d="M86.3718 15.1724H84.6631V21.4055H86.3718V15.1724Z" fill="white"/>
<path id="Vector_23" d="M93.93 21.4229V18.1277L92.8751 20.4466H91.9598L90.9049 18.1277V21.4229H89.1963V15.1724H91.0706L92.4131 18.1102L93.7644 15.1724H95.6299V21.4229H93.9213H93.93Z" fill="white"/>
<path id="Vector_24" d="M102.909 19.9323V21.4317H98.4632V15.1812H102.839V16.6806H100.181V17.5698H102.447V18.9472H100.181V19.9323H102.918H102.909Z" fill="white"/>
<path id="Vector_25" d="M107.181 18.3543V21.4229H105.472V15.1724H106.806L109.317 18.3543V15.1724H111.025V21.4229H109.665L107.181 18.3543Z" fill="white"/>
<path id="Vector_26" d="M118.714 16.6718H116.918V21.4229H115.21V16.6718H113.414V15.1724H118.723V16.6718H118.714Z" fill="white"/>
<path id="Vector_27" d="M120.65 18.2933C120.65 17.8836 120.728 17.4826 120.894 17.099C121.042 16.7154 121.277 16.3754 121.556 16.0965C121.835 15.8088 122.175 15.5734 122.568 15.3991C122.969 15.2247 123.396 15.1462 123.849 15.1462C124.302 15.1462 124.738 15.2334 125.139 15.4165C125.54 15.5908 125.872 15.8349 126.142 16.1401C126.412 16.4452 126.621 16.7764 126.778 17.1513C126.926 17.5349 127.005 17.9272 127.005 18.3195C127.005 18.7118 126.926 19.1215 126.761 19.4964C126.604 19.8799 126.377 20.2025 126.098 20.4989C125.819 20.7866 125.488 21.022 125.087 21.1963C124.677 21.3707 124.259 21.4666 123.805 21.4666C123.352 21.4666 122.916 21.3794 122.515 21.1963C122.123 21.022 121.783 20.7779 121.513 20.4727C121.242 20.1851 121.033 19.8363 120.876 19.4441C120.728 19.0605 120.65 18.6682 120.65 18.2759M123.814 19.9322C124.058 19.9322 124.259 19.8799 124.451 19.7928C124.642 19.6881 124.782 19.5661 124.895 19.4092C125.008 19.2435 125.087 19.0692 125.148 18.8774C125.209 18.6856 125.235 18.4851 125.235 18.2672C125.235 17.9795 125.183 17.7092 125.087 17.4651C124.982 17.221 124.825 17.0205 124.607 16.8723C124.381 16.7241 124.128 16.6457 123.814 16.6457C123.57 16.6457 123.37 16.698 123.178 16.7852C122.986 16.8723 122.846 17.0031 122.733 17.1687C122.62 17.3169 122.533 17.5 122.48 17.6918C122.428 17.8836 122.393 18.0841 122.393 18.302C122.393 18.52 122.428 18.7205 122.48 18.9123C122.541 19.1041 122.62 19.2784 122.733 19.4353C122.846 19.5835 122.995 19.7143 123.187 19.8015C123.378 19.8887 123.579 19.941 123.823 19.941L123.814 19.9322Z" fill="white"/>
<path id="Vector_28" d="M129.55 22.8004L129.882 21.423H129.376V19.8015H130.753V21.423L130.274 22.8004H129.55Z" fill="white"/>
<path id="Vector_29" d="M1.99342 27.6997H0.267334V33.9851H1.99342V27.6997Z" fill="white"/>
<path id="Vector_30" d="M6.5702 30.8904V33.9851H4.84412V27.6997H6.18662L8.72346 30.8904V27.6997H10.4496V33.9851H9.08089L6.5702 30.8904Z" fill="white"/>
<path id="Vector_31" d="M13.2915 33.9851V27.6997H15.715C16.2206 27.6997 16.674 27.7782 17.0837 27.9438C17.4847 28.1094 17.816 28.3361 18.0862 28.6151C18.339 28.9027 18.5396 29.234 18.679 29.6002C18.8185 29.9837 18.8795 30.3848 18.8795 30.8206C18.8795 31.7709 18.5831 32.5293 18.0165 33.1134C17.4324 33.68 16.674 33.9764 15.715 33.9764H13.2915V33.9851ZM15.715 29.1991H15.0176V32.477H15.715C16.1596 32.477 16.4996 32.3288 16.7524 32.0237C17.0052 31.7186 17.136 31.3263 17.136 30.8294C17.136 30.3324 17.0052 29.9401 16.7524 29.635C16.4996 29.3473 16.1596 29.1904 15.715 29.1904V29.1991Z" fill="white"/>
<path id="Vector_32" d="M24.1538 34.0288C23.7615 34.0288 23.4041 33.9764 23.0902 33.8631C22.7764 33.7498 22.5062 33.6103 22.2795 33.4185C22.0616 33.2267 21.8698 33.0001 21.739 32.7385C21.5995 32.4683 21.4862 32.1893 21.4252 31.8929C21.3641 31.5878 21.3206 31.274 21.3206 30.934V27.6997H23.0554V30.934C23.0554 31.1519 23.0815 31.3524 23.1164 31.5268C23.1513 31.7186 23.221 31.8842 23.3082 32.0324C23.3954 32.1806 23.5087 32.3027 23.6482 32.3898C23.7876 32.4683 23.962 32.5206 24.1538 32.5206C24.3456 32.5206 24.5199 32.4683 24.6769 32.3898C24.8251 32.3027 24.9471 32.1893 25.0168 32.0324C25.104 31.8842 25.165 31.7186 25.2086 31.5268C25.2435 31.3524 25.2697 31.1432 25.2697 30.934V27.6997H26.9957V30.934C26.9957 31.3786 26.9347 31.797 26.8214 32.1632C26.7081 32.5293 26.5337 32.8606 26.2983 33.1395C26.0717 33.4185 25.7753 33.6452 25.4091 33.8021C25.043 33.9503 24.6245 34.0462 24.1451 34.0462M24.6769 27.4469L23.6133 27.1679L24.0579 25.9126H25.5573L24.6856 27.4556L24.6769 27.4469Z" fill="white"/>
<path id="Vector_33" d="M33.5688 29.7483C33.5688 29.7483 33.5078 29.7134 33.4642 29.6873C33.4294 29.6611 33.3422 29.6088 33.2027 29.5478C33.0807 29.4867 32.9412 29.417 32.8104 29.3734C32.6796 29.3211 32.5314 29.2688 32.3658 29.2339C32.2002 29.1991 32.052 29.1729 31.8951 29.1729C31.5551 29.1729 31.3894 29.2775 31.3894 29.478C31.3894 29.5303 31.3894 29.5652 31.4156 29.6088C31.4243 29.6437 31.4504 29.6873 31.5028 29.7134C31.5376 29.7396 31.5812 29.7744 31.6161 29.8006C31.651 29.8267 31.7207 29.8529 31.7904 29.879C31.8689 29.9052 31.9386 29.9313 31.9909 29.9401C32.052 29.9488 32.1304 29.9749 32.2612 30.0185C32.3745 30.0534 32.4791 30.0795 32.5489 30.1057C32.8017 30.1842 33.0196 30.2539 33.194 30.3324C33.3683 30.4108 33.5514 30.498 33.717 30.6113C33.8827 30.7159 34.0222 30.838 34.1268 30.9687C34.2314 31.0995 34.3011 31.2564 34.3709 31.4395C34.4319 31.6139 34.458 31.8318 34.458 32.0585C34.458 32.3461 34.4057 32.6164 34.3186 32.8431C34.2314 33.0697 34.1006 33.2615 33.9524 33.4097C33.8042 33.5579 33.6211 33.6887 33.4119 33.7758C33.194 33.8805 32.9848 33.9415 32.7668 33.9763C32.5489 34.0112 32.3135 34.0374 32.0694 34.0374C31.6161 34.0374 31.1453 33.9763 30.6484 33.8369C30.1515 33.6974 29.7069 33.523 29.3408 33.3051L30.0905 31.7882C30.0905 31.7882 30.169 31.8405 30.2038 31.8667C30.2561 31.8928 30.3607 31.9538 30.5177 32.0323C30.6659 32.1108 30.8315 32.1805 30.9884 32.2502C31.1453 32.3113 31.3197 32.3636 31.5289 32.4159C31.7294 32.4682 31.9386 32.4943 32.113 32.4943C32.4443 32.4943 32.6186 32.4072 32.6186 32.2154C32.6186 32.1544 32.5925 32.0846 32.5576 32.041C32.5053 31.9887 32.4443 31.9364 32.3396 31.8928C32.235 31.8405 32.1391 31.8056 32.0432 31.7795C31.9561 31.7533 31.8166 31.7185 31.651 31.6487C31.4766 31.5964 31.3371 31.5616 31.2238 31.518C30.6484 31.3262 30.2474 31.0995 30.0033 30.8293C29.7505 30.559 29.6197 30.2103 29.6197 29.7483C29.6197 29.4083 29.6808 29.1032 29.8115 28.8329C29.9423 28.554 30.1166 28.336 30.3346 28.1617C30.5525 27.9873 30.8053 27.8565 31.0843 27.7694C31.3633 27.6822 31.651 27.6299 31.9735 27.6299C32.6448 27.6299 33.4293 27.8565 34.3273 28.3011L33.5776 29.7308V29.757L33.5688 29.7483Z" fill="white"/>
<path id="Vector_34" d="M41.8855 29.2079H40.0809V33.9851H38.3461V29.2079H36.5328V27.6997H41.8855V29.2079Z" fill="white"/>
<path id="Vector_35" d="M44.2828 33.9851V27.6997H47.1684C47.4561 27.6997 47.7525 27.7607 48.014 27.8915C48.2755 28.0223 48.5109 28.1792 48.6852 28.3884C48.8596 28.5889 49.0165 28.833 49.1124 29.0858C49.217 29.3386 49.278 29.6089 49.278 29.8878C49.278 30.254 49.1996 30.5853 49.034 30.8991C48.8858 31.2129 48.6504 31.4657 48.3714 31.675L49.7052 33.9939H47.8135L46.7063 32.0673H46.0089V33.9939H44.2567L44.2828 33.9851ZM46.0089 30.5504H47.0986C47.212 30.5504 47.3166 30.4894 47.4038 30.3586C47.4909 30.2278 47.5345 30.0796 47.5345 29.8791C47.5345 29.6786 47.4822 29.513 47.3863 29.3822C47.2817 29.2515 47.1684 29.1904 47.055 29.1904H46.0176V30.533L46.0089 30.5504Z" fill="white"/>
<path id="Vector_36" d="M53.759 27.6997H52.0329V33.9851H53.759V27.6997Z" fill="white"/>
<path id="Vector_37" d="M58.0655 27.6997H59.9921L61.9972 33.9851H60.2449L59.8613 32.756H58.1875L57.804 33.9851H56.043L58.0567 27.6997H58.0655ZM59.5823 31.6052L59.0244 29.3909L58.4403 31.6052H59.5823Z" fill="white"/>
<path id="Vector_38" d="M64.3771 35.3714L64.6909 33.9766H64.1853V32.3376H65.5801V33.9766L65.1006 35.3714H64.3771Z" fill="white"/>
<path id="Vector_39" d="M74.9691 27.656C75.5619 27.656 76.0849 27.7867 76.5295 28.0221C76.9828 28.2662 77.3141 28.6062 77.5408 29.0246L76.2244 29.9661C76.1634 29.8179 76.0849 29.6872 75.9978 29.5826C75.8931 29.478 75.7798 29.3908 75.6665 29.3385C75.5532 29.2862 75.4224 29.2339 75.3091 29.2077C75.1957 29.1816 75.0649 29.1728 74.9429 29.1728C74.6988 29.1728 74.4983 29.2251 74.3065 29.3123C74.1147 29.4169 73.9752 29.539 73.8619 29.6959C73.7486 29.8441 73.6614 30.0272 73.6091 30.219C73.5481 30.4107 73.5219 30.6113 73.5219 30.8118C73.5219 31.2651 73.6527 31.6574 73.9142 31.9886C74.1758 32.3199 74.5244 32.4856 74.9691 32.4856C75.1347 32.4856 75.3003 32.4594 75.4485 32.4071C75.5967 32.3548 75.7537 32.2763 75.8931 32.1543C76.0326 32.0235 76.1459 31.884 76.207 31.7097L77.6105 32.5466C77.4972 32.8343 77.2792 33.1045 76.9916 33.3312C76.7039 33.5578 76.3726 33.7235 76.0065 33.8368C75.649 33.9501 75.2829 34.0024 74.9167 34.0024C74.4721 34.0024 74.045 33.9153 73.6352 33.7235C73.2342 33.5317 72.903 33.2963 72.624 32.9912C72.3451 32.6861 72.1445 32.3461 71.9789 31.9538C71.8133 31.5615 71.7348 31.1692 71.7348 30.7595C71.7348 30.3497 71.8133 30.001 71.9615 29.6174C72.1097 29.2513 72.3189 28.9113 72.5804 28.6149C72.8419 28.3272 73.1907 28.0831 73.5917 27.8913C73.9927 27.717 74.4547 27.6211 74.9342 27.6211" fill="white"/>
<path id="Vector_40" d="M79.5458 30.8292C79.5458 30.4195 79.6243 30.0185 79.7899 29.6349C79.9555 29.2513 80.1735 28.9114 80.4525 28.6237C80.7314 28.336 81.0714 28.1006 81.4811 27.9263C81.8909 27.7519 82.3006 27.656 82.7626 27.656C83.2247 27.656 83.6606 27.7432 84.0529 27.935C84.4539 28.1093 84.7851 28.3621 85.0641 28.6585C85.3344 28.9637 85.5436 29.3036 85.7005 29.6872C85.8487 30.0708 85.9271 30.4631 85.9271 30.8641C85.9271 31.2651 85.8487 31.6749 85.6831 32.0584C85.5174 32.442 85.2995 32.782 85.0205 33.0697C84.7415 33.3574 84.4016 33.6015 83.9918 33.7671C83.5821 33.9414 83.1549 34.0373 82.7016 34.0373C82.2483 34.0373 81.8124 33.9502 81.4114 33.7584C81.0017 33.584 80.6791 33.3399 80.4001 33.0348C80.1212 32.7297 79.9207 32.3897 79.755 32.0061C79.6068 31.6225 79.5284 31.2215 79.5284 30.8292M82.7191 32.503C82.9631 32.503 83.1724 32.4507 83.3642 32.3636C83.5559 32.2589 83.7042 32.1369 83.8175 31.98C83.9308 31.8143 84.018 31.64 84.0703 31.4482C84.1313 31.2564 84.1575 31.0559 84.1575 30.838C84.1575 30.5503 84.1052 30.28 84.0093 30.0359C83.9047 29.7918 83.739 29.5913 83.5124 29.4431C83.2857 29.2949 83.0154 29.199 82.7103 29.199C82.4662 29.199 82.257 29.2513 82.074 29.3385C81.8822 29.4257 81.734 29.5565 81.6293 29.7221C81.516 29.8877 81.4288 30.0534 81.3765 30.2539C81.3155 30.4457 81.2893 30.6462 81.2893 30.8641C81.2893 31.0821 81.3155 31.2826 81.3765 31.4831C81.4375 31.6749 81.5247 31.8492 81.6381 32.0148C81.7514 32.163 81.8996 32.2938 82.0914 32.381C82.2832 32.4682 82.4837 32.5205 82.7278 32.5205" fill="white"/>
<path id="Vector_41" d="M93.189 33.9851V30.6812L92.1255 33.0088H91.2101L90.1552 30.6812V33.9851H88.4204V27.6997H90.3122L91.6634 30.655L93.0321 27.6997H94.9064V33.9851H93.1803H93.189Z" fill="white"/>
<path id="Vector_42" d="M102.238 32.477V33.9852H97.7658V27.6998H102.159V29.2079H99.4832V30.0971H101.767V31.4919H99.4832V32.477H102.229H102.238ZM100.555 27.4208L99.4919 27.1418L99.9365 25.8865H101.436L100.564 27.4295L100.555 27.4208Z" fill="white"/>
<path id="Vector_43" d="M104.827 33.9851V27.6997H107.713C108 27.6997 108.297 27.7607 108.558 27.8915C108.82 28.0223 109.055 28.1792 109.229 28.3884C109.404 28.5889 109.561 28.833 109.657 29.0858C109.761 29.3386 109.822 29.6089 109.822 29.8878C109.822 30.254 109.744 30.5853 109.578 30.8991C109.43 31.2129 109.195 31.4657 108.916 31.675L110.249 33.9939H108.358L107.251 32.0673H106.553V33.9939H104.801L104.827 33.9851ZM106.553 30.5504H107.643C107.756 30.5504 107.861 30.4894 107.948 30.3586C108.035 30.2278 108.079 30.0796 108.079 29.8791C108.079 29.6786 108.026 29.513 107.931 29.3822C107.826 29.2515 107.713 29.1904 107.599 29.1904H106.562V30.533L106.553 30.5504Z" fill="white"/>
<path id="Vector_44" d="M115.358 27.656C115.951 27.656 116.474 27.7867 116.918 28.0221C117.372 28.2662 117.703 28.6062 117.93 29.0246L116.613 29.9661C116.552 29.8179 116.474 29.6872 116.387 29.5826C116.282 29.478 116.169 29.3908 116.055 29.3385C115.942 29.2862 115.811 29.2339 115.698 29.2077C115.585 29.1816 115.454 29.1728 115.332 29.1728C115.088 29.1728 114.887 29.2251 114.695 29.3123C114.504 29.4169 114.364 29.539 114.251 29.6959C114.138 29.8441 114.059 30.0272 113.998 30.219C113.937 30.4107 113.911 30.6113 113.911 30.8118C113.911 31.2651 114.042 31.6574 114.303 31.9886C114.565 32.3199 114.913 32.4856 115.358 32.4856C115.524 32.4856 115.689 32.4594 115.855 32.4071C116.003 32.3548 116.16 32.2763 116.3 32.1543C116.439 32.0235 116.552 31.884 116.613 31.7097L118.017 32.5466C117.904 32.8343 117.686 33.1045 117.398 33.3312C117.11 33.5578 116.779 33.7235 116.413 33.8368C116.055 33.9501 115.689 34.0024 115.323 34.0024C114.879 34.0024 114.451 33.9153 114.042 33.7235C113.641 33.5317 113.309 33.2963 113.03 32.9912C112.751 32.6861 112.551 32.3461 112.385 31.9538C112.237 31.5615 112.141 31.1692 112.141 30.7595C112.141 30.3497 112.22 30.001 112.368 29.6174C112.516 29.2513 112.725 28.9113 112.987 28.6149C113.248 28.3272 113.597 28.0831 113.998 27.8913C114.399 27.717 114.861 27.6211 115.341 27.6211" fill="white"/>
<path id="Vector_45" d="M122.097 27.6997H120.371V33.9851H122.097V27.6997Z" fill="white"/>
<path id="Vector_46" d="M124.607 30.8292C124.607 30.4195 124.686 30.0185 124.852 29.6349C125.017 29.2513 125.235 28.9114 125.514 28.6237C125.793 28.336 126.133 28.1006 126.543 27.9263C126.953 27.7519 127.371 27.656 127.824 27.656C128.278 27.656 128.722 27.7432 129.132 27.935C129.533 28.1093 129.864 28.3621 130.143 28.6585C130.405 28.9637 130.623 29.3036 130.78 29.6872C130.928 30.0708 131.006 30.4631 131.006 30.8641C131.006 31.2651 130.928 31.6749 130.762 32.0584C130.597 32.442 130.379 32.782 130.1 33.0697C129.821 33.3574 129.481 33.6015 129.071 33.7671C128.67 33.9414 128.234 34.0373 127.781 34.0373C127.327 34.0373 126.892 33.9502 126.491 33.7584C126.081 33.584 125.758 33.3399 125.479 33.0348C125.2 32.7297 125 32.3897 124.834 32.0061C124.686 31.6225 124.607 31.2215 124.607 30.8292ZM127.798 32.503C128.042 32.503 128.251 32.4507 128.443 32.3636C128.635 32.2589 128.783 32.1369 128.897 31.98C129.01 31.8143 129.097 31.64 129.149 31.4482C129.21 31.2564 129.237 31.0559 129.237 30.838C129.237 30.5503 129.184 30.28 129.088 30.0359C128.984 29.7918 128.818 29.5913 128.591 29.4431C128.365 29.2949 128.095 29.199 127.789 29.199C127.545 29.199 127.336 29.2513 127.153 29.3385C126.961 29.4257 126.813 29.5565 126.708 29.7221C126.595 29.8877 126.508 30.0534 126.456 30.2539C126.395 30.4457 126.368 30.6462 126.368 30.8641C126.368 31.0821 126.395 31.2826 126.456 31.4831C126.517 31.6749 126.604 31.8492 126.717 32.0148C126.831 32.163 126.979 32.2938 127.17 32.381C127.362 32.4682 127.563 32.5205 127.807 32.5205" fill="white"/>
<path id="Vector_47" d="M69.0933 44.9957V46.4952H64.6212V40.2097H69.0149V41.7179H66.3385V42.6071H68.6226V44.0019H66.3385V45.0044H69.0846L69.0933 44.9957Z" fill="white"/>
<path id="Vector_48" d="M79.2407 42.2582C79.2407 42.2582 79.1797 42.2233 79.1361 42.1972C79.1012 42.171 79.0053 42.1187 78.8746 42.0577C78.7438 41.9967 78.6043 41.9269 78.4822 41.8834C78.3602 41.831 78.2033 41.7787 78.0377 41.7439C77.872 41.709 77.7238 41.6828 77.5669 41.6828C77.2269 41.6828 77.0613 41.7875 77.0613 41.988C77.0613 42.0403 77.0613 42.0751 77.0874 42.11C77.0962 42.1449 77.1223 42.1885 77.1746 42.2146C77.2095 42.2408 77.2531 42.2756 77.2879 42.3018C77.3228 42.328 77.3926 42.3541 77.4623 42.3803C77.5408 42.4064 77.6105 42.4326 77.6628 42.4413C77.7238 42.45 77.8023 42.4762 77.9243 42.5197C78.0377 42.5546 78.1423 42.5808 78.212 42.6069C78.4648 42.6854 78.6828 42.7551 78.8571 42.8336C79.0315 42.912 79.2145 42.9992 79.3715 43.1125C79.5371 43.2172 79.6766 43.3392 79.7812 43.47C79.8858 43.6007 79.9556 43.7577 80.0253 43.9407C80.0863 44.1151 80.1125 44.333 80.1125 44.5597C80.1125 44.8474 80.0602 45.1176 79.973 45.3443C79.8858 45.5709 79.755 45.7627 79.6068 45.9109C79.4586 46.0591 79.2756 46.1899 79.0663 46.2771C78.8484 46.3817 78.6392 46.4427 78.4212 46.4776C78.2033 46.5124 77.9679 46.5386 77.7238 46.5386C77.2705 46.5386 76.7997 46.4776 76.3028 46.3381C75.8059 46.1986 75.3613 46.0242 74.9952 45.8063L75.7449 44.2894C75.7449 44.2894 75.8234 44.3417 75.8582 44.3679C75.9106 44.394 76.0152 44.4551 76.1721 44.5335C76.3203 44.612 76.4859 44.6817 76.6428 44.7515C76.791 44.8125 76.9741 44.8648 77.1833 44.9171C77.3838 44.9694 77.5843 44.9956 77.7674 44.9956C78.0987 44.9956 78.273 44.9084 78.273 44.7166C78.273 44.6556 78.2469 44.5858 78.212 44.5422C78.1597 44.4899 78.0987 44.4376 77.9941 44.394C77.8894 44.3417 77.7936 44.3069 77.7064 44.2807C77.6192 44.2546 77.4797 44.2197 77.3141 44.15C77.1397 44.0976 77.0003 44.0628 76.8869 44.0192C76.3203 43.8274 75.9106 43.6007 75.6665 43.3305C75.4136 43.0602 75.2829 42.7115 75.2829 42.2495C75.2829 41.9095 75.3439 41.6044 75.4747 41.3341C75.6054 41.0639 75.7798 40.8372 75.9977 40.6629C76.2157 40.4885 76.4685 40.3578 76.7474 40.2706C77.0264 40.1834 77.3141 40.1311 77.6367 40.1311C78.3079 40.1311 79.0925 40.3578 79.9904 40.8024L79.2407 42.2321L79.2233 42.2582H79.2407Z" fill="white"/>
<path id="Vector_49" d="M87.1389 44.9957V46.4952H82.6667V40.2097H87.0605V41.7179H84.3841V42.6071H86.6769V44.0019H84.3841V45.0044H87.1302L87.1389 44.9957Z" fill="white"/>
<path id="Vector_50" d="M89.7194 46.4864V40.2009H92.6049C92.8926 40.2009 93.189 40.262 93.4505 40.3927C93.7121 40.5148 93.9474 40.6804 94.1218 40.8896C94.2961 41.0901 94.4531 41.3342 94.549 41.587C94.6536 41.8399 94.7146 42.1101 94.7146 42.3891C94.7146 42.7552 94.6361 43.0865 94.4705 43.4003C94.3223 43.7142 94.0869 43.967 93.8079 44.1762L95.1418 46.4951H93.25L92.1429 44.5685H91.4455V46.4951H89.6932L89.7194 46.4864ZM91.4455 43.0516H92.5352C92.6485 43.0516 92.7531 42.9906 92.8403 42.8598C92.9275 42.7291 92.9711 42.5809 92.9711 42.3803C92.9711 42.1798 92.9187 42.0142 92.8141 41.8834C92.7095 41.7614 92.5962 41.6916 92.4829 41.6916H91.4455V43.0342V43.0516Z" fill="white"/>
<path id="Vector_51" d="M98.437 40.2009L99.6662 44.4987L100.869 40.2009H102.691L100.512 46.4864H98.8032L96.6063 40.2009H98.4283H98.437Z" fill="white"/>
<path id="Vector_52" d="M106.667 40.2009H104.94V46.4864H106.667V40.2009Z" fill="white"/>
<path id="Vector_53" d="M115.027 45.0827C114.879 45.4663 114.6 45.7627 114.19 46.0155C113.789 46.2683 113.327 46.434 112.83 46.5124C113.118 46.8001 113.257 47.1052 113.257 47.4365C113.257 47.7154 113.17 47.9595 112.978 48.1426C112.804 48.3344 112.534 48.4303 112.176 48.4303C111.819 48.4303 111.47 48.3257 111.086 48.1252L111.479 47.2621C111.609 47.3755 111.749 47.4278 111.897 47.4278C112.002 47.4278 112.098 47.4016 112.167 47.3406C112.228 47.2796 112.272 47.2011 112.272 47.0878C112.272 46.9134 112.159 46.7042 111.932 46.5037C111.531 46.4514 111.156 46.3293 110.807 46.1201C110.45 45.9196 110.162 45.6668 109.918 45.3704C109.674 45.0827 109.491 44.7514 109.36 44.3853C109.221 44.0192 109.16 43.653 109.16 43.2869C109.16 42.9207 109.238 42.5284 109.386 42.1623C109.535 41.7961 109.744 41.4562 110.005 41.1598C110.267 40.8721 110.616 40.628 111.017 40.4362C111.435 40.2618 111.88 40.1572 112.368 40.1572C112.961 40.1572 113.484 40.2793 113.928 40.5234C114.382 40.7762 114.713 41.1075 114.94 41.5259L113.623 42.4587C113.562 42.3105 113.484 42.1797 113.379 42.0751C113.275 41.9705 113.179 41.8833 113.048 41.831C112.926 41.7787 112.804 41.7264 112.682 41.709C112.568 41.6828 112.438 41.6741 112.316 41.6741C112.071 41.6741 111.871 41.7264 111.679 41.8136C111.487 41.9182 111.348 42.0402 111.235 42.1972C111.121 42.3628 111.043 42.5372 110.982 42.7289C110.921 42.9207 110.895 43.1212 110.895 43.3217C110.895 43.7751 111.017 44.1674 111.287 44.4986C111.548 44.8299 111.897 44.9781 112.342 44.9781C112.507 44.9781 112.673 44.9519 112.839 44.8996C112.987 44.8473 113.144 44.7689 113.283 44.6468C113.423 44.5248 113.527 44.3766 113.597 44.2022L115.001 45.0391V45.0653L115.027 45.0827Z" fill="white"/>
<path id="Vector_54" d="M116.962 43.348C116.962 42.947 117.041 42.5373 117.206 42.1537C117.372 41.7701 117.59 41.4302 117.869 41.1425C118.148 40.8548 118.488 40.6194 118.897 40.4451C119.307 40.2707 119.726 40.1748 120.179 40.1748C120.632 40.1748 121.077 40.262 121.487 40.4538C121.888 40.6281 122.219 40.8809 122.498 41.1773C122.759 41.4825 122.977 41.8224 123.134 42.206C123.282 42.5896 123.361 42.9819 123.361 43.3829C123.361 43.7839 123.282 44.1937 123.117 44.5772C122.951 44.9608 122.733 45.3008 122.454 45.5885C122.175 45.8762 121.835 46.1203 121.426 46.2859C121.025 46.4602 120.589 46.5561 120.135 46.5561C119.682 46.5561 119.246 46.469 118.845 46.2772C118.435 46.1028 118.113 45.8587 117.834 45.5536C117.555 45.2485 117.354 44.9085 117.189 44.5249C117.041 44.1413 116.962 43.7403 116.962 43.348ZM120.153 45.0218C120.397 45.0218 120.606 44.9695 120.798 44.8823C120.99 44.7777 121.138 44.6557 121.251 44.4988C121.365 44.3331 121.452 44.1588 121.504 43.967C121.565 43.7752 121.591 43.5747 121.591 43.3568C121.591 43.0691 121.539 42.7988 121.443 42.5547C121.338 42.3106 121.181 42.1101 120.946 41.9619C120.719 41.8137 120.449 41.7178 120.144 41.7178C119.9 41.7178 119.691 41.7701 119.508 41.8573C119.316 41.9445 119.168 42.084 119.063 42.2409C118.95 42.4065 118.863 42.5722 118.81 42.7727C118.749 42.9645 118.723 43.165 118.723 43.3829C118.723 43.6009 118.749 43.8014 118.81 44.0019C118.871 44.1937 118.967 44.368 119.08 44.5336C119.194 44.6818 119.342 44.8126 119.534 44.8998C119.726 44.987 119.926 45.0393 120.17 45.0393" fill="white"/>
<path id="Vector_55" d="M129.611 42.2582C129.611 42.2582 129.55 42.2233 129.507 42.1972C129.472 42.171 129.376 42.1187 129.245 42.0577C129.115 41.9967 128.975 41.9269 128.853 41.8834C128.731 41.831 128.574 41.7787 128.408 41.7439C128.243 41.709 128.095 41.6828 127.938 41.6828C127.598 41.6828 127.432 41.7875 127.432 41.988C127.432 42.0403 127.432 42.0751 127.458 42.11C127.467 42.1449 127.493 42.1885 127.545 42.2146C127.58 42.2408 127.624 42.2756 127.659 42.3018C127.694 42.328 127.763 42.3541 127.833 42.3803C127.911 42.4064 127.981 42.4326 128.034 42.4413C128.095 42.45 128.173 42.4762 128.295 42.5197C128.408 42.5546 128.513 42.5808 128.583 42.6069C128.836 42.6854 129.054 42.7551 129.228 42.8336C129.402 42.912 129.585 42.9992 129.751 43.1125C129.917 43.2172 130.056 43.3392 130.161 43.47C130.265 43.6007 130.335 43.7577 130.405 43.9407C130.466 44.1151 130.492 44.333 130.492 44.5597C130.492 44.8474 130.44 45.1176 130.352 45.3443C130.265 45.5709 130.134 45.7627 129.986 45.9109C129.838 46.0591 129.655 46.1899 129.446 46.2771C129.228 46.3817 129.019 46.4427 128.801 46.4776C128.583 46.5124 128.347 46.5386 128.103 46.5386C127.65 46.5386 127.179 46.4776 126.682 46.3381C126.185 46.1986 125.741 46.0242 125.375 45.8063L126.124 44.2894C126.124 44.2894 126.203 44.3417 126.238 44.3679C126.29 44.394 126.395 44.4551 126.552 44.5335C126.7 44.612 126.865 44.6817 127.022 44.7515C127.17 44.8125 127.354 44.8648 127.563 44.9171C127.763 44.9694 127.964 44.9956 128.147 44.9956C128.478 44.9956 128.652 44.9084 128.652 44.7166C128.652 44.6556 128.626 44.5858 128.591 44.5422C128.539 44.4899 128.478 44.4376 128.374 44.394C128.269 44.3417 128.182 44.3069 128.086 44.2807C127.999 44.2546 127.859 44.2197 127.694 44.15C127.519 44.0976 127.38 44.0628 127.266 44.0192C126.7 43.8274 126.29 43.6007 126.046 43.3305C125.793 43.0602 125.662 42.7115 125.662 42.2495C125.662 41.9095 125.723 41.6044 125.854 41.3341C125.985 41.0639 126.159 40.8372 126.377 40.6629C126.595 40.4885 126.848 40.3578 127.127 40.2706C127.406 40.1834 127.694 40.1311 128.016 40.1311C128.687 40.1311 129.472 40.3578 130.37 40.8024L129.62 42.2321L129.603 42.2582H129.611Z" fill="white"/>
</g>
</svg>
