<svg width="85" height="23" viewBox="0 0 85 23" fill="none" xmlns="http://www.w3.org/2000/svg">
<path fill-rule="evenodd" clip-rule="evenodd" d="M0.00184141 18.0809C10.7704 18.764 27.8035 19.6774 29.8917 22.5518C30.9118 19.241 30.3391 18.2834 27.7998 18.0256C19.705 17.2025 8.36002 17.5082 0 18.0809H0.00184141ZM49.3002 22.2535H49.0093L49.0737 20.959L48.7257 22.2535H48.4531L48.8988 20.703H49.3297L49.2781 21.7895L49.8674 20.703H50.3056L49.8655 22.2535H49.5893L49.9889 20.9664L49.3002 22.2535ZM47.805 21.911H47.2212L47.0132 22.2535H46.702L47.6705 20.703H48.0057L48.107 22.2535H47.8215L47.805 21.911ZM47.7921 21.6532L47.7589 21.0271L47.3778 21.6532H47.7902H47.7921ZM46.225 22.2535L46.5952 20.9627H47.0205L47.0942 20.703H45.9267L45.8512 20.9627H46.295L45.923 22.2535H46.2269H46.225ZM45.0668 21.6956L45.3651 21.7434C45.2896 21.9239 45.1865 22.0583 45.0594 22.1467C44.9324 22.2351 44.7887 22.2811 44.6322 22.2811C44.4573 22.2811 44.321 22.2241 44.2289 22.1136C44.1369 22.0012 44.0982 21.8337 44.1185 21.6127C44.135 21.4194 44.1884 21.2536 44.275 21.1082C44.3634 20.9627 44.4683 20.854 44.5917 20.7841C44.7132 20.7123 44.8421 20.6773 44.9766 20.6773C45.1294 20.6773 45.2528 20.7215 45.3485 20.808C45.4406 20.8946 45.4903 21.0179 45.494 21.18L45.203 21.2094C45.1938 21.1137 45.1662 21.0492 45.1257 21.0106C45.0815 20.9719 45.0226 20.9516 44.9489 20.9516C44.8753 20.9516 44.7998 20.9756 44.7243 21.0235C44.6469 21.0695 44.5825 21.1487 44.5236 21.2592C44.4646 21.3696 44.4278 21.493 44.4168 21.6256C44.4057 21.7508 44.4278 21.8466 44.4757 21.9147C44.5272 21.981 44.5954 22.0141 44.6764 22.0141C44.7537 22.0141 44.8274 21.9884 44.8992 21.9368C44.9692 21.8834 45.0263 21.8024 45.0686 21.6956H45.0668ZM42.4317 22.2535L42.8773 20.703H43.9675L43.8938 20.9627H43.1057L43.0044 21.3144H43.7649L43.6912 21.574H42.9307L42.8092 21.9939H43.6526L43.5789 22.2535H42.4317ZM41.9658 22.2535H41.6823L41.3784 21.2113L41.082 22.2535H40.7984L41.244 20.703H41.5239L41.8296 21.7398L42.126 20.703H42.4096L41.964 22.2535H41.9658ZM39.1871 21.644C39.1982 21.5096 39.2369 21.3715 39.3013 21.2297C39.3842 21.0474 39.4947 20.9093 39.6309 20.8154C39.769 20.7215 39.9237 20.6736 40.095 20.6736C40.2662 20.6736 40.4135 20.7325 40.5185 20.8467C40.6216 20.9645 40.664 21.121 40.6474 21.3236C40.6308 21.5059 40.5774 21.6716 40.4798 21.8263C40.3841 21.981 40.2736 22.0933 40.1447 22.167C40.0176 22.2406 39.8795 22.2775 39.734 22.2775C39.561 22.2775 39.4265 22.2259 39.3326 22.1191C39.2203 21.9939 39.1724 21.8355 39.189 21.6422L39.1871 21.644ZM39.491 21.6366C39.4818 21.749 39.5057 21.841 39.5646 21.9092C39.6217 21.9755 39.6991 22.0105 39.7911 22.0105C39.8629 22.0105 39.9421 21.9847 40.0176 21.935C40.095 21.8834 40.1649 21.8005 40.2294 21.6845C40.292 21.5704 40.3307 21.4525 40.3399 21.331C40.3509 21.2058 40.327 21.1082 40.2662 21.0363C40.2147 20.9737 40.1392 20.9406 40.0471 20.9406C39.9697 20.9406 39.8924 20.9664 39.8114 21.0179C39.734 21.0676 39.6622 21.1505 39.5996 21.2647C39.5389 21.377 39.502 21.5004 39.4891 21.6348L39.491 21.6366ZM38.5187 21.6937L38.817 21.7416C38.7415 21.9221 38.6384 22.0565 38.5113 22.1449C38.3825 22.2333 38.2407 22.2793 38.0841 22.2793C37.9092 22.2793 37.7729 22.2222 37.6809 22.1117C37.5888 21.9994 37.5501 21.8318 37.5704 21.6109C37.587 21.4175 37.6404 21.2518 37.7269 21.1063C37.8153 20.9608 37.9202 20.8522 38.0436 20.7822C38.1652 20.7104 38.2941 20.6754 38.4285 20.6754C38.5813 20.6754 38.7047 20.7196 38.8004 20.8062C38.8925 20.8927 38.9422 21.0161 38.9459 21.1781L38.655 21.2076C38.6458 21.1118 38.6181 21.0474 38.5776 21.0087C38.5334 20.9701 38.4745 20.9498 38.4009 20.9498C38.3272 20.9498 38.2517 20.9737 38.1762 21.0216C38.0989 21.0676 38.0344 21.1468 37.9755 21.2573C37.9147 21.3678 37.8797 21.4912 37.8687 21.6238C37.8576 21.749 37.8797 21.8447 37.9276 21.9129C37.9792 21.9791 38.0473 22.0123 38.1283 22.0123C38.2057 22.0123 38.2775 21.9865 38.3511 21.935C38.4211 21.8816 38.4782 21.8005 38.5206 21.6937H38.5187ZM35.3128 22.2517L35.7584 20.7012H36.8485L36.7749 20.9608H35.9868L35.8855 21.3126H36.646L36.5723 21.5722H35.8118L35.6903 21.992H36.5337L36.46 22.2517H35.3128ZM34.1067 20.7012H34.4105L34.1711 21.5446L34.1122 21.749C34.1085 21.7692 34.1048 21.7858 34.103 21.8005C34.0975 21.865 34.1159 21.9184 34.1546 21.957C34.1969 21.9939 34.2522 22.0141 34.3295 22.0141C34.3939 22.0141 34.4529 22.0012 34.5007 21.9755C34.5505 21.9497 34.5891 21.9092 34.6223 21.8539C34.6536 21.8024 34.6904 21.6993 34.7346 21.5538L34.985 20.7049H35.2889L35.0384 21.5519C34.9887 21.725 34.9427 21.8502 34.8966 21.9331C34.8322 22.051 34.7493 22.1375 34.6499 22.1946C34.5505 22.2535 34.4289 22.2811 34.2908 22.2811C34.1288 22.2811 34.0017 22.2369 33.917 22.1541C33.8323 22.0694 33.7955 21.9534 33.8065 21.8079C33.8102 21.76 33.8342 21.6643 33.8747 21.5225L34.1067 20.7067V20.7012ZM32.919 22.2204C32.8693 22.2406 32.8214 22.2554 32.7698 22.2627C32.7183 22.2738 32.6667 22.2775 32.6133 22.2775C32.4402 22.2775 32.3058 22.2241 32.21 22.1173C32.1014 21.9939 32.0517 21.8337 32.0701 21.6385C32.0811 21.5077 32.118 21.3715 32.1842 21.2297C32.2671 21.0492 32.3776 20.9111 32.5139 20.8154C32.652 20.7215 32.8066 20.6736 32.9761 20.6736C33.1455 20.6736 33.2946 20.7325 33.3996 20.8467C33.5027 20.9645 33.5451 21.121 33.5285 21.3236C33.5156 21.4783 33.4714 21.6219 33.3977 21.7619C33.3259 21.9 33.2357 22.0105 33.1307 22.0952C33.1878 22.1596 33.2504 22.2148 33.3186 22.259L33.1584 22.4561C33.07 22.4082 32.9926 22.329 32.9208 22.2185L32.919 22.2204ZM32.9742 21.876C33.0368 21.8153 33.0921 21.7361 33.1381 21.6311C33.1841 21.5298 33.2136 21.4304 33.2228 21.3347C33.2339 21.2094 33.2118 21.1118 33.1565 21.0437C33.0994 20.9774 33.0221 20.9424 32.93 20.9424C32.8527 20.9424 32.7753 20.9682 32.698 21.0179C32.6188 21.0676 32.5488 21.1505 32.4862 21.2628C32.4236 21.377 32.385 21.4967 32.3739 21.6201C32.3629 21.7453 32.3868 21.841 32.4439 21.911C32.5028 21.9773 32.5802 22.0123 32.6759 22.0123C32.7219 22.0123 32.7532 22.0105 32.7735 22.0031C32.7809 22.0012 32.7845 21.9957 32.7845 21.9902C32.7845 21.981 32.7717 21.9644 32.7459 21.9386C32.7109 21.9018 32.6741 21.876 32.6317 21.8613L32.7569 21.6845C32.8435 21.7324 32.9153 21.7968 32.9724 21.8779L32.9742 21.876ZM43.4611 19.2649L43.7502 19.2502C43.7483 19.333 43.752 19.392 43.7667 19.4233C43.7815 19.4564 43.8091 19.4803 43.8496 19.4988C43.8883 19.519 43.9454 19.5264 44.0153 19.5264C44.1074 19.5264 44.1792 19.5098 44.2271 19.4748C44.2787 19.438 44.3044 19.392 44.31 19.3367C44.3136 19.2962 44.3044 19.2612 44.2823 19.2336C44.2602 19.206 44.194 19.1636 44.0853 19.1139C43.949 19.0476 43.857 18.9979 43.8128 18.9611C43.7686 18.9242 43.7373 18.8819 43.717 18.8266C43.6949 18.7751 43.6876 18.7143 43.6931 18.6462C43.706 18.5081 43.7631 18.3976 43.8625 18.3147C43.9656 18.2319 44.0964 18.1914 44.2566 18.1914C44.4168 18.1914 44.5475 18.2319 44.6396 18.3147C44.7316 18.3976 44.774 18.5118 44.7722 18.6609L44.4831 18.6738C44.4831 18.5191 44.4002 18.4436 44.2363 18.4436C44.1571 18.4436 44.0945 18.4584 44.054 18.4878C44.0135 18.5173 43.9896 18.5578 43.9859 18.6094C43.9822 18.6554 43.9969 18.6922 44.0319 18.7217C44.0651 18.7493 44.1332 18.7917 44.2345 18.8395C44.3707 18.904 44.4591 18.9537 44.5033 18.9887C44.5457 19.0255 44.577 19.0697 44.5972 19.1213C44.6175 19.1728 44.6248 19.2318 44.6193 19.2962C44.6064 19.4435 44.5438 19.5632 44.4278 19.6553C44.3118 19.7492 44.1682 19.7934 43.9932 19.7934C43.8607 19.7934 43.7502 19.7694 43.6618 19.7197C43.5734 19.6719 43.5145 19.6074 43.4887 19.5245C43.4611 19.4435 43.4537 19.357 43.4648 19.2649H43.4611ZM41.8535 19.7676L42.2991 18.2171H43.3893L43.3156 18.4768H42.5275L42.4262 18.8285H43.1867L43.113 19.0881H42.3525L42.231 19.508H43.0744L43.0007 19.7676H41.8535ZM40.246 19.1581C40.257 19.0237 40.2957 18.8856 40.3601 18.7438C40.443 18.5615 40.5535 18.4234 40.6897 18.3295C40.8278 18.2355 40.9825 18.1877 41.1538 18.1877C41.325 18.1877 41.4723 18.2466 41.5773 18.3608C41.6786 18.4786 41.7228 18.6351 41.7062 18.8377C41.6896 19.02 41.6362 19.1857 41.5386 19.3404C41.4429 19.4951 41.3324 19.6074 41.2035 19.6811C41.0764 19.7547 40.9383 19.7915 40.7929 19.7915C40.6198 19.7915 40.4835 19.74 40.3914 19.6332C40.2791 19.508 40.2312 19.3496 40.2478 19.1563L40.246 19.1581ZM40.5498 19.1507C40.5406 19.2631 40.5645 19.3551 40.6235 19.4233C40.6805 19.4896 40.7579 19.5245 40.8499 19.5245C40.9218 19.5245 41.0009 19.4988 41.0764 19.449C41.1538 19.3975 41.2238 19.3146 41.2882 19.1986C41.3508 19.0844 41.3895 18.9666 41.3987 18.8451C41.4097 18.7198 41.3858 18.6222 41.325 18.5504C41.2735 18.4878 41.198 18.4547 41.1059 18.4547C41.0286 18.4547 40.9512 18.4805 40.8702 18.532C40.7929 18.5817 40.721 18.6646 40.6584 18.7788C40.5977 18.8911 40.5608 19.0145 40.548 19.1489L40.5498 19.1507ZM41.0543 18.0901H40.9273C40.9586 17.9906 40.9917 17.9225 41.0286 17.8857C41.0635 17.8507 41.1059 17.8341 41.1483 17.8341C41.1832 17.8341 41.2477 17.8507 41.3306 17.8857C41.3821 17.9059 41.4171 17.917 41.4374 17.917C41.4521 17.917 41.465 17.9096 41.476 17.9023C41.4871 17.8912 41.4981 17.8691 41.5129 17.836H41.6399C41.6197 17.9225 41.5883 17.9851 41.5478 18.0275C41.5073 18.068 41.4613 18.0901 41.4153 18.0901C41.3858 18.0901 41.3379 18.0772 41.2753 18.0496C41.2109 18.0219 41.1685 18.0054 41.1519 18.0054C41.1096 18.0054 41.0764 18.033 41.0543 18.0919V18.0901ZM39.5775 19.2078L39.8758 19.2557C39.8003 19.4362 39.6972 19.5706 39.5702 19.659C39.4413 19.7474 39.2995 19.7934 39.143 19.7934C38.968 19.7934 38.8318 19.7363 38.7397 19.6258C38.6476 19.5135 38.6089 19.3459 38.6292 19.125C38.6458 18.9316 38.6992 18.7659 38.7857 18.6204C38.8741 18.4749 38.9791 18.3663 39.1024 18.2963C39.224 18.2245 39.3529 18.1895 39.4873 18.1895C39.6401 18.1895 39.7635 18.2337 39.8593 18.3203C39.9513 18.4068 40.0011 18.5302 40.0047 18.6922L39.7138 18.7217C39.7046 18.6259 39.677 18.5615 39.6365 18.5228C39.5923 18.4841 39.5333 18.4639 39.4597 18.4639C39.386 18.4639 39.3105 18.4878 39.235 18.5357C39.1577 18.5817 39.0932 18.6609 39.0343 18.7714C38.9754 18.8819 38.9386 19.0053 38.9275 19.1378C38.9165 19.2631 38.9386 19.3588 38.9864 19.4251C39.038 19.4914 39.1061 19.5245 39.1871 19.5245C39.2645 19.5245 39.3363 19.4988 39.41 19.4472C39.4799 19.3938 39.537 19.3128 39.5794 19.206L39.5775 19.2078ZM38.7876 20.2059C38.8097 20.2077 38.8428 20.2095 38.8852 20.2095C39.0233 20.2095 39.1319 20.1856 39.2148 20.1359C39.2976 20.0862 39.34 20.0272 39.3455 19.9628C39.3492 19.9112 39.3345 19.867 39.2958 19.8357C39.259 19.8026 39.2056 19.7879 39.1356 19.7879C39.0988 19.7879 39.0527 19.7952 39.003 19.8081L38.9588 19.9112C38.9975 19.9076 39.0288 19.902 39.049 19.902C39.0896 19.902 39.119 19.9094 39.1374 19.9223C39.154 19.937 39.1614 19.9554 39.1595 19.9757C39.1558 20.0125 39.1337 20.0365 39.0896 20.0512C39.0269 20.0733 38.9643 20.0843 38.9072 20.0843H38.8446L38.7857 20.2059H38.7876ZM37.2592 18.2153H37.563L37.3236 19.0587L37.2647 19.2631C37.261 19.2833 37.2573 19.2999 37.2555 19.3146C37.25 19.3791 37.2684 19.4325 37.3071 19.4711C37.3494 19.508 37.4047 19.5282 37.482 19.5282C37.5464 19.5282 37.6054 19.5153 37.6532 19.4896C37.703 19.4638 37.7416 19.4233 37.7748 19.368C37.8061 19.3165 37.8429 19.2133 37.8871 19.066L38.1375 18.2171H38.4414L38.1909 19.0642C38.1412 19.2373 38.0952 19.3625 38.0491 19.4454C37.9847 19.5632 37.9018 19.6498 37.8024 19.7068C37.703 19.7658 37.5814 19.7934 37.4433 19.7934C37.2813 19.7934 37.1542 19.7492 37.0695 19.6663C36.9848 19.5816 36.948 19.4656 36.959 19.3201C36.9627 19.2723 36.9867 19.1765 37.0272 19.0347L37.2592 18.219V18.2153ZM35.4233 19.7658L35.8689 18.2153H36.1691L35.7989 19.5061H36.5484L36.4747 19.7658H35.4233ZM33.8121 19.1563C33.8231 19.0218 33.8618 18.8837 33.9262 18.7419C34.0091 18.5596 34.1196 18.4215 34.2558 18.3276C34.3939 18.2337 34.5486 18.1858 34.718 18.1858C34.8874 18.1858 35.0366 18.2448 35.1416 18.3589C35.2447 18.4768 35.287 18.6333 35.2705 18.8359C35.2539 19.0182 35.2005 19.1839 35.1029 19.3386C35.0071 19.4932 34.8966 19.6056 34.7677 19.6792C34.6407 19.7529 34.5026 19.7897 34.3571 19.7897C34.184 19.7897 34.0496 19.7381 33.9557 19.6313C33.8434 19.5061 33.7955 19.3478 33.8121 19.1544V19.1563ZM34.1159 19.1489C34.1067 19.2612 34.1306 19.3533 34.1895 19.4214C34.2466 19.4877 34.324 19.5227 34.416 19.5227C34.4879 19.5227 34.567 19.4969 34.6425 19.4472C34.7199 19.3956 34.7898 19.3128 34.8543 19.1968C34.9169 19.0826 34.9556 18.9648 34.9648 18.8432C34.9758 18.718 34.9519 18.6204 34.8911 18.5486C34.8396 18.486 34.7641 18.4528 34.672 18.4528C34.5947 18.4528 34.5173 18.4786 34.4381 18.5302C34.3608 18.5799 34.289 18.6628 34.2264 18.7769C34.1656 18.8893 34.1288 19.0126 34.1159 19.1471V19.1489ZM32.2284 19.2612L32.5175 19.2465C32.5157 19.3293 32.5194 19.3883 32.5341 19.4196C32.5488 19.4527 32.5765 19.4767 32.617 19.4951C32.6556 19.5153 32.7127 19.5227 32.7827 19.5227C32.8748 19.5227 32.9466 19.5061 32.9945 19.4711C33.046 19.4343 33.0718 19.3883 33.0773 19.333C33.081 19.2925 33.0718 19.2575 33.0497 19.2299C33.0276 19.2023 32.9613 19.1599 32.8527 19.1102C32.7164 19.0439 32.6243 18.9942 32.5802 18.9574C32.536 18.9206 32.5047 18.8782 32.4844 18.823C32.4623 18.7714 32.4549 18.7106 32.4605 18.6425C32.4733 18.5044 32.5304 18.3939 32.6299 18.311C32.733 18.2282 32.8637 18.1877 33.0239 18.1877C33.1841 18.1877 33.3149 18.2282 33.4069 18.311C33.499 18.3939 33.5432 18.5081 33.5395 18.6572L33.2504 18.6701C33.2504 18.5154 33.1676 18.4399 33.0018 18.4399C32.9227 18.4399 32.86 18.4547 32.8195 18.4841C32.779 18.5136 32.7551 18.5541 32.7514 18.6057C32.7477 18.6517 32.7625 18.6885 32.7974 18.718C32.8306 18.7456 32.8987 18.788 33 18.8359C33.1363 18.9003 33.2246 18.95 33.2688 18.985C33.3112 19.0218 33.3425 19.066 33.3628 19.1176C33.383 19.1691 33.3904 19.2281 33.3848 19.2925C33.372 19.4398 33.3093 19.5595 33.1933 19.6516C33.0773 19.7455 32.9337 19.7897 32.7588 19.7897C32.6262 19.7897 32.5157 19.7658 32.4273 19.716C32.3389 19.6682 32.28 19.6037 32.2542 19.5209C32.2266 19.4398 32.2192 19.3533 32.2303 19.2612H32.2284ZM45.6855 4.95895C38.1136 5.34565 30.3207 5.26647 22.6384 4.57594C34.0975 3.89277 48.7938 3.27774 54.4488 0.10498C53.4839 4.26105 53.6957 4.55016 45.6855 4.95895ZM0.548742 15.3022C1.17666 12.5014 1.80643 9.70243 2.43435 6.90164H5.77468C6.12823 8.97507 6.47994 11.0467 6.83349 13.1201C8.15563 11.0485 9.4796 8.97507 10.8017 6.90164H13.7775C13.2508 9.27523 12.726 11.647 12.1994 14.0187C12.0152 14.8529 11.7298 15.3003 10.8128 15.3003H9.44462C9.9731 13.0078 10.5034 10.7152 11.0319 8.42081C9.70057 10.4298 8.36739 12.4388 7.03605 14.4459C6.57569 15.1401 6.51677 15.3648 5.56291 15.3648H4.71586C4.29602 12.9617 3.87802 10.5587 3.45818 8.15565C2.99966 10.0762 2.55404 11.9563 2.08816 13.9193C1.87272 14.8271 1.66464 15.3869 0.548742 15.3003V15.3022ZM47.1734 9.34336C46.7149 11.3413 46.2563 13.3392 45.7978 15.3372H47.0997C48.072 15.3372 48.2377 14.6209 48.3997 13.829C48.5507 13.0943 48.6999 12.3596 48.8509 11.6267C49.0019 10.8901 49.2302 10.7318 49.9907 10.7318H51.9353C52.0642 10.2696 52.1949 9.80555 52.3238 9.34336H50.5303C50.0036 9.34336 49.5433 9.47226 49.21 9.9142C49.2394 9.72453 49.2707 9.53302 49.3002 9.34336H47.1734ZM43.4371 15.3132H38.4487C37.5777 15.3648 37.0032 15.0517 37.0603 13.9579C37.2647 13.0372 37.4691 12.1165 37.6735 11.194C37.935 10.01 38.5611 9.34336 39.8353 9.34336H44.0872C44.9508 9.34336 45.6118 9.78714 45.3614 10.7484C45.2896 11.0743 45.2178 11.3984 45.1441 11.7243C44.8826 12.9083 44.0117 13.295 42.8645 13.295H39.607V13.3042L39.6033 13.3134V13.3227L39.5996 13.3319V13.3411L39.5959 13.3503V13.3595L39.5923 13.3687V13.3779L39.5886 13.3871V13.3963L39.5849 13.4055V13.4147L39.5812 13.4239V13.4331L39.5775 13.4423V13.4516L39.5738 13.4608V13.47L39.5702 13.4792V13.4884L39.5665 13.4976V13.5068L39.5628 13.516V13.5252L39.5591 13.5344V13.5436L39.5554 13.5528V13.562L39.5517 13.5712V13.5805L39.5481 13.5897V13.5989L39.5444 13.6081V13.6173L39.5407 13.6265V13.6357L39.537 13.6449V13.6541L39.5333 13.6633V13.6725L39.5296 13.6817V13.6909L39.526 13.7001V13.7094L39.5223 13.7186V13.7278L39.5186 13.737V13.7462L39.5149 13.7554V13.7646L39.5112 13.7738V13.783L39.5075 13.7922V13.8014L39.5039 13.8106V13.8198L39.5002 13.829V13.8383L39.4965 13.8475V13.8567L39.4928 13.8659V13.8751L39.4891 13.8843C39.4762 13.9266 39.467 13.9635 39.4615 14.0003L39.3713 14.3796H44.6138C44.5107 14.6282 44.321 15.339 43.4519 15.339L43.4371 15.3132ZM40.2883 10.3432C40.1428 10.9804 39.9974 11.6157 39.8519 12.2528H41.9806C42.3728 12.2528 42.7558 12.0392 42.8424 11.6414C42.8958 11.3984 42.9492 11.1535 43.0007 10.9104C43.0891 10.5034 43.0504 10.3432 42.5846 10.3432H40.2902H40.2883ZM22.3161 15.3408H28.2676C29.203 15.3408 29.9322 14.7737 30.1219 13.864C30.1918 13.5307 30.26 13.1956 30.3299 12.8623C30.538 11.855 29.9543 11.3929 28.9968 11.3929H25.9713C25.3379 11.3929 25.4741 10.277 26.253 10.277H32.6428C32.4365 11.3487 32.2303 12.4204 32.0259 13.4921C31.8436 14.4404 31.6116 15.3206 33.0589 15.3206H36.0512C36.0659 14.7461 35.7787 14.3041 35.171 14.3041H34.6794C33.9759 14.3041 34.0662 14.0942 34.1822 13.4902C34.3884 12.4185 34.5947 11.3468 34.7991 10.2751C35.3054 10.2696 35.8137 10.2641 36.3201 10.2585C36.9498 10.2512 37.2021 9.88473 37.2647 9.28075H34.9942C35.1471 8.47421 35.3018 7.66767 35.4546 6.86113H33.3186C33.1602 7.67135 33.0018 8.48342 32.8453 9.29364H25.1151C24.4614 9.29364 23.5057 9.72637 23.3602 10.4206C23.2552 10.9178 23.1503 11.4168 23.0453 11.9158C22.8962 12.6211 23.1226 13.2582 23.9402 13.2582H27.2732C28.3541 13.2582 27.914 14.3299 27.2732 14.3299H23.6125C22.8962 14.3299 22.5168 14.6466 22.3143 15.3427L22.3161 15.3408ZM14.5951 9.62878C14.6135 10.1444 14.8934 10.3083 15.3777 10.3083H19.0329C19.4104 10.3046 19.5706 10.4556 19.4638 10.8036C19.4196 10.9914 19.3754 11.1792 19.3312 11.3652H16.0737C14.9265 11.3652 14.0555 11.7519 13.794 12.936C13.7222 13.2619 13.6504 13.586 13.5768 13.9119C13.3263 14.8731 13.9855 15.3169 14.851 15.3169H20.854C21.1965 13.7793 21.5372 12.2417 21.8797 10.7042C21.9349 9.60852 21.3604 9.29548 20.4913 9.34888H14.5877C14.5914 9.44279 14.5951 9.53487 14.5987 9.62878H14.5951ZM18.648 14.3189H16.3536C15.8877 14.3189 15.8491 14.1605 15.9374 13.7517C15.9908 13.5086 16.0442 13.2637 16.0958 13.0207C16.1824 12.6229 16.5654 12.4093 16.9576 12.4093H19.0863C18.9408 13.0464 18.7953 13.6817 18.6498 14.3189H18.648Z" fill="white"/>
<path fill-rule="evenodd" clip-rule="evenodd" d="M69.3091 2.63143V2.3589C69.3661 2.34601 69.4214 2.32023 69.4748 2.28156C69.5558 2.22448 69.6221 2.13609 69.6737 2.02008C69.7252 1.90223 69.7528 1.7899 69.7528 1.67758C69.7528 1.5542 69.7197 1.45661 69.6534 1.38664C69.5871 1.31666 69.5024 1.28167 69.3993 1.28167C69.368 1.28167 69.3385 1.28536 69.3091 1.29088V1.01835C69.3459 1.01467 69.3846 1.01099 69.4251 1.01099C69.6203 1.01099 69.7768 1.07175 69.8965 1.19329C70.0162 1.31482 70.0751 1.47502 70.0751 1.6739C70.0751 1.83962 70.0364 1.99983 69.9591 2.15635C69.8817 2.31103 69.7749 2.43072 69.6424 2.51542C69.5411 2.57803 69.4306 2.61854 69.3109 2.63327L69.3091 2.63143ZM70.1985 2.10479L70.506 2.08821C70.5097 2.18581 70.5281 2.2521 70.5557 2.28525C70.6036 2.34049 70.6901 2.36811 70.8172 2.36811C70.9221 2.36811 70.9995 2.34969 71.0474 2.31103C71.0952 2.27236 71.1173 2.22816 71.1173 2.17292C71.1173 2.12688 71.0989 2.08637 71.0602 2.05507C71.0326 2.03113 70.959 1.99246 70.8374 1.9409C70.7159 1.8875 70.6275 1.84331 70.5704 1.80832C70.5133 1.77333 70.471 1.7273 70.4378 1.67021C70.4065 1.61313 70.39 1.54684 70.39 1.47134C70.39 1.33876 70.4378 1.22827 70.5336 1.14173C70.6294 1.05518 70.7675 1.01099 70.9498 1.01099C71.1321 1.01099 71.2757 1.05334 71.377 1.13989C71.4782 1.22643 71.5335 1.34244 71.5445 1.48607L71.2352 1.5008C71.2278 1.4253 71.2002 1.36822 71.1542 1.32771C71.1081 1.2872 71.04 1.26694 70.9479 1.26694C70.8558 1.26694 70.7951 1.28352 70.7564 1.31482C70.7177 1.34612 70.6993 1.38664 70.6993 1.43451C70.6993 1.48055 70.7177 1.51738 70.7509 1.54684C70.7859 1.5763 70.8632 1.61865 70.9829 1.67021C71.1634 1.74755 71.2775 1.812 71.3272 1.85988C71.4009 1.93169 71.4377 2.02376 71.4377 2.13609C71.4377 2.2742 71.3825 2.39389 71.2738 2.49148C71.1634 2.58908 71.0124 2.6388 70.8153 2.6388C70.6809 2.6388 70.5631 2.6167 70.4636 2.57066C70.3642 2.52463 70.2961 2.46202 70.2537 2.38284C70.2132 2.30182 70.1948 2.20975 70.1966 2.10479H70.1985ZM66.3057 2.26499H66.0479V2.00167H66.267L66.1731 1.37006L66.0461 1.60024V1.04045H66.4088L66.6629 2.61118H66.3573L66.3057 2.26499ZM69.3091 1.01835V1.29088C69.1912 1.31482 69.0936 1.38479 69.0144 1.50264C68.915 1.64996 68.8671 1.812 68.8671 1.98878C68.8671 2.09742 68.9003 2.18765 68.9647 2.26131C69.031 2.33496 69.1176 2.37179 69.2244 2.37179C69.2538 2.37179 69.2814 2.36811 69.3091 2.36258V2.63511C69.2704 2.64064 69.2299 2.64248 69.1875 2.64248C69.0421 2.64248 68.9187 2.60933 68.8192 2.54304C68.7198 2.47675 68.6498 2.39389 68.6075 2.29629C68.567 2.1987 68.5449 2.09926 68.5449 1.99798C68.5449 1.90591 68.5596 1.80648 68.5872 1.70336C68.6241 1.56525 68.6793 1.44556 68.7548 1.34428C68.8303 1.243 68.9242 1.16198 69.0365 1.10306C69.1194 1.0607 69.2096 1.03308 69.3091 1.02203V1.01835ZM68.1158 2.61118H67.8157L67.3921 1.55605L67.1712 2.61118H66.871L67.2006 1.04045H67.5008L67.9262 2.0919L68.1453 1.04045H68.4454L68.1158 2.61118ZM66.0479 2.26499H65.6833L65.4936 2.61118H65.1585L66.0442 1.04045H66.0461V1.60024L65.8269 2.00167H66.0461V2.26499H66.0479Z" fill="white"/>
<path fill-rule="evenodd" clip-rule="evenodd" d="M77.8219 19.5282L78.5603 20.2666L79.2987 19.5282L78.5603 18.7898L77.8219 19.5282ZM79.3484 7.05446L80.4459 8.15194L79.7443 8.85352L80.1881 9.2973L79.8438 9.64165C80.1145 10.2788 80.2931 10.9656 80.3631 11.6838H80.0611C79.7149 8.29557 76.8386 5.63841 73.362 5.63841C69.6534 5.63841 66.6279 8.66386 66.6279 12.3725C66.6279 16.0811 69.6534 19.1065 73.362 19.1065C76.4961 19.1065 79.1404 16.9465 79.8861 14.0408H80.1955C79.9782 14.9283 79.5915 15.7496 79.0722 16.4696L79.2011 16.5967L78.75 17.0478L78.6745 16.9723C78.6045 17.0533 78.5327 17.1307 78.459 17.208L78.634 17.383L78.2822 17.7347L78.6818 18.1343L77.5844 19.2317L76.8275 18.4749C76.7244 18.5338 76.6176 18.5891 76.5108 18.6425L76.787 18.9187L76.2051 19.5006L76.5071 19.8026L77.0006 19.3091L77.9508 20.2592L77.0006 21.2094L76.2235 20.4323L75.9676 20.6883L76.3064 21.0271L75.8553 21.4783L75.5164 21.1394L75.185 21.4709V21.4801C74.6013 21.5943 74.0083 21.6514 73.4117 21.6514C70.8466 21.6514 68.5228 20.611 66.8415 18.9297C65.7496 17.8378 64.9302 16.4733 64.4882 14.9504C63.7424 16.6261 62.6008 18.125 61.205 19.322C59.1002 21.1247 56.4247 22.2388 53.6736 22.2388L54.1026 19.6755C56.1448 19.6755 58.1335 18.8469 59.6969 17.5082C61.2602 16.1695 62.3964 14.3207 62.7389 12.2767C63.0814 10.2346 62.5621 8.38396 61.448 7.04525C60.334 5.70654 58.6233 4.87791 56.5793 4.87791L56.966 2.56325L57.0084 2.31466L57.3951 0H64.7571L64.7037 0.314882C64.4937 1.26873 63.7958 2.51353 62.2656 2.56325H59.1886C60.9748 2.98677 62.4774 3.92958 63.562 5.23146C64.2672 6.08035 64.7939 7.08024 65.1069 8.18877C65.5562 7.29753 66.1418 6.48546 66.8397 5.78757C68.5209 4.10635 70.8448 3.06596 73.4099 3.06596C74.476 3.06596 75.5293 3.25194 76.5255 3.60549C77.1037 3.81173 77.6617 4.07505 78.1902 4.39362C78.6432 4.67535 79.052 5.12466 79.4166 5.52977L79.9764 4.96998L80.9265 5.92015L79.9764 6.87032L79.4331 6.3271L78.75 6.99922L79.0777 7.32515L79.3484 7.05446ZM80.1789 7.33436L80.9173 8.07276L81.6557 7.33436L80.9173 6.59595L80.1789 7.33436ZM79.8751 4.66799L79.4239 4.21684L78.9728 4.66799L79.4239 5.11913L79.8751 4.66799ZM80.6245 8.72646L81.0757 9.17761L81.5268 8.72646L81.0757 8.27532L80.6245 8.72646ZM81.6686 5.87043L82.1198 6.32158L81.6686 6.77272L81.2175 6.32158L81.6686 5.87043ZM81.4587 5.32537L81.1696 5.03627L80.8805 5.32537L81.1696 5.61447L81.4587 5.32537ZM82.2579 6.86664L81.9688 7.15574L82.2579 7.44484L82.547 7.15574L82.2579 6.86664ZM78.7334 17.6481L79.0225 17.9372L79.3116 17.6481L79.0225 17.359L78.7334 17.6481ZM79.7812 16.9392L79.4921 16.6501L79.203 16.9392L79.4921 17.2283L79.7812 16.9392ZM78.993 18.4473L79.4442 17.9961L79.8953 18.4473L79.4442 18.8984L78.993 18.4473Z" fill="white"/>
<path fill-rule="evenodd" clip-rule="evenodd" d="M78.3835 13.621V12.1019H80.8068V9.68042H82.326V12.1019H84.7475V13.621H82.326V16.0443H80.8068V13.621H78.3835Z" fill="white"/>
</svg>
