<svg width="79" height="24" viewBox="0 0 79 24" fill="none" xmlns="http://www.w3.org/2000/svg">
<path fill-rule="evenodd" clip-rule="evenodd" d="M11.8605 19.748V10.6212C11.8605 9.85513 12.4171 8.64814 13.7839 7.28683C15.1508 5.92552 17.3112 3.78711 17.3112 3.78711L21.9435 8.27888C21.9435 8.27888 14.674 15.4712 13.5332 16.6617C11.9376 18.3289 11.8605 19.7453 11.8605 19.7453" fill="white"/>
<path fill-rule="evenodd" clip-rule="evenodd" d="M0 11.9907L11.8605 23.1677V19.8086L1.73057 10.2656L0 11.9907Z" fill="white"/>
<path fill-rule="evenodd" clip-rule="evenodd" d="M11.8467 0.642822L6.51447 5.43772L11.8467 10.2243V0.642822Z" fill="white"/>
<path fill-rule="evenodd" clip-rule="evenodd" d="M28.108 15.8377C27.9068 15.8377 27.5458 15.8846 27.2096 16.2814C26.8734 16.6782 23.5776 20.6409 23.5776 20.6409L22.6021 15.8377H18.182L19.761 23.2009H23.4674L29.5272 15.835H28.1052L28.108 15.8377Z" fill="white"/>
<path fill-rule="evenodd" clip-rule="evenodd" d="M30.6791 15.8376C30.4448 15.8376 29.8634 16.0581 29.6815 16.6368C29.5575 17.0253 27.7966 23.1815 27.7966 23.1815H32.0652L34.1209 15.8376H30.6818H30.6791Z" fill="white"/>
<path fill-rule="evenodd" clip-rule="evenodd" d="M41.4262 15.8376H35.0303L32.9304 23.1815L37.0832 23.176L37.8824 20.4947C37.8824 20.4947 38.9791 20.5333 40.2137 20.4506C41.4455 20.3679 43.9284 19.8829 44.2673 17.863C44.5263 16.3336 42.7186 15.8266 41.4234 15.8376M40.0842 17.9429C39.8334 18.8688 39.3291 19.3483 38.8772 19.3483C38.4253 19.3483 38.1828 19.329 38.1828 19.329L38.9213 16.7718H39.5661C39.8389 16.7718 40.3322 17.017 40.0814 17.9429" fill="white"/>
<path fill-rule="evenodd" clip-rule="evenodd" d="M51.9061 15.6448C49.6547 15.6063 44.2536 16.4164 44.1544 20.1697C44.1489 20.3956 44.0193 24.2619 52.0742 23.1265C54.3862 22.8014 57.0179 21.7928 57.5525 19.4284C58.2828 16.207 54.5957 15.6862 51.9061 15.6421M53.1186 19.6406C52.5509 21.3849 51.4845 22.038 50.6661 22.2006C47.8635 22.7518 48.4725 20.0374 48.5166 19.839C49.1146 17.1329 51.027 16.6396 51.7821 16.7085C52.686 16.7885 53.8985 17.2459 53.1186 19.6433" fill="white"/>
<path fill-rule="evenodd" clip-rule="evenodd" d="M66.9521 20.2744C67.0403 19.5469 66.2797 18.6954 64.5877 18.3647C62.8957 18.034 62.3749 17.7778 62.3639 17.414C62.3529 17.0503 62.9922 16.67 64.2405 16.7637C65.4888 16.8601 66.525 17.5325 66.525 17.5325L67.4619 16.1271C67.4619 16.1271 67.371 16.1106 66.897 15.9921C66.4203 15.8736 64.7393 15.5374 62.8076 15.6889C60.8758 15.8405 59.261 16.7747 58.6299 17.4746C57.9961 18.1746 58.054 18.971 58.8146 19.5855C59.5751 20.2028 60.457 20.3185 61.3911 20.5141C62.3281 20.7098 62.6863 21.1259 62.645 21.3712C62.6064 21.6164 62.3749 22.027 60.8924 22.1207C59.407 22.2172 57.8721 21.2306 57.8721 21.2306L56.858 22.7435C56.858 22.7435 59.2555 23.3883 60.7298 23.3663C62.2041 23.3442 62.9371 23.4104 64.6236 22.7903C66.31 22.1676 66.8474 21.1617 66.9549 20.2744" fill="white"/>
<path fill-rule="evenodd" clip-rule="evenodd" d="M75.4507 15.8126H72.5986C72.4939 15.8126 72.1356 15.7685 71.5542 16.4189C70.9727 17.0692 65.6322 23.1538 65.6322 23.1538H67.732L69.3221 21.2854H72.684L73.1166 23.1455H77.7104L75.4535 15.8126H75.4507ZM70.1818 20.2548L72.0337 18.0007L72.5297 20.2521H70.1818V20.2548Z" fill="white"/>
<path d="M77.6746 15.6807C77.782 15.6807 77.8812 15.7 77.9749 15.7386C78.0686 15.7772 78.154 15.8351 78.2284 15.9095C78.3001 15.9811 78.3552 16.0665 78.3938 16.1602C78.4324 16.2539 78.4517 16.3531 78.4517 16.4551C78.4517 16.557 78.4324 16.6618 78.3938 16.7527C78.3552 16.8464 78.3001 16.9291 78.2257 17.0007C78.1485 17.0751 78.0631 17.133 77.9694 17.1716C77.873 17.2101 77.7765 17.2294 77.6746 17.2294C77.5726 17.2294 77.4734 17.2101 77.3797 17.1716C77.286 17.133 77.2033 17.0751 77.1262 16.998C77.0518 16.9235 76.9967 16.8409 76.9581 16.7472C76.9195 16.6535 76.9002 16.557 76.9002 16.4551C76.9002 16.3531 76.9195 16.2539 76.9608 16.1575C77.0022 16.061 77.06 15.9756 77.1344 15.8984C77.2061 15.8268 77.286 15.7717 77.3797 15.7331C77.4706 15.6945 77.5698 15.678 77.6746 15.678M78.3525 16.4606C78.3525 16.3669 78.3359 16.2787 78.3029 16.196C78.2698 16.1134 78.2229 16.0417 78.1596 15.9783C78.0934 15.9122 78.0218 15.8626 77.9391 15.8295C77.8564 15.7965 77.771 15.7799 77.6773 15.7799C77.5836 15.7799 77.4982 15.7965 77.4183 15.8295C77.3384 15.8626 77.2667 15.9095 77.2061 15.9701C77.14 16.0362 77.0903 16.1106 77.0545 16.196C77.0187 16.2787 77.0022 16.3641 77.0022 16.4523C77.0022 16.5405 77.0187 16.6232 77.0518 16.7058C77.0848 16.7885 77.1344 16.8602 77.1978 16.9235C77.2612 16.9869 77.3328 17.0365 77.4155 17.0724C77.4982 17.1082 77.5809 17.1247 77.669 17.1247C77.7572 17.1247 77.8482 17.1082 77.9281 17.0751C78.0108 17.042 78.0852 16.9924 78.1513 16.9291C78.2147 16.8684 78.2643 16.7968 78.2973 16.7169C78.3304 16.637 78.3469 16.5515 78.3469 16.4606M77.6911 15.9976C77.8123 15.9976 77.906 16.0169 77.9667 16.0583C78.0273 16.0996 78.0603 16.1575 78.0603 16.2374C78.0603 16.3008 78.0438 16.3531 78.008 16.3945C77.9722 16.4358 77.9226 16.4633 77.8592 16.4744L78.0548 16.8767H77.8675L77.6883 16.5019H77.5257V16.8767H77.3604V15.9976H77.6938H77.6911ZM77.6608 16.1051H77.5257V16.3972H77.6663C77.7462 16.3972 77.8013 16.3862 77.8371 16.3641C77.8702 16.3421 77.8895 16.3063 77.8895 16.2567C77.8895 16.2043 77.8702 16.1657 77.8344 16.1409C77.7986 16.1161 77.7407 16.1051 77.6608 16.1051Z" fill="white"/>
</svg>
