<svg width="59" height="31" viewBox="0 0 59 31" fill="none" xmlns="http://www.w3.org/2000/svg">
<g clip-path="url(#clip0_1282_110)">
<path d="M26.3356 23.3181C26.3255 22.9745 26.3598 22.6603 26.2992 22.346C26.2709 22.1996 26.185 22.1089 26.0404 22.0679C25.9869 22.0523 25.9252 22.0484 25.8807 22.0201C25.8484 21.9996 25.8191 21.9439 25.8231 21.9078C25.8272 21.8737 25.8716 21.8376 25.908 21.8151C25.9313 21.8005 25.9707 21.8083 26.003 21.8083C26.561 21.8083 27.1179 21.8083 27.6759 21.8093C27.7072 21.8093 27.7396 21.818 27.7992 21.8258C27.8113 21.9879 27.8234 22.1508 27.8376 22.3568C27.9407 22.2679 28.0104 22.2065 28.0812 22.1469C28.3531 21.9176 28.6523 21.7439 29.0182 21.6892C29.7914 21.574 30.4161 22.0249 30.502 22.7793C30.5313 23.035 30.5434 23.2927 30.5455 23.5494C30.5515 24.1808 30.5465 24.8132 30.5485 25.4447C30.5485 25.5774 30.5536 25.7101 30.5606 25.8419C30.5728 26.0898 30.6829 26.2547 30.9558 26.2937C31.067 26.3103 31.066 26.3211 31.0407 26.4948H28.629C28.5886 26.3962 28.5785 26.322 28.7018 26.2869C28.9585 26.2147 29.0536 26.0322 29.0536 25.7892C29.0536 24.8142 29.0526 23.8392 29.0485 22.8643C29.0485 22.7881 29.0303 22.7081 29.003 22.6369C28.9211 22.4241 28.724 22.3285 28.4986 22.3831C28.1297 22.4719 27.8184 22.8525 27.8184 23.2175C27.8184 23.686 27.8032 24.1545 27.8224 24.6219C27.8396 25.024 27.7941 25.4242 27.8305 25.8263C27.8517 26.0576 27.9245 26.2371 28.1843 26.2908C28.2975 26.3142 28.2884 26.3894 28.2621 26.4899C28.1954 26.4967 28.1257 26.5094 28.0569 26.5094C27.7982 26.5123 27.5394 26.5211 27.2817 26.5075C27.1038 26.4977 27.0057 26.5582 26.9249 26.7124C26.6267 27.2833 26.3133 27.8474 26.0061 28.4135C25.9697 28.4808 25.9272 28.5462 25.8767 28.6311C24.7992 28.0055 23.6712 27.542 22.4299 27.3107C22.3855 27.3975 22.344 27.4717 22.3076 27.5478C21.8154 28.5999 21.3211 29.65 20.837 30.705C20.7612 30.8699 20.6752 30.9373 20.4791 30.9344C19.6473 30.9227 18.8144 30.9246 17.9825 30.9334C17.8036 30.9353 17.7106 30.8836 17.6399 30.7206C17.3356 30.015 17.0162 29.3162 16.7019 28.6145C16.6827 28.5726 16.6604 28.5326 16.623 28.4603C15.6203 29.1484 14.8421 30.0199 14.1345 30.9968C14.0435 30.8787 13.9718 30.787 13.902 30.6933C13.3451 29.9506 12.7154 29.2733 11.9714 28.6994C10.8778 27.8562 9.63959 27.339 8.24573 27.1945C6.94587 27.0599 5.68543 27.2521 4.45835 27.6718C3.81752 27.8914 3.20297 28.1676 2.61773 28.5013C2.54798 28.5404 2.47824 28.5784 2.37817 28.6331C1.71106 27.4053 1.049 26.1864 0.384924 24.9645C0.412215 24.9313 0.428387 24.903 0.451635 24.8845C1.07528 24.4023 1.58472 23.8178 2.05675 23.2019C3.00384 21.9693 3.78214 20.641 4.45633 19.2532C4.47958 19.2044 4.49676 19.1537 4.52102 19.0912C4.47452 19.0551 4.4351 19.018 4.38962 18.9907C2.33471 17.7415 1.04799 15.938 0.396043 13.7118C-0.333738 11.2134 -0.0446556 8.79109 1.15918 6.46834C1.21275 6.36391 1.26733 6.26046 1.33707 6.12773C1.03182 5.95791 0.734653 5.79298 0.411204 5.61243C1.01363 4.66966 1.60998 3.73763 2.21342 2.79194C2.36706 2.86221 2.50351 2.9276 2.643 2.98615C2.90176 3.09448 3.16557 3.19306 3.42332 3.30627C3.56988 3.37068 3.67096 3.3375 3.79023 3.23795C4.65444 2.5177 5.62782 1.96922 6.68105 1.55054C7.83434 1.09184 9.03717 0.841998 10.2835 0.791249C10.4411 0.784417 10.5361 0.739523 10.6079 0.605819C10.7161 0.405749 10.8404 0.214464 10.9698 -0.0012207C11.0628 0.0329375 11.1517 0.0631918 11.2386 0.09735C11.8593 0.348168 12.4981 0.532623 13.1621 0.645832C14.089 0.803936 14.9987 0.722932 15.8943 0.474066C16.2885 0.363784 16.6716 0.21544 17.0597 0.0846627C17.1345 0.059288 17.2083 0.0319615 17.2922 0.00170714C17.5135 0.355 17.7288 0.700486 17.9744 1.09282C18.0159 0.963015 18.0412 0.886891 18.0705 0.795152H18.6153C18.6224 0.856637 18.6345 0.923002 18.6355 0.989366C18.6385 1.24702 18.6395 1.50467 18.6355 1.76134C18.6335 1.86089 18.6628 1.94091 18.7335 2.01509C19.5128 2.83098 20.4215 3.44387 21.5708 3.66053C22.3693 3.81181 23.1628 3.74447 23.9491 3.56294C24.588 3.41557 25.1964 3.1872 25.7867 2.91003C25.8656 2.87294 25.9454 2.83781 26.0526 2.78901C26.652 3.7269 27.2483 4.65893 27.8588 5.6134C27.7598 5.66708 27.6789 5.71198 27.596 5.75589C26.1718 6.49957 24.9266 7.45404 23.9309 8.69447C23.0162 9.8334 22.438 11.1138 22.2339 12.5456C22.0893 13.5557 22.1762 14.5531 22.4249 15.5398C22.8272 17.1403 23.4721 18.6511 24.2443 20.114C24.2584 20.1414 24.2756 20.1687 24.2938 20.1941C24.3019 20.2048 24.3181 20.2097 24.3393 20.2224C24.3656 20.1736 24.3939 20.1277 24.4151 20.0789C25.2722 18.1602 26.1314 16.2424 26.9835 14.3218C27.2089 13.8133 27.4212 13.297 27.5212 12.7476C27.5687 12.487 27.6071 12.2264 27.5617 11.958C27.4737 11.432 27.1816 11.0553 26.6995 10.8123C26.3002 10.6112 25.8666 10.5185 25.4229 10.4746C25.1105 10.4434 24.7972 10.4278 24.4859 10.4043C24.4323 10.2355 24.4252 10.0754 24.4606 9.80705C24.6314 9.75825 32.0283 9.74459 32.3386 9.79534V10.4043C32.2891 10.419 32.2375 10.4365 32.1849 10.4482C31.1459 10.6776 30.3655 11.2671 29.7692 12.0947C29.2921 12.7554 28.9171 13.4747 28.5694 14.2047C27.6071 16.2229 26.6611 18.249 25.7089 20.2721C25.5249 20.6625 25.346 21.0548 25.1601 21.4442C25.1166 21.536 25.0994 21.6131 25.1641 21.7048C25.528 22.2201 25.8878 22.7384 26.2497 23.2546C26.2608 23.2712 26.285 23.28 26.3386 23.3161L26.3356 23.3181ZM1.15514 5.42114C1.24509 5.47482 1.30776 5.50995 1.36639 5.54997C1.89098 5.89936 2.4368 6.22337 2.93511 6.60594C4.27843 7.63752 5.33469 8.89259 5.9917 10.4385C6.47182 11.5667 6.68004 12.7388 6.61939 13.9578C6.58907 14.5677 6.48395 15.166 6.32829 15.7564C6.28583 15.9175 6.28988 16.0599 6.37781 16.2034C6.54965 16.4855 6.70126 16.7802 6.89028 17.0505C7.50281 17.9318 8.32356 18.5662 9.36567 18.9195C10.2713 19.2259 11.2073 19.303 12.1595 19.2542C12.2615 19.2493 12.3626 19.2288 12.4799 19.2132C12.4506 19.1332 12.4334 19.0737 12.4081 19.018C11.6157 17.2516 10.8343 15.4793 10.0237 13.7206C9.66991 12.9525 9.25954 12.2079 8.86432 11.4574C8.6561 11.0631 8.30941 10.8142 7.88185 10.6698C7.71507 10.6132 7.54324 10.5654 7.37141 10.5263C7.16925 10.4805 6.96406 10.4492 6.75584 10.4102C6.73563 10.1867 6.72552 9.98175 6.75787 9.78168C7.26629 9.72995 18.116 9.75337 18.3009 9.80705C18.3029 10.0022 18.3333 10.2023 18.2757 10.4151C18.1897 10.4199 18.1109 10.4268 18.0321 10.4287C17.8137 10.4326 17.5954 10.4248 17.3781 10.4375C16.9263 10.4639 16.4755 10.5019 16.0499 10.6678C15.5213 10.8747 15.306 11.2427 15.4101 11.7824C15.4515 11.9961 15.5082 12.2098 15.586 12.4128C16.1247 13.8241 16.6695 15.2333 17.2143 16.6436C17.2346 16.6972 17.2669 16.746 17.3003 16.8095C17.4317 16.6826 17.5469 16.5752 17.6581 16.463C17.7642 16.3566 17.8633 16.2415 17.9724 16.138C18.0826 16.0336 18.1523 15.8843 18.3252 15.8179C18.495 16.2083 18.6598 16.587 18.8346 16.989C18.4738 17.3462 18.12 17.6956 17.7571 18.0538C18.8943 20.9202 20.0314 23.7865 21.1685 26.6519C22.7857 26.73 24.2625 27.1916 25.6523 27.9167C25.8676 27.6288 26.3528 26.6987 26.374 26.5319C26.3265 26.528 26.279 26.5221 26.2315 26.5211C26.1344 26.5182 26.0374 26.5192 25.9404 26.5163C25.8686 26.5143 25.8029 26.487 25.816 26.4089C25.8231 26.3669 25.8706 26.3259 25.908 26.2947C25.9303 26.2771 25.9697 26.2801 26 26.2703C26.1789 26.2166 26.2921 26.1093 26.3083 25.9219C26.3133 25.8594 26.3245 25.798 26.3245 25.7355C26.3265 25.2592 26.3315 24.7839 26.3245 24.3077C26.3235 24.2306 26.284 24.1427 26.2365 24.0783C25.9242 23.6616 25.6038 23.2498 25.2854 22.8379C25.2601 22.8057 25.2268 22.7803 25.1884 22.7442C25.1884 23.0858 25.1884 23.4059 25.1884 23.725C25.1884 24.2706 25.1873 24.8171 25.1904 25.3627C25.1904 25.4788 25.1985 25.5979 25.2207 25.7121C25.2591 25.9112 25.3804 25.957 25.5482 25.8438C25.5937 25.8136 25.6331 25.7755 25.6846 25.7335C25.7372 25.7765 25.7837 25.8145 25.8423 25.8624C25.6038 26.2293 25.3076 26.5065 24.8578 26.568C24.3777 26.6343 23.8764 26.5036 23.7369 25.9551C23.7318 25.9336 23.7116 25.917 23.6874 25.8829C23.6156 25.9356 23.5458 25.9873 23.4761 26.038C23.1456 26.281 22.7948 26.484 22.3794 26.5631C21.7264 26.687 21.1675 26.2791 21.1574 25.6603C21.1523 25.3529 21.2524 25.0679 21.4748 24.8484C21.6587 24.6659 21.8619 24.4892 22.0873 24.3594C22.5381 24.1018 23.0101 23.8783 23.4731 23.6411C23.5509 23.6011 23.6287 23.565 23.7015 23.5298C23.7015 23.2234 23.7076 22.9345 23.6995 22.6466C23.6944 22.4788 23.6358 22.3314 23.4902 22.2172C23.2254 22.0083 22.7241 22.0689 22.5138 22.2406C22.4006 22.3333 22.3794 22.427 22.4572 22.55C22.5068 22.63 22.5745 22.6993 22.6301 22.7754C22.9111 23.16 22.6432 23.5933 22.2622 23.6723C21.9266 23.7426 21.6112 23.6889 21.3899 23.4059C21.1746 23.1317 21.2372 22.8408 21.401 22.5724C21.4889 22.428 21.6092 22.2904 21.7457 22.186C21.9013 22.0659 22.0822 21.9713 22.2652 21.8932C22.6311 21.737 23.0233 21.6755 23.4205 21.6648C23.8642 21.6531 24.2898 21.7273 24.6587 21.9908C24.6668 21.9966 24.686 21.9859 24.6991 21.983C24.6991 21.9752 24.7022 21.9664 24.6991 21.9615C24.5708 21.7448 24.4394 21.5311 24.313 21.3135C23.3305 19.6212 22.5108 17.8615 21.9943 15.9799C21.6961 14.8937 21.5485 13.7938 21.685 12.6685C21.8548 11.2622 22.3592 9.97687 23.19 8.81256C24.1553 7.45892 25.4127 6.41173 26.8652 5.57144C26.9461 5.52459 27.0239 5.4758 27.1139 5.42114C26.6853 4.75262 26.2709 4.10557 25.8565 3.45754C25.7837 3.48389 25.7382 3.49853 25.6948 3.51707C24.9559 3.84108 24.1887 4.07629 23.3851 4.1895C22.626 4.29685 21.873 4.28221 21.1281 4.08507C20.2608 3.85572 19.5139 3.42143 18.8478 2.84659C18.7932 2.79877 18.7517 2.72265 18.6365 2.72167V7.35742H18.0644C17.9724 7.06464 17.8916 6.77966 17.7935 6.50054C17.3538 5.24743 16.6614 4.15436 15.5607 3.33945C13.9364 2.13708 12.1291 1.78184 10.145 2.28445C10.0156 2.31763 9.9125 2.37619 9.8185 2.4689C9.63251 2.65336 9.44046 2.83293 9.2373 2.99884C7.98798 4.01773 6.55268 4.4208 4.9324 4.1973C4.14501 4.08897 3.39097 3.86451 2.66321 3.55416C2.58437 3.52097 2.50452 3.49072 2.41456 3.45559C1.99307 4.11533 1.58168 4.7575 1.15716 5.42212L1.15514 5.42114ZM16.4118 27.9782C15.2777 25.4408 14.1537 22.9248 13.0358 20.4234C10.2329 20.8284 7.55031 20.6079 5.00518 19.3567C3.94892 21.4501 2.79158 23.4518 1.05204 25.0904C1.56753 26.04 2.07696 26.9769 2.58235 27.9079C2.62177 27.9001 2.63895 27.9001 2.65209 27.8933C2.81079 27.8172 2.96847 27.7372 3.12817 27.663C4.40781 27.0706 5.74608 26.6997 7.17532 26.6558C8.88757 26.6031 10.4462 27.0433 11.8542 27.9811C12.6648 28.5218 13.3562 29.1855 13.9677 29.9282C14.0173 29.9887 14.0688 30.0463 14.1375 30.1273C14.7895 29.3055 15.5213 28.5853 16.4118 27.9782ZM13.9839 1.25092C14.5894 1.46075 15.1928 1.67546 15.8003 1.87943C16.0661 1.96922 16.336 2.0512 16.6099 2.11463C17.0557 2.21711 17.4953 2.0268 17.7288 1.65008C17.5075 1.31924 17.2851 0.987414 17.0546 0.642905C16.06 1.00596 15.0513 1.26068 13.9839 1.2519V1.25092ZM5.30942 10.2082C5.29022 10.2091 5.27203 10.2111 5.25282 10.2121C5.24979 10.2638 5.24473 10.3155 5.24473 10.3672C5.23766 11.1792 5.29123 11.9873 5.4014 12.7915C5.4944 13.4717 5.63692 14.1432 5.83402 14.8029C5.85524 14.8751 5.84918 14.9688 5.95632 15.0206C6.28583 13.3341 6.05234 11.7385 5.30942 10.2082ZM23.7086 23.9495C23.655 23.9651 23.6156 23.969 23.5853 23.9876C23.3113 24.1545 23.0516 24.3418 22.8615 24.5975C22.7655 24.7273 22.6847 24.8776 22.6382 25.0299C22.5573 25.2905 22.6917 25.5706 22.9111 25.6652C23.1274 25.7579 23.5428 25.6438 23.6762 25.4515C23.6964 25.4222 23.7076 25.3802 23.7076 25.3432C23.7096 24.8854 23.7086 24.4267 23.7086 23.9485V23.9495ZM11.1386 0.781489C11.3144 0.79808 11.46 0.811744 11.6561 0.829311C11.2811 0.634121 11.2427 0.630217 11.1386 0.781489Z" fill="white"/>
<path d="M40.618 22.0096C40.6241 21.9374 40.6282 21.8867 40.6342 21.8223H42.5982C42.6042 21.9238 42.6153 22.0145 42.6153 22.1043C42.6163 23.0871 42.6153 24.0699 42.6174 25.0527C42.6174 25.2166 42.6174 25.3815 42.6376 25.5436C42.681 25.8871 42.9661 26.0442 43.2895 25.8988C43.5473 25.7827 43.71 25.5631 43.8566 25.3367C43.8869 25.2898 43.8758 25.2156 43.8758 25.1532C43.8768 24.3734 43.8778 23.5926 43.8758 22.8129C43.8758 22.6967 43.8545 22.5796 43.8505 22.4635C43.8434 22.2273 43.7262 22.0809 43.4826 22.0419C43.3481 22.0204 43.3289 21.9501 43.3775 21.8252H45.3293C45.3353 21.916 45.3454 22.0057 45.3454 22.0946C45.3464 23.2101 45.3454 24.3256 45.3475 25.4411C45.3475 25.5884 45.3596 25.7368 45.3697 25.8842C45.3849 26.1057 45.496 26.2511 45.7305 26.2882C45.8579 26.3087 45.8983 26.3663 45.8367 26.4971H43.8859V25.9857C43.8687 25.9769 43.8515 25.9691 43.8353 25.9603C43.7757 26.0169 43.7161 26.0725 43.6574 26.1291C43.3492 26.4248 42.9903 26.6103 42.5486 26.6474C41.9169 26.7001 41.3276 26.3028 41.2184 25.6978C41.1548 25.3464 41.1406 24.9853 41.1335 24.6271C41.1204 24.0113 41.1305 23.3945 41.1295 22.7787C41.1295 22.6616 41.1234 22.5445 41.1143 22.4283C41.0992 22.2263 40.993 22.0946 40.7848 22.0477C40.7383 22.037 40.6918 22.0253 40.6201 22.0077L40.618 22.0096Z" fill="white"/>
<path d="M55.1712 24.1822C55.1581 24.6594 55.0691 25.1152 54.8316 25.5358C54.3787 26.3371 53.6661 26.6884 52.7342 26.6504C51.8235 26.6123 51.2029 26.1585 50.8491 25.3699C50.4458 24.4711 50.4913 23.5791 50.9886 22.7202C51.6254 21.6223 52.8505 21.4935 53.7298 21.8399C54.5101 22.1483 54.9175 22.7446 55.0873 23.5127C55.1358 23.7323 55.1449 23.9597 55.1732 24.1832L55.1712 24.1822ZM53.6217 24.1197H53.5802C53.5802 23.7528 53.5883 23.3868 53.5772 23.0218C53.5701 22.7788 53.5145 22.5436 53.3811 22.3308C53.2618 22.1415 53.088 22.04 52.8596 22.0517C52.6251 22.0634 52.4411 22.1727 52.343 22.3826C52.2905 22.4948 52.2521 22.6168 52.2329 22.7388C52.1985 22.9535 52.1753 23.1711 52.1621 23.3888C52.1217 24.0807 52.0974 24.7746 52.1904 25.4636C52.2127 25.6305 52.2632 25.8013 52.338 25.9526C52.4411 26.1614 52.6281 26.2883 52.8788 26.2854C53.1395 26.2824 53.3225 26.1458 53.4226 25.9213C53.4792 25.7945 53.5196 25.6549 53.5317 25.5173C53.5711 25.0518 53.5934 24.5853 53.6227 24.1197H53.6217Z" fill="white"/>
<path d="M35.8229 24.184C35.8169 23.6736 35.9432 23.1983 36.1989 22.7513C36.8489 21.6163 38.0861 21.4836 38.9927 21.8505C39.4718 22.0448 39.8408 22.3639 40.0672 22.8167C40.4877 23.6551 40.5139 24.5178 40.144 25.3727C39.7559 26.2706 38.8916 26.7391 37.8879 26.6405C36.8327 26.537 36.109 25.8753 35.8876 24.8096C35.8684 24.7179 35.8502 24.6261 35.8411 24.5334C35.83 24.4173 35.829 24.3002 35.8229 24.1831V24.184ZM38.8623 24.2797C38.8522 24.2797 38.8421 24.2787 38.832 24.2777C38.832 23.9274 38.8431 23.577 38.829 23.2266C38.8168 22.9319 38.7936 22.6342 38.639 22.3668C38.5187 22.1589 38.3408 22.036 38.0901 22.0516C37.8354 22.0672 37.6443 22.1941 37.5564 22.4283C37.5018 22.5727 37.4594 22.7269 37.4442 22.8802C37.4099 23.2364 37.3927 23.5946 37.3735 23.9518C37.3441 24.4895 37.3583 25.0253 37.4382 25.5591C37.4654 25.7387 37.518 25.9095 37.6373 26.0539C37.9041 26.378 38.3691 26.3653 38.5975 26.0169C38.6723 25.9017 38.7299 25.7621 38.7451 25.6275C38.7966 25.1795 38.8259 24.7286 38.8633 24.2797H38.8623Z" fill="white"/>
<path d="M35.262 25.2986C35.3155 25.3377 35.364 25.3728 35.4267 25.4177C35.1265 25.9876 34.6919 26.3956 34.0591 26.5703C33.2626 26.7909 32.3742 26.5966 31.8213 25.8149C31.4958 25.3552 31.3482 24.8448 31.3391 24.2954C31.329 23.6473 31.5019 23.05 31.8971 22.5152C32.5207 21.671 33.575 21.5246 34.3806 21.7891C34.6797 21.8877 34.9193 22.0673 35.1023 22.3161C35.2074 22.4596 35.266 22.6187 35.2822 22.7934C35.3125 23.1213 35.1467 23.3848 34.8526 23.4707C34.5099 23.5712 34.141 23.4424 34.0066 23.1437C33.9277 22.9681 33.9045 22.77 33.858 22.5816C33.8358 22.4908 33.8297 22.3952 33.7963 22.3093C33.6821 22.0233 33.3789 21.9482 33.1585 22.1668C33.0393 22.2849 32.9372 22.444 32.8927 22.6011C32.823 22.8461 32.7876 23.1047 32.7734 23.3594C32.7441 23.9118 32.8361 24.4496 33.0807 24.9522C33.1787 25.1532 33.3081 25.3504 33.4638 25.5133C33.8408 25.9066 34.422 25.9428 34.8688 25.6226C35.0032 25.526 35.1245 25.4118 35.263 25.2977L35.262 25.2986Z" fill="white"/>
<path d="M58.6655 21.7325C58.6897 22.24 58.714 22.7582 58.7372 23.2647C58.5927 23.336 58.5371 23.2774 58.4855 23.1818C58.3814 22.9886 58.2763 22.7943 58.153 22.6128C57.9933 22.3796 57.777 22.2029 57.495 22.1229C57.3818 22.0907 57.2564 22.0799 57.1382 22.0868C56.9522 22.0975 56.8228 22.2088 56.7551 22.3698C56.6894 22.5279 56.7268 22.6802 56.8541 22.8002C56.9572 22.8988 57.0654 22.9934 57.1806 23.0774C57.4 23.2364 57.6324 23.3789 57.8498 23.5409C58.0984 23.7264 58.3562 23.9059 58.5765 24.1207C59.0202 24.552 59.092 25.0781 58.8949 25.6363C58.6958 26.2014 58.2814 26.5342 57.6658 26.6327C57.3787 26.6786 57.1028 26.6366 56.8289 26.5615C56.7045 26.5273 56.5843 26.4824 56.462 26.4424C56.2123 26.3614 56.1921 26.3614 56.0283 26.5537C55.9667 26.6269 55.9081 26.6484 55.7878 26.6025C55.7615 26.0677 55.7342 25.5192 55.7079 24.9805C55.8454 24.9063 55.904 24.9531 55.9515 25.0566C56.0233 25.2127 56.0971 25.3699 56.185 25.5172C56.3417 25.7798 56.5661 25.9798 56.84 26.1262C56.9906 26.2063 57.1493 26.257 57.3252 26.2511C57.7093 26.2385 57.9508 25.9213 57.8194 25.5719C57.775 25.4528 57.687 25.3367 57.588 25.2528C57.408 25.0976 57.2029 24.9707 57.0118 24.8263C56.7005 24.592 56.369 24.3764 56.086 24.1128C55.5331 23.5985 55.4886 22.8129 55.9444 22.2166C56.3316 21.7101 57.0674 21.5295 57.7345 21.7803C57.8174 21.8116 57.8952 21.8535 57.9771 21.8867C58.1692 21.9648 58.2359 21.954 58.3784 21.7969C58.4552 21.713 58.527 21.6535 58.6655 21.7315V21.7325Z" fill="white"/>
<path d="M48.3212 21.8212V22.7289C48.3374 22.7337 48.3545 22.7377 48.3707 22.7425C48.4101 22.6996 48.4506 22.6586 48.489 22.6147C48.6436 22.4351 48.7871 22.2458 48.9539 22.0769C49.1652 21.8632 49.428 21.7295 49.7332 21.6817C50.1537 21.6153 50.466 21.8466 50.5014 22.2575C50.5095 22.3492 50.5045 22.4449 50.4893 22.5366C50.4125 23.0099 49.9404 23.211 49.522 22.9485C49.4411 22.8977 49.3714 22.8313 49.2956 22.7738C49.1258 22.6469 48.9853 22.6479 48.8165 22.7806C48.6537 22.9075 48.5607 23.0783 48.494 23.2656C48.3727 23.6092 48.3323 23.9644 48.3313 24.3245C48.3293 24.8076 48.3323 25.2907 48.3414 25.7738C48.3485 26.1427 48.4364 26.2345 48.8124 26.2979C48.8438 26.3028 48.8872 26.2979 48.9044 26.3165C48.9337 26.3457 48.96 26.3906 48.962 26.4287C48.962 26.4541 48.9206 26.497 48.8902 26.5038C48.8286 26.5175 48.7619 26.5155 48.6982 26.5155C47.9957 26.5155 47.2932 26.5155 46.5907 26.5155C46.5341 26.5155 46.4745 26.5234 46.4229 26.5068C46.3855 26.4951 46.339 26.4531 46.335 26.4199C46.331 26.3857 46.3704 26.3438 46.3957 26.3086C46.4027 26.2989 46.425 26.2999 46.4411 26.2969C46.7413 26.2569 46.8303 26.0969 46.8434 25.8031C46.8576 25.4684 46.8636 25.1336 46.8636 24.7979C46.8636 24.0649 46.8586 23.333 46.8556 22.6C46.8556 22.5376 46.8505 22.4751 46.8434 22.4136C46.8202 22.2243 46.7181 22.0974 46.522 22.0496C46.4826 22.0398 46.431 22.0477 46.4058 22.0252C46.3704 21.993 46.338 21.9413 46.337 21.8974C46.337 21.8691 46.3936 21.8183 46.428 21.8154C46.5806 21.8056 46.7343 21.8085 46.8879 21.8085C47.2831 21.8085 47.6793 21.8085 48.0745 21.8085C48.1463 21.8085 48.2171 21.8154 48.3222 21.8212H48.3212Z" fill="white"/>
</g>
<defs>
<clipPath id="clip0_1282_110">
<rect width="59" height="31" fill="white"/>
</clipPath>
</defs>
</svg>
