<svg width="52" height="25" viewBox="0 0 52 25" fill="none" xmlns="http://www.w3.org/2000/svg">
<path d="M35.9532 6.18594C35.9532 6.55244 35.9532 6.91893 35.9532 7.28543C35.9532 7.35873 35.9386 7.43203 35.924 7.498C35.8875 7.63727 35.7779 7.71789 35.6392 7.71789C35.4056 7.71789 35.1646 7.70324 34.9309 7.70324C34.6097 7.70324 34.2884 7.70324 33.9671 7.72523C33.6751 7.75455 33.383 7.81319 33.0909 7.87183C32.8573 7.92314 32.6236 7.98178 32.3972 8.05508C31.8423 8.24565 31.3312 8.50953 30.8858 8.90534C30.4258 9.31582 29.9293 9.68232 29.4108 10.0122C28.9727 10.2907 28.5127 10.5326 28.0235 10.7158C27.6803 10.8478 27.3225 10.9577 26.9501 11.0237C26.753 11.0603 26.5632 11.0603 26.366 11.0897C26.2054 11.119 26.0447 11.1263 25.8841 11.1263C25.7746 11.1263 25.6651 11.1043 25.5482 11.0897C25.4387 11.0823 25.3219 11.0823 25.2123 11.0677C25.0663 11.0457 24.9203 11.0164 24.7669 10.987C24.453 10.9211 24.139 10.8331 23.8396 10.7232C23.3942 10.5619 22.9561 10.364 22.5472 10.1294C22.0872 9.86556 21.6564 9.56504 21.2329 9.24252C21.0723 9.11791 20.9189 8.97864 20.7656 8.8467C20.437 8.56084 20.0646 8.34827 19.6557 8.17968C19.4586 8.09905 19.2541 8.01842 19.0497 7.95978C18.8598 7.90114 18.6627 7.87183 18.4655 7.83518C18.2465 7.7912 18.0274 7.75455 17.8084 7.72523C17.7354 7.71057 17.6623 7.71789 17.5893 7.71789C17.1074 7.71789 16.6328 7.71789 16.1509 7.71789C15.8953 7.71789 15.7566 7.58596 15.7566 7.32208C15.7566 6.55977 15.7566 5.79746 15.7566 5.03514C15.7566 4.75661 15.9026 4.61733 16.1874 4.60267C16.662 4.58068 17.1439 4.58068 17.6258 4.60267C17.9471 4.61733 18.2684 4.69064 18.5897 4.74928C18.8087 4.79326 19.0351 4.85189 19.2468 4.91786C19.8821 5.11577 20.4443 5.43096 20.9408 5.87809C21.4739 6.3472 22.0507 6.75035 22.6786 7.08019C22.9853 7.24145 23.2993 7.39538 23.6206 7.53465C23.8104 7.61527 24.0222 7.66659 24.2266 7.72523C24.4092 7.77654 24.5844 7.8425 24.7669 7.87915C24.9568 7.9158 25.1539 7.9158 25.3438 7.95978C25.6285 8.01842 25.9133 8.00376 26.1981 7.99643C26.4536 7.9891 26.7092 7.97444 26.9575 7.90114C27.1181 7.84983 27.286 7.83518 27.4467 7.7912C27.6365 7.73989 27.8337 7.68858 28.0162 7.60795C28.2937 7.49067 28.5565 7.35873 28.8267 7.22679C29.1918 7.05087 29.5277 6.83097 29.8562 6.59642C30.2724 6.31055 30.6521 5.9807 31.0391 5.65819C31.3385 5.40164 31.689 5.21839 32.0541 5.07179C32.2585 4.99116 32.463 4.9032 32.682 4.85189C33.0325 4.77127 33.3903 4.70529 33.7481 4.65398C34.3176 4.57335 34.8798 4.62466 35.4494 4.60267C35.5662 4.60267 35.6757 4.632 35.7707 4.67598C35.9094 4.74195 35.9459 4.88854 35.9459 5.03514C35.9459 5.4163 35.9459 5.80479 35.9459 6.18594H35.9532Z" fill="white"/>
<path d="M35.9459 1.86868C35.9459 2.22784 35.9459 2.59434 35.9459 2.9535C35.9459 2.99748 35.9459 3.04146 35.9459 3.08544C35.924 3.29068 35.8218 3.38597 35.6173 3.38597C35.2084 3.38597 34.7922 3.38597 34.3833 3.38597C34.2227 3.38597 34.0548 3.37864 33.9014 3.43728C33.8868 3.43728 33.8649 3.44461 33.8503 3.44461C33.5071 3.44461 33.1785 3.53257 32.85 3.6132C32.5214 3.6865 32.2147 3.79645 31.908 3.93572C31.5356 4.10431 31.1925 4.33153 30.8785 4.60274C30.2943 5.1085 29.681 5.57029 28.9946 5.93678C28.5711 6.16401 28.1403 6.36925 27.6803 6.51585C27.4102 6.60381 27.14 6.67711 26.8625 6.72842C26.5193 6.78706 26.1616 6.83104 25.8111 6.80172C25.6796 6.79439 25.5555 6.80905 25.4314 6.75774C25.3949 6.74308 25.3511 6.74308 25.3146 6.74308C25.0225 6.73575 24.745 6.66245 24.4603 6.58182C24.2412 6.51585 24.0149 6.4792 23.8104 6.39124C23.4234 6.22998 23.0437 6.05406 22.6713 5.86349C22.2332 5.63626 21.8243 5.36505 21.4446 5.06453C21.1526 4.8373 20.8678 4.59541 20.5757 4.36818C20.291 4.14828 19.977 3.97237 19.6338 3.85509C19.444 3.78912 19.2541 3.70116 19.057 3.64252C18.8671 3.58388 18.6627 3.55456 18.4655 3.51791C18.2246 3.47393 17.9836 3.44461 17.7427 3.40796C17.6989 3.40796 17.655 3.40063 17.6112 3.40063C17.122 3.40063 16.6328 3.40063 16.1436 3.40063C15.9537 3.40063 15.8807 3.34199 15.8223 3.16607C15.8077 3.11476 15.8004 3.05613 15.7931 2.99749C15.7931 2.84356 15.7931 2.68963 15.7931 2.54303C15.7931 1.95663 15.7931 1.37024 15.7931 0.776519C15.7931 0.68856 15.8077 0.59327 15.8369 0.512641C15.8807 0.417352 15.9537 0.351383 16.0779 0.329393C16.5306 0.241434 16.9833 0.285414 17.436 0.278084C17.7134 0.366043 18.0055 0.300069 18.283 0.388028C18.4801 0.446668 18.6919 0.46133 18.889 0.50531C19.1081 0.556619 19.3344 0.61526 19.5462 0.695889C19.8164 0.798508 20.0792 0.915785 20.3202 1.07704C20.4735 1.17966 20.6341 1.26762 20.7656 1.39223C21.1891 1.78072 21.6418 2.1179 22.1164 2.42575C22.4888 2.66764 22.8831 2.87287 23.2847 3.05612C23.606 3.20272 23.9418 3.32 24.2704 3.43728C24.4457 3.49592 24.6209 3.53257 24.8034 3.56922C25.0079 3.6132 25.205 3.64985 25.4095 3.67917C25.4533 3.6865 25.4971 3.6865 25.5409 3.6865C25.8184 3.6865 26.0959 3.6865 26.366 3.6865C26.4682 3.6865 26.5705 3.64985 26.68 3.63519C26.6946 3.63519 26.7165 3.62786 26.7311 3.62786C26.9283 3.62786 27.1181 3.57655 27.3079 3.52524C27.5197 3.4666 27.7387 3.41529 27.9432 3.33466C28.2134 3.23204 28.4689 3.11476 28.7318 2.98282C29.3086 2.69696 29.8416 2.33779 30.3455 1.94931C30.6302 1.72941 30.8931 1.49485 31.1706 1.27495C31.4626 1.04773 31.7839 0.871807 32.1271 0.747199C32.3388 0.666569 32.5506 0.585936 32.7696 0.519967C32.9741 0.461328 33.1858 0.432011 33.3976 0.402691C33.6751 0.358711 33.9452 0.300071 34.2227 0.292741C34.6316 0.270751 35.0478 0.292741 35.4567 0.292741C35.537 0.292741 35.6173 0.329389 35.7049 0.336719C35.8291 0.344049 35.8948 0.42468 35.9313 0.527299C35.9532 0.593268 35.9605 0.673899 35.9605 0.747199C35.9605 1.12835 35.9605 1.50218 35.9605 1.88333L35.9459 1.86868Z" fill="white"/>
<path d="M2.2703 20.8605C2.26299 20.9411 2.24839 21.0218 2.24839 21.1097C2.24839 22.0553 2.24839 23.0009 2.24839 23.9391C2.24839 24.0857 2.23377 24.2323 2.21187 24.3789C2.19727 24.4668 2.13155 24.5328 2.05123 24.5475C1.94901 24.5695 1.83948 24.5841 1.73726 24.5841C1.5036 24.5841 1.27726 24.5841 1.04361 24.5841C0.96329 24.5841 0.875649 24.5695 0.79533 24.5548C0.649295 24.5255 0.576288 24.4522 0.554382 24.3056C0.554382 24.2689 0.554382 24.2249 0.554382 24.1883C0.554382 22.2092 0.554382 20.2301 0.554382 18.2511C0.554382 18.0971 0.583589 17.9579 0.736926 17.8846C0.788038 17.8552 0.853762 17.8406 0.904874 17.8333C1.16774 17.8333 1.4379 17.8333 1.70076 17.8333C1.90521 17.8333 2.05123 17.9212 2.16806 18.0751C2.3506 18.3317 2.52585 18.5809 2.7011 18.8375C2.90554 19.1307 3.10999 19.4165 3.31444 19.7097C3.48968 19.9663 3.67223 20.2155 3.84747 20.472C3.86938 20.5013 3.89127 20.538 3.92047 20.5673C4.00079 20.6553 4.10302 20.6553 4.17604 20.5673C4.40969 20.2668 4.63605 19.9663 4.8624 19.6657C5.15447 19.2846 5.44655 18.9107 5.73131 18.5296C5.83354 18.3977 5.92846 18.2657 6.02338 18.1265C6.16211 17.9359 6.33737 17.8259 6.58563 17.8406C6.79738 17.8552 7.01643 17.8479 7.22818 17.8406C7.47644 17.8333 7.58595 17.9725 7.62246 18.1851C7.62976 18.2364 7.62246 18.2877 7.62246 18.339C7.62246 20.2595 7.62246 22.1799 7.62246 24.1003C7.62246 24.1883 7.62248 24.2836 7.59327 24.3715C7.57136 24.4742 7.50563 24.5548 7.39611 24.5695C7.27928 24.5841 7.16247 24.5988 7.04564 24.5988C6.85579 24.5988 6.66594 24.5988 6.4688 24.5988C6.36657 24.5988 6.26434 24.5841 6.16942 24.5695C6.00878 24.5401 5.92115 24.4375 5.90655 24.2763C5.90655 24.2176 5.90655 24.1663 5.90655 24.1077C5.90655 23.1181 5.90655 22.1286 5.90655 21.1391C5.90655 21.1024 5.90655 21.0731 5.90655 21.0364C5.90655 20.9778 5.92847 20.9045 5.85545 20.8752C5.77513 20.8385 5.73132 20.9045 5.69481 20.9558C5.51957 21.1977 5.34433 21.4469 5.16909 21.6888C4.98654 21.9453 4.78938 22.2019 4.60684 22.4584C4.49731 22.6124 4.35129 22.6857 4.16144 22.671C4.08843 22.671 4.01542 22.671 3.9424 22.671C3.76716 22.671 3.63571 22.5977 3.53348 22.4584C3.31443 22.1432 3.09538 21.8354 2.87633 21.5202C2.7449 21.3296 2.61347 21.1391 2.48934 20.9485C2.44553 20.8825 2.39442 20.8605 2.2922 20.8825L2.2703 20.8605Z" fill="white"/>
<path d="M40.6044 17.7379C40.9695 17.6939 41.3273 17.7599 41.6705 17.8478C42.3642 18.0237 42.9775 18.3536 43.4594 18.9033C43.7442 19.2258 43.956 19.5923 44.102 20.0028C44.2845 20.5306 44.3283 21.0657 44.2699 21.6154C44.175 22.4584 43.8245 23.1913 43.182 23.7631C42.9337 23.9903 42.6562 24.1809 42.3423 24.3128C42.1451 24.3934 41.948 24.4814 41.7362 24.54C41.5245 24.5987 41.3054 24.6427 41.0791 24.6573C40.7286 24.6793 40.3708 24.7086 40.0203 24.6353C39.9838 24.6353 39.9546 24.6207 39.9181 24.6207C39.6406 24.5987 39.385 24.5181 39.1295 24.4228C38.7863 24.2982 38.4723 24.1149 38.1876 23.8804C37.8444 23.6018 37.5669 23.2646 37.3552 22.8688C37.158 22.5023 37.0339 22.1138 36.9755 21.7034C36.9463 21.4981 36.9682 21.2856 36.9536 21.0803C36.939 20.7651 36.9755 20.4573 37.0704 20.1641C37.2895 19.4751 37.6619 18.8887 38.2606 18.4562C38.56 18.2363 38.8739 18.0604 39.2244 17.9578C39.3485 17.9211 39.4581 17.8625 39.5822 17.8405C39.9181 17.7819 40.254 17.7012 40.5971 17.7379H40.6044ZM40.619 23.0887C40.787 23.0594 40.9549 23.0228 41.1302 23.0008C41.3857 22.9641 41.5975 22.8395 41.7946 22.6782C42.2327 22.3264 42.3788 21.828 42.4299 21.2929C42.4445 21.1243 42.4153 20.963 42.3861 20.7945C42.3423 20.5452 42.2692 20.3107 42.1305 20.0981C41.9334 19.7903 41.6559 19.5777 41.3054 19.4531C41.0571 19.3651 40.8089 19.3651 40.5606 19.3578C40.2686 19.3505 39.9984 19.4091 39.7355 19.5337C39.48 19.651 39.2682 19.8416 39.1149 20.0688C38.9762 20.2887 38.8812 20.5379 38.8447 20.8164C38.8009 21.161 38.8228 21.4908 38.9104 21.828C39.0054 22.1798 39.1879 22.4584 39.4581 22.6856C39.7939 22.9641 40.1809 23.0594 40.6117 23.0814L40.619 23.0887Z" fill="white"/>
<path d="M19.5535 21.205C19.5535 20.2008 19.5535 19.1893 19.5535 18.1851C19.5535 18.0385 19.6046 17.9359 19.7215 17.8699C19.758 17.8479 19.8018 17.8333 19.8456 17.8333C20.2545 17.8333 20.6707 17.8333 21.0796 17.8333C21.2329 17.8333 21.3352 17.9285 21.3498 18.0898C21.3644 18.2217 21.379 18.361 21.379 18.4929C21.379 18.9767 21.379 19.4678 21.379 19.9516C21.379 20.0396 21.3936 20.1275 21.4155 20.2155C21.4447 20.3401 21.5688 20.4354 21.693 20.4427C22.3282 20.4427 22.9634 20.4427 23.5987 20.4427C23.752 20.4427 23.8397 20.3621 23.8835 20.2155C23.9127 20.1275 23.9273 20.0322 23.9346 19.9369C23.9346 19.3579 23.9346 18.7715 23.9346 18.1924C23.9346 18.0531 23.9711 17.9359 24.1025 17.8772C24.1463 17.8552 24.1974 17.8406 24.2413 17.8406C24.6428 17.8406 25.0444 17.8406 25.4387 17.8406C25.5994 17.8406 25.6943 17.9285 25.7308 18.0825C25.7454 18.1631 25.76 18.2511 25.76 18.3317C25.76 20.2448 25.76 22.1506 25.76 24.0637C25.76 24.1517 25.7454 24.2469 25.7308 24.3349C25.7089 24.4668 25.6359 24.5401 25.4972 24.5621C25.3949 24.5768 25.2854 24.5914 25.1832 24.5914C24.9203 24.5914 24.6502 24.5914 24.3873 24.5914C24.2924 24.5914 24.1974 24.5768 24.1025 24.5548C23.993 24.5255 23.9492 24.4302 23.9273 24.3276C23.92 24.2836 23.9273 24.2396 23.9273 24.1956C23.9273 23.6825 23.9273 23.1694 23.9273 22.649C23.9273 22.5537 23.8981 22.4584 23.8835 22.3705C23.8689 22.2385 23.7739 22.1799 23.6644 22.1506C23.5914 22.1286 23.5111 22.1139 23.4307 22.1139C22.905 22.1139 22.3866 22.1139 21.8609 22.1139C21.8463 22.1139 21.8244 22.1139 21.8098 22.1139C21.4958 22.1359 21.3717 22.2459 21.3717 22.5684C21.3717 23.0228 21.3717 23.4846 21.3717 23.9391C21.3717 24.071 21.3571 24.2103 21.3425 24.3422C21.3279 24.4742 21.2622 24.5475 21.1234 24.5621C21.0212 24.5768 20.9117 24.5914 20.8094 24.5914C20.5466 24.5914 20.2764 24.5914 20.0135 24.5914C19.9186 24.5914 19.8237 24.5768 19.7288 24.5548C19.6485 24.5401 19.5608 24.4082 19.5535 24.3129C19.5535 24.2763 19.5535 24.2323 19.5535 24.1956C19.5535 23.1988 19.5535 22.2092 19.5535 21.2123V21.205Z" fill="white"/>
<path d="M49.5783 21.6889C49.5856 21.6083 49.6002 21.513 49.6002 21.4177C49.6002 20.4208 49.6002 19.4313 49.6002 18.4344C49.6002 18.3025 49.6221 18.1632 49.6367 18.0313C49.6513 17.9433 49.7608 17.8407 49.863 17.8407C50.2208 17.8407 50.5713 17.8407 50.9291 17.8407C51.0459 17.8407 51.1773 18.002 51.1919 18.1266C51.1919 18.1632 51.1919 18.1925 51.1919 18.2292C51.1919 20.2083 51.1919 22.1873 51.1919 24.1664C51.1919 24.2397 51.1773 24.3057 51.1554 24.379C51.0897 24.5696 50.9145 24.5916 50.7611 24.5916C50.5056 24.5916 50.2573 24.5769 50.0018 24.5696C49.8703 24.5696 49.7681 24.4963 49.6878 24.401C49.4395 24.1151 49.1986 23.8293 48.9503 23.5434C48.7824 23.3455 48.6217 23.1476 48.4611 22.957C48.1836 22.6271 47.9062 22.3046 47.6287 21.9821C47.4242 21.7402 47.2198 21.4983 47.0153 21.2564C47.0007 21.2345 46.9788 21.2125 46.9569 21.1978C46.8693 21.1392 46.789 21.1831 46.7744 21.2784C46.7744 21.3224 46.7744 21.3664 46.7744 21.4104C46.7744 22.3339 46.7744 23.2648 46.7744 24.1884C46.7744 24.2544 46.7525 24.3277 46.7379 24.3937C46.6941 24.5549 46.5553 24.5842 46.4239 24.5916C46.0953 24.5916 45.7594 24.5769 45.4309 24.5696C45.2994 24.5696 45.2337 24.4743 45.2045 24.357C45.1899 24.3057 45.1899 24.2471 45.1899 24.1884C45.1899 22.224 45.1899 20.2522 45.1899 18.2878C45.1899 18.0313 45.2848 17.8187 45.6353 17.8407C45.7448 17.848 45.8617 17.848 45.9712 17.8407C46.1683 17.826 46.3144 17.914 46.4312 18.0533C46.6648 18.3318 46.8985 18.6177 47.1322 18.8962C47.4754 19.314 47.8185 19.7245 48.1617 20.1423C48.41 20.4502 48.6582 20.758 48.9065 21.0585C49.0598 21.2491 49.2205 21.4324 49.3738 21.6229C49.4249 21.6816 49.476 21.7329 49.5783 21.6889Z" fill="white"/>
<path d="M17.6989 20.45C17.4653 20.45 17.2389 20.45 17.0052 20.45C16.8738 20.45 16.7935 20.406 16.7424 20.2888C16.6475 20.0762 16.5087 19.8856 16.3262 19.7317C16.056 19.5045 15.742 19.3799 15.3988 19.3579C15.2455 19.3432 15.0849 19.3505 14.9242 19.3579C14.3912 19.3945 13.9677 19.6217 13.6683 20.0689C13.5004 20.3181 13.4274 20.5966 13.3836 20.9045C13.3544 21.1317 13.3617 21.3589 13.3982 21.5715C13.4785 22.0993 13.7121 22.539 14.1941 22.8249C14.5445 23.0302 14.9242 23.0888 15.3185 23.0595C15.7712 23.0302 16.1582 22.8616 16.4576 22.5171C16.5306 22.4364 16.6109 22.3485 16.6547 22.2459C16.7059 22.1359 16.7862 22.1066 16.8957 22.1066C17.1075 22.1066 17.3265 22.1066 17.5383 22.1066C17.7865 22.1066 18.0348 22.1066 18.283 22.1066C18.3268 22.1066 18.3707 22.1066 18.4145 22.1066C18.5094 22.1212 18.5532 22.1799 18.5678 22.2825C18.5897 22.4438 18.5021 22.5757 18.4437 22.7076C18.2903 23.0448 18.0786 23.3527 17.8157 23.6165C17.4872 23.9464 17.1147 24.2176 16.6766 24.3715C16.4503 24.4522 16.2239 24.5328 15.9976 24.5914C15.8662 24.6281 15.7347 24.6427 15.596 24.6501C15.2455 24.6647 14.9023 24.694 14.5519 24.6281C14.3839 24.5988 14.216 24.5694 14.048 24.5328C13.9312 24.5035 13.8071 24.4742 13.6975 24.4228C13.4858 24.3276 13.2668 24.2249 13.0696 24.1003C12.5147 23.7558 12.0985 23.2867 11.8356 22.6857C11.748 22.4877 11.6604 22.2825 11.6165 22.0699C11.58 21.872 11.5143 21.6814 11.5216 21.4762C11.5362 21.205 11.507 20.9338 11.5362 20.6699C11.5581 20.4574 11.6093 20.2521 11.675 20.0469C11.821 19.5778 12.062 19.1673 12.3978 18.8081C12.668 18.5223 12.9747 18.2877 13.3251 18.1191C13.4931 18.0385 13.6683 17.9578 13.8436 17.8992C13.9823 17.8479 14.121 17.8259 14.2671 17.7966C14.749 17.7013 15.2382 17.672 15.7274 17.7526C15.8735 17.7746 16.0341 17.7819 16.1728 17.8259C16.4065 17.8992 16.6401 17.9872 16.8738 18.0825C17.3484 18.2804 17.7208 18.6102 18.0494 18.9987C18.283 19.2772 18.4583 19.6071 18.5751 19.9589C18.6043 20.0542 18.6481 20.1422 18.6408 20.2448C18.6335 20.3767 18.5897 20.428 18.4583 20.428C18.2027 20.428 17.9545 20.428 17.6989 20.428V20.45Z" fill="white"/>
<path d="M28.7902 19.3872V20.4061C28.8924 20.4867 29.0019 20.494 29.1188 20.494C29.535 20.494 29.9512 20.494 30.3674 20.494C30.4331 20.494 30.5061 20.494 30.5718 20.5013C30.7397 20.5233 30.842 20.6333 30.8493 20.8019C30.8493 21.0584 30.8493 21.3223 30.8493 21.5788C30.8493 21.7768 30.7325 21.9307 30.4915 21.938C30.455 21.938 30.4112 21.938 30.3747 21.938C29.9366 21.938 29.4985 21.938 29.0531 21.938C29.0092 21.938 28.9654 21.938 28.9216 21.938C28.8267 21.9527 28.7829 22.004 28.7829 22.0919C28.7829 22.3778 28.7829 22.6563 28.7829 22.9422C28.7829 23.0375 28.834 23.0742 28.9143 23.0815C28.9581 23.0815 29.0019 23.0815 29.0457 23.0815C29.6153 23.0815 30.1848 23.0815 30.7543 23.0815C30.842 23.0815 30.9223 23.0961 30.9953 23.1475C31.0902 23.2061 31.156 23.2794 31.1486 23.404C31.1486 23.6899 31.1486 23.9684 31.1486 24.2543C31.1486 24.4448 31.0829 24.5182 30.9004 24.5475C30.8128 24.5621 30.7252 24.5768 30.6302 24.5768C29.6299 24.5768 28.6223 24.5768 27.6219 24.5768C27.4905 24.5768 27.3664 24.5621 27.2349 24.5401C27.1108 24.5181 27.0232 24.4229 26.994 24.3129C26.9648 24.2103 26.9575 24.093 26.9575 23.9757C26.9575 22.1139 26.9575 20.2595 26.9575 18.3977C26.9575 18.295 26.9721 18.1924 26.994 18.0971C27.0232 17.9725 27.1838 17.8479 27.3225 17.8333C27.3664 17.8333 27.4102 17.8333 27.454 17.8333C28.5054 17.8333 29.5569 17.8333 30.6156 17.8333C30.9004 17.8333 31.0172 17.9505 31.0172 18.2437C31.0172 18.4563 31.0172 18.6762 31.0172 18.8888C31.0172 18.9474 31.0099 19.0134 30.988 19.072C30.9369 19.2259 30.842 19.2992 30.6813 19.2992C30.141 19.2992 29.6007 19.2992 29.0604 19.2992C28.9654 19.2992 28.8705 19.2992 28.7902 19.3945V19.3872Z" fill="white"/>
<path d="M32.1417 21.1757C32.1417 20.2375 32.1417 19.2992 32.1417 18.361C32.1417 18.2657 32.149 18.1704 32.1709 18.0751C32.1928 17.9285 32.295 17.8333 32.4411 17.8333C32.8573 17.8333 33.2735 17.8333 33.6897 17.8333C33.8357 17.8333 33.9525 17.9579 33.9598 18.0971C33.9598 18.1484 33.9598 18.1997 33.9598 18.2511C33.9598 19.7024 33.9598 21.1537 33.9598 22.605C33.9598 22.649 33.9598 22.693 33.9598 22.737C33.9671 22.8982 34.0548 22.9789 34.2154 22.9789C34.9383 22.9789 35.6538 22.9789 36.3767 22.9789C36.6615 22.9789 36.7856 23.1035 36.7856 23.3967C36.7856 23.6459 36.7856 23.8951 36.7856 24.1443C36.7856 24.4668 36.6396 24.5548 36.3767 24.5695C36.3475 24.5695 36.3183 24.5695 36.2891 24.5695C35.0843 24.5695 33.8795 24.5695 32.6747 24.5695C32.5725 24.5695 32.463 24.5548 32.3608 24.5328C32.2439 24.5108 32.1855 24.4155 32.1636 24.3056C32.1417 24.2103 32.1344 24.1077 32.1344 24.0051C32.1344 23.0595 32.1344 22.1066 32.1344 21.161L32.1417 21.1757Z" fill="white"/>
<path d="M33.4268 12.1307C32.7477 12.1307 32.076 12.1307 31.3969 12.1307C31.2874 12.1307 31.1705 12.1087 31.0756 12.0574C30.9661 12.0061 30.915 11.8888 30.915 11.7642C30.915 11.5296 30.915 11.3024 30.915 11.0678C30.915 10.8846 30.9223 10.7087 30.915 10.5254C30.9004 10.2102 31.0245 9.97568 31.2874 9.80709C31.6086 9.59453 31.9518 9.43326 32.3169 9.294C32.4922 9.22803 32.6747 9.16939 32.8572 9.13274C33.0909 9.08143 33.3319 9.04478 33.5655 9.0008C33.8795 8.94216 34.2008 8.94216 34.522 8.94216C34.6024 8.94216 34.69 8.91284 34.7703 8.91284C35.0697 8.92017 35.3763 8.93483 35.6757 8.94949C35.8072 8.95682 35.9532 9.13274 35.9751 9.294C35.9751 9.32332 35.9751 9.35264 35.9751 9.38196C35.9751 10.1516 35.9751 10.9212 35.9751 11.6909C35.9751 11.8302 35.9386 11.9694 35.8217 12.0427C35.7268 12.1014 35.6173 12.138 35.4932 12.138C34.8068 12.138 34.1204 12.138 33.4341 12.138L33.4268 12.1307Z" fill="white"/>
<path d="M18.2976 12.1307C17.6186 12.1307 16.9322 12.1307 16.2531 12.1307C16.1436 12.1307 16.0268 12.1014 15.9319 12.0501C15.815 11.9914 15.7639 11.8668 15.7639 11.7422C15.7639 10.9359 15.7639 10.1296 15.7639 9.31598C15.7639 9.08876 15.9246 8.95682 16.1582 8.94949C16.3846 8.94216 16.6036 8.92017 16.83 8.91284C17.0271 8.91284 17.2243 8.94216 17.4141 8.94216C17.7427 8.94216 18.064 8.98614 18.3853 9.03745C18.6554 9.08143 18.9183 9.1474 19.1811 9.2207C19.6704 9.3673 20.1304 9.57987 20.5466 9.88039C20.7145 10.005 20.8021 10.1736 20.8021 10.3788C20.8021 10.8333 20.8021 11.2804 20.8021 11.7349C20.8021 12.0061 20.6707 12.1234 20.3932 12.1307C20.1231 12.1307 19.8529 12.1307 19.5827 12.1307C19.1519 12.1307 18.7284 12.1307 18.2976 12.1307Z" fill="white"/>
<path d="M10.6308 21.1904C10.6308 22.2019 10.6308 23.2134 10.6308 24.225C10.6308 24.2909 10.6089 24.3569 10.5943 24.4155C10.5358 24.5768 10.3825 24.5768 10.2584 24.5841C9.90791 24.5988 9.55741 24.5988 9.21422 24.5841C9.0974 24.5841 8.95868 24.5841 8.88566 24.4522C8.87106 24.4229 8.84914 24.3935 8.84914 24.3642C8.83453 24.2176 8.81995 24.071 8.81995 23.9244C8.81995 22.1139 8.81995 20.2961 8.81995 18.4856C8.81995 18.339 8.83453 18.1924 8.84914 18.0458C8.85644 17.9652 8.97327 17.8479 9.06089 17.8333C9.0974 17.8333 9.12662 17.8333 9.16313 17.8333C9.54282 17.8333 9.92979 17.8333 10.3095 17.8333C10.5285 17.8333 10.6381 17.9505 10.6381 18.1778C10.6381 19.182 10.6381 20.1862 10.6381 21.1904H10.6308Z" fill="white"/>
<path d="M15.7785 14.9526V13.296C16.1071 13.2887 16.421 13.2594 16.7277 13.3913C17.0198 13.5159 17.1804 13.7358 17.195 14.0583C17.2096 14.2782 17.1804 14.4835 17.0271 14.6594C16.8811 14.8206 16.7131 14.9452 16.4868 14.9452C16.2531 14.9452 16.0268 14.9452 15.7785 14.9452V14.9526ZM15.9464 13.4499C15.9099 13.8018 15.9245 14.718 15.9683 14.8426C16.1071 14.8426 16.2458 14.8573 16.3845 14.8426C16.4868 14.828 16.589 14.7913 16.6766 14.74C16.903 14.6081 17.0198 14.4175 17.0271 14.1316C17.0271 13.8604 16.8373 13.5892 16.5963 13.4939C16.3772 13.4133 16.1655 13.4646 15.9391 13.4499H15.9464Z" fill="white"/>
<path d="M22.5764 13.2886C22.8977 13.2886 23.2044 13.2593 23.5037 13.3839C23.7885 13.4939 24.0003 13.8017 23.993 14.0876C23.993 14.3002 23.971 14.4981 23.8177 14.6667C23.6644 14.8353 23.4818 14.9525 23.2409 14.9525C23.0218 14.9525 22.8028 14.9525 22.5764 14.9525V13.2886ZM22.7371 14.8426C22.8904 14.8426 23.0291 14.8572 23.1605 14.8426C23.2701 14.8279 23.3869 14.7913 23.4891 14.7326C23.7447 14.5934 23.8469 14.3588 23.825 14.0729C23.8104 13.8897 23.7374 13.7431 23.5987 13.6258C23.3431 13.3913 23.0364 13.4646 22.7371 13.4646V14.8499V14.8426Z" fill="white"/>
<path d="M21.4227 13.4426C21.3862 13.4866 21.357 13.5232 21.3205 13.5599C21.2037 13.4792 21.0942 13.3619 20.9408 13.3986C20.8532 13.4206 20.7583 13.4499 20.6926 13.5085C20.5392 13.6405 20.5685 13.8677 20.751 13.963C20.8605 14.0216 20.9847 14.0583 21.1015 14.1023C21.1599 14.1243 21.2183 14.1389 21.2694 14.1756C21.5104 14.3222 21.525 14.6887 21.3278 14.8719C21.1015 15.0771 20.7145 15.0698 20.4881 14.8719C20.4443 14.8353 20.4078 14.7986 20.4589 14.7473C20.5027 14.696 20.5466 14.7033 20.5977 14.7473C20.8167 14.9525 21.0577 14.9012 21.1891 14.7913C21.3278 14.674 21.3424 14.4761 21.1891 14.3588C21.1088 14.2928 20.9992 14.2562 20.897 14.2122C20.7875 14.1609 20.6707 14.1243 20.5758 14.0583C20.4224 13.9483 20.3932 13.8091 20.4516 13.6038C20.4954 13.4279 20.6269 13.318 20.8094 13.3033C20.9116 13.296 21.0065 13.3033 21.1088 13.3033C21.2402 13.3033 21.3278 13.3693 21.4227 13.4572V13.4426Z" fill="white"/>
<path d="M25.1466 13.2961H26.1324C26.1397 13.4427 26.1397 13.4427 26.0229 13.4501C25.833 13.4501 25.6432 13.4501 25.446 13.4501C25.3876 13.4501 25.3365 13.4501 25.2708 13.4574V14.0218H26.0594C26.0959 14.1391 26.0374 14.1611 25.9644 14.1611C25.8038 14.1611 25.6505 14.1611 25.4898 14.1611C25.4168 14.1611 25.3438 14.1757 25.2708 14.1831V14.8354H26.147C26.1908 14.9454 26.1397 14.96 26.0667 14.96C25.8549 14.96 25.6359 14.96 25.4241 14.96C25.3292 14.96 25.2343 14.96 25.1466 14.96C25.1101 14.8134 25.1028 13.4794 25.132 13.2961H25.1466Z" fill="white"/>
<path d="M18.356 13.2962H19.3271C19.349 13.4428 19.349 13.4501 19.2322 13.4501C19.0497 13.4501 18.8598 13.4501 18.6773 13.4501C18.6189 13.4501 18.5532 13.4501 18.4801 13.4501V14.0291H19.276C19.3053 14.1538 19.2322 14.1611 19.1665 14.1611C19.0059 14.1611 18.8525 14.1611 18.6919 14.1611C18.6189 14.1611 18.5532 14.1757 18.4801 14.1831V14.8281H19.3637C19.3929 14.9014 19.3856 14.9381 19.3271 14.9454C19.276 14.9454 19.2249 14.9454 19.1738 14.9454C18.9621 14.9454 18.743 14.9454 18.5313 14.9454C18.4728 14.9454 18.4217 14.9454 18.356 14.9454V13.2815V13.2962Z" fill="white"/>
<path d="M31.0246 14.938C31.156 14.7254 31.2874 14.5128 31.4335 14.2783C31.375 14.2783 31.3458 14.2783 31.3166 14.2856C31.0465 14.3516 30.8347 14.2123 30.7252 13.9484C30.6595 13.7945 30.6887 13.6772 30.7471 13.5526C30.7909 13.4427 30.8785 13.3547 30.9953 13.3181C31.3531 13.2008 31.7109 13.3181 31.762 13.6919C31.7912 13.8971 31.7328 14.0877 31.6233 14.2636C31.4992 14.4615 31.375 14.6594 31.2509 14.8573C31.1852 14.9673 31.1779 14.9746 31.0246 14.9306V14.938ZM31.2363 14.1463C31.4846 14.1463 31.6087 14.0217 31.6087 13.7798C31.6087 13.5746 31.4481 13.384 31.2509 13.3987C31.0757 13.406 30.842 13.5526 30.8493 13.7872C30.8493 14.0071 31.0026 14.1463 31.2436 14.1463H31.2363Z" fill="white"/>
<path d="M35.2157 14.9527C35.3033 14.7035 35.4932 14.5276 35.5954 14.2637C35.3983 14.337 35.2376 14.315 35.0916 14.2124C35.0405 14.1757 34.9967 14.1391 34.9675 14.0878C34.8579 13.9045 34.8506 13.7066 34.9456 13.5234C35.0332 13.3548 35.1865 13.2815 35.3764 13.2888C35.4713 13.2888 35.5735 13.2888 35.6538 13.3255C35.9021 13.4428 35.9459 13.582 35.9386 13.8606C35.9386 14.0145 35.8729 14.1538 35.7926 14.2857C35.6684 14.4836 35.537 14.6742 35.4202 14.8794C35.3764 14.9601 35.3252 14.9747 35.2157 14.9527ZM35.4056 14.1464C35.6465 14.1757 35.7999 13.9852 35.8072 13.7946C35.8145 13.5967 35.61 13.3914 35.4129 13.3914C35.223 13.3914 35.004 13.604 35.0113 13.7946C35.0113 13.9925 35.1938 14.1464 35.4056 14.1464Z" fill="white"/>
<path d="M32.8427 13.6552C32.8646 13.494 32.9522 13.3913 33.0909 13.318C33.2588 13.2374 33.5947 13.2667 33.7043 13.406C33.7992 13.5233 33.8722 13.6479 33.7992 13.8311C33.7408 13.9851 33.6531 14.117 33.5436 14.2343C33.3611 14.4175 33.1785 14.6008 32.996 14.7913C32.996 14.7913 32.996 14.8133 32.9814 14.8427C33.2662 14.8793 33.5509 14.8427 33.8284 14.8646C33.8576 14.9599 33.8065 14.9673 33.7408 14.9673C33.602 14.9673 33.4706 14.9673 33.3319 14.9673C33.1566 14.9673 32.9814 14.9673 32.8134 14.9673C32.7623 14.85 32.7915 14.7694 32.8646 14.6961C33.0544 14.5128 33.237 14.3296 33.4195 14.139C33.4998 14.051 33.5728 13.9484 33.6385 13.8458C33.7116 13.7212 33.6458 13.5379 33.5217 13.472C33.2881 13.34 33.142 13.4353 33.0325 13.5892C32.9741 13.6699 32.9303 13.7212 32.8353 13.6625L32.8427 13.6552Z" fill="white"/>
<path d="M29.1334 13.5234C29.0239 13.6113 28.9582 13.67 28.8851 13.7213C28.8632 13.7359 28.8268 13.7213 28.7902 13.7213C28.7902 13.6846 28.7756 13.6333 28.7902 13.6187C28.9071 13.516 29.0239 13.4134 29.148 13.3181C29.1772 13.2961 29.221 13.3035 29.2721 13.2961V14.9527C29.2137 14.982 29.1699 14.9747 29.1553 14.9087C29.148 14.8648 29.1553 14.8208 29.1553 14.7768C29.1553 14.4323 29.1553 14.0878 29.1553 13.7433C29.1553 13.6846 29.1407 13.626 29.1261 13.5307L29.1334 13.5234Z" fill="white"/>
</svg>
