<svg width="45" height="45" viewBox="0 0 45 45" fill="none" xmlns="http://www.w3.org/2000/svg">
<g clip-path="url(#clip0_1281_71)">
<path d="M9.2 18.6433C9.51236 18.857 9.84308 19.047 10.1344 19.2872C10.5728 19.6487 10.7985 20.1474 10.935 20.691C11.0531 21.1607 11.103 21.6384 11.1004 22.1213C11.0951 23.058 11.1082 23.9948 11.0925 24.9316C11.0899 25.1823 11.0164 25.4304 10.9796 25.681C10.9665 25.7681 10.9823 25.8631 10.9665 25.9502C10.9035 26.288 10.7539 26.5914 10.5492 26.8606C10.3654 27.1034 10.1686 27.3382 9.95595 27.5546C9.84571 27.6654 9.69084 27.7341 9.55173 27.8132C9.39949 27.9003 9.23937 27.9768 9.03201 28.0877C9.24725 28.1827 9.42311 28.2565 9.59635 28.3331C9.93758 28.4808 10.2526 28.6656 10.4494 29.0007C10.473 29.0403 10.5098 29.0719 10.5439 29.1036C10.5859 29.1458 10.6489 29.1775 10.6725 29.2303C10.7486 29.3965 10.7696 29.6103 10.8851 29.729C11.0794 29.9296 11.0951 30.1697 11.1424 30.4072C11.1817 30.5946 11.208 30.7872 11.208 30.9772C11.2132 32.5077 11.2159 34.0409 11.208 35.5714C11.2027 36.495 10.9718 37.3552 10.4074 38.1047C10.3838 38.1337 10.368 38.168 10.3497 38.2023C10.0741 38.4345 9.81684 38.6958 9.51761 38.8937C9.06876 39.1892 8.57267 39.3951 8.01883 39.4003C6.41769 39.4109 4.81392 39.4135 3.21278 39.4188C3.20228 39.4188 3.18915 39.4135 3.15503 39.403C3.15503 39.3423 3.15503 39.2763 3.15503 39.2103C3.15503 36.5082 3.15503 33.806 3.15503 31.1065C3.15503 31.0379 3.15241 30.9666 3.14978 30.898C3.14978 30.0008 3.15503 29.101 3.15503 28.2038C3.15503 27.0268 3.15241 25.8526 3.14978 24.6757C3.14978 23.6834 3.15503 22.6912 3.15503 21.699C3.15503 20.6198 3.15503 19.5378 3.15503 18.4586C3.15503 18.3979 3.15503 18.3345 3.15503 18.2554H3.34927C4.59343 18.2554 5.8376 18.2554 7.08177 18.2554C7.77997 18.2554 8.46505 18.3213 9.10551 18.6301C9.13176 18.6433 9.16588 18.6406 9.19738 18.6433H9.2ZM6.74841 34.5528V36.685C7.18676 36.685 7.49387 36.5398 7.62248 36.1651C7.69073 35.9672 7.6881 35.7429 7.71698 35.5292C7.71698 34.9038 7.72223 34.2784 7.72223 33.6503C7.72223 32.4813 7.72223 31.3097 7.72223 30.1407C7.72223 29.5021 7.339 29.1062 6.74054 29.1326C6.74054 29.1986 6.74054 29.2672 6.74054 29.3358C6.74054 30.1275 6.74054 30.9165 6.74054 31.7081C6.74054 32.6555 6.74579 33.6055 6.74579 34.5528H6.74841ZM6.74317 26.7788C7.10277 26.8316 7.44137 26.6785 7.57524 26.3751C7.6566 26.1903 7.71173 25.9792 7.7196 25.7787C7.73797 25.2245 7.7301 24.6677 7.72485 24.1109C7.71698 23.3351 7.71173 22.5619 7.68285 21.7861C7.66973 21.3929 7.35212 21.0736 6.9689 21.0209C6.77204 20.9918 6.74317 21.0156 6.74317 21.2161C6.74317 23.0105 6.74317 24.805 6.74317 26.5994C6.74317 26.6601 6.74317 26.7234 6.74317 26.7814V26.7788Z" fill="#D9D9D9"/>
<path d="M22.9436 39.1287C22.8727 39.068 22.8045 39.002 22.7283 38.9466C22.2847 38.6194 21.9409 38.2077 21.7257 37.7011C21.471 37.1073 21.3897 36.4793 21.3923 35.8328C21.4002 34.2574 21.3949 32.682 21.3949 31.1066C21.3949 31.0565 21.4002 31.009 21.4054 30.9509H24.6471C24.6497 31.0222 24.655 31.0855 24.655 31.1462C24.655 32.7031 24.655 34.26 24.6576 35.8169C24.6576 36.065 24.6812 36.3025 24.9936 36.4107C25.1248 36.4555 25.2403 36.5241 25.3873 36.5189C25.6681 36.511 25.7653 36.3737 25.8808 36.1151C26.0015 35.8407 25.9569 35.5715 25.9621 35.3024C25.9752 34.7086 25.9857 34.1123 25.9595 33.5185C25.9438 33.1544 25.8913 32.7849 25.7941 32.434C25.7101 32.1252 25.5527 31.8376 25.4135 31.5473C25.0933 30.8691 24.5421 30.3625 24.1064 29.7714C23.773 29.3175 23.4029 28.89 23.0879 28.4256C22.626 27.7448 22.164 27.0613 21.765 26.3409C21.4973 25.8606 21.3949 25.3065 21.3949 24.7444C21.3949 23.7839 21.3949 22.8207 21.3949 21.8602C21.3949 21.2823 21.4868 20.7123 21.7073 20.1819C21.8648 19.7992 22.0826 19.4483 22.374 19.1369C22.9698 18.5036 23.7153 18.237 24.5447 18.1447C24.9279 18.1025 25.3164 18.055 25.7023 18.0734C26.474 18.1077 27.2299 18.2186 27.8992 18.6725C28.4846 19.0709 28.8284 19.6251 29.0227 20.2927C29.1907 20.868 29.23 21.4591 29.2274 22.0554C29.2222 23.111 29.2274 24.1691 29.2274 25.2247V25.4622H25.9674V25.259C25.9674 24.0689 25.9674 22.8787 25.9674 21.6913C25.9674 21.5857 25.9516 21.4802 25.9306 21.3773C25.8729 21.1002 25.7364 20.9841 25.4503 20.955C25.2718 20.9366 25.0434 21.0712 24.9621 21.2717C24.8256 21.6174 24.7495 21.9736 24.8282 22.3483C24.8334 22.38 24.8334 22.4117 24.8334 22.4433C24.8466 22.8524 24.8466 23.2614 24.8754 23.6704C24.9174 24.2457 25.1274 24.7708 25.4083 25.2695C25.8598 26.0744 26.4818 26.7499 27.0357 27.4809C27.4137 27.9796 27.7969 28.4784 28.1512 28.9956C28.4662 29.4521 28.7812 29.9165 29.0305 30.41C29.2195 30.7873 29.3271 31.2095 29.4321 31.6212C29.5056 31.9167 29.5135 32.2308 29.5503 32.5395C29.5503 33.4948 29.5713 34.45 29.545 35.4053C29.5214 36.2629 29.4216 37.1126 28.9912 37.8831C28.7129 38.3872 28.3402 38.7935 27.8336 39.0733C27.3323 39.353 26.8047 39.5377 26.2246 39.5614C25.8466 39.5746 25.4687 39.638 25.0907 39.6301C24.403 39.6169 23.731 39.4849 23.1037 39.1815C23.0564 39.1577 22.9987 39.1498 22.9462 39.1366L22.9436 39.1287Z" fill="#D9D9D9"/>
<path d="M15.6492 25.0452C15.7437 24.6098 15.8356 24.1717 15.9327 23.7363C16.0928 23.0054 16.2503 22.2718 16.4157 21.5408C16.5705 20.8468 16.7306 20.1554 16.8881 19.4641C16.9774 19.0656 17.064 18.6671 17.1532 18.2607H20.4868C20.3266 18.9495 20.1665 19.6303 20.0117 20.3111C19.7938 21.2532 19.5812 22.1952 19.3633 23.1373C19.0746 24.3934 18.7832 25.6468 18.4919 26.9029C18.4289 27.18 18.3633 27.4571 18.3082 27.7368C18.2504 28.0271 18.3711 28.2962 18.4315 28.5707C18.6993 29.7872 18.9722 31.001 19.2505 32.2149C19.4526 33.0989 19.6704 33.9803 19.8725 34.8643C20.2085 36.3315 20.5393 37.7987 20.87 39.2658C20.8805 39.3081 20.891 39.3503 20.9067 39.4083H16.9616C16.5233 36.9094 16.0849 34.4051 15.6466 31.9035C15.6361 31.9035 15.6256 31.9035 15.6151 31.9035V39.3978H12.0453V18.2634H15.6151V18.4798C15.6151 20.5935 15.6151 22.7072 15.6151 24.8182C15.6151 24.8948 15.6203 24.9687 15.6256 25.0452C15.6125 25.0953 15.5993 25.1481 15.5836 25.1982C15.602 25.2009 15.6177 25.2035 15.6361 25.2061C15.6413 25.1507 15.6466 25.0953 15.6518 25.0399L15.6492 25.0452ZM15.6335 31.6924C15.6177 31.6924 15.6046 31.6924 15.5888 31.6898L15.6046 31.7953C15.6046 31.7953 15.6256 31.7953 15.6387 31.7927C15.6387 31.7584 15.6335 31.7267 15.6335 31.6924Z" fill="#D9D9D9"/>
<path d="M45 17.266C44.8687 17.3821 44.7323 17.4929 44.6089 17.617C43.0156 19.1976 41.4224 20.7809 39.8317 22.3642C38.6453 23.5411 37.4589 24.718 36.2751 25.895C35.3406 26.8238 34.4036 27.7501 33.4691 28.6789C32.5111 29.6289 31.5556 30.5815 30.5949 31.5289C30.2511 31.8693 29.8967 32.1991 29.5503 32.5369C29.5135 32.2308 29.5083 31.9168 29.4322 31.6186C29.3298 31.2069 29.2222 30.7821 29.0306 30.4074C28.7812 29.9139 28.4662 29.4495 28.1512 28.993C27.7969 28.4757 27.4137 27.9796 27.0357 27.4783C26.4845 26.75 25.8598 26.0718 25.4083 25.2669C25.1301 24.7708 24.9175 24.2431 24.8755 23.6678C24.8466 23.2588 24.8466 22.8498 24.8335 22.4407C24.8335 22.4091 24.8335 22.3774 24.8282 22.3457C24.7495 21.971 24.8256 21.6121 24.9621 21.2691C25.0434 21.0659 25.2718 20.934 25.4503 20.9524C25.7338 20.9815 25.8703 21.0976 25.9306 21.3746C25.9516 21.4776 25.9674 21.5831 25.9674 21.6887C25.9674 22.8788 25.9674 24.0689 25.9674 25.2564V25.4596H29.2274V25.2221C29.2274 24.1665 29.2222 23.1084 29.2274 22.0528C29.23 21.4565 29.1907 20.8654 29.0227 20.2901C28.8284 19.6251 28.4846 19.0683 27.8993 18.6698C27.2325 18.216 26.474 18.1051 25.7023 18.0708C25.3191 18.0524 24.9306 18.0999 24.5447 18.1421C23.7153 18.2344 22.9698 18.501 22.374 19.1343C22.08 19.4457 21.8648 19.7966 21.7073 20.1793C21.4868 20.7123 21.3949 21.2797 21.3949 21.8576C21.3949 22.8181 21.3949 23.7813 21.3949 24.7418C21.3949 25.3039 21.4973 25.858 21.765 26.3383C22.164 27.0561 22.626 27.7422 23.088 28.423C23.4029 28.8874 23.773 29.3149 24.1064 29.7688C24.5421 30.3599 25.0933 30.8665 25.4135 31.5447C25.55 31.835 25.7101 32.1226 25.7941 32.4314C25.8886 32.7823 25.9411 33.1518 25.9595 33.5159C25.9858 34.1097 25.9753 34.706 25.9621 35.2998C25.9569 35.5689 26.0015 35.8381 25.8808 36.1125C25.7679 36.3711 25.6682 36.5084 25.3873 36.5163C25.2403 36.5215 25.1248 36.4529 24.9936 36.4081C24.6838 36.3025 24.6602 36.0624 24.6576 35.8143C24.6523 34.2574 24.655 32.7005 24.655 31.1436C24.655 31.0829 24.6497 31.0196 24.6471 30.9483H21.4054C21.4028 31.0064 21.3949 31.0565 21.3949 31.104C21.3949 32.6794 21.4002 34.2548 21.3923 35.8302C21.3897 36.4767 21.4711 37.1047 21.7257 37.6985C21.9435 38.2051 22.2848 38.6168 22.7283 38.944C22.8045 38.9994 22.8727 39.0654 22.9436 39.1261C22.3556 39.7013 21.765 40.2713 21.1797 40.8492C20.534 41.4878 19.8962 42.1343 19.2505 42.7729C18.4998 43.5197 17.7438 44.2612 16.9984 44.9948C15.8434 43.8258 14.6806 42.6542 13.5231 41.4799C12.754 40.6988 11.9876 39.9177 11.2264 39.1313C10.9298 38.8252 10.641 38.5086 10.3497 38.1972C10.368 38.1655 10.3864 38.1312 10.4074 38.0996C10.9718 37.3501 11.2027 36.4899 11.208 35.5663C11.2185 34.0358 11.2132 32.5026 11.208 30.9721C11.208 30.7821 11.1791 30.5895 11.1424 30.4021C11.0951 30.1646 11.0794 29.9245 10.8851 29.7239C10.767 29.6025 10.7486 29.3914 10.6725 29.2252C10.6489 29.175 10.5859 29.1407 10.5439 29.0985C10.5098 29.0668 10.473 29.0352 10.4494 28.9956C10.2526 28.6578 9.93758 28.4757 9.59635 28.328C9.42311 28.2514 9.24987 28.1776 9.03201 28.0826C9.23937 27.9744 9.39949 27.8952 9.55173 27.8081C9.69084 27.729 9.84833 27.6603 9.95595 27.5495C10.1686 27.3331 10.3654 27.0983 10.5492 26.8555C10.7539 26.5863 10.9061 26.2829 10.9665 25.9451C10.9823 25.858 10.9665 25.7657 10.9796 25.6759C11.0138 25.4253 11.0873 25.1772 11.0925 24.9265C11.1056 23.9897 11.0925 23.0529 11.1004 22.1162C11.1004 21.6306 11.0531 21.1556 10.935 20.6859C10.7985 20.1423 10.5728 19.6409 10.1344 19.2821C9.84308 19.0419 9.51236 18.8519 9.2 18.6382C9.79321 18.0576 10.3864 17.4797 10.977 16.8966C11.376 16.5034 11.7697 16.1023 12.1687 15.7064C13.1162 14.767 14.0638 13.8276 15.0114 12.8882C15.9537 11.954 16.896 11.0172 17.8409 10.0831C18.7885 9.14366 19.736 8.20424 20.6836 7.26218C21.6233 6.33067 22.5604 5.39916 23.5 4.47029C24.4476 3.53087 25.3952 2.5888 26.3427 1.64938C26.8756 1.12425 27.4084 0.599124 27.9412 0.0739967C28.0095 0.00538711 28.062 -0.0447507 28.1539 0.0502473C28.6526 0.567458 29.1539 1.08203 29.6579 1.59396C30.9965 2.95824 32.3378 4.31724 33.6765 5.68152C34.6136 6.63413 35.5506 7.58939 36.4851 8.54465C38.1151 10.2045 39.7451 11.8669 41.3751 13.5268C42.5405 14.7142 43.7086 15.9043 44.874 17.0918C44.916 17.1367 44.958 17.1815 45 17.2238V17.2607V17.266ZM15.6229 25.0479C15.6203 24.9714 15.6124 24.8975 15.6124 24.821C15.6124 22.7073 15.6124 20.5936 15.6124 18.4825V18.2661H12.0427V39.4005H15.6124V31.9062C15.6124 31.9062 15.6334 31.9062 15.6439 31.9062C16.0823 34.4078 16.5206 36.9095 16.959 39.4111H20.9041C20.8883 39.3504 20.8778 39.3108 20.8673 39.2686C20.534 37.8014 20.2059 36.3342 19.8699 34.867C19.6678 33.983 19.4499 33.1016 19.2478 32.2176C18.9696 31.0037 18.6966 29.7899 18.4289 28.5734C18.3685 28.2989 18.2478 28.0298 18.3055 27.7395C18.3633 27.4598 18.4263 27.1827 18.4893 26.9056C18.778 25.6496 19.0693 24.3961 19.3607 23.14C19.5786 22.198 19.7912 21.2559 20.009 20.3138C20.1665 19.633 20.324 18.9522 20.4841 18.2635H17.1506C17.0614 18.6698 16.9747 19.0683 16.8855 19.4668C16.728 20.1581 16.5679 20.8495 16.413 21.5435C16.2503 22.2745 16.0902 23.0081 15.9301 23.739C15.8356 24.1744 15.7411 24.6125 15.6466 25.0479C15.6387 25.0479 15.6282 25.0479 15.6203 25.0532L15.6229 25.0479Z" fill="white"/>
<path d="M3.14979 24.673C3.14979 25.85 3.15504 27.0242 3.15504 28.2012C3.15504 29.0984 3.15241 29.9982 3.14979 30.8954C2.81119 30.5418 2.47783 30.1856 2.13398 29.8372C1.51715 29.2145 0.89769 28.597 0.275606 27.9795C0.199486 27.9056 0.110242 27.8476 0.00262451 27.7631C0.356976 27.4306 0.671955 27.1456 0.976435 26.8501C1.20217 26.6311 1.41741 26.4015 1.64052 26.1772C2.14448 25.6732 2.64845 25.1718 3.14979 24.6704V24.673Z" fill="white"/>
<path d="M6.74841 34.5528C6.74841 33.6054 6.74316 32.6554 6.74316 31.7081C6.74316 30.9164 6.74316 30.1274 6.74316 29.3358C6.74316 29.2672 6.74316 29.2012 6.74316 29.1326C7.34162 29.1062 7.72222 29.502 7.72485 30.1406C7.72747 31.3096 7.72485 32.4813 7.72485 33.6503C7.72485 34.2757 7.72222 34.9011 7.7196 35.5291C7.39675 35.2045 7.07389 34.8773 6.75104 34.5528H6.74841Z" fill="white"/>
<path d="M6.74316 26.779C6.74316 26.7209 6.74316 26.6576 6.74316 26.5969C6.74316 24.8025 6.74316 23.0081 6.74316 21.2137C6.74316 21.0131 6.76941 20.992 6.9689 21.0184C7.35212 21.0738 7.66973 21.3905 7.68285 21.7837C7.7091 22.5568 7.71435 23.3327 7.72485 24.1085C7.7301 24.6653 7.73797 25.2221 7.7196 25.7762C7.71172 25.9768 7.6566 26.1879 7.57523 26.3726C7.44137 26.6761 7.10277 26.8291 6.74316 26.7763V26.779Z" fill="white"/>
</g>
<defs>
<clipPath id="clip0_1281_71">
<rect width="45" height="45" fill="white"/>
</clipPath>
</defs>
</svg>
