<svg width="27" height="37" viewBox="0 0 27 37" fill="none" xmlns="http://www.w3.org/2000/svg">
<path fill-rule="evenodd" clip-rule="evenodd" d="M26.0267 19.4167L17.2542 11.7287C16.2018 10.9925 15.2779 10.4178 14.4841 10.0406C13.6902 9.68158 12.7292 9.50206 11.5846 9.50206C9.97801 9.50206 8.68516 9.87921 7.7431 10.6335C6.80105 11.3878 6.33991 12.3398 6.32097 13.4712L6.28391 25.2905H22.7756C24.5667 25.2905 26.0259 23.8717 26.0259 22.1473V19.4167H26.0267ZM4.64108 25.2905H3.256C1.48306 25.2905 0.0238647 23.8717 0.0238647 22.1473V3.1432C0.0238647 1.40073 1.48306 0 3.256 0H22.7764C24.5675 0 26.0267 1.40073 26.0267 3.1432V16.7585L12.8775 5.22659C11.8251 4.47228 10.883 3.8975 10.0892 3.53847C9.29535 3.17943 8.33436 2.9818 7.18973 2.9818C5.58313 2.9818 4.3084 3.35895 3.34823 4.13137C2.42511 4.86755 1.94503 5.8376 1.94503 6.96906V21.4103L4.64108 25.2905Z" fill="white"/>
<path fill-rule="evenodd" clip-rule="evenodd" d="M17.6783 35.9658V29.84H20.8117V30.7327C20.922 30.4354 21.2366 30.1842 21.7092 29.9965C22.1976 29.8087 22.7328 29.7148 23.2994 29.7148C23.772 29.7148 24.2126 29.7931 24.6219 29.9182C25.0311 30.0591 25.3622 30.2789 25.6142 30.5762C25.8661 30.8735 25.9921 31.2498 25.9921 31.7044V35.9658H22.7172V31.9078C22.7172 31.72 22.6381 31.5784 22.5121 31.4845C22.3705 31.3906 22.1976 31.3437 22.0082 31.3437C21.7405 31.3437 21.5042 31.4063 21.3 31.5471C21.0949 31.6722 20.9854 31.8443 20.9854 32.0486V35.965H17.6792L17.6783 35.9658Z" fill="white"/>
<path fill-rule="evenodd" clip-rule="evenodd" d="M11.9716 31.8409V33.7209C11.9716 34.0026 12.0507 34.2224 12.208 34.3632C12.3652 34.5197 12.5703 34.5979 12.8066 34.6136C13.3106 34.5979 13.6252 34.4415 13.7824 34.1747C13.9241 33.893 14.0031 33.548 14.0031 33.1247C14.0031 32.8275 13.9875 32.5607 13.9562 32.279C13.9249 32.0131 13.8936 31.8401 13.8615 31.7462C13.6729 31.4169 13.3732 31.2448 12.9483 31.2448C12.6963 31.2448 12.4599 31.3073 12.2714 31.4325C12.0663 31.5577 11.9725 31.6985 11.9725 31.8401L11.9716 31.8409ZM11.0115 35.1933C10.9324 35.2715 10.8542 35.3498 10.8229 35.428C10.7759 35.5062 10.7282 35.6001 10.6812 35.7096C10.6343 35.8348 10.6022 35.913 10.5865 35.9443H8.68103V27.7351H11.9716V30.6337C12.1767 30.3365 12.4756 30.1166 12.8536 29.9601C13.2472 29.788 13.6721 29.7098 14.1448 29.7098C14.6957 29.7098 15.2309 29.8193 15.7193 30.0392C16.2232 30.2739 16.6325 30.6033 16.9471 31.0735C17.246 31.528 17.4033 32.0765 17.4033 32.7344C17.4033 33.455 17.246 34.066 16.9149 34.5831C16.5683 35.0846 16.1277 35.4601 15.5611 35.7113C15.0102 35.9616 14.4116 36.0876 13.7503 36.0876C13.262 36.0876 12.7745 36.0094 12.2862 35.8529C11.8135 35.6964 11.3886 35.4766 11.0106 35.195L11.0115 35.1933Z" fill="white"/>
<path fill-rule="evenodd" clip-rule="evenodd" d="M0 35.9658V29.84H3.11767V30.7327C3.24366 30.4354 3.54258 30.1842 4.0309 29.9965C4.50358 29.8087 5.03883 29.7148 5.60538 29.7148C6.07806 29.7148 6.51862 29.7931 6.92788 29.9182C7.33715 30.0591 7.66819 30.2789 7.92017 30.5762C8.17215 30.8735 8.29814 31.2498 8.29814 31.7044V35.9658H5.02237V31.9078C5.02237 31.72 4.95978 31.5784 4.81732 31.4845C4.67568 31.3906 4.5184 31.3437 4.31335 31.3437C4.04573 31.3437 3.80939 31.4063 3.60517 31.5471C3.40012 31.6722 3.2906 31.8443 3.2906 32.0486V35.965H0V35.9658Z" fill="white"/>
</svg>
