<svg width="84" height="19" viewBox="0 0 84 19" fill="none" xmlns="http://www.w3.org/2000/svg">
<path d="M2.93193 5.08116C3.71902 6.32426 4.14775 7.80445 4.14775 9.35513C4.14775 10.9058 3.72542 12.386 2.93193 13.6291C2.14485 12.386 1.71611 10.9122 1.71611 9.35513C1.71611 7.79804 2.13845 6.32426 2.93193 5.08116ZM2.93193 3.32544C1.51774 4.8633 0.647461 6.99708 0.647461 9.35513C0.647461 11.7132 1.52414 13.847 2.93193 15.3848C4.34613 13.847 5.22279 11.7132 5.22279 9.35513C5.22279 6.99708 4.34613 4.8633 2.93193 3.32544Z" fill="white"/>
<path d="M16.3444 5.08116C17.1379 6.32426 17.5602 7.79804 17.5602 9.35513C17.5602 10.9122 17.1379 12.386 16.3444 13.6291C15.5573 12.386 15.1286 10.9122 15.1286 9.35513C15.1286 7.79804 15.5509 6.32426 16.3444 5.08116ZM16.3444 3.32544C14.9302 4.8633 14.0535 6.99708 14.0535 9.35513C14.0535 11.7132 14.9302 13.847 16.3444 15.3848C17.7586 13.847 18.6352 11.7132 18.6352 9.35513C18.6352 6.99708 17.7586 4.8633 16.3444 3.32544Z" fill="white"/>
<path d="M9.63815 1.42239C11.1931 1.42239 12.6649 1.8453 13.9063 2.63986C12.6649 3.43442 11.1867 3.85733 9.63815 3.85733C8.08957 3.85733 6.6114 3.43442 5.36998 2.63986C6.6114 1.85171 8.08317 1.42239 9.63815 1.42239ZM9.63815 0.352295C7.28329 0.352295 5.15241 1.23016 3.61664 2.63986C5.15241 4.05597 7.28329 4.93383 9.63815 4.93383C11.993 4.93383 14.1239 4.05597 15.6597 2.63986C14.1239 1.22375 11.9866 0.352295 9.63815 0.352295Z" fill="white"/>
<path d="M9.63815 14.8531C11.1931 14.8531 12.6649 15.276 13.9063 16.0705C12.6649 16.8651 11.1867 17.288 9.63815 17.288C8.08957 17.288 6.6114 16.8651 5.36998 16.0705C6.6114 15.2824 8.08317 14.8531 9.63815 14.8531ZM9.63815 13.783C7.28329 13.783 5.15241 14.6608 3.61664 16.0705C5.15241 17.4866 7.28329 18.3645 9.63815 18.3645C11.993 18.3645 14.1239 17.4866 15.6597 16.0705C14.1239 14.6544 11.9866 13.783 9.63815 13.783Z" fill="white"/>
<path d="M24.9383 12.3156L23.3386 6.4397H24.676L25.8918 11.1878H26.7109L27.9267 6.4397H29.2641L27.6643 12.3156H24.9383Z" fill="white"/>
<path d="M32.6108 12.4565C32.1053 12.4565 31.6446 12.3283 31.2222 12.0656C30.7999 11.8029 30.4671 11.4441 30.2176 10.9699C29.968 10.5021 29.8464 9.97028 29.8464 9.38077C29.8464 8.79126 29.968 8.25301 30.2176 7.77883C30.4671 7.31107 30.7999 6.94583 31.2222 6.68311C31.6446 6.42039 32.1053 6.29224 32.6108 6.29224C32.9756 6.29224 33.2955 6.34991 33.5707 6.47165C33.8459 6.5934 34.0698 6.73437 34.2362 6.89457C34.409 7.05476 34.5177 7.18291 34.5753 7.27903H34.6073V6.4268H35.8872V12.3027H34.6073V11.4505H34.5753C34.5241 11.553 34.409 11.6811 34.2362 11.8413C34.0634 12.0015 33.8459 12.1425 33.5707 12.2578C33.2955 12.3796 32.9756 12.4373 32.6108 12.4373M32.8668 11.3287C33.1931 11.3287 33.4875 11.2518 33.7563 11.0916C34.025 10.9314 34.2298 10.7072 34.3834 10.4124C34.537 10.1177 34.6073 9.77805 34.6073 9.38718C34.6073 8.9963 34.5306 8.64388 34.3834 8.34912C34.2298 8.05437 34.025 7.8301 33.7563 7.6699C33.4875 7.50971 33.1931 7.43282 32.8668 7.43282C32.5404 7.43282 32.2589 7.50971 31.9965 7.6699C31.7342 7.8301 31.523 8.05437 31.3758 8.34912C31.2222 8.64388 31.1519 8.9899 31.1519 9.38718C31.1519 9.78446 31.2286 10.1177 31.3758 10.4124C31.5294 10.7072 31.7342 10.9314 31.9965 11.0916C32.2589 11.2518 32.5532 11.3287 32.8668 11.3287Z" fill="white"/>
<path d="M37.3397 12.3156V6.43974H38.6067V7.29197H38.6451C38.8179 7.01003 39.0675 6.77935 39.3938 6.58712C39.7202 6.39489 40.1105 6.30518 40.5649 6.30518C41.288 6.30518 41.8511 6.52304 42.267 6.96517C42.683 7.4009 42.8877 8.01604 42.8877 8.8106V12.322H41.6079V8.94517C41.6079 8.43896 41.4863 8.0609 41.2368 7.811C40.9872 7.56109 40.648 7.43294 40.2129 7.43294C39.9121 7.43294 39.637 7.50343 39.4002 7.6508C39.1635 7.79177 38.9715 7.99682 38.8243 8.26595C38.6835 8.53507 38.6067 8.83623 38.6067 9.18225V12.322H37.3397" fill="white"/>
<path d="M46.9767 12.4564C46.4136 12.4564 45.8953 12.3219 45.4282 12.0463C44.961 11.7772 44.5963 11.4056 44.3275 10.9378C44.0588 10.47 43.9244 9.95099 43.9244 9.38071C43.9244 8.81042 44.0588 8.28498 44.3275 7.81722C44.5963 7.34945 44.961 6.9778 45.4282 6.70868C45.8953 6.43955 46.4072 6.29858 46.9767 6.29858C47.5462 6.29858 47.9942 6.40111 48.3973 6.60616C48.8005 6.8112 49.1204 7.08033 49.3636 7.40072C49.6004 7.72751 49.7795 8.08634 49.8883 8.47081H48.5893C48.4741 8.17605 48.2821 7.92615 48.007 7.72751C47.7382 7.52887 47.3927 7.42635 46.9831 7.42635C46.6632 7.42635 46.3752 7.50965 46.1065 7.66984C45.8377 7.83003 45.6265 8.06071 45.4729 8.35547C45.3194 8.65022 45.2426 8.98983 45.2426 9.38071C45.2426 9.77158 45.3194 10.0984 45.4729 10.3931C45.6265 10.6879 45.8377 10.9186 46.1065 11.0788C46.3752 11.239 46.6696 11.3223 46.9831 11.3223C47.3991 11.3223 47.751 11.2133 48.0262 11.0019C48.3077 10.7904 48.4997 10.5277 48.6085 10.2137H49.9075C49.8179 10.611 49.6451 10.9762 49.402 11.3158C49.1588 11.6555 48.8325 11.9246 48.4229 12.136C48.0134 12.3475 47.5334 12.45 46.9767 12.45" fill="white"/>
<path d="M53.7405 12.4566C53.1518 12.4566 52.6207 12.322 52.1408 12.0529C51.6672 11.7838 51.2897 11.4186 51.0209 10.9508C50.7522 10.483 50.6114 9.95759 50.6114 9.3873C50.6114 8.81701 50.7458 8.29158 51.0209 7.8174C51.2897 7.34323 51.6672 6.97158 52.1408 6.70886C52.6207 6.43974 53.1518 6.30518 53.7405 6.30518C54.3293 6.30518 54.8732 6.43974 55.3531 6.70886C55.8266 6.97799 56.2042 7.34964 56.4729 7.8174C56.7417 8.29158 56.8825 8.81701 56.8825 9.3873C56.8825 9.95759 56.7481 10.483 56.4729 10.9508C56.2042 11.4186 55.8266 11.7902 55.3531 12.0529C54.8796 12.322 54.3421 12.4566 53.7405 12.4566ZM53.7405 11.3288C54.0925 11.3288 54.406 11.2455 54.6812 11.0854C54.9628 10.9252 55.1803 10.6945 55.3403 10.3997C55.5003 10.105 55.5771 9.76536 55.5771 9.3873C55.5771 9.00924 55.5003 8.65682 55.3403 8.36206C55.1803 8.06731 54.9628 7.83663 54.6812 7.67643C54.3996 7.51624 54.0861 7.43294 53.7405 7.43294C53.395 7.43294 53.0878 7.51624 52.8127 7.67643C52.5311 7.83663 52.3135 8.06731 52.1536 8.36206C51.9936 8.65682 51.9168 8.99643 51.9168 9.3873C51.9168 9.77817 51.9936 10.105 52.1536 10.3997C52.3135 10.6945 52.5311 10.9252 52.8127 11.0854C53.0942 11.2455 53.4014 11.3288 53.7405 11.3288Z" fill="white"/>
<path d="M60.3188 12.4566C59.5957 12.4566 59.0326 12.2387 58.6166 11.7966C58.2007 11.3608 57.9959 10.7457 57.9959 9.95114V6.4397H59.2629V9.81658C59.2629 10.31 59.3909 10.688 59.6405 10.9443C59.89 11.2006 60.2292 11.3288 60.6579 11.3288C60.9587 11.3288 61.2338 11.2583 61.477 11.1109C61.7202 10.97 61.9121 10.7649 62.0529 10.4958C62.1937 10.2267 62.2641 9.92551 62.2641 9.57949V6.4397H63.5439V12.3156H62.2641V11.4634H62.2257C62.0529 11.7453 61.8034 11.976 61.477 12.1682C61.1507 12.3604 60.7603 12.4502 60.3188 12.4502" fill="white"/>
<path d="M64.9901 12.3156V6.43969H66.2571V7.34959H66.2955C66.4235 7.06765 66.6347 6.83697 66.9162 6.64474C67.1978 6.4525 67.5434 6.36279 67.9465 6.36279H68.644V7.6059H67.8633C67.5434 7.6059 67.2682 7.66997 67.025 7.80453C66.7819 7.9391 66.5963 8.11851 66.4619 8.3556C66.3275 8.59269 66.2571 8.86822 66.2571 9.17579V12.3156H64.9901Z" fill="white"/>
<path d="M72.3234 12.4566C71.7347 12.4566 71.2036 12.322 70.7237 12.0529C70.2501 11.7838 69.8726 11.4186 69.6038 10.9508C69.3351 10.483 69.1943 9.95759 69.1943 9.3873C69.1943 8.81701 69.3287 8.29158 69.6038 7.8174C69.8726 7.34323 70.2501 6.97158 70.7237 6.70886C71.1972 6.43974 71.7347 6.30518 72.3234 6.30518C72.9121 6.30518 73.4561 6.43974 73.9296 6.70886C74.4095 6.97799 74.7807 7.34964 75.0494 7.8174C75.3182 8.29158 75.459 8.81701 75.459 9.3873C75.459 9.95759 75.3246 10.483 75.0494 10.9508C74.7807 11.4186 74.4031 11.7902 73.9296 12.0529C73.4561 12.322 72.9185 12.4566 72.3234 12.4566ZM72.3234 11.3288C72.669 11.3288 72.9889 11.2455 73.2641 11.0854C73.5457 10.9252 73.7632 10.6945 73.9232 10.3997C74.0832 10.105 74.16 9.76536 74.16 9.3873C74.16 9.00924 74.0768 8.65682 73.9232 8.36206C73.7632 8.06731 73.5457 7.83663 73.2641 7.67643C72.9825 7.51624 72.669 7.43294 72.3234 7.43294C71.9779 7.43294 71.6707 7.51624 71.3956 7.67643C71.114 7.83663 70.8964 8.06731 70.7365 8.36206C70.5765 8.65682 70.4997 8.99643 70.4997 9.3873C70.4997 9.77817 70.5765 10.105 70.7365 10.3997C70.8964 10.6945 71.114 10.9252 71.3956 11.0854C71.6771 11.2455 71.9843 11.3288 72.3234 11.3288Z" fill="white"/>
<path d="M78.9849 12.4566C78.4409 12.4566 77.9802 12.3605 77.5898 12.1747C77.1995 11.9824 76.8924 11.7389 76.662 11.4442C76.4316 11.143 76.2652 10.8162 76.1757 10.4638H77.5003C77.6027 10.7201 77.7754 10.9316 78.0314 11.111C78.2809 11.284 78.6009 11.3737 78.9912 11.3737C79.42 11.3737 79.7271 11.3096 79.9191 11.1751C80.1111 11.0405 80.2071 10.8675 80.2071 10.6368C80.2071 10.4958 80.1495 10.3805 80.0343 10.2908C79.9191 10.2011 79.7719 10.1306 79.5928 10.0729C79.4136 10.0217 79.164 9.95759 78.8505 9.8871C78.3577 9.77817 77.9482 9.66283 77.6346 9.54749C77.3211 9.43215 77.0459 9.25274 76.8156 9.00924C76.5852 8.76575 76.47 8.43255 76.47 8.01604C76.47 7.71488 76.5596 7.43294 76.7452 7.16381C76.9244 6.9011 77.1931 6.68964 77.5451 6.53585C77.897 6.38207 78.3194 6.30518 78.8185 6.30518C79.58 6.30518 80.1751 6.48459 80.623 6.83702C81.0646 7.18945 81.3461 7.62517 81.4613 8.13138H80.1623C80.0855 7.93274 79.9319 7.75973 79.7079 7.61236C79.484 7.47139 79.1896 7.39449 78.8249 7.39449C78.5945 7.39449 78.3961 7.42653 78.2426 7.4842C78.089 7.54187 77.9738 7.61876 77.897 7.70847C77.8202 7.80459 77.7818 7.9007 77.7818 8.00963C77.7818 8.15061 77.8394 8.26595 77.9546 8.35565C78.0698 8.44536 78.217 8.51585 78.3961 8.57352C78.5753 8.62478 78.8249 8.68886 79.1384 8.75934C79.6312 8.86827 80.0407 8.98361 80.3543 9.09895C80.6678 9.21429 80.943 9.39371 81.1733 9.6372C81.4037 9.8807 81.5253 10.2139 81.5253 10.6304C81.5253 10.9636 81.4293 11.2712 81.2373 11.5467C81.0454 11.8222 80.7574 12.0401 80.3734 12.2131C79.9895 12.3797 79.5352 12.463 79.0104 12.463" fill="white"/>
<path d="M81.3845 5.9783C81.3845 5.33112 81.8708 4.93384 82.4212 4.93384C82.9715 4.93384 83.4578 5.33753 83.4578 5.9783C83.4578 6.61907 82.9651 7.00995 82.4212 7.00995C81.8772 7.00995 81.3845 6.60626 81.3845 5.9783ZM82.4212 6.87538C82.8947 6.87538 83.3234 6.54218 83.3234 5.97189C83.3234 5.4016 82.8947 5.05558 82.4212 5.05558C81.9476 5.05558 81.5189 5.39519 81.5189 5.97189C81.5189 6.54859 81.9476 6.87538 82.4212 6.87538ZM82.0436 5.38238H82.4404C82.6963 5.38238 82.8435 5.53617 82.8435 5.74762C82.8435 5.95267 82.7155 6.0616 82.5555 6.10005L82.9011 6.54859H82.7539L82.4212 6.10646H82.1652V6.54859H82.0436V5.38238ZM82.4404 5.99752C82.6259 5.99752 82.7219 5.91422 82.7219 5.75403C82.7219 5.59383 82.6259 5.49131 82.4404 5.49131H82.1652V5.99752H82.4404Z" fill="white"/>
</svg>
