<svg width="183" height="45" viewBox="0 0 183 45" fill="none" xmlns="http://www.w3.org/2000/svg">
<g id="Frame" clip-path="url(#clip0_1136_138)">
<path id="Vector" d="M80.1408 17.2013C81.3879 17.6227 81.6778 16.5094 81.8072 15.7053C81.8416 15.4854 81.8664 15.258 81.8751 15.0446C81.8923 14.4464 81.722 13.9571 80.8932 14.1522C80.0277 14.2988 79.6849 15.3442 79.6257 15.5868C79.5869 15.7495 79.5373 15.9855 79.5405 16.2281C79.5276 16.6128 79.6418 17.0321 80.1408 17.2013Z" fill="white"/>
<path id="Vector_2" d="M52.2449 29.6578C52.9314 28.9443 52.0509 27.2122 50.7305 26.0568C49.5751 25.0447 48.8551 25.2301 47.967 25.7098C47.371 26.0288 46.305 27.0581 45.0957 27.6315C43.5835 28.3461 43.2936 27.4256 43.2591 26.7143C43.1589 24.494 44.5654 22.3642 45.8276 21.8296C46.7243 21.447 47.607 21.7035 48.3044 22.7522C48.5684 23.1478 48.9177 23.1769 49.3111 22.874C49.8155 22.4796 49.7562 22.0808 49.6667 21.7553C49.3563 20.6279 48.3378 19.8033 46.4958 19.7441C44.5838 19.6826 42.7741 21.2325 41.8095 23.5304C41.0733 24.9844 38.4769 28.3633 37.8668 27.957C37.3311 27.6013 38.2936 25.0016 38.7032 24.0585C39.3165 22.6563 39.1505 22.1346 37.454 21.2228C36.6122 20.7712 35.9354 20.3466 35.3771 19.9445C36.055 17.3901 36.1003 15.8187 35.5075 14.7484C35.0871 13.9907 34.5558 13.8042 34.1796 13.7816C33.6547 13.7514 32.939 14.0209 32.4648 14.5317C31.7416 15.3078 31.5282 16.114 31.5886 17.1886C31.6317 17.9915 31.9216 19.3636 33.5243 20.7615L33.5221 20.7647C32.0596 25.1956 30.4331 28.1984 29.3424 30.0997C28.8337 30.9792 28.547 31.2918 28.8412 31.4825C29.1139 31.6604 30.5043 31.711 31.0346 30.8499C32.6502 28.2426 34.0977 24.01 34.85 21.7229C34.9018 21.7531 34.9524 21.7876 35.0074 21.8178C36.7437 22.8374 36.8192 22.9215 36.609 23.7988C36.6047 23.8117 36.3396 24.6363 36.3396 24.6363C35.9462 25.8736 35.2111 28.1467 35.875 29.4045C36.069 29.7774 36.3719 30.0372 36.7718 30.1751C36.8946 30.2172 37.025 30.2441 37.1576 30.2517C38.7194 30.3422 40.5215 28.054 41.013 27.3739C41.069 28.746 41.6478 29.7861 43.0856 29.854C44.5601 29.9208 45.9634 28.9044 46.7728 28.3903C48.4779 27.3071 49.0147 26.2788 50.2929 28.2275C51.416 29.9359 51.3956 30.5341 52.2449 29.6578ZM33.575 16.2864C34.5385 15.4845 34.462 17.6434 34.1365 18.884C32.9013 17.5841 33.1158 16.6669 33.575 16.2864Z" fill="white"/>
<path id="Vector_3" d="M67.6436 22.2238C67.5585 19.941 66.3697 19.8429 65.2099 20.7407C63.0198 22.4286 59.85 26.2279 57.3408 29.4829C55.8739 27.9179 58.0867 26.2063 59.5352 24.3643C61.1056 22.3715 60.7187 20.7052 59.9265 19.9431C57.8592 17.946 52.6189 20.2126 51.9032 21.714C51.8073 21.9177 51.5648 22.5245 51.8687 22.8198C52.0789 23.0203 52.496 23.1389 53.6849 22.3995C55.598 21.2085 57.6792 20.8722 58.2785 21.8218C58.8433 22.7196 57.8495 23.5269 55.8211 26.1169C55.0601 27.0934 53.8347 29.2943 56.1778 31.0102C55.9914 31.2613 55.8082 31.5081 55.6303 31.7441C52.9606 35.3624 49.518 39.6003 51.5443 43.0062C53.2947 45.9497 58.7765 45.2405 61.43 43.4115C68.4229 38.599 62.5143 33.0591 58.5835 30.4087C60.5516 27.9395 62.7611 25.4163 64.7238 23.3135C65.3662 22.6248 65.7607 22.3133 65.7898 23.9796C65.8739 28.8017 66.1476 30.7148 67.7945 31.2031C68.964 31.5491 68.6686 30.911 68.4585 30.0951C67.7234 27.2087 67.7428 24.9453 67.6426 22.2249M59.6139 41.8206C57.4874 43.1819 52.3645 43.695 53.0867 39.3999C53.3712 37.7098 55.1431 34.8968 57.4464 31.8681C60.0009 33.6497 65.3964 38.127 59.6139 41.8206Z" fill="white"/>
<path id="Vector_4" d="M65.9805 17.9972C67.2599 17.7914 67.3612 17.676 67.7104 16.4775C67.9368 15.7101 68.0197 14.8543 66.5647 14.9923C65.5828 15.1626 65.3575 15.8006 65.308 16.0378C65.308 16.0378 64.8175 18.1859 65.9794 17.9983" fill="white"/>
<path id="Vector_5" d="M106.839 17.5944C106.159 17.3605 104.949 17.7324 103.484 21.4358C103.157 22.2021 101.696 25.6328 101.286 25.9303C100.241 26.6804 100.808 20.7384 100.082 20.0335C98.1739 18.1948 95.2616 30.7966 94.1148 26.315C93.8119 24.7587 93.466 24.4051 92.9982 24.3383C92.0928 24.2057 90.1948 26.052 88.8939 26.8733C85.737 28.8673 86.2985 22.3982 89.4727 21.0036C90.3683 20.6091 91.2769 20.9615 91.9355 22.0577C92.1769 22.4651 92.3881 22.5341 92.8721 22.1493C93.4078 21.7225 93.4261 21.3258 93.3194 21.0348C92.8872 19.818 91.9107 18.9449 90.1409 18.9212C88.8777 18.8997 87.0131 19.7069 85.8609 21.8378C85.8641 21.8259 85.8706 21.8076 85.8706 21.8076C85.3867 22.7367 82.9195 27.1449 81.7005 27.2398C80.4643 27.3357 80.6788 24.4989 80.6109 20.6382C80.5818 18.9945 79.339 18.5063 78.6891 19.7695C78.2893 20.5433 78.2548 20.9367 77.6577 22.3131C76.8213 24.237 74.8165 27.7183 73.3302 27.7895C72.1285 27.8477 71.7351 24.1422 71.734 22.6095C73.5081 21.2698 79.5007 14.2025 78.3162 7.08465C77.7439 3.63888 74.892 2.9868 72.2222 8.47935C69.0869 14.9355 68.5286 30.0001 72.7558 30.248C74.2895 30.3374 75.7348 29.1217 78.2052 25.0314C78.6169 24.3437 78.5167 24.3566 78.7764 26.1749C79.2852 29.722 81.0625 30.9798 84.8316 26.4724C84.8316 26.4724 84.8359 26.4562 84.8424 26.4379C84.9404 28.3176 85.8986 28.8296 86.0517 28.9083C88.4326 30.137 91.2791 26.7515 92.1349 26.5392C92.3935 26.4756 92.3763 26.8259 92.4323 27.1061C92.6468 28.1624 92.9529 29.584 94.5513 29.2833C96.1292 28.9837 97.2318 26.8744 98.2924 24.6498C98.7149 23.7628 98.9208 23.9395 98.9499 24.777C99.0566 28.0428 99.4101 29.2984 100.366 29.2553C101.152 29.2219 101.977 28.3543 104.158 23.3424C105.77 19.8568 106.102 20.2976 106.38 23.5127C106.613 26.232 106.787 28.0686 107.292 28.656C108.065 29.5571 109.426 29.5205 109.503 29.0893C109.581 28.6604 108.824 27.6515 108.412 23.9029C107.846 18.7488 107.852 17.9404 106.841 17.5977M76.6768 7.94044C77.4119 13.8124 72.4313 19.791 71.6456 20.5175C71.6769 12.3045 76.194 4.05923 76.6768 7.94044Z" fill="white"/>
<path id="Vector_6" d="M25.4385 16.0203C23.5275 13.0908 29.9007 10.2109 29.656 5.56765C29.4954 2.51096 27.0498 1.94511 24.1656 3.06711C15.8492 6.2984 9.89534 19.7883 10.3663 31.5742C10.3728 31.7467 10.3588 32.3233 10.9591 32.1983C11.4851 32.0873 12.7224 31.7607 12.7041 30.7616C12.5996 24.9834 14.7218 8.92073 24.8371 4.79809C26.5637 4.09104 28.0382 4.44025 27.7008 6.41589C27.2773 8.89163 23.1083 11.847 22.7914 14.8563C22.6319 16.3727 23.3422 17.4322 24.4189 18.496C26.9151 20.9632 27.5284 22.9797 26.7685 25.5794C25.8276 28.7978 22.5295 31.2487 20.5614 32.1854C11.566 36.461 1.97663 33.7999 1.09282 33.7913C0.443978 33.7848 0.496791 35.5665 1.52718 36.1248C4.0719 37.5011 26.165 38.3849 29.3111 25.2895C30.5333 20.1882 27.1134 18.5984 25.4385 16.0214" fill="white"/>
<path id="Vector_7" d="M163.173 10.4199C168.868 3.49382 164.649 -0.23111 161.277 3.26101C158.912 5.71196 157.31 9.60179 156.321 13.5746C155.323 13.9141 154.208 14.1782 152.962 14.3366C153.398 11.2756 154.138 7.87406 155.328 4.20302C155.556 3.50028 155.952 2.48175 154.84 3.05838C153.943 3.52723 153.311 4.10171 153.241 4.23967C152.684 5.31101 151.506 9.05319 150.842 14.4972C149.299 14.5414 147.588 14.438 145.693 14.1513C145.377 14.1027 145.177 14.009 144.778 14.2116C144.379 14.4121 143.737 14.8195 145.058 15.1881C145.685 15.3638 147.885 15.9102 150.688 15.9113C150.665 16.1355 150.644 16.3597 150.624 16.5893C149.7 20.5319 147.039 26.2303 145.915 25.9555C145.297 25.8067 145.503 24.73 145.388 23.3623C145.229 21.4804 144.006 21.7154 143.11 22.6401C141.822 23.9723 139.838 27.0354 138.831 26.1667C137.475 24.9984 139.271 20.3875 141.262 19.8065C142.286 19.5134 142.958 20.6904 143.197 21.1279C143.441 21.5731 144.387 20.3832 144.098 19.6804C142.757 16.4244 139.571 17.5593 137.673 20.4187C136.367 22.14 133.636 25.1816 132.68 25.8509C131.08 26.9772 129.937 26.725 129.493 25.7561C129.294 25.3206 129.176 24.8723 129.125 24.4142C135.837 22.4784 136.497 16.2314 133.099 15.8704C128.521 15.38 125.411 24.6686 128.43 27.9947C130.988 30.8121 135.041 25.7863 136.26 24.1307C136.22 24.412 136.191 24.6977 136.178 24.9844C136.098 27.1465 137.299 29.3355 139.841 27.9408C141.951 26.7832 143.178 24.3409 143.541 24.5123C143.894 24.6761 143.188 27.9171 144.919 28.1327C146.193 28.2911 148.341 27.2241 150.37 21.6873C150.349 23.6781 150.41 25.7884 150.591 27.9947C150.739 29.7548 151.031 30.3023 151.476 30.5933C151.925 30.8876 153.384 31.2066 153.249 30.5168C153.154 30.0404 151.755 24.4767 152.77 15.8068C153.799 15.7011 154.87 15.5039 155.953 15.1849C154.604 21.6733 154.857 27.8891 156.105 27.8675C156.926 27.8535 157.311 26.628 157.669 25.6558C159.053 21.9094 161.399 16.9202 162.791 17.5421C164.036 18.1004 160.43 26.7283 163.543 28.4194C163.543 28.4194 165.196 29.2407 164.686 27.6455C164.134 25.9178 164.448 23.276 164.98 19.6761C165.759 14.439 162.854 14.1857 160.539 16.8911C158.972 18.7233 157.717 21.7843 157.142 23.3439C157.256 21.9169 157.411 18.359 158.335 14.2569C160.052 13.4173 161.714 12.1918 163.17 10.4199M133.26 18.8268C133.301 21.1635 130.592 22.5345 129.15 23.0055C129.661 19.4854 133.218 16.3457 133.26 18.8268ZM159.964 8.91415C161.351 5.44143 163.871 2.67252 164.094 4.54684C164.243 5.78741 163.135 9.92729 158.782 12.4602C159.104 11.2907 159.492 10.1008 159.964 8.91415Z" fill="white"/>
<path id="Vector_8" d="M122.983 23.4131C126.651 18.0833 130.151 10.9675 130.329 4.2312C130.539 -3.74355 119.496 1.99473 120.353 19.9813C120.409 21.1842 120.574 22.4258 120.817 23.6674C117.555 27.706 113.979 30.3359 113.487 30.8435C113.111 31.2348 114.115 32.0636 114.918 31.8976C115.957 31.6821 118.536 29.312 121.292 25.7379C122.588 30.7002 124.95 35.3973 126.784 37.5702C127.677 38.6254 129.362 37.9097 129.001 37.319C128.523 36.5355 124.569 30.9351 122.984 23.4131M124.89 6.28983C127.113 1.81689 131.345 3.01327 124.591 17.7114C124.018 18.9563 123.34 20.1322 122.607 21.2359C121.968 16.6228 122.333 11.4472 124.888 6.28983" fill="white"/>
<path id="Vector_9" d="M182.264 28.7782C181.396 26.8964 181.036 23.6899 181.191 20.3713C181.241 19.3182 181.247 18.6565 180.679 18.1822C180.65 18.1574 180.617 18.1305 180.585 18.1057C180.128 17.7748 179.055 17.431 178.024 16.9169C178.102 16.2831 178.14 15.6677 178.125 15.0846C178.099 14.5963 177.781 10.9749 175.229 11.3834C173.148 11.7153 172.833 15.519 176.266 17.7392C176.272 17.7436 176.278 17.749 176.283 17.7511C175.715 20.3389 174.424 23.6263 172.414 25.1859C171.132 26.3003 169.851 26.2195 169.296 25.2258C169.06 24.7968 168.913 24.3624 168.834 23.9302C174.152 22.2822 174.497 17.5862 172.271 16.9815C168.441 15.9328 164.434 24.1857 168.404 27.5193C170.365 29.1609 174.689 26.96 176.587 22.2251C177.074 21.0126 177.476 19.7375 177.751 18.497C177.939 18.5702 178.133 18.6403 178.336 18.706C179.068 18.9442 179.37 19.0682 179.318 19.7364C179.043 23.3816 179.001 28.0884 181.497 29.7008C181.749 29.8647 183.125 30.6396 182.264 28.7782ZM172.083 18.65C172.707 19.9692 170.712 21.9934 168.803 22.6034C169.134 19.9326 171.66 17.749 172.083 18.65ZM175.758 14.8744C175.357 13.8419 176.402 13.4312 176.585 14.6718C176.633 14.9919 176.626 15.4446 176.573 15.9813C176.216 15.6634 175.924 15.3012 175.758 14.8744Z" fill="white"/>
</g>
<defs>
<clipPath id="clip0_1136_138">
<rect width="181.878" height="44.2842" fill="white" transform="translate(0.667114 0.71582)"/>
</clipPath>
</defs>
</svg>
