<svg width="55" height="23" viewBox="0 0 55 23" fill="none" xmlns="http://www.w3.org/2000/svg">
<path d="M52.0682 22.6898H2.83992C2.83992 22.6898 2.8034 22.6678 2.7815 22.6678C2.30688 22.6019 1.88339 22.426 1.511 22.1254C0.963371 21.693 0.634759 21.1359 0.517931 20.4469C0.503327 20.3662 0.488763 20.2856 0.466858 20.205C0.466858 14.4363 0.466858 8.66035 0.466858 2.89169C0.466858 2.8697 0.481438 2.84038 0.48874 2.81839C0.517947 2.65713 0.53254 2.49588 0.569048 2.33462C0.678574 1.83618 0.919548 1.41105 1.27003 1.05921C1.72274 0.597426 2.27038 0.326215 2.92023 0.282236C3.17579 0.267576 3.43135 0.267578 3.69421 0.267578C4.4609 0.267578 5.22029 0.267578 5.98697 0.267578C8.76893 0.267578 11.5436 0.267578 14.3255 0.267578C20.0136 0.267578 25.6943 0.267578 31.3824 0.267578C37.1727 0.267578 42.9702 0.267578 48.7605 0.267578C49.7609 0.267578 50.7685 0.267578 51.7688 0.267578C52.5428 0.267578 53.2 0.538785 53.7257 1.10319C54.2223 1.63094 54.4632 2.27598 54.4632 2.99431C54.4632 8.63836 54.4632 14.2751 54.4632 19.9191C54.4632 20.0584 54.4632 20.1977 54.434 20.3296C54.2588 21.4511 53.6235 22.1987 52.5574 22.5652C52.3968 22.6165 52.2289 22.6385 52.0682 22.6825V22.6898ZM27.3884 0.670721C23.8032 0.670721 20.2253 0.670721 16.6402 0.670721C14.143 0.670721 11.6531 0.670721 9.1559 0.670721C7.16983 0.670721 5.17647 0.670721 3.19039 0.670721C2.93483 0.670721 2.67929 0.692713 2.43103 0.788002C1.91991 0.978581 1.5183 1.30843 1.23353 1.77754C0.999876 2.17336 0.897636 2.60582 0.897636 3.06028C0.897636 6.24147 0.904952 9.42999 0.912253 12.6112C0.912253 14.9861 0.912253 17.361 0.912253 19.7285C0.912253 19.9338 0.912237 20.1463 0.941444 20.3516C1.02907 20.872 1.25543 21.3118 1.63512 21.671C2.06592 22.0814 2.58433 22.2794 3.17577 22.272C3.73801 22.272 4.30025 22.272 4.86978 22.272C18.2466 22.272 31.6307 22.272 45.0075 22.272C47.2783 22.272 49.5418 22.272 51.8126 22.272C52.4479 22.272 52.9737 22.0301 53.4045 21.5684C53.8499 21.0919 54.0397 20.5128 54.0397 19.8678C54.0397 14.3337 54.047 8.79962 54.047 3.25819C54.047 3.03096 54.047 2.81106 54.0032 2.58383C53.9594 2.34928 53.901 2.12205 53.7914 1.91681C53.3533 1.11052 52.6889 0.656063 51.7543 0.656063C43.6274 0.656063 35.5006 0.656063 27.3664 0.656063L27.3884 0.670721Z" fill="white"/>
<path d="M46.0151 15.008C45.6281 15.074 45.263 15.1326 44.8979 15.1986C44.8614 15.074 44.8322 14.9714 44.7957 14.8614C44.657 14.429 44.4379 14.0625 44.029 13.8279C43.7151 13.6447 43.3792 13.6154 43.036 13.6667C42.3715 13.762 41.9261 14.1504 41.6414 14.7442C41.5099 15.0154 41.4442 15.3086 41.3931 15.6091C41.3347 15.9903 41.3128 16.3787 41.3201 16.7672C41.3274 17.1997 41.3712 17.6322 41.4807 18.05C41.5903 18.4531 41.7728 18.8196 42.0868 19.1128C42.3862 19.384 42.722 19.5379 43.1309 19.5453C43.3792 19.5453 43.6201 19.5453 43.8465 19.4426C44.3065 19.2521 44.5986 18.9076 44.7738 18.4531C44.8614 18.2259 44.9272 17.9913 44.9491 17.7421C44.9491 17.7128 44.9636 17.6835 44.9783 17.6395C45.3579 17.6981 45.7304 17.7421 46.1027 17.8081C46.0151 18.3871 45.8618 18.9222 45.5405 19.3987C45.1535 19.9777 44.6278 20.3735 43.9487 20.5421C43.737 20.5934 43.5179 20.6081 43.3062 20.6154C42.8973 20.6228 42.4957 20.5715 42.1087 20.4175C41.4588 20.1536 40.9842 19.6992 40.6556 19.0908C40.4293 18.6803 40.3051 18.2405 40.2248 17.7861C40.1226 17.207 40.1226 16.628 40.1591 16.0416C40.181 15.741 40.2468 15.4332 40.3052 15.1326C40.3636 14.8028 40.4804 14.4803 40.6337 14.1798C40.882 13.6886 41.2325 13.2855 41.7144 13.0143C41.7436 12.9996 41.7655 12.9777 41.7947 12.9703C41.8604 12.9483 41.8677 12.9043 41.8677 12.8457C41.8677 12.8091 41.8677 12.7651 41.8677 12.7284C41.8677 11.2038 41.875 9.67918 41.8677 8.16188C41.8677 7.8467 41.8458 7.53151 41.7947 7.21632C41.6998 6.64459 41.2836 6.28542 40.7141 6.24877C39.962 6.19746 39.3194 6.66658 39.1004 7.36292C39.0054 7.64879 38.947 7.94199 38.947 8.24251C38.947 9.10011 38.947 9.95772 38.947 10.8227C38.947 11.475 38.947 12.1347 38.947 12.7871C38.947 12.8457 38.947 12.9117 38.947 12.9703C38.8448 13.007 37.954 13.0143 37.7861 12.985C37.7861 12.941 37.7861 12.897 37.7861 12.8457C37.7861 11.2478 37.7861 9.64986 37.7861 8.05193C37.7861 7.78073 37.786 7.51685 37.7203 7.25297C37.6765 7.0624 37.6181 6.87915 37.5086 6.71056C37.3114 6.41003 37.0194 6.28542 36.6762 6.26343C35.9606 6.21945 35.3034 6.65925 35.0698 7.3336C34.9749 7.60481 34.9311 7.88335 34.8946 8.16188C34.8288 8.71163 34.8581 9.26137 34.8581 9.81845C34.8581 10.7494 34.8581 11.6802 34.8581 12.6112C34.8581 12.6625 34.8581 12.7138 34.8581 12.7797C34.9311 12.7578 34.9822 12.7504 35.0406 12.7358C35.5152 12.5965 36.0044 12.5745 36.4863 12.6625C37.3114 12.8017 37.9321 13.2635 38.3921 13.9525C38.6696 14.3703 38.8375 14.8394 38.9324 15.3306C39.0347 15.8436 39.0638 16.3714 39.0419 16.8992C39.0419 16.9138 39.042 16.9211 39.0274 16.9578C37.3334 16.9578 35.6393 16.9578 33.938 16.9578C33.9307 16.9871 33.9161 17.0091 33.9234 17.0238C33.9526 17.4342 34.011 17.8374 34.1644 18.2185C34.3396 18.6583 34.6025 19.0248 35.0041 19.2887C35.2597 19.4573 35.5444 19.5526 35.8511 19.5673C36.1139 19.5746 36.3768 19.5673 36.6251 19.472C37.0121 19.318 37.3041 19.0542 37.5086 18.695C37.6108 18.5117 37.6838 18.3065 37.7787 18.1159C37.7934 18.0793 37.8153 18.0353 37.8299 17.9986C38.2242 18.05 38.6038 18.1086 38.9908 18.1599C38.9908 18.2039 38.9981 18.2405 38.9908 18.2772C38.874 18.6583 38.7353 19.0322 38.5089 19.3693C38.1365 19.9338 37.6327 20.3222 36.9756 20.5128C36.4937 20.6521 35.9971 20.6741 35.5152 20.6154C34.4784 20.4908 33.7117 19.9557 33.2152 19.0248C33.0253 18.6803 32.9012 18.3065 32.8281 17.9253C32.7259 17.3756 32.6895 16.8259 32.7333 16.2688C32.7625 15.8876 32.8063 15.5138 32.9012 15.1473C33.1202 14.2824 33.5583 13.5714 34.3104 13.0656C34.325 13.0583 34.3396 13.0436 34.3615 13.029C34.252 12.9776 34.1425 13.007 34.0403 13.007C33.9307 13.007 33.8285 13.007 33.7336 13.007C33.719 12.9923 33.719 12.9923 33.7117 12.985C33.7117 12.985 33.7044 12.985 33.7044 12.9776C33.7044 12.9337 33.7044 12.8897 33.7044 12.8457C33.7044 10.3462 33.7044 7.8467 33.7044 5.33253C34.0475 5.33253 34.3761 5.33253 34.7193 5.33253C34.7193 5.36918 34.7339 5.40583 34.7339 5.44248C34.7339 5.72102 34.7339 5.99222 34.7339 6.27076C34.7339 6.30008 34.7485 6.3294 34.7631 6.38071C34.8069 6.32207 34.8362 6.28542 34.8654 6.24877C35.1209 5.86762 35.4422 5.57442 35.8584 5.38384C36.0044 5.31787 36.1578 5.27389 36.3111 5.22991C36.5959 5.14195 36.8952 5.14928 37.18 5.18593C37.9175 5.28122 38.4505 5.66971 38.728 6.38071C38.7426 6.41736 38.7572 6.44668 38.7864 6.50532C38.8448 6.42469 38.8813 6.36605 38.9178 6.31474C39.1223 6.02155 39.3559 5.75767 39.6553 5.55243C39.889 5.39117 40.1518 5.28856 40.4293 5.22259C40.6994 5.15662 40.9696 5.16395 41.2325 5.19327C41.7655 5.2519 42.2328 5.46447 42.5541 5.91893C42.7585 6.20479 42.8681 6.51998 42.9338 6.86449C43.0068 7.25297 43.0141 7.64879 43.0141 8.04461C43.0141 9.52525 43.0141 10.9986 43.0141 12.4792C43.0141 12.5305 43.0141 12.5745 43.0141 12.6405C43.0798 12.6405 43.1236 12.6405 43.1747 12.6405C43.4741 12.6258 43.7735 12.6478 44.0582 12.7284C44.489 12.8384 44.8687 13.0363 45.1827 13.3515C45.5624 13.7253 45.7887 14.1871 45.9348 14.7002C45.9494 14.7588 45.9567 14.8248 45.9713 14.8834C45.9859 14.9421 46.0005 14.9934 46.0151 15.0667V15.008ZM37.8299 15.8656C37.8299 15.785 37.8372 15.719 37.8299 15.6531C37.7861 15.4185 37.7422 15.1766 37.6692 14.9567C37.3771 14.0478 36.5009 13.4394 35.4495 13.7253C34.8727 13.8866 34.493 14.2824 34.2374 14.8101C34.1133 15.0667 34.0549 15.3379 34.0111 15.6164C33.9965 15.6971 33.9965 15.785 34.0111 15.873H37.8226L37.8299 15.8656Z" fill="white"/>
<path d="M27.7315 6.45416C27.7681 6.40285 27.79 6.38086 27.8046 6.35154C28.0529 5.97771 28.3376 5.6552 28.7319 5.42797C29.0459 5.24472 29.3744 5.13477 29.7395 5.13477C29.8344 5.13477 29.9367 5.13477 30.0316 5.13477C30.404 5.14943 30.7472 5.24472 31.0611 5.44996C31.4335 5.69185 31.6599 6.03635 31.7913 6.45416C31.8935 6.784 31.952 7.12118 31.952 7.46569C31.952 8.63848 31.9592 9.81127 31.9665 10.9767C31.9665 11.5924 31.9665 12.2082 31.9665 12.8239C31.9665 12.8752 31.9665 12.9192 31.9665 12.9778C31.857 12.9851 31.7621 12.9925 31.6526 12.9998C31.6526 13.0658 31.6526 13.1244 31.6526 13.183C31.6161 13.9087 31.3897 14.5684 30.9443 15.1475C30.6231 15.5653 30.1922 15.8071 29.703 15.9464C29.4548 16.0197 29.2065 16.071 28.9509 16.1003C28.6735 16.137 28.396 16.1517 28.1113 16.1517C27.3446 16.1517 26.5852 16.1517 25.8185 16.1517C25.7747 16.1517 25.7309 16.1517 25.6725 16.1517V20.425C25.5629 20.4543 24.5553 20.4617 24.4239 20.425V9.84059H26.7239C26.7239 9.78195 26.7385 9.7453 26.7312 9.70865C26.7312 9.00497 26.7312 8.3013 26.7166 7.59763C26.7166 7.2971 26.6363 7.01124 26.4902 6.74003C26.3369 6.46882 26.1032 6.31489 25.8039 6.26358C25.008 6.11698 24.2413 6.59343 24.0004 7.3704C23.9127 7.6636 23.8543 7.96412 23.8397 8.27198C23.774 9.35681 23.8251 10.4343 23.8105 11.5191C23.8105 11.9663 23.8105 12.4134 23.8105 12.8532C23.8105 12.8898 23.8105 12.9338 23.8105 12.9705H22.6714V5.30336H23.6791V6.32222C23.6791 6.32222 23.701 6.32222 23.7083 6.32955C23.7229 6.30756 23.7448 6.2929 23.7594 6.26358C24.0223 5.85311 24.3654 5.53059 24.8109 5.32535C25.0737 5.20074 25.3512 5.12744 25.6433 5.12744C25.7528 5.12744 25.855 5.12744 25.9645 5.12744C26.4172 5.1421 26.8261 5.28137 27.1693 5.58923C27.3957 5.79447 27.5636 6.03636 27.6659 6.32222C27.6805 6.35887 27.7023 6.39552 27.7242 6.45416H27.7315ZM26.7385 12.9705C26.7385 12.3328 26.7385 11.717 26.7385 11.1013H25.6725C25.6725 11.16 25.6725 11.204 25.6725 11.2553C25.6725 12.1275 25.6725 12.9998 25.6725 13.872C25.6725 14.1726 25.6725 14.4658 25.6725 14.7663C25.6725 14.8689 25.6871 14.8762 25.7893 14.8836C25.8185 14.8836 25.8404 14.8836 25.8696 14.8836C26.6363 14.8836 27.3957 14.8836 28.1624 14.8836C28.5056 14.8836 28.8414 14.8543 29.1773 14.759C29.6592 14.6197 30.0097 14.3412 30.2068 13.872C30.3237 13.6082 30.3675 13.337 30.3748 13.0584C30.3967 12.582 30.3018 12.1275 30.0243 11.7317C29.8272 11.4605 29.5789 11.2626 29.2503 11.182C29.1189 11.1526 28.9875 11.1307 28.856 11.1233C28.5567 11.1087 28.25 11.1013 27.9506 11.094C27.936 11.094 27.9287 11.1013 27.9068 11.116V12.9705H26.7385ZM30.8202 10.5736C30.8202 10.5296 30.8275 10.5003 30.8275 10.4636C30.8275 9.5987 30.8275 8.73377 30.8275 7.86883C30.8275 7.58297 30.8056 7.28977 30.718 7.01123C30.6012 6.64474 30.3529 6.41018 29.9951 6.2929C29.7176 6.20494 29.4475 6.21227 29.17 6.2929C28.7173 6.41751 28.3887 6.69605 28.1769 7.11385C27.9871 7.48035 27.9287 7.88349 27.9214 8.28664C27.9068 8.76308 27.9214 9.23953 27.9214 9.71598C27.9214 9.75263 27.9287 9.78928 27.936 9.84059C28.0017 9.84059 28.0455 9.84059 28.0966 9.84059C28.5639 9.84792 29.0385 9.85525 29.4986 9.95054C29.7906 10.0092 30.0681 10.0898 30.3237 10.2364C30.4989 10.3317 30.6522 10.4563 30.8348 10.5736H30.8202Z" fill="white"/>
<path d="M2.14627 2.38599C2.19738 2.38599 2.22657 2.37866 2.26308 2.37866C3.50437 2.37866 4.73839 2.37866 5.97968 2.37866C6.44699 2.37866 6.90699 2.46662 7.3378 2.64987C7.85622 2.8771 8.22862 3.25093 8.49148 3.74936C8.65212 4.04989 8.76894 4.35775 8.79814 4.69492C8.90767 5.76509 8.56451 6.64468 7.62988 7.24573C7.60068 7.26772 7.56415 7.28971 7.52034 7.31903C7.56415 7.34102 7.59337 7.35568 7.62988 7.37034C8.24323 7.6049 8.70324 8.00072 9.00261 8.58711C9.10484 8.78502 9.16324 8.99759 9.22166 9.21749C9.32388 9.63529 9.31656 10.0531 9.25085 10.4636C9.14862 11.0793 8.91498 11.6437 8.48417 12.1055C8.22861 12.384 7.90733 12.5673 7.56415 12.6992C7.30859 12.7945 7.05302 12.8605 6.78286 12.8971C6.38856 12.9557 5.98696 12.9777 5.59267 12.9777C4.49741 12.9777 3.40215 12.9777 2.30689 12.9777C2.25578 12.9777 2.21199 12.9777 2.15358 12.9777V2.37866L2.14627 2.38599ZM3.40215 11.7097C3.40215 11.7097 3.47518 11.717 3.51169 11.717C4.35869 11.717 5.20568 11.717 6.05268 11.717C6.21332 11.717 6.38125 11.7097 6.54189 11.6803C6.84126 11.6364 7.11877 11.5337 7.35972 11.3505C7.6664 11.1159 7.84161 10.7934 7.92923 10.4123C8.01686 10.0018 8.00955 9.59864 7.87812 9.20282C7.68097 8.61643 7.25749 8.27925 6.66605 8.16198C6.39588 8.10334 6.11111 8.08135 5.83364 8.08135C5.04505 8.06669 4.26378 8.08135 3.47519 8.08135C3.44599 8.08135 3.42405 8.08135 3.40215 8.08135C3.37294 8.17664 3.36564 11.5557 3.40215 11.7023V11.7097ZM3.38758 6.8206C3.43869 6.8206 3.47518 6.8206 3.51169 6.8206C3.73805 6.8206 3.96439 6.8206 4.19075 6.8206C4.71647 6.8206 5.23492 6.8206 5.76064 6.8206C6.11843 6.8206 6.4689 6.79128 6.79747 6.63735C7.08954 6.50541 7.32321 6.30018 7.44734 5.99965C7.66639 5.47189 7.65907 4.94414 7.42541 4.42371C7.25747 4.04256 6.95809 3.79334 6.5492 3.71271C6.28633 3.6614 6.01619 3.62475 5.74602 3.61742C4.99394 3.60276 4.24915 3.61009 3.49707 3.61009C3.46057 3.61009 3.42408 3.61009 3.38027 3.62475V6.8206H3.38758Z" fill="white"/>
<path d="M21.2038 9.46652H16.1145C16.1145 9.53249 16.1145 9.59114 16.1145 9.64245C16.1583 10.0969 16.2459 10.5514 16.4576 10.9618C16.6986 11.4309 17.0491 11.7974 17.5602 11.9734C18.3634 12.2446 19.2396 12.0173 19.7069 11.1744C19.8091 10.9838 19.8894 10.7786 19.9698 10.5807C19.9917 10.5294 20.0136 10.5 20.072 10.5074C20.4298 10.5587 20.7803 10.6027 21.1381 10.654C21.1527 10.654 21.16 10.6613 21.1819 10.6686C21.1819 10.7053 21.1819 10.7346 21.1673 10.7713C21.0212 11.321 20.7876 11.8194 20.4006 12.2446C20.0574 12.6184 19.6412 12.8749 19.152 13.0142C18.6482 13.1535 18.1371 13.1681 17.6259 13.1022C17.0929 13.0289 16.6183 12.8383 16.2021 12.5011C15.8443 12.2152 15.5741 11.8634 15.3697 11.4529C15.1579 11.0205 15.0265 10.566 14.9754 10.0896C14.917 9.62779 14.895 9.15867 14.9389 8.68955C14.9608 8.44766 14.9827 8.20578 15.0265 7.96389C15.1799 7.12095 15.523 6.37329 16.1875 5.80156C16.4576 5.567 16.7643 5.39109 17.1075 5.27381C17.4288 5.17119 17.7501 5.11255 18.086 5.11255C18.3926 5.11255 18.6847 5.13454 18.9767 5.2225C19.5244 5.37643 19.9698 5.68428 20.3422 6.10942C20.7219 6.54189 20.9482 7.05498 21.087 7.61205C21.2403 8.19845 21.2622 8.7995 21.2403 9.40056C21.2403 9.41522 21.2403 9.42255 21.2257 9.4592L21.2038 9.46652ZM16.1875 8.38903H19.999C19.999 8.34505 19.999 8.3084 19.999 8.27175C19.9771 7.97855 19.9186 7.69268 19.8237 7.41415C19.685 7.02566 19.444 6.71047 19.1082 6.47592C18.6993 6.19738 18.2466 6.12408 17.7647 6.21936C17.4142 6.28533 17.1221 6.4466 16.8738 6.68848C16.4138 7.13561 16.2313 7.69268 16.1802 8.31572C16.1802 8.33771 16.1875 8.35971 16.1948 8.3817L16.1875 8.38903Z" fill="white"/>
<path d="M52.8203 20.4397C52.7473 20.4397 52.7108 20.4397 52.667 20.4397C52.28 20.4397 51.893 20.4397 51.506 20.4397C51.4184 20.4397 51.3672 20.4177 51.3234 20.3444C50.8707 19.5527 50.4107 18.7611 49.9507 17.9695C49.6878 17.5224 49.4323 17.0679 49.1694 16.6208C49.1548 16.5914 49.1329 16.5621 49.0964 16.5255C49.0526 16.5695 49.0161 16.5988 48.9869 16.6354C48.7751 16.8627 48.5634 17.0899 48.3516 17.3171C48.2932 17.3831 48.2713 17.4491 48.2713 17.537C48.2713 18.4533 48.2713 19.3695 48.2713 20.2857C48.2713 20.337 48.2713 20.381 48.2713 20.4397H47.1249V9.87724C47.2199 9.84059 47.9938 9.83325 48.2567 9.86257C48.2567 9.91388 48.264 9.97252 48.264 10.0238C48.264 11.3212 48.264 12.6186 48.264 13.9087C48.264 14.5171 48.264 15.1181 48.264 15.7265C48.264 15.7705 48.264 15.8145 48.2713 15.8878C48.3224 15.8365 48.3517 15.8071 48.3809 15.7778C48.9212 15.1621 49.4615 14.5537 50.0091 13.938C50.3158 13.5862 50.6298 13.2417 50.9365 12.8898C51.0095 12.8092 51.0825 12.7799 51.192 12.7799C51.579 12.7799 51.966 12.7799 52.353 12.7799C52.3968 12.7799 52.4406 12.7799 52.5063 12.7799C52.4771 12.8239 52.4625 12.8459 52.4479 12.8678C51.8346 13.5349 51.2139 14.2092 50.6006 14.8762C50.3961 15.0961 50.199 15.316 49.9945 15.5359C49.9215 15.6166 49.9215 15.6166 49.9799 15.7192C50.3523 16.3422 50.732 16.9653 51.1044 17.5957C51.5863 18.4019 52.0609 19.2009 52.5428 20.0072C52.6231 20.1465 52.7108 20.2857 52.813 20.4543L52.8203 20.4397Z" fill="white"/>
<path d="M10.8719 5.30312H11.8941C11.9087 5.66961 11.8941 6.02878 11.9014 6.43193C11.9379 6.38062 11.9598 6.35863 11.9744 6.33664C12.1058 6.12407 12.2227 5.90417 12.3614 5.69893C12.5439 5.43506 12.7849 5.24448 13.0989 5.16385C13.2887 5.11254 13.4932 5.11987 13.683 5.14919C13.9824 5.2005 14.2599 5.32511 14.5154 5.4937C14.5373 5.50836 14.5592 5.53035 14.5884 5.55234C14.457 5.94082 14.3329 6.32931 14.1941 6.73979C14.1284 6.70314 14.0773 6.67382 14.0262 6.65183C13.8144 6.54188 13.5954 6.47591 13.3544 6.47591C12.9747 6.47591 12.69 6.64449 12.4709 6.93036C12.3103 7.1356 12.2373 7.37749 12.1789 7.62671C12.0547 8.16179 12.0255 8.69688 12.0255 9.23929C12.0255 10.4341 12.0255 11.6362 12.0328 12.831C12.0328 12.8749 12.0328 12.9262 12.0328 12.9702C11.8941 13.0069 10.9813 12.9995 10.8791 12.9702V5.31045L10.8719 5.30312Z" fill="white"/>
</svg>
