<svg width="32" height="37" viewBox="0 0 32 37" fill="none" xmlns="http://www.w3.org/2000/svg">
<path fill-rule="evenodd" clip-rule="evenodd" d="M5.14615 36.8983H4.06593L3.81648 35.2523C3.8 35.1358 3.78352 35.0064 3.76923 34.8642C3.75494 34.722 3.74176 34.567 3.72967 34.3992C3.7033 34.5601 3.64945 34.7615 3.57033 35.0025C3.55385 35.0528 3.54066 35.0903 3.53297 35.114L2.95714 36.8983H2.18791L1.61209 35.114C1.6044 35.0903 1.59231 35.0528 1.57692 35.0025C1.4956 34.7615 1.44286 34.5611 1.41758 34.4021C1.40549 34.5463 1.39231 34.6885 1.37692 34.8297C1.36154 34.9719 1.34176 35.1121 1.32198 35.2533L1.07253 36.8993H0L0.517582 33.9213H0.0670329L0.653846 33.0918H1.7967L2.43736 35.0558C2.44176 35.0696 2.44945 35.0923 2.46044 35.1229C2.52088 35.2977 2.55824 35.4478 2.57363 35.5732C2.58022 35.506 2.5956 35.43 2.61648 35.3481C2.63846 35.2661 2.66703 35.1674 2.7033 35.0509L3.34945 33.0928H4.4956L5.14725 36.9003L5.14615 36.8983ZM5.7978 36.8983V33.9203H5.36593L5.7978 33.0908H6.96483V36.8983H5.7978ZM10.967 33.238V34.3725C10.8088 34.2145 10.6505 34.099 10.4934 34.0249C10.3363 33.9509 10.167 33.9143 9.98901 33.9143C9.65714 33.9143 9.38791 34.016 9.18242 34.2195C8.97692 34.4238 8.87363 34.6885 8.87363 35.0163C8.87363 35.3214 8.97802 35.5752 9.18791 35.7766C9.3978 35.978 9.66374 36.0787 9.98791 36.0787C10.167 36.0787 10.3352 36.0412 10.4923 35.9682C10.6495 35.8941 10.8077 35.7786 10.9659 35.6186V36.7561C10.7824 36.8351 10.6 36.8953 10.4187 36.9358C10.2374 36.9753 10.0538 36.9951 9.86923 36.9951C9.63736 36.9951 9.42418 36.9704 9.22857 36.92C9.03297 36.8716 8.85165 36.7956 8.68791 36.6959C8.37143 36.5053 8.13077 36.2654 7.96484 35.9761C7.7989 35.6858 7.71538 35.3599 7.71538 34.9975C7.71538 34.7062 7.76813 34.4416 7.87363 34.2027C7.97802 33.9637 8.13736 33.7485 8.34945 33.5539C8.54945 33.3683 8.77582 33.2301 9.02857 33.1373C9.27912 33.0454 9.56044 33 9.86923 33C10.0538 33 10.2374 33.0197 10.4187 33.0592C10.6 33.0987 10.7824 33.16 10.9659 33.239L10.967 33.238ZM11.6187 36.8983V33.9203H11.1813L11.6187 33.0908H12.7736V34.571H14.3132V33.0908H15.4714V36.8983H14.3132V35.3481H12.7736V36.8983H11.6187ZM16.3725 36.8983V33.9203H15.9451L16.3725 33.0908H18.9692V33.9252H17.4989V34.5858H18.8846V35.4024H17.4989V36.0452H18.9692V36.8983H16.3725ZM19.733 36.8983V33.9203H19.2802L19.733 33.0908H20.8879V36.0096H22.3231V36.8993H19.7319L19.733 36.8983ZM27.1341 35.0015C27.1341 35.276 27.078 35.5327 26.9659 35.7717C26.8549 36.0116 26.6912 36.2259 26.4769 36.4145C26.2604 36.6021 26.0132 36.7452 25.7363 36.8479C25.4582 36.9487 25.1703 37 24.8703 37C24.5703 37 24.2769 36.9496 24.0011 36.8479C23.7231 36.7462 23.4802 36.6021 23.2703 36.4145C23.0516 36.2259 22.8868 36.0106 22.7736 35.7687C22.6604 35.5278 22.6044 35.272 22.6044 35.0015C22.6044 34.7309 22.6604 34.4732 22.7736 34.2323C22.8868 33.9923 23.0527 33.7781 23.2703 33.5885C23.4813 33.4009 23.7242 33.2577 24.0011 33.155C24.278 33.0543 24.567 33.003 24.8703 33.003C25.1736 33.003 25.4615 33.0533 25.7396 33.155C26.0187 33.2567 26.2637 33.4009 26.4769 33.5885C26.689 33.7761 26.8516 33.9894 26.9648 34.2313C27.078 34.4722 27.1341 34.728 27.1341 35.0015ZM24.8703 36.1202C25.1901 36.1202 25.4549 36.0146 25.6648 35.8033C25.8747 35.591 25.9791 35.3234 25.9791 35.0015C25.9791 34.6796 25.8736 34.4159 25.6615 34.2027C25.4494 33.9894 25.1846 33.8827 24.8714 33.8827C24.5582 33.8827 24.2868 33.9894 24.0769 34.2017C23.867 34.414 23.7626 34.6806 23.7626 35.0015C23.7626 35.3224 23.8648 35.5959 24.0714 35.8052C24.278 36.0156 24.5451 36.1202 24.8703 36.1202ZM27.8582 36.8983V33.9203H27.4121L27.8582 33.0908H28.9725L30.5725 35.0489C30.6033 35.0884 30.6538 35.1684 30.7253 35.2898C30.7956 35.4103 30.8725 35.5534 30.9571 35.7203C30.9341 35.5623 30.9176 35.4221 30.9066 35.2987C30.8956 35.1763 30.8912 35.0667 30.8912 34.9709V33.0908H32V36.8983H30.8912L29.2912 34.9314C29.2582 34.8919 29.2077 34.8119 29.1363 34.6904C29.0659 34.57 28.9901 34.4288 28.9066 34.2649C28.9297 34.4248 28.9462 34.566 28.9571 34.6895C28.9681 34.8119 28.9725 34.9215 28.9725 35.0173V36.8973H27.8582V36.8983Z" fill="white"/>
<path d="M29 3H3V6H29V3Z" fill="white"/>
<path d="M29 26H3V29H29V26Z" fill="white"/>
<path fill-rule="evenodd" clip-rule="evenodd" d="M7.0764 8H11.5253L16.0787 15.3494L20.5265 8H24.8708L30 15.95L24.8708 24H20.2656L25.4983 15.9995L23.248 12.4999L16.0787 24L8.8566 12.4999L6.44887 15.9995L11.5253 23.9001H7.02465L2 15.9995L7.0764 8Z" fill="white"/>
<path fill-rule="evenodd" clip-rule="evenodd" d="M0 0H32V32H0V0ZM0.981449 0.981449V31.0186H31.0186V0.981449H0.981449Z" fill="white"/>
</svg>
