<svg width="88" height="38" viewBox="0 0 88 38" fill="none" xmlns="http://www.w3.org/2000/svg">
<g clip-path="url(#clip0_1282_102)">
<path d="M51.2077 11.6301C51.2077 11.6301 51.216 11.6263 51.2197 11.6253C51.4018 10.8881 51.4979 10.1174 51.4979 9.32089C51.4979 8.77271 51.4517 8.23695 51.3639 7.71456C49.7889 8.04977 48.1473 8.34964 46.4845 8.60463C42.8539 9.16236 39.3314 9.47847 36.2988 9.52145H36.2979C36.2461 9.52145 36.2027 9.47847 36.2018 9.42499C36.1999 9.37055 36.2406 9.32471 36.2933 9.32185C38.5393 9.19197 40.9073 8.93698 43.3318 8.56452C46.1203 8.13667 48.7675 7.5885 51.2003 6.93622C50.922 5.84846 50.4599 4.83901 49.848 3.94512C49.8406 3.94798 49.8332 3.95085 49.8258 3.9518C46.2886 4.58689 42.8539 4.98799 39.8934 5.11215C39.8925 5.11215 39.8906 5.11215 39.8897 5.11215C39.8389 5.11215 39.7963 5.07108 39.7936 5.01856C39.7899 4.96412 39.8296 4.91732 39.8823 4.91255C42.1237 4.71964 44.4843 4.39875 46.8986 3.95849C47.7619 3.80091 48.6307 3.62805 49.482 3.44469C48.7657 2.53456 47.8867 1.76673 46.8912 1.18895C46.8764 1.20518 46.8561 1.21664 46.833 1.21951C45.0953 1.42961 43.4436 1.57095 41.9231 1.64067H41.9185C41.8677 1.64067 41.8252 1.60056 41.8224 1.54708C41.8187 1.49264 41.8575 1.44585 41.9102 1.44107C43.3355 1.31119 44.8273 1.12783 46.3459 0.896715C45.1739 0.320842 43.8623 -0.00195312 42.4777 -0.00195312C37.4958 -0.00195312 33.4566 4.17146 33.4566 9.31898C33.4566 11.1927 33.9918 12.9366 34.9124 14.3968C35.6731 14.3586 36.4486 14.308 37.2194 14.2469C42.669 13.8142 47.7674 12.8592 51.2095 11.6273M58.6852 9.14612C58.6417 8.52919 57.9282 7.67349 54.8189 7.06324L55.3171 6.6564C55.3494 6.63062 55.3614 6.58573 55.3485 6.54562C55.3346 6.50551 55.2986 6.47877 55.2579 6.47877L52.022 6.48259C51.9794 6.48259 51.9415 6.5122 51.9295 6.55517C51.9175 6.59815 51.9351 6.64303 51.9711 6.66691L53.7809 7.8263C53.8151 7.84826 53.8594 7.8454 53.8909 7.81961L54.2476 7.52833C54.8762 7.88933 55.2098 8.2847 55.2394 8.70395C55.306 9.63605 53.8567 10.6751 51.2215 11.6215C51.0995 12.1153 50.9331 12.6014 50.7381 13.0607C47.7175 13.7311 44.1756 14.2411 40.4822 14.5343C38.6844 14.6776 36.9024 14.7635 35.1795 14.7931C35.0889 14.6652 34.9965 14.5295 34.9124 14.3958C33.2246 14.4799 31.5831 14.5123 29.9998 14.4818C29.9489 14.4818 29.9046 14.5229 29.9018 14.5773C29.8999 14.6308 29.9397 14.6766 29.9915 14.6804C31.2513 14.7635 32.5961 14.8046 34.001 14.8046C34.3883 14.8046 34.7811 14.8008 35.1767 14.7941C36.8164 17.1243 39.4756 18.639 42.4768 18.639C46.1703 18.639 49.3443 16.345 50.74 13.0617C51.6985 12.8487 52.6043 12.6195 53.437 12.376C55.4409 11.7906 58.7868 10.592 58.6842 9.14517" fill="white"/>
<path d="M0 37.871H0.354004V35.1445H0V37.871ZM3.42265 35.1445L3.43005 37.1166L1.49643 35.0614H1.47794V37.8701H1.83564L1.82825 35.9285L3.76649 37.9608H3.77758V35.1445H3.42358H3.42265ZM4.70742 35.1445V35.4959H5.39787V37.871H5.75187V35.4959H6.45988V35.1445H4.70834H4.70742ZM7.38971 35.1445V37.871H9.15604V37.5167H7.74372V36.6753H8.95916V36.3248H7.74372V35.4949H9.1052V35.1435H7.38971V35.1445ZM12.0029 37.871L11.3383 36.7737C11.4862 36.7011 11.5962 36.5942 11.6683 36.4528C11.7404 36.3124 11.7764 36.1577 11.7764 35.9896C11.7764 35.8111 11.7357 35.6582 11.6562 35.5312C11.5758 35.4042 11.4649 35.3078 11.3235 35.2428C11.183 35.1769 11.0222 35.1445 10.8419 35.1445H10.1376V37.871H10.4916V36.8683H10.8817C10.9205 36.8683 10.9501 36.8673 10.9695 36.8644L11.5897 37.871H12.0019H12.0029ZM10.8752 36.513H10.4926V35.4959H10.9011C11.0176 35.4959 11.1137 35.5217 11.1913 35.5733C11.268 35.6248 11.3244 35.6898 11.3595 35.7671C11.3947 35.8454 11.4122 35.9247 11.4122 36.0049C11.4122 36.1386 11.3706 36.2561 11.2865 36.3592C11.2024 36.4624 11.0656 36.5139 10.8761 36.5139M14.858 35.1454L14.8654 37.1175L12.9308 35.0623H12.9124V37.871H13.2701L13.2627 35.9295L15.2009 37.9617H15.212V35.1454H14.858ZM17.9932 37.872H18.4017L17.2482 35.0327H17.227L16.0734 37.872H16.4237L16.7057 37.1557H17.7196L17.9932 37.872ZM16.8323 36.8386L17.2233 35.8435L17.5985 36.8386H16.8323ZM18.8583 35.1454V35.4969H19.5479V37.872H19.9019V35.4969H20.6099V35.1454H18.8583ZM21.5406 37.872H21.8946V35.1454H21.5406V37.872ZM22.854 36.5111C22.854 36.767 22.9141 37.002 23.0352 37.214C23.1554 37.4269 23.319 37.5941 23.526 37.7173C23.733 37.8405 23.9576 37.9016 24.2007 37.9016C24.4438 37.9016 24.6657 37.8395 24.8745 37.7144C25.0825 37.5902 25.247 37.4212 25.369 37.2073C25.4911 36.9934 25.5511 36.7613 25.5511 36.5101C25.5511 36.259 25.4901 36.0298 25.3672 35.8168C25.2443 35.6029 25.0797 35.4329 24.8727 35.3049C24.6657 35.1779 24.442 35.1148 24.2007 35.1148C23.9595 35.1148 23.733 35.1779 23.5279 35.3049C23.3217 35.4329 23.1591 35.6029 23.0371 35.8168C22.916 36.0298 22.855 36.2609 22.855 36.5101M23.2201 36.513C23.2201 36.3248 23.2635 36.1501 23.3495 35.9896C23.4354 35.8282 23.5547 35.7003 23.7053 35.6067C23.856 35.5121 24.0214 35.4653 24.2017 35.4653C24.3819 35.4653 24.5464 35.5121 24.698 35.6048C24.8487 35.6974 24.9688 35.8244 25.0557 35.9858C25.1435 36.1472 25.187 36.321 25.187 36.5101C25.187 36.6992 25.1444 36.8721 25.0576 37.0325C24.9707 37.192 24.8533 37.3171 24.7036 37.4097C24.5547 37.5014 24.3893 37.5473 24.2091 37.5473C24.0288 37.5473 23.8624 37.5005 23.7109 37.4078C23.5584 37.3152 23.4391 37.1891 23.3513 37.0306C23.2635 36.8721 23.2201 36.7002 23.2201 36.5139M28.4571 35.1454L28.4645 37.1175L26.53 35.0623H26.5115V37.871H26.8692L26.8618 35.9295L28.8 37.9617H28.8111V35.1454H28.4571ZM31.5923 37.872H32.0008L30.8482 35.0327H30.8261L29.6725 37.872H30.0229L30.3038 37.1557H31.3187L31.5923 37.872ZM30.4314 36.8386L30.8224 35.8435L31.1986 36.8386H30.4314ZM32.8586 35.1454V37.872H34.5556V37.5177H33.2126V35.1454H32.8586ZM37.0114 35.1454V37.872H37.3654V36.7145H38.4274V36.364H37.3654V35.4969H38.5772V35.1454H37.0114ZM41.3907 37.872L40.7262 36.7747C40.875 36.7021 40.985 36.5951 41.0561 36.4538C41.1282 36.3134 41.1643 36.1587 41.1643 35.9906C41.1643 35.812 41.1236 35.6592 41.0432 35.5322C40.9628 35.4052 40.8519 35.3087 40.7114 35.2438C40.5709 35.1779 40.41 35.1454 40.2298 35.1454H39.5255V37.872H39.8795V36.8692H40.2705C40.3093 36.8692 40.3389 36.8683 40.3583 36.8654L40.9785 37.872H41.3916H41.3907ZM40.2631 36.5139H39.8795V35.4969H40.288C40.4054 35.4969 40.5016 35.5226 40.5783 35.5742C40.655 35.6258 40.7114 35.6907 40.7465 35.7681C40.7825 35.8464 40.8001 35.9257 40.8001 36.0059C40.8001 36.1396 40.7576 36.257 40.6735 36.3602C40.5894 36.4633 40.4526 36.5149 40.2631 36.5149M42.2993 35.1464V37.8729H44.0647V37.5186H42.6524V36.6772H43.8678V36.3268H42.6524V35.4969H44.0139V35.1454H42.2984L42.2993 35.1464ZM45.0472 37.8729H45.4012V35.1464H45.0472V37.8729ZM48.5947 37.6389V36.5378H47.712V36.8883H48.237V37.4269C48.1787 37.4623 48.1057 37.489 48.0179 37.5081C47.931 37.5272 47.8404 37.5368 47.748 37.5368C47.5484 37.5368 47.3709 37.4947 47.2156 37.4107C47.0594 37.3267 46.9393 37.2073 46.8542 37.0545C46.7692 36.9007 46.7267 36.726 46.7267 36.5311C46.7267 36.3201 46.7692 36.1348 46.8542 35.9772C46.9393 35.8187 47.0603 35.6965 47.2175 35.6115C47.3746 35.5255 47.5558 35.4825 47.7591 35.4825C47.8543 35.4825 47.9606 35.4997 48.0789 35.5331C48.1972 35.5666 48.2952 35.6067 48.3728 35.6516L48.4893 35.3164C48.3848 35.2562 48.2675 35.2075 48.1353 35.1712C48.004 35.1349 47.8645 35.1168 47.7157 35.1168C47.4698 35.1168 47.2443 35.175 47.0372 35.2906C46.8302 35.4061 46.6666 35.5733 46.5446 35.79C46.4235 36.0078 46.3625 36.2647 46.3625 36.5617C46.3625 36.8157 46.4198 37.044 46.5316 37.2474C46.6453 37.4518 46.8061 37.6113 47.015 37.7287C47.2249 37.8452 47.4661 37.9035 47.7415 37.9035C47.8876 37.9035 48.0466 37.8758 48.2185 37.8204C48.3895 37.765 48.5152 37.7048 48.5956 37.6389M51.7271 35.1464H51.3731V36.3268H49.9903V35.1464H49.6363V37.8729H49.9903V36.6782H51.3731V37.8729H51.7271V35.1464ZM52.6578 35.1464V35.4978H53.3474V37.8729H53.7014V35.4978H54.4085V35.1464H52.6578ZM56.8578 35.1464V37.8729H57.2118V36.7155H58.2738V36.365H57.2118V35.4978H58.4236V35.1464H56.8578ZM59.1528 36.512C59.1528 36.768 59.2129 37.0029 59.334 37.2149C59.4542 37.4279 59.6178 37.595 59.8239 37.7182C60.0309 37.8414 60.2564 37.9025 60.4986 37.9025C60.7408 37.9025 60.9645 37.8405 61.1715 37.7154C61.3804 37.5912 61.5449 37.4222 61.666 37.2082C61.7871 36.9943 61.8481 36.7622 61.8481 36.5111C61.8481 36.2599 61.7871 36.0307 61.6641 35.8177C61.5412 35.6038 61.3767 35.4338 61.1696 35.3059C60.9635 35.1788 60.7389 35.1158 60.4977 35.1158C60.2565 35.1158 60.03 35.1788 59.8248 35.3059C59.6187 35.4338 59.456 35.6038 59.334 35.8177C59.212 36.0307 59.1519 36.2618 59.1519 36.5111M59.517 36.5139C59.517 36.3258 59.5605 36.151 59.6464 35.9906C59.7333 35.8292 59.8516 35.7012 60.0023 35.6076C60.1529 35.5131 60.3184 35.4663 60.4977 35.4663C60.677 35.4663 60.8434 35.5131 60.995 35.6057C61.1456 35.6984 61.2649 35.8254 61.3517 35.9868C61.4395 36.1482 61.4839 36.322 61.4839 36.5111C61.4839 36.7002 61.4405 36.873 61.3536 37.0335C61.2667 37.193 61.1493 37.3181 60.9996 37.4107C60.8498 37.5024 60.6853 37.5482 60.5051 37.5482C60.3248 37.5482 60.1585 37.5014 60.0069 37.4088C59.8544 37.3162 59.7351 37.1901 59.6473 37.0316C59.5595 36.873 59.5161 36.7011 59.5161 36.5149M64.6727 37.8729L64.0081 36.7756C64.157 36.703 64.266 36.5961 64.3381 36.4547C64.4093 36.3143 64.4463 36.1596 64.4463 35.9915C64.4463 35.813 64.4056 35.6602 64.3261 35.5331C64.2457 35.4061 64.1357 35.3097 63.9934 35.2447C63.8529 35.1788 63.692 35.1464 63.5118 35.1464H62.8075V37.8729H63.1615V36.8702H63.5525C63.5913 36.8702 63.6199 36.8692 63.6394 36.8663L64.2605 37.8729H64.6727ZM63.5451 36.5149H63.1624V35.4978H63.571C63.6883 35.4978 63.7854 35.5236 63.8612 35.5752C63.9379 35.6267 63.9943 35.6917 64.0294 35.769C64.0645 35.8473 64.0821 35.9266 64.0821 36.0068C64.0821 36.1405 64.0405 36.258 63.9564 36.3611C63.8723 36.4643 63.7355 36.5159 63.5451 36.5159M68.527 35.1588H68.1481L67.4983 37.1003L66.7653 35.1588H66.415L66.696 35.9056L66.2394 37.1423L65.5563 35.1588H65.1441L66.195 38.0019L66.8698 36.365L67.4872 37.9942L68.527 35.1588ZM70.7425 37.8729H71.152L69.9985 35.0337H69.9772L68.8237 37.8729H69.174L69.4559 37.1567H70.4699L70.7435 37.8729H70.7425ZM69.5826 36.8396L69.9726 35.8445L70.3479 36.8396H69.5816H69.5826ZM73.874 37.8729L73.2095 36.7756C73.3583 36.703 73.4683 36.5961 73.5395 36.4547C73.6106 36.3143 73.6467 36.1596 73.6467 35.9915C73.6467 35.813 73.6069 35.6602 73.5265 35.5331C73.4461 35.4061 73.3352 35.3097 73.1947 35.2447C73.0542 35.1788 72.8924 35.1464 72.7131 35.1464H72.0088V37.8729H72.3628V36.8702H72.7538C72.7926 36.8702 72.8222 36.8692 72.8407 36.8663L73.4618 37.8729H73.874ZM72.7464 36.5149H72.3628V35.4978H72.7714C72.8878 35.4978 72.9858 35.5236 73.0616 35.5752C73.1374 35.6267 73.1947 35.6917 73.2298 35.769C73.2649 35.8473 73.2825 35.9266 73.2825 36.0068C73.2825 36.1405 73.24 36.258 73.1559 36.3611C73.0718 36.4643 72.9359 36.5159 72.7455 36.5159M74.7817 37.8739H75.632C75.865 37.8739 76.0822 37.8194 76.2818 37.7096C76.4815 37.6007 76.6404 37.4441 76.7597 37.2426C76.8789 37.0402 76.9381 36.8071 76.9381 36.5426C76.9381 36.3067 76.8882 36.0813 76.7902 35.8693C76.6913 35.6573 76.5351 35.4835 76.3188 35.3498C76.1034 35.2151 75.8317 35.1473 75.5036 35.1473H74.7808V37.8739H74.7817ZM75.1357 37.5196V35.4988H75.5951C75.7679 35.4988 75.9297 35.5389 76.0794 35.6172C76.2291 35.6965 76.3484 35.813 76.4389 35.9658C76.5286 36.1186 76.5739 36.3029 76.5739 36.5159C76.5739 36.7288 76.5305 36.9045 76.4445 37.0554C76.3585 37.2063 76.2384 37.3219 76.0849 37.4012C75.9315 37.4804 75.7578 37.5196 75.5627 37.5196H75.1357ZM77.8984 35.1473V37.8739H79.6647V37.5196H78.2524V36.6782H79.4679V36.3277H78.2524V35.4978H79.6139V35.1464H77.8984V35.1473ZM82.5116 37.8739L81.847 36.7766C81.9958 36.704 82.1058 36.597 82.177 36.4557C82.2491 36.3153 82.2851 36.1606 82.2851 35.9925C82.2851 35.8139 82.2454 35.6611 82.1649 35.5341C82.0845 35.4071 81.9736 35.3106 81.8331 35.2457C81.6917 35.1798 81.5309 35.1473 81.3516 35.1473H80.6473V37.8739H81.0013V36.8711H81.3922C81.4311 36.8711 81.4597 36.8702 81.4791 36.8673L82.1002 37.8739H82.5125H82.5116ZM81.3839 36.5159H81.0013V35.4988H81.4098C81.5263 35.4988 81.6233 35.5245 81.7 35.5761C81.7767 35.6277 81.8322 35.6926 81.8682 35.77C81.9034 35.8483 81.9209 35.9276 81.9209 36.0078C81.9209 36.1415 81.8793 36.259 81.7952 36.3621C81.7111 36.4652 81.5743 36.5168 81.3839 36.5168M84.7853 35.6344L84.9203 35.3517C84.6762 35.2056 84.4128 35.133 84.1281 35.133C83.8971 35.1406 83.7094 35.2103 83.5643 35.3421C83.4201 35.4739 83.3471 35.6477 83.3471 35.8607C83.3471 36.0068 83.3822 36.1281 83.4534 36.2246C83.5237 36.321 83.6087 36.3974 83.7067 36.4528C83.8056 36.5082 83.9294 36.5646 84.0773 36.6228C84.2381 36.6887 84.3629 36.7584 84.4516 36.832C84.5404 36.9065 84.5857 37.0058 84.5857 37.1318C84.5857 37.2799 84.5321 37.3916 84.4267 37.467C84.3213 37.5425 84.1975 37.5797 84.057 37.5797C83.9479 37.5797 83.8296 37.5559 83.703 37.5062C83.5763 37.4575 83.4682 37.3973 83.3785 37.3276L83.2214 37.6179C83.336 37.701 83.4682 37.7688 83.6189 37.8233C83.7695 37.8777 83.9266 37.9044 84.0893 37.9044C84.2649 37.9044 84.4174 37.871 84.5478 37.8023C84.6781 37.7344 84.7779 37.6418 84.8491 37.5234C84.9193 37.405 84.9554 37.2732 84.9554 37.1271C84.9554 36.9666 84.924 36.8339 84.862 36.7288C84.8001 36.6238 84.7225 36.5426 84.6282 36.4834C84.5348 36.4242 84.4202 36.3697 84.2834 36.3191C84.1013 36.2484 83.9599 36.1778 83.8619 36.1062C83.763 36.0345 83.7141 35.9419 83.7141 35.8292C83.7141 35.7165 83.7557 35.6229 83.8398 35.5561C83.9239 35.4892 84.0376 35.4558 84.1808 35.4558C84.2751 35.4558 84.3768 35.473 84.4831 35.5054C84.5894 35.5379 84.691 35.5809 84.7862 35.6334" fill="white"/>
<path d="M-5.22705e-05 32.0597H6.86374V29.6865H6.37664C6.37664 30.1487 6.41546 30.5507 6.25278 30.7666C6.05961 31.0445 5.87197 31.2412 5.57158 31.3568C5.27118 31.4733 4.87836 31.5306 4.39496 31.5306C3.91155 31.5306 3.59637 31.5077 3.39949 31.4609C3.20169 31.415 3.07414 31.3339 3.01591 31.2173C2.95768 31.1018 2.9281 30.9003 2.9281 30.6128V27.5701H4.42084C4.69905 27.5701 4.71106 27.6055 4.84509 27.6742C4.97911 27.744 5.07986 27.8624 5.14733 28.0295C5.2148 28.1957 5.27026 28.3552 5.31555 28.7066H5.71947V25.8225H5.31555C5.27118 26.1749 5.2148 26.3334 5.14733 26.5005C5.07986 26.6667 4.97634 26.7851 4.83769 26.8548C4.69905 26.9236 4.68888 26.9589 4.42084 26.9589H2.9281V23.8876C2.9281 23.7023 2.9623 23.5772 3.02978 23.5132C3.09633 23.4483 3.2285 23.4158 3.4263 23.4158H4.4079C4.84693 23.4158 5.18985 23.4626 5.43663 23.5543C5.68249 23.647 5.88029 23.8141 6.02818 24.0547C6.17699 24.2954 6.30362 24.5513 6.41176 25.0241H6.88223V22.8877H-5.22705e-05V23.3461C0.304964 23.3461 0.425122 23.3652 0.554523 23.4015C0.684848 23.4388 0.771732 23.5104 0.817022 23.6173C0.861388 23.7243 0.884495 23.8972 0.884495 24.1378V30.822C0.884495 31.0636 0.864161 31.2345 0.823492 31.3367C0.782823 31.4389 0.69594 31.5086 0.560993 31.5449C0.426971 31.5812 0.30404 31.6003 -0.000976562 31.6003V32.0597H-5.22705e-05ZM14.3394 31.0588V25.4204H11.6932V26.236H12.0398C12.2006 26.236 12.306 26.2713 12.355 26.3401C12.4039 26.4089 12.4289 26.5511 12.4289 26.7641V30.6692C12.196 30.9012 11.9852 31.0741 11.7967 31.1906C11.6091 31.3062 11.4113 31.3644 11.2051 31.3644C10.8826 31.3644 10.6349 31.2489 10.4657 31.0168C10.2947 30.7857 10.2097 30.4151 10.2097 29.9052V25.4204H7.56343V26.236H7.91004C8.07179 26.236 8.17716 26.2713 8.22615 26.3401C8.27513 26.4089 8.30009 26.5511 8.30009 26.7641V30.0713C8.30009 30.7943 8.46554 31.3339 8.79736 31.6901C9.12918 32.0473 9.60427 32.2249 10.2226 32.2249C11.0471 32.2249 11.7874 31.8734 12.4418 31.1686H12.4825V32.0578H15.0474V31.5984C14.796 31.5984 14.7147 31.5869 14.6065 31.564C14.4993 31.5411 14.4272 31.4924 14.3912 31.4189C14.3551 31.3444 14.3376 31.224 14.3376 31.0579M20.1708 25.3879C19.4618 25.3879 18.9017 25.8368 18.4895 26.7355H18.4497L18.4858 25.4195H15.76V26.2637H16.2037C16.3655 26.2637 16.4708 26.299 16.5198 26.3678C16.5697 26.4375 16.5938 26.5779 16.5938 26.7918V30.9051C16.5938 31.1094 16.5734 31.2575 16.5337 31.3501C16.493 31.4427 16.4144 31.5077 16.298 31.5449C16.1815 31.5812 15.993 31.6003 15.7332 31.6003V32.0597H19.5395V31.6003C19.2252 31.6003 18.9988 31.5822 18.8601 31.5449C18.7215 31.5077 18.6263 31.4427 18.5773 31.3501C18.5283 31.2575 18.5033 31.1094 18.5033 30.9051V28.2931H18.5172C18.5172 27.9779 18.5754 27.6494 18.6919 27.3066C18.8084 26.9637 18.9498 26.6791 19.1152 26.4518C19.2807 26.2245 19.4406 26.1109 19.5931 26.1109C19.6375 26.1109 19.6735 26.1233 19.7003 26.1462C19.7271 26.1691 19.741 26.1949 19.741 26.2226C19.741 26.2503 19.7031 26.3134 19.6264 26.4098C19.5496 26.5082 19.5127 26.6486 19.5127 26.8338C19.5127 27.0936 19.5931 27.297 19.7539 27.445C19.9157 27.5931 20.1301 27.6676 20.3991 27.6676C20.7226 27.6676 20.9638 27.5654 21.1256 27.362C21.2864 27.1585 21.3668 26.9035 21.3668 26.5979C21.3668 26.2369 21.2614 25.9447 21.0507 25.7232C20.84 25.5006 20.547 25.3898 20.1698 25.3898M25.3792 32.2125C26.5086 32.2125 27.3451 31.9346 27.8877 31.3787C28.4302 30.8229 28.702 29.9567 28.702 28.7801C28.702 27.6036 28.433 26.7517 27.8951 26.1959C27.3571 25.6401 26.5271 25.3622 25.4069 25.3622C24.2866 25.3622 23.4234 25.6448 22.8716 26.2102C22.3207 26.7756 22.0443 27.6408 22.0443 28.8088C22.0443 29.9768 22.3179 30.8229 22.8642 31.3797C23.4113 31.9355 24.2497 32.2134 25.3792 32.2134M25.393 31.7273C24.9087 31.7273 24.563 31.5 24.3569 31.0464C24.1508 30.5928 24.0482 29.8507 24.0482 28.8222C24.0482 27.7936 24.1508 27.0783 24.3569 26.5922C24.563 26.1052 24.8995 25.8626 25.3662 25.8626C25.833 25.8626 26.1814 26.108 26.3885 26.5989C26.5946 27.0907 26.6972 27.8824 26.6972 28.9759C26.6972 29.9204 26.5937 30.6147 26.3885 31.0607C26.1824 31.5048 25.8505 31.7273 25.393 31.7273ZM29.9904 29.2166H32.5868V28.0438H29.9904V29.2166ZM40.6854 30.907L37.8885 22.8896H36.6112L33.6525 30.8382C33.536 31.1534 33.4011 31.3587 33.2486 31.4571C33.0961 31.5545 32.9334 31.6022 32.5655 31.6022V32.0616H35.1683V31.6022H34.7006C34.5574 31.6022 34.4566 31.5803 34.3984 31.5335C34.3402 31.4876 34.3106 31.4131 34.3106 31.3109C34.3106 31.2364 34.3245 31.1534 34.3513 31.0617L35.1175 28.8107H37.8885L38.6548 31.0197C38.6816 31.1123 38.6954 31.2011 38.6954 31.2842C38.6954 31.4972 38.5744 31.6032 38.3322 31.6032H37.7979V32.0625H41.6375V31.6032C41.387 31.6032 41.3001 31.5869 41.1836 31.5545C41.0662 31.522 40.9747 31.4599 40.9073 31.3673C40.8398 31.2746 40.7658 31.1218 40.6854 30.9079M35.2922 28.296L36.4762 24.8636H36.5169L37.7138 28.296H35.2931H35.2922ZM53.2752 30.9079V27.5587C53.2752 26.8176 53.0978 26.2685 52.7437 25.9122C52.3897 25.556 51.8897 25.3774 51.2445 25.3774C50.7602 25.3774 50.335 25.4701 49.9672 25.6553C49.5993 25.8406 49.3045 26.1138 49.0799 26.4747C48.9551 26.151 48.7323 25.8865 48.4144 25.6821C48.0955 25.4787 47.7036 25.3765 47.2377 25.3765C46.4216 25.3765 45.6997 25.7012 45.0721 26.3496H45.0453V25.4223H42.3159V26.2666H42.7993C42.9601 26.2666 43.0655 26.3019 43.1145 26.3707C43.1635 26.4404 43.1884 26.5808 43.1884 26.7947V30.9079C43.1884 31.1123 43.1681 31.2603 43.1274 31.353C43.0867 31.4456 43.0082 31.5105 42.8917 31.5478C42.7753 31.5841 42.5775 31.6032 42.3177 31.6032V32.0625H45.8374V31.6032C45.6221 31.6032 45.4649 31.5898 45.366 31.5621C45.2681 31.5344 45.1978 31.4742 45.1572 31.3816C45.1174 31.289 45.0971 31.1409 45.0971 30.9375V26.8797C45.3032 26.6486 45.4954 26.4814 45.6757 26.3792C45.855 26.2771 46.0565 26.2264 46.2811 26.2264C46.612 26.2264 46.8616 26.3401 47.027 26.5664C47.1924 26.7937 47.2756 27.1528 47.2756 27.6437V30.9786C47.2756 31.1734 47.2599 31.3119 47.2285 31.395C47.1971 31.479 47.1342 31.5344 47.0399 31.5621C46.9466 31.5898 46.8884 31.6032 46.673 31.6032V32.0625H49.8137V31.6032C49.5901 31.6032 49.5254 31.585 49.4265 31.5478C49.3285 31.5115 49.2629 31.4456 49.2324 31.353C49.2009 31.2603 49.1852 31.1123 49.1852 30.9079V27.128C49.445 26.5263 49.8304 26.2245 50.3415 26.2245C51.0227 26.2245 51.3629 26.6973 51.3629 27.6418V30.9767C51.3629 31.162 51.3471 31.2995 51.3157 31.3873C51.2843 31.4752 51.2196 31.5325 51.1207 31.5612C51.0218 31.5888 50.8656 31.6022 50.6493 31.6022V32.0616H54.0793V31.6022C53.8372 31.6022 53.6597 31.5841 53.5479 31.5468C53.436 31.5105 53.3621 31.4446 53.3251 31.352C53.2891 31.2594 53.2715 31.1113 53.2715 30.907M60.7777 28.7257C60.7777 26.4929 59.7905 25.3765 57.8181 25.3765C56.8143 25.3765 56.0518 25.6639 55.5323 26.2379C55.012 26.8128 54.7522 27.6695 54.7522 28.8088C54.7522 29.9481 55.0073 30.7885 55.5185 31.3587C56.0296 31.9288 56.7829 32.2134 57.7784 32.2134C58.6204 32.2134 59.2508 32.0396 59.6676 31.692C60.0845 31.3453 60.4089 30.884 60.6427 30.3101L60.1852 30.0599C59.8174 30.9213 59.2129 31.352 58.3699 31.352C57.8052 31.352 57.4022 31.1553 57.16 30.7618C56.9178 30.3674 56.7838 29.7313 56.7561 28.8508H60.7777V28.7257ZM56.7561 28.3504C56.7644 27.4326 56.855 26.7918 57.0251 26.426C57.1951 26.0603 57.4558 25.8769 57.8052 25.8769C58.0649 25.8769 58.2664 25.9648 58.4106 26.1405C58.5538 26.3172 58.65 26.5779 58.6999 26.9255C58.7489 27.2731 58.7729 27.7478 58.7729 28.3504H56.7552H56.7561ZM58.1786 24.4597H58.8515L60.2499 22.8896C60.3849 22.7225 60.4718 22.5955 60.5124 22.5076C60.5531 22.4198 60.5725 22.3252 60.5725 22.223C60.5725 22.0569 60.5096 21.9126 60.3849 21.7923C60.2592 21.672 60.1113 21.6118 59.9412 21.6118C59.6186 21.6118 59.3802 21.7789 59.2277 22.1122L58.1795 24.4606L58.1786 24.4597ZM65.89 25.3908C65.1819 25.3908 64.6218 25.8397 64.2087 26.7383H64.168L64.1698 25.4223H61.4737V26.2666H61.922C62.0837 26.2666 62.1891 26.3019 62.2381 26.3707C62.2871 26.4404 62.312 26.5808 62.312 26.7947V30.9079C62.312 31.1123 62.2917 31.2603 62.2519 31.353C62.2113 31.4456 62.1327 31.5105 62.0162 31.5478C61.8998 31.5841 61.7306 31.6032 61.4709 31.6032V32.0625H65.2577V31.6032C64.9435 31.6032 64.717 31.585 64.5784 31.5478C64.4388 31.5115 64.3455 31.4456 64.2965 31.353C64.2475 31.2603 64.2225 31.1123 64.2225 30.9079V28.296H64.2364C64.2364 27.9808 64.2946 27.6523 64.4111 27.3094C64.5275 26.9666 64.668 26.682 64.8344 26.4547C64.9999 26.2274 65.1588 26.1138 65.3113 26.1138C65.3566 26.1138 65.3918 26.1262 65.4186 26.1491C65.4463 26.172 65.4592 26.1978 65.4592 26.2255C65.4592 26.2532 65.4204 26.3162 65.3455 26.4127C65.2688 26.511 65.2309 26.6514 65.2309 26.8367C65.2309 27.0965 65.3123 27.2999 65.4731 27.4479C65.6348 27.5959 65.8493 27.6704 66.1192 27.6704C66.4417 27.6704 66.6839 27.5682 66.8447 27.3648C67.0065 27.1614 67.0869 26.9064 67.0869 26.6008C67.0869 26.2398 66.9815 25.9476 66.7708 25.726C66.5601 25.5035 66.2661 25.3927 65.889 25.3927M69.5289 24.6841C69.8247 24.6841 70.0853 24.5781 70.309 24.3642C70.5327 24.1512 70.6454 23.8914 70.6454 23.5858C70.6454 23.2802 70.5354 23.0186 70.3164 22.8008C70.0964 22.584 69.8339 22.4742 69.5289 22.4742C69.2239 22.4742 68.9752 22.5831 68.7562 22.8008C68.5362 23.0186 68.4262 23.2802 68.4262 23.5858C68.4262 23.8914 68.5362 24.1512 68.7562 24.3642C68.9752 24.5781 69.2331 24.6841 69.5289 24.6841ZM67.7672 32.0635H71.3174V31.6041C71.0835 31.6041 70.9135 31.586 70.8072 31.5487C70.699 31.5124 70.6269 31.4465 70.5918 31.3539C70.5558 31.2613 70.5382 31.1132 70.5382 30.9089V25.4242H67.7755V26.2685H68.2386C68.4003 26.2685 68.5057 26.3038 68.5547 26.3726C68.6037 26.4423 68.6286 26.5827 68.6286 26.7966V30.9098C68.6286 31.1142 68.6083 31.2622 68.5676 31.3549C68.527 31.4475 68.4484 31.5124 68.3329 31.5497C68.2173 31.5869 68.0278 31.6051 67.7681 31.6051V32.0644L67.7672 32.0635ZM75.0719 32.2163C75.8788 32.2163 76.4796 32.0425 76.8742 31.6949C77.2689 31.3482 77.5739 30.8774 77.7893 30.2843L77.3724 30.0618C77.1746 30.4696 76.9528 30.7866 76.7069 31.013C76.4611 31.2403 76.0997 31.3539 75.6237 31.3539C75.0506 31.3539 74.6356 31.1362 74.3796 30.7007C74.1245 30.2662 73.996 29.5155 73.996 28.4497C73.996 27.468 74.1014 26.7937 74.3121 26.428C74.5228 26.0622 74.8436 25.8788 75.2734 25.8788C75.534 25.8788 75.7309 25.9294 75.8658 26.0316C75.9999 26.1338 76.0673 26.2637 76.0673 26.4213C76.0673 26.5225 76.0359 26.6295 75.9731 26.7402C75.8926 26.9255 75.852 27.0879 75.852 27.2263C75.852 27.4852 75.9324 27.6876 76.0941 27.8309C76.2559 27.9741 76.4712 28.0467 76.7402 28.0467C77.0452 28.0467 77.2735 27.9617 77.426 27.7898C77.5785 27.6189 77.6553 27.3849 77.6553 27.0879C77.6553 26.597 77.4445 26.1902 77.023 25.8654C76.6016 25.5407 76.0008 25.3784 75.2207 25.3784C74.2077 25.3784 73.4165 25.6754 72.8462 26.2675C72.2768 26.8606 71.9931 27.7315 71.9931 28.8795C71.9931 30.0274 72.2592 30.8019 72.7935 31.3673C73.3268 31.9327 74.0866 32.2144 75.0728 32.2144M84.7982 31.3673C84.7797 31.3759 84.7289 31.4017 84.6438 31.4437C84.5579 31.4847 84.4581 31.5058 84.3416 31.5058C84.2076 31.5058 84.1105 31.4504 84.0523 31.3386C83.9941 31.2269 83.9645 31.0053 83.9645 30.6711V27.6141C83.9645 26.8453 83.787 26.2828 83.433 25.9256C83.079 25.5694 82.5161 25.3908 81.7453 25.3908C81.0733 25.3908 80.5132 25.4768 80.064 25.6477C79.6157 25.8187 79.2866 26.0345 79.0759 26.2942C78.8652 26.554 78.7598 26.8271 78.7598 27.1137C78.7598 27.3448 78.843 27.5472 79.0094 27.7182C79.1748 27.8901 79.4013 27.9751 79.6878 27.9751C79.9743 27.9751 80.1897 27.8901 80.3607 27.7182C80.5307 27.5472 80.6158 27.3409 80.6158 27.1003C80.6158 26.979 80.6001 26.8873 80.5686 26.8224C80.5372 26.7574 80.4854 26.6782 80.4143 26.5855C80.3246 26.4747 80.2793 26.3821 80.2793 26.3076C80.2793 26.2054 80.356 26.1204 80.5076 26.0507C80.6601 25.981 80.8441 25.9466 81.0594 25.9466C81.4365 25.9466 81.6963 26.0412 81.8395 26.2322C81.9828 26.4222 82.0595 26.7211 82.0678 27.128V28.1709C80.9023 28.3934 79.9919 28.7219 79.3375 29.1574C78.6831 29.5929 78.3559 30.1219 78.3559 30.7417C78.3559 31.2231 78.5176 31.5888 78.8402 31.8391C79.1628 32.0893 79.6203 32.2144 80.2119 32.2144C80.9199 32.2144 81.5521 31.9871 82.1085 31.5335C82.1704 31.7474 82.3054 31.9135 82.5115 32.0339C82.7176 32.1542 82.9912 32.2144 83.3323 32.2144C83.9599 32.2144 84.4978 32.0664 84.9461 31.7703L84.7982 31.3673ZM80.2525 30.4218C80.2525 30.014 80.3986 29.676 80.6897 29.4076C80.9809 29.1383 81.4412 28.9167 82.0678 28.74V30.9776C81.7185 31.247 81.3996 31.3807 81.113 31.3807C80.8265 31.3807 80.6001 31.3043 80.4614 31.1515C80.3218 30.9986 80.2525 30.7551 80.2525 30.4218Z" fill="white"/>
<path d="M87.7884 24.0873C87.7884 24.836 87.2014 25.4424 86.4768 25.4424C85.7521 25.4424 85.1652 24.836 85.1652 24.0873C85.1652 23.3385 85.7521 22.7321 86.4768 22.7321C87.2014 22.7321 87.7884 23.3385 87.7884 24.0873ZM88.001 24.0873C88.001 23.2173 87.3188 22.5125 86.4768 22.5125C85.6348 22.5125 84.9526 23.2173 84.9526 24.0873C84.9526 24.9573 85.6348 25.6621 86.4768 25.6621C87.3188 25.6621 88.001 24.9573 88.001 24.0873Z" fill="white"/>
<path d="M87.1811 24.9898L86.7411 24.263C86.8391 24.2153 86.9121 24.1436 86.9602 24.051C87.0073 23.9574 87.0313 23.8552 87.0313 23.7445C87.0313 23.626 87.0045 23.5248 86.9519 23.4408C86.8992 23.3567 86.8252 23.2927 86.7319 23.2498C86.6385 23.2058 86.5322 23.1848 86.413 23.1848H85.9462V24.9898H86.181V24.3261H86.4398C86.4657 24.3261 86.4851 24.3261 86.4971 24.3232L86.9084 24.9898H87.1811ZM86.4343 24.0911H86.1801V23.4178H86.4509C86.5285 23.4178 86.5923 23.435 86.6431 23.4694C86.694 23.5038 86.731 23.5468 86.7541 23.5983C86.7772 23.6499 86.7892 23.7024 86.7892 23.7559C86.7892 23.8447 86.7615 23.9221 86.7051 23.9908C86.6496 24.0587 86.559 24.093 86.4333 24.093" fill="white"/>
</g>
<defs>
<clipPath id="clip0_1282_102">
<rect width="88" height="38" fill="white"/>
</clipPath>
</defs>
</svg>
