<svg width="131" height="48" viewBox="0 0 131 48" fill="none" xmlns="http://www.w3.org/2000/svg">
<g id="Group 26">
<g id="Group 22">
<path id="Vector" d="M27.2829 8.09892V3.60932L25.4348 7.00921H24.8507L22.9851 3.60932V8.09892H22V1.81348H23.0636L25.1383 5.64925L27.2132 1.81348H28.2767V8.09892H27.2742H27.2829Z" fill="white"/>
<path id="Vector_2" d="M32.47 1.81348H31.4849V8.09892H32.47V1.81348Z" fill="white"/>
<path id="Vector_3" d="M36.6545 3.65291V8.09892H35.6694V1.81348H36.4802L40.037 6.34667V1.81348H41.0395V8.09892H40.1678L36.6545 3.65291Z" fill="white"/>
<path id="Vector_4" d="M45.2064 1.81348H44.2213V8.09892H45.2064V1.81348Z" fill="white"/>
<path id="Vector_5" d="M52.1283 3.28658C51.9888 3.13838 51.7621 2.9989 51.4308 2.85941C51.0996 2.71993 50.7683 2.65891 50.4283 2.65891C50.0273 2.65891 49.7047 2.73737 49.5042 2.88557C49.3037 3.03377 49.1991 3.25171 49.1991 3.53067C49.1991 3.61785 49.1991 3.69631 49.234 3.75733C49.2601 3.81836 49.2863 3.8881 49.3212 3.93169C49.356 3.98399 49.4083 4.0363 49.4868 4.07989C49.5653 4.13219 49.6263 4.16706 49.7047 4.21065C49.7832 4.24552 49.8704 4.28911 49.9924 4.32398C50.1145 4.35885 50.2365 4.40244 50.3324 4.42859C50.437 4.45475 50.5765 4.48962 50.7508 4.53321C51.0298 4.59423 51.2739 4.66397 51.457 4.72499C51.6575 4.78602 51.8406 4.8732 52.0236 4.97781C52.198 5.08242 52.3549 5.19575 52.4508 5.30908C52.5641 5.43984 52.6513 5.57933 52.721 5.75368C52.7821 5.92803 52.8257 6.13726 52.8257 6.36392C52.8257 6.61673 52.7908 6.84339 52.7123 7.03518C52.6339 7.23568 52.5205 7.40132 52.381 7.5408C52.2416 7.68029 52.0759 7.79362 51.8754 7.88079C51.6836 7.96797 51.4744 8.04643 51.239 8.0813C51.0124 8.11617 50.7683 8.14232 50.5155 8.14232C50.036 8.14232 49.574 8.06386 49.1206 7.92438C48.676 7.77618 48.275 7.56696 47.9176 7.28799L48.3709 6.44238C48.5453 6.63417 48.8504 6.80852 49.2601 6.99159C49.6786 7.16594 50.097 7.26184 50.5242 7.26184C50.9165 7.26184 51.2216 7.20081 51.4221 7.06133C51.6401 6.92185 51.7359 6.72134 51.7359 6.46853C51.7359 6.36392 51.7272 6.26802 51.6836 6.18956C51.6575 6.10239 51.5965 6.02393 51.518 5.9629C51.4395 5.90188 51.3698 5.83214 51.2739 5.78855C51.1867 5.73625 51.0734 5.68394 50.9165 5.64035C50.7683 5.58804 50.6288 5.53574 50.4981 5.50959C50.3673 5.47471 50.2104 5.43113 49.9924 5.37882C49.6611 5.29164 49.3822 5.20447 49.1642 5.10857C48.9463 5.0214 48.7545 4.90807 48.5976 4.7773C48.4319 4.64654 48.3099 4.49834 48.2315 4.32398C48.153 4.14963 48.1181 3.93169 48.1181 3.68759C48.1181 3.38247 48.1792 3.12094 48.2925 2.86813C48.4058 2.62404 48.5714 2.42353 48.7719 2.25789C48.9725 2.09226 49.2165 1.97893 49.4955 1.89175C49.7745 1.80457 50.0796 1.76099 50.3934 1.76099C51.1693 1.76099 51.8754 2.00508 52.5118 2.46712L52.0672 3.27786H52.0934L52.1283 3.28658Z" fill="white"/>
<path id="Vector_6" d="M60.1922 2.68524H58.1V8.09892H57.0974V2.68524H54.9965V1.81348H60.1922V2.68524Z" fill="white"/>
<path id="Vector_7" d="M67.114 7.22695V8.09872H62.8075V1.81328H67.0356V2.68504H63.7926V4.47217H66.591V5.29163H63.7926V7.21823H67.114V7.22695ZM65.353 1.16817L64.7079 0.976379L65.2136 0H66.1376L65.3356 1.16817H65.353Z" fill="white"/>
<path id="Vector_8" d="M69.9124 8.09892V1.81348H72.6497C72.9287 1.81348 73.1815 1.8745 73.4344 1.98783C73.6785 2.10116 73.8877 2.2668 74.0533 2.45858C74.2189 2.65037 74.3584 2.87703 74.4456 3.12113C74.5502 3.36522 74.5938 3.61803 74.5938 3.87085C74.5938 4.29801 74.4805 4.68159 74.2538 5.02158C74.0272 5.36157 73.7307 5.58823 73.3646 5.71899L74.8466 8.11635H73.7308L72.3621 5.92822H70.9062V8.11635H69.9037L69.9124 8.09892ZM70.8975 5.0303H72.6323C72.9113 5.0303 73.1379 4.91697 73.3123 4.69031C73.4867 4.46365 73.5738 4.18468 73.5738 3.85341C73.5738 3.52214 73.4692 3.26061 73.2687 3.03395C73.0682 2.80729 72.8415 2.69396 72.5713 2.69396H70.8888V5.03902L70.8975 5.0303Z" fill="white"/>
<path id="Vector_9" d="M78.5167 1.81348H77.5316V8.09892H78.5167V1.81348Z" fill="white"/>
<path id="Vector_10" d="M81.3239 4.96051C81.3239 4.54207 81.4023 4.14977 81.5505 3.75748C81.6987 3.36518 81.9166 3.03391 82.1869 2.74623C82.4484 2.45854 82.771 2.22317 83.1458 2.04881C83.5294 1.87446 83.9217 1.77856 84.3489 1.77856C84.7761 1.77856 85.1945 1.86574 85.5781 2.05753C85.9617 2.24932 86.2755 2.4847 86.5283 2.7811C86.7811 3.08622 86.9816 3.4262 87.1386 3.80978C87.278 4.19336 87.3565 4.58565 87.3565 4.97795C87.3565 5.3964 87.278 5.78869 87.1298 6.18099C86.9729 6.57328 86.7637 6.90456 86.5109 7.19224C86.2406 7.47992 85.9268 7.7153 85.5519 7.88965C85.1771 8.06401 84.7761 8.1599 84.3489 8.1599C83.9915 8.1599 83.6602 8.10759 83.3464 7.98555C83.0325 7.87222 82.7536 7.70658 82.5095 7.50607C82.2654 7.30557 82.0561 7.06147 81.8905 6.79994C81.7161 6.5297 81.5767 6.24201 81.4808 5.92818C81.3936 5.61434 81.3413 5.29179 81.3413 4.97795M84.3576 7.2707C84.6627 7.2707 84.9417 7.20967 85.2032 7.07019C85.456 6.93943 85.674 6.76507 85.8396 6.54713C86.0052 6.32919 86.1273 6.09381 86.2232 5.81485C86.3104 5.5446 86.3627 5.27435 86.3627 4.97795C86.3627 4.68155 86.3104 4.39387 86.2232 4.1149C86.1186 3.83593 85.9965 3.59184 85.8309 3.38262C85.6653 3.16467 85.4473 2.99904 85.1945 2.87699C84.9417 2.74623 84.6627 2.6852 84.3663 2.6852C84.0699 2.6852 83.7822 2.74623 83.5207 2.88571C83.2679 3.01647 83.05 3.19083 82.8843 3.40877C82.7187 3.62671 82.5966 3.86209 82.492 4.14105C82.4048 4.4113 82.3525 4.68155 82.3525 4.97795C82.3525 5.37025 82.431 5.75382 82.5966 6.09381C82.7623 6.4338 82.9889 6.7302 83.3028 6.93943C83.6166 7.15737 83.974 7.2707 84.3663 7.2707" fill="white"/>
<path id="Vector_11" d="M94.1039 8.09892V1.81348H96.3357C96.8326 1.81348 97.2772 1.90065 97.6695 2.05757C98.0618 2.22321 98.393 2.44115 98.6284 2.72883C98.8812 3.01652 99.073 3.34779 99.1951 3.71393C99.3258 4.09751 99.3956 4.49852 99.3956 4.94312C99.3956 5.89335 99.1166 6.65178 98.5587 7.23587C98.0007 7.80252 97.251 8.09892 96.3269 8.09892H94.0952H94.1039ZM96.3357 2.68524H95.0977V7.21843H96.3357C96.7628 7.21843 97.1464 7.11382 97.4515 6.91331C97.7654 6.71281 97.992 6.44256 98.1577 6.10257C98.3059 5.76258 98.3843 5.37029 98.3843 4.9344C98.3843 4.26314 98.21 3.71393 97.8438 3.29548C97.4777 2.87703 96.9808 2.67653 96.3357 2.67653V2.68524Z" fill="white"/>
<path id="Vector_12" d="M101.828 4.96051C101.828 4.54207 101.906 4.14977 102.054 3.75748C102.203 3.36518 102.421 3.03391 102.691 2.74623C102.952 2.45854 103.275 2.22317 103.65 2.04881C104.033 1.87446 104.426 1.77856 104.853 1.77856C105.28 1.77856 105.698 1.86574 106.082 2.05753C106.466 2.24932 106.779 2.4847 107.032 2.7811C107.285 3.08622 107.486 3.4262 107.642 3.80978C107.791 4.19336 107.86 4.58565 107.86 4.97795C107.86 5.3964 107.782 5.78869 107.634 6.18099C107.486 6.57328 107.268 6.90456 107.015 7.19224C106.745 7.47992 106.431 7.7153 106.047 7.88965C105.664 8.06401 105.271 8.1599 104.844 8.1599C104.487 8.1599 104.155 8.10759 103.842 7.98555C103.528 7.87222 103.249 7.70658 103.005 7.50607C102.761 7.30557 102.551 7.06147 102.386 6.79994C102.211 6.5297 102.072 6.24201 101.976 5.92818C101.889 5.61434 101.836 5.29179 101.836 4.97795M104.853 7.2707C105.158 7.2707 105.437 7.20967 105.698 7.07019C105.951 6.93943 106.169 6.76507 106.335 6.54713C106.5 6.32919 106.622 6.09381 106.718 5.81485C106.806 5.5446 106.858 5.27435 106.858 4.97795C106.858 4.68155 106.806 4.39387 106.718 4.1149C106.614 3.83593 106.492 3.59184 106.326 3.38262C106.16 3.16467 105.943 2.99904 105.69 2.87699C105.437 2.74623 105.158 2.6852 104.862 2.6852C104.565 2.6852 104.277 2.74623 104.016 2.88571C103.763 3.01647 103.545 3.19083 103.38 3.40877C103.214 3.62671 103.092 3.86209 102.987 4.14105C102.9 4.4113 102.848 4.68155 102.848 4.97795C102.848 5.37025 102.926 5.75382 103.092 6.09381C103.257 6.4338 103.484 6.7302 103.798 6.93943C104.112 7.15737 104.469 7.2707 104.862 7.2707" fill="white"/>
</g>
<g id="Group 23">
<path id="Vector_13" d="M9.02615 20.53V14.2969H11.4235C11.9291 14.2969 12.3912 14.3753 12.7748 14.541C13.1845 14.7066 13.507 14.9245 13.7598 15.2122C14.0127 15.4912 14.2132 15.8225 14.3439 16.1973C14.4834 16.5635 14.5445 16.9732 14.5445 17.4178C14.5445 18.3593 14.2568 19.1177 13.6814 19.6844C13.1147 20.251 12.3476 20.53 11.3974 20.53H9H9.00873H9.02615ZM11.4235 15.7789H10.7435V19.0393H11.4235C11.8681 19.0393 12.2081 18.8911 12.4522 18.586C12.705 18.2809 12.8358 17.8886 12.8358 17.4091C12.8358 16.9296 12.705 16.5199 12.4522 16.2322C12.1994 15.9445 11.8594 15.7876 11.4235 15.7876V15.7789Z" fill="white"/>
<path id="Vector_14" d="M21.5187 19.0395V20.5389H17.0726V14.2883H21.4402V15.7878H18.79V16.677H21.0566V18.0544H18.79V19.0395H21.5099H21.5187Z" fill="white"/>
<path id="Vector_15" d="M27.8562 16.3196C27.8562 16.3196 27.7952 16.2848 27.7516 16.2586C27.7167 16.2325 27.6208 16.1802 27.4901 16.1191C27.3593 16.0581 27.2198 15.9884 27.1065 15.9448C26.9845 15.8925 26.845 15.8576 26.6619 15.8053C26.4963 15.7704 26.3481 15.7443 26.2086 15.7443C25.8686 15.7443 25.703 15.8489 25.703 16.0494C25.703 16.1017 25.703 16.1366 25.7291 16.1802C25.7465 16.215 25.7814 16.2586 25.8163 16.2848C25.8512 16.3109 25.8948 16.3458 25.9296 16.3632C25.9645 16.3894 26.0342 16.4155 26.104 16.4417C26.1824 16.4678 26.2609 16.494 26.3045 16.5027C26.3655 16.5114 26.444 16.555 26.566 16.5812C26.6793 16.616 26.784 16.6422 26.8537 16.6683C27.1065 16.7468 27.3244 16.8165 27.4988 16.895C27.6732 16.9735 27.8388 17.0606 28.0219 17.1653C28.1875 17.2786 28.3096 17.3919 28.4142 17.5227C28.5188 17.6534 28.5885 17.8016 28.6583 17.9934C28.7193 18.1678 28.7454 18.3857 28.7454 18.6124C28.7454 18.9001 28.6931 19.1616 28.606 19.397C28.5188 19.6236 28.388 19.8154 28.2398 19.9636C28.0916 20.1118 27.9085 20.2339 27.708 20.3298C27.4901 20.4344 27.2896 20.4954 27.0629 20.5303C26.845 20.5651 26.6096 20.5913 26.3655 20.5913C25.9209 20.5913 25.4501 20.5303 24.962 20.3908C24.465 20.2513 24.0379 20.0857 23.6718 19.859L24.404 18.3509C24.404 18.3509 24.4651 18.4032 24.5174 18.4293C24.5697 18.4555 24.6655 18.5165 24.8225 18.595C24.9707 18.6734 25.1276 18.7432 25.2758 18.7955C25.424 18.8565 25.6071 18.9088 25.8163 18.9611C26.0168 19.0134 26.2086 19.0396 26.3829 19.0396C26.7142 19.0396 26.8798 18.9524 26.8798 18.7693C26.8798 18.6908 26.8537 18.6385 26.8188 18.5775C26.7839 18.5252 26.7055 18.4729 26.6009 18.438C26.4963 18.3857 26.4004 18.3509 26.3045 18.3247C26.2173 18.2985 26.0778 18.2462 25.9122 18.1939C25.7378 18.1416 25.5983 18.1068 25.4763 18.0632C24.9184 17.8714 24.5174 17.6447 24.2645 17.3832C24.0117 17.1129 23.8984 16.7642 23.8984 16.3196C23.8984 15.9884 23.9594 15.6832 24.0902 15.4043C24.2209 15.134 24.3953 14.9074 24.6132 14.7417C24.8312 14.5674 25.0666 14.4366 25.3455 14.3494C25.6245 14.2623 25.9122 14.21 26.2348 14.21C26.906 14.21 27.6819 14.4366 28.5798 14.8812L27.8475 16.3022V16.3284L27.8562 16.3196Z" fill="white"/>
<path id="Vector_16" d="M35.7022 19.0395V20.5389H31.2649V14.2883H35.6237V15.7878H32.9735V16.677H35.2401V18.0544H32.9735V19.0395H35.6935H35.7022Z" fill="white"/>
<path id="Vector_17" d="M39.9738 17.4615V20.5301H38.2651V14.2795H39.5989L42.1096 17.4615V14.2795H43.8183V20.5301H42.4671L39.9825 17.4615H39.9738Z" fill="white"/>
<path id="Vector_18" d="M47.8546 14.2795L49.0751 18.5512L50.2782 14.2795H52.074L49.9207 20.5301H48.2208L46.0414 14.2795H47.8546Z" fill="white"/>
<path id="Vector_19" d="M53.7217 17.4005C53.7217 16.9908 53.8001 16.5898 53.9658 16.2062C54.114 15.8226 54.3493 15.4826 54.6283 15.2036C54.9073 14.916 55.2473 14.6806 55.6396 14.5062C56.0493 14.3319 56.4677 14.2534 56.9211 14.2534C57.3744 14.2534 57.8103 14.3406 58.2113 14.5237C58.621 14.698 58.9436 14.9421 59.2138 15.2472C59.484 15.5524 59.6933 15.8836 59.8502 16.2585C60.0071 16.6421 60.0768 17.0344 60.0768 17.4267C60.0768 17.8189 59.9984 18.2287 59.8327 18.6035C59.6845 18.9871 59.4492 19.3097 59.1702 19.6061C58.8913 19.9025 58.56 20.1291 58.159 20.3035C57.758 20.4778 57.3308 20.5737 56.8775 20.5737C56.4242 20.5737 55.9883 20.4866 55.5872 20.3035C55.195 20.1291 54.855 19.885 54.5847 19.5799C54.3145 19.2922 54.1052 18.9435 53.9483 18.5512C53.8001 18.1677 53.7217 17.7754 53.7217 17.3831M56.8862 19.0394C57.1303 19.0394 57.3308 18.9871 57.5226 18.8999C57.7144 18.7953 57.8539 18.6733 57.9672 18.5164C58.0805 18.3507 58.159 18.1764 58.22 17.9846C58.281 17.7928 58.3072 17.5923 58.3072 17.3743C58.3072 17.0867 58.2549 16.8164 58.159 16.5723C58.0544 16.3282 57.8974 16.1277 57.6795 15.9795C57.4528 15.8313 57.2 15.7529 56.8775 15.7529C56.6334 15.7529 56.4241 15.8052 56.2411 15.8923C56.0493 15.9795 55.9098 16.1103 55.7965 16.2759C55.6831 16.4241 55.596 16.6072 55.5437 16.799C55.4914 16.9908 55.4565 17.1913 55.4565 17.4092C55.4565 17.6272 55.4914 17.8277 55.5437 18.0195C55.6047 18.2112 55.6831 18.3856 55.7965 18.5425C55.9098 18.6907 56.058 18.8215 56.2498 18.9087C56.4416 18.9958 56.6421 19.0481 56.8862 19.0481V19.0394Z" fill="white"/>
<path id="Vector_20" d="M62.5352 20.5301V14.2795H64.2438V19.0307H67.0858V20.5301H62.5352Z" fill="white"/>
<path id="Vector_21" d="M69.9279 14.2795L71.1483 18.5512L72.3514 14.2795H74.1646L72.0114 20.5301H70.3027L68.1233 14.2795H69.9366H69.9279Z" fill="white"/>
<path id="Vector_22" d="M78.0962 14.2795H76.3876V20.5127H78.0962V14.2795Z" fill="white"/>
<path id="Vector_23" d="M85.6545 20.5301V17.2348L84.5996 19.5537H83.6843L82.6294 17.2348V20.5301H80.9208V14.2795H82.7951L84.1376 17.2174L85.4889 14.2795H87.3544V20.5301H85.6458H85.6545Z" fill="white"/>
<path id="Vector_24" d="M94.6336 19.0395V20.5389H90.1876V14.2883H94.5639V15.7878H91.905V16.677H94.1716V18.0544H91.905V19.0395H94.6424H94.6336Z" fill="white"/>
<path id="Vector_25" d="M98.9053 17.4615V20.5301H97.1967V14.2795H98.5305L101.041 17.4615V14.2795H102.75V20.5301H101.39L98.9053 17.4615Z" fill="white"/>
<path id="Vector_26" d="M110.439 15.779H108.643V20.5301H106.934V15.779H105.138V14.2795H110.447V15.779H110.439Z" fill="white"/>
<path id="Vector_27" d="M112.374 17.4005C112.374 16.9908 112.453 16.5898 112.618 16.2062C112.766 15.8226 113.002 15.4826 113.281 15.2036C113.56 14.916 113.9 14.6806 114.292 14.5062C114.693 14.3319 115.12 14.2534 115.574 14.2534C116.027 14.2534 116.463 14.3406 116.864 14.5237C117.265 14.698 117.596 14.9421 117.866 15.2472C118.137 15.5524 118.346 15.8836 118.503 16.2585C118.651 16.6421 118.729 17.0344 118.729 17.4267C118.729 17.8189 118.651 18.2287 118.485 18.6035C118.328 18.9871 118.102 19.3097 117.823 19.6061C117.544 19.8938 117.212 20.1291 116.811 20.3035C116.402 20.4778 115.983 20.5737 115.53 20.5737C115.077 20.5737 114.641 20.4866 114.24 20.3035C113.847 20.1291 113.507 19.885 113.237 19.5799C112.967 19.2922 112.758 18.9435 112.601 18.5512C112.453 18.1677 112.374 17.7754 112.374 17.3831M115.539 19.0394C115.783 19.0394 115.983 18.9871 116.175 18.8999C116.367 18.7953 116.506 18.6733 116.62 18.5164C116.733 18.3507 116.811 18.1764 116.872 17.9846C116.933 17.7928 116.96 17.5923 116.96 17.3743C116.96 17.0867 116.907 16.8164 116.811 16.5723C116.707 16.3282 116.55 16.1277 116.332 15.9795C116.105 15.8313 115.852 15.7529 115.539 15.7529C115.295 15.7529 115.094 15.8052 114.902 15.8923C114.71 15.9795 114.571 16.1103 114.458 16.2759C114.344 16.4241 114.257 16.6072 114.205 16.799C114.153 16.9908 114.118 17.1913 114.118 17.4092C114.118 17.6272 114.153 17.8277 114.205 18.0195C114.266 18.2112 114.344 18.3856 114.458 18.5425C114.571 18.6907 114.719 18.8215 114.911 18.9087C115.103 18.9958 115.303 19.0481 115.547 19.0481L115.539 19.0394Z" fill="white"/>
<path id="Vector_28" d="M121.275 21.9076L121.606 20.5302H121.1V18.9087H122.478V20.5302L121.998 21.9076H121.275Z" fill="white"/>
</g>
<g id="Group 24">
<path id="Vector_29" d="M1.72608 26.8069H0V33.0923H1.72608V26.8069Z" fill="white"/>
<path id="Vector_30" d="M6.30286 29.9976V33.0923H4.57678V26.8069H5.91928L8.45613 29.9976V26.8069H10.1822V33.0923H8.81356L6.30286 29.9976Z" fill="white"/>
<path id="Vector_31" d="M13.0242 33.0923V26.8069H15.4477C15.9533 26.8069 16.4066 26.8853 16.8164 27.051C17.2174 27.2166 17.5486 27.4433 17.8189 27.7222C18.0717 28.0099 18.2722 28.3412 18.4117 28.7073C18.5512 29.0909 18.6122 29.4919 18.6122 29.9278C18.6122 30.878 18.3158 31.6365 17.7492 32.2206C17.1651 32.7872 16.4066 33.0836 15.4477 33.0836H13.0242V33.0923ZM15.4477 28.3063H14.7503V31.5842H15.4477C15.8923 31.5842 16.2323 31.436 16.4851 31.1308C16.7379 30.8257 16.8687 30.4334 16.8687 29.9365C16.8687 29.4396 16.7379 29.0473 16.4851 28.7422C16.2323 28.4545 15.8923 28.2976 15.4477 28.2976V28.3063Z" fill="white"/>
<path id="Vector_32" d="M23.8865 33.1359C23.4942 33.1359 23.1367 33.0836 22.8229 32.9703C22.5091 32.857 22.2388 32.7175 22.0122 32.5257C21.7942 32.3339 21.6024 32.1072 21.4717 31.8457C21.3322 31.5755 21.2189 31.2965 21.1578 31.0001C21.0968 30.695 21.0532 30.3811 21.0532 30.0412V26.8069H22.788V30.0412C22.788 30.2591 22.8142 30.4596 22.8491 30.634C22.8839 30.8257 22.9537 30.9914 23.0409 31.1396C23.128 31.2878 23.2413 31.4098 23.3808 31.497C23.5203 31.5755 23.6947 31.6278 23.8865 31.6278C24.0783 31.6278 24.2526 31.5755 24.4095 31.497C24.5577 31.4098 24.6798 31.2965 24.7495 31.1396C24.8367 30.9914 24.8977 30.8257 24.9413 30.634C24.9762 30.4596 25.0023 30.2504 25.0023 30.0412V26.8069H26.7284V30.0412C26.7284 30.4858 26.6674 30.9042 26.5541 31.2703C26.4407 31.6365 26.2664 31.9678 26.031 32.2467C25.8043 32.5257 25.508 32.7523 25.1418 32.9093C24.7757 33.0575 24.3572 33.1534 23.8777 33.1534M24.4095 26.5541L23.346 26.2751L23.7906 25.0198H25.29L24.4182 26.5628L24.4095 26.5541Z" fill="white"/>
<path id="Vector_33" d="M33.3014 28.8555C33.3014 28.8555 33.2404 28.8206 33.1968 28.7944C33.162 28.7683 33.0748 28.716 32.9353 28.6549C32.8133 28.5939 32.6738 28.5242 32.543 28.4806C32.4122 28.4283 32.264 28.376 32.0984 28.3411C31.9328 28.3062 31.7846 28.2801 31.6277 28.2801C31.2877 28.2801 31.122 28.3847 31.122 28.5852C31.122 28.6375 31.122 28.6724 31.1482 28.716C31.1569 28.7508 31.1831 28.7944 31.2354 28.8206C31.2702 28.8467 31.3138 28.8816 31.3487 28.9078C31.3836 28.9339 31.4533 28.9601 31.523 28.9862C31.6015 29.0124 31.6712 29.0385 31.7235 29.0472C31.7846 29.056 31.863 29.0821 31.9938 29.1257C32.1071 29.1606 32.2117 29.1867 32.2815 29.2129C32.5343 29.2913 32.7522 29.3611 32.9266 29.4395C33.1009 29.518 33.284 29.6052 33.4497 29.7185C33.6153 29.8231 33.7548 29.9452 33.8594 30.0759C33.964 30.2067 34.0337 30.3636 34.1035 30.5467C34.1645 30.721 34.1906 30.939 34.1906 31.1656C34.1906 31.4533 34.1384 31.7236 34.0512 31.9502C33.964 32.1769 33.8332 32.3687 33.685 32.5169C33.5368 32.6651 33.3538 32.7958 33.1445 32.883C32.9266 32.9876 32.7174 33.0487 32.4994 33.0835C32.2815 33.1184 32.0461 33.1445 31.802 33.1445C31.3487 33.1445 30.8779 33.0835 30.381 32.944C29.8841 32.8046 29.4395 32.6302 29.0734 32.4123L29.8231 30.8954C29.8231 30.8954 29.9016 30.9477 29.9364 30.9738C29.9887 31 30.0933 31.061 30.2503 31.1395C30.3985 31.2179 30.5641 31.2877 30.721 31.3574C30.8779 31.4184 31.0523 31.4708 31.2615 31.5231C31.462 31.5754 31.6713 31.6015 31.8456 31.6015C32.1769 31.6015 32.3512 31.5143 32.3512 31.3226C32.3512 31.2615 32.3251 31.1918 32.2902 31.1482C32.2379 31.0959 32.1769 31.0436 32.0722 31C31.9676 30.9477 31.8717 30.9128 31.7758 30.8867C31.6887 30.8605 31.5492 30.8256 31.3836 30.7559C31.2092 30.7036 31.0697 30.6687 30.9564 30.6251C30.381 30.4334 29.98 30.2067 29.7359 29.9364C29.4831 29.6662 29.3523 29.3175 29.3523 28.8555C29.3523 28.5155 29.4134 28.2103 29.5441 27.9401C29.6749 27.6611 29.8492 27.4432 30.0672 27.2688C30.2851 27.0945 30.5379 26.9637 30.8169 26.8765C31.0959 26.7894 31.3836 26.7371 31.7061 26.7371C32.3774 26.7371 33.162 26.9637 34.0599 27.4083L33.3102 28.838V28.8642L33.3014 28.8555Z" fill="white"/>
<path id="Vector_34" d="M41.6182 28.315H39.8136V33.0923H38.0788V28.315H36.2655V26.8069H41.6182V28.315Z" fill="white"/>
<path id="Vector_35" d="M44.0155 33.0923V26.8069H46.9011C47.1888 26.8069 47.4852 26.8679 47.7467 26.9987C48.0082 27.1294 48.2436 27.2864 48.4179 27.4956C48.5923 27.6961 48.7492 27.9402 48.8451 28.193C48.9497 28.4458 49.0107 28.7161 49.0107 28.995C49.0107 29.3612 48.9323 29.6924 48.7666 30.0063C48.6184 30.3201 48.3831 30.5729 48.1041 30.7821L49.4379 33.101H47.5462L46.439 31.1744H45.7416V33.101H43.9894L44.0155 33.0923ZM45.7416 29.6576H46.8313C46.9447 29.6576 47.0493 29.5965 47.1364 29.4658C47.2236 29.335 47.2672 29.1868 47.2672 28.9863C47.2672 28.7858 47.2149 28.6202 47.119 28.4894C47.0144 28.3586 46.9011 28.2976 46.7877 28.2976H45.7503V29.6401L45.7416 29.6576Z" fill="white"/>
<path id="Vector_36" d="M53.4916 26.8069H51.7655V33.0923H53.4916V26.8069Z" fill="white"/>
<path id="Vector_37" d="M57.7981 26.8069H59.7247L61.7298 33.0923H59.9776L59.594 31.8631H57.9202L57.5366 33.0923H55.7756L57.7894 26.8069H57.7981ZM59.315 30.7124L58.7571 28.4981L58.173 30.7124H59.315Z" fill="white"/>
<path id="Vector_38" d="M64.1098 34.4786L64.4236 33.0837H63.918V31.4448H65.3128V33.0837L64.8333 34.4786H64.1098Z" fill="white"/>
<path id="Vector_39" d="M74.7017 26.7631C75.2945 26.7631 75.8175 26.8939 76.2621 27.1293C76.7154 27.3734 77.0467 27.7134 77.2734 28.1318L75.957 29.0733C75.896 28.9251 75.8175 28.7944 75.7304 28.6897C75.6257 28.5851 75.5124 28.498 75.3991 28.4457C75.2858 28.3933 75.155 28.341 75.0417 28.3149C74.9283 28.2887 74.7976 28.28 74.6755 28.28C74.4314 28.28 74.2309 28.3323 74.0391 28.4195C73.8473 28.5241 73.7079 28.6462 73.5945 28.8031C73.4812 28.9513 73.394 29.1343 73.3417 29.3261C73.2807 29.5179 73.2545 29.7184 73.2545 29.9189C73.2545 30.3723 73.3853 30.7646 73.6468 31.0958C73.9084 31.4271 74.2571 31.5927 74.7017 31.5927C74.8673 31.5927 75.0329 31.5666 75.1811 31.5143C75.3293 31.462 75.4863 31.3835 75.6258 31.2615C75.7652 31.1307 75.8786 30.9912 75.9396 30.8169L77.3431 31.6538C77.2298 31.9414 77.0118 32.2117 76.7242 32.4383C76.4365 32.665 76.1052 32.8306 75.7391 32.944C75.3816 33.0573 75.0155 33.1096 74.6494 33.1096C74.2048 33.1096 73.7776 33.0224 73.3679 32.8306C72.9668 32.6389 72.6356 32.4035 72.3566 32.0984C72.0777 31.7932 71.8771 31.4533 71.7115 31.061C71.5459 30.6687 71.4674 30.2764 71.4674 29.8666C71.4674 29.4569 71.5459 29.1082 71.6941 28.7246C71.8423 28.3585 72.0515 28.0185 72.313 27.7221C72.5746 27.4344 72.9233 27.1903 73.3243 26.9985C73.7253 26.8242 74.1873 26.7283 74.6668 26.7283" fill="white"/>
<path id="Vector_40" d="M79.2785 29.9364C79.2785 29.5267 79.357 29.1257 79.5226 28.7421C79.6883 28.3585 79.9062 28.0185 80.1852 27.7308C80.4641 27.4432 80.8041 27.2078 81.2139 27.0334C81.6236 26.8591 82.0333 26.7632 82.4954 26.7632C82.9574 26.7632 83.3933 26.8504 83.7856 27.0421C84.1866 27.2165 84.5179 27.4693 84.7968 27.7657C85.0671 28.0708 85.2763 28.4108 85.4332 28.7944C85.5814 29.178 85.6599 29.5703 85.6599 29.9713C85.6599 30.3723 85.5814 30.782 85.4158 31.1656C85.2501 31.5492 85.0322 31.8892 84.7532 32.1769C84.4743 32.4645 84.1343 32.7086 83.7246 32.8743C83.3148 33.0486 82.8877 33.1445 82.4344 33.1445C81.981 33.1445 81.5451 33.0573 81.1441 32.8656C80.7344 32.6912 80.4118 32.4471 80.1329 32.142C79.8539 31.8369 79.6534 31.4969 79.4878 31.1133C79.3396 30.7297 79.2611 30.3287 79.2611 29.9364M82.4518 31.6102C82.6959 31.6102 82.9051 31.5579 83.0969 31.4707C83.2887 31.3661 83.4369 31.2441 83.5502 31.0871C83.6635 30.9215 83.7507 30.7472 83.803 30.5554C83.864 30.3636 83.8902 30.1631 83.8902 29.9451C83.8902 29.6575 83.8379 29.3872 83.742 29.1431C83.6374 28.899 83.4718 28.6985 83.2451 28.5503C83.0184 28.4021 82.7482 28.3062 82.4431 28.3062C82.199 28.3062 81.9898 28.3585 81.8067 28.4457C81.6149 28.5329 81.4667 28.6636 81.3621 28.8293C81.2487 28.9949 81.1616 29.1605 81.1093 29.361C81.0482 29.5528 81.0221 29.7533 81.0221 29.9713C81.0221 30.1892 81.0482 30.3897 81.1093 30.5902C81.1703 30.782 81.2575 30.9564 81.3708 31.122C81.4841 31.2702 81.6323 31.401 81.8241 31.4882C82.0159 31.5753 82.2164 31.6276 82.4605 31.6276" fill="white"/>
<path id="Vector_41" d="M92.9216 33.0923V29.7883L91.8581 32.1159H90.9427L89.8879 29.7883V33.0923H88.1531V26.8069H90.0448L91.3961 29.7622L92.7647 26.8069H94.639V33.0923H92.9129H92.9216Z" fill="white"/>
<path id="Vector_42" d="M101.971 31.5842V33.0924H97.4984V26.8069H101.892V28.3151H99.2158V29.2043H101.5V30.5991H99.2158V31.5842H101.962H101.971ZM100.288 26.528L99.2245 26.249L99.6691 24.9937H101.169L100.297 26.5367L100.288 26.528Z" fill="white"/>
<path id="Vector_43" d="M104.56 33.0923V26.8069H107.445C107.733 26.8069 108.029 26.8679 108.291 26.9987C108.552 27.1294 108.788 27.2864 108.962 27.4956C109.137 27.6961 109.293 27.9402 109.389 28.193C109.494 28.4458 109.555 28.7161 109.555 28.995C109.555 29.3612 109.476 29.6924 109.311 30.0063C109.163 30.3201 108.927 30.5729 108.648 30.7821L109.982 33.101H108.09L106.983 31.1744H106.286V33.101H104.534L104.56 33.0923ZM106.286 29.6576H107.376C107.489 29.6576 107.593 29.5965 107.681 29.4658C107.768 29.335 107.811 29.1868 107.811 28.9863C107.811 28.7858 107.759 28.6202 107.663 28.4894C107.559 28.3586 107.445 28.2976 107.332 28.2976H106.295V29.6401L106.286 29.6576Z" fill="white"/>
<path id="Vector_44" d="M115.091 26.7631C115.684 26.7631 116.207 26.8939 116.651 27.1293C117.105 27.3734 117.436 27.7134 117.662 28.1318L116.346 29.0733C116.285 28.9251 116.207 28.7944 116.119 28.6897C116.015 28.5851 115.901 28.498 115.788 28.4457C115.675 28.3933 115.544 28.341 115.431 28.3149C115.317 28.2887 115.187 28.28 115.065 28.28C114.82 28.28 114.62 28.3323 114.428 28.4195C114.236 28.5241 114.097 28.6462 113.984 28.8031C113.87 28.9513 113.792 29.1343 113.731 29.3261C113.67 29.5179 113.644 29.7184 113.644 29.9189C113.644 30.3723 113.774 30.7646 114.036 31.0958C114.297 31.4271 114.646 31.5927 115.091 31.5927C115.256 31.5927 115.422 31.5666 115.588 31.5143C115.736 31.462 115.893 31.3835 116.032 31.2615C116.172 31.1307 116.285 30.9912 116.346 30.8169L117.75 31.6538C117.636 31.9414 117.418 32.2117 117.131 32.4383C116.843 32.665 116.512 32.8306 116.146 32.944C115.788 33.0573 115.422 33.1096 115.056 33.1096C114.611 33.1096 114.184 33.0224 113.774 32.8306C113.373 32.6389 113.042 32.4035 112.763 32.0984C112.484 31.7932 112.284 31.4533 112.118 31.061C111.97 30.6687 111.874 30.2764 111.874 29.8666C111.874 29.4569 111.952 29.1082 112.101 28.7246C112.249 28.3585 112.458 28.0185 112.72 27.7221C112.981 27.4344 113.33 27.1903 113.731 26.9985C114.132 26.8242 114.594 26.7283 115.073 26.7283" fill="white"/>
<path id="Vector_45" d="M121.83 26.8069H120.103V33.0923H121.83V26.8069Z" fill="white"/>
<path id="Vector_46" d="M124.34 29.9364C124.34 29.5267 124.419 29.1257 124.584 28.7421C124.75 28.3585 124.968 28.0185 125.247 27.7308C125.526 27.4432 125.866 27.2078 126.275 27.0334C126.685 26.8591 127.104 26.7632 127.557 26.7632C128.01 26.7632 128.455 26.8504 128.865 27.0421C129.266 27.2165 129.597 27.4693 129.876 27.7657C130.137 28.0708 130.355 28.4108 130.512 28.7944C130.66 29.178 130.739 29.5703 130.739 29.9713C130.739 30.3723 130.66 30.782 130.495 31.1656C130.329 31.5492 130.111 31.8892 129.832 32.1769C129.553 32.4645 129.213 32.7086 128.804 32.8743C128.403 33.0486 127.967 33.1445 127.513 33.1445C127.06 33.1445 126.624 33.0573 126.223 32.8656C125.813 32.6912 125.491 32.4471 125.212 32.142C124.933 31.8369 124.732 31.4969 124.567 31.1133C124.419 30.7297 124.34 30.3287 124.34 29.9364ZM127.531 31.6102C127.775 31.6102 127.984 31.5579 128.176 31.4707C128.368 31.3661 128.516 31.2441 128.629 31.0871C128.743 30.9215 128.83 30.7472 128.882 30.5554C128.943 30.3636 128.969 30.1631 128.969 29.9451C128.969 29.6575 128.917 29.3872 128.821 29.1431C128.716 28.899 128.551 28.6985 128.324 28.5503C128.097 28.4021 127.827 28.3062 127.522 28.3062C127.278 28.3062 127.069 28.3585 126.886 28.4457C126.694 28.5329 126.546 28.6636 126.441 28.8293C126.328 28.9949 126.241 29.1605 126.188 29.361C126.127 29.5528 126.101 29.7533 126.101 29.9713C126.101 30.1892 126.127 30.3897 126.188 30.5902C126.249 30.782 126.336 30.9564 126.45 31.122C126.563 31.2702 126.711 31.401 126.903 31.4882C127.095 31.5753 127.295 31.6276 127.539 31.6276" fill="white"/>
</g>
<g id="Group 25">
<path id="Vector_47" d="M36.4722 44.1029V45.6023H32V39.3169H36.3937V40.8251H33.7174V41.7143H36.0014V43.1091H33.7174V44.1116H36.4634L36.4722 44.1029Z" fill="white"/>
<path id="Vector_48" d="M46.6197 41.3654C46.6197 41.3654 46.5586 41.3305 46.515 41.3044C46.4802 41.2782 46.3843 41.2259 46.2535 41.1649C46.1228 41.1039 45.9833 41.0341 45.8612 40.9905C45.7392 40.9382 45.5823 40.8859 45.4166 40.851C45.251 40.8162 45.1028 40.79 44.9459 40.79C44.6059 40.79 44.4403 40.8946 44.4403 41.0951C44.4403 41.1474 44.4403 41.1823 44.4664 41.2172C44.4751 41.2521 44.5013 41.2957 44.5536 41.3218C44.5884 41.348 44.632 41.3828 44.6669 41.409C44.7018 41.4351 44.7715 41.4613 44.8413 41.4874C44.9197 41.5136 44.9895 41.5397 45.0418 41.5485C45.1028 41.5572 45.1812 41.5833 45.3033 41.6269C45.4166 41.6618 45.5212 41.6879 45.591 41.7141C45.8438 41.7926 46.0617 41.8623 46.2361 41.9408C46.4104 42.0192 46.5935 42.1064 46.7504 42.2197C46.9161 42.3243 47.0556 42.4464 47.1602 42.5771C47.2648 42.7079 47.3345 42.8648 47.4043 43.0479C47.4653 43.2223 47.4914 43.4402 47.4914 43.6669C47.4914 43.9545 47.4391 44.2248 47.352 44.4514C47.2648 44.6781 47.134 44.8699 46.9858 45.0181C46.8376 45.1663 46.6545 45.2971 46.4453 45.3842C46.2274 45.4889 46.0182 45.5499 45.8002 45.5847C45.5823 45.6196 45.3469 45.6458 45.1028 45.6458C44.6495 45.6458 44.1787 45.5847 43.6818 45.4453C43.1849 45.3058 42.7403 45.1314 42.3741 44.9135L43.1239 43.3966C43.1239 43.3966 43.2023 43.4489 43.2372 43.4751C43.2895 43.5012 43.3941 43.5622 43.551 43.6407C43.6992 43.7192 43.8649 43.7889 44.0218 43.8586C44.17 43.9197 44.3531 43.972 44.5623 44.0243C44.7628 44.0766 44.9633 44.1027 45.1464 44.1027C45.4777 44.1027 45.652 44.0156 45.652 43.8238C45.652 43.7628 45.6258 43.693 45.591 43.6494C45.5387 43.5971 45.4776 43.5448 45.373 43.5012C45.2684 43.4489 45.1725 43.414 45.0854 43.3879C44.9982 43.3617 44.8587 43.3269 44.693 43.2571C44.5187 43.2048 44.3792 43.17 44.2659 43.1264C43.6992 42.9346 43.2895 42.7079 43.0454 42.4377C42.7926 42.1674 42.6618 41.8187 42.6618 41.3567C42.6618 41.0167 42.7229 40.7116 42.8536 40.4413C42.9844 40.1711 43.1588 39.9444 43.3767 39.7701C43.5946 39.5957 43.8474 39.4649 44.1264 39.3778C44.4054 39.2906 44.6931 39.2383 45.0156 39.2383C45.6869 39.2383 46.4715 39.4649 47.3694 39.9095L46.6197 41.3392L46.6022 41.3654H46.6197Z" fill="white"/>
<path id="Vector_49" d="M54.5178 44.1029V45.6023H50.0457V39.3169H54.4394V40.8251H51.763V41.7143H54.0558V43.1091H51.763V44.1116H54.5091L54.5178 44.1029Z" fill="white"/>
<path id="Vector_50" d="M57.0983 45.5935V39.3081H59.9838C60.2715 39.3081 60.5679 39.3691 60.8295 39.4999C61.091 39.6219 61.3264 39.7876 61.5007 39.9968C61.6751 40.1973 61.832 40.4414 61.9279 40.6942C62.0325 40.947 62.0935 41.2173 62.0935 41.4962C62.0935 41.8624 62.0151 42.1937 61.8494 42.5075C61.7012 42.8213 61.4659 43.0741 61.1869 43.2834L62.5207 45.6023H60.6289L59.5218 43.6757H58.8244V45.6023H57.0721L57.0983 45.5935ZM58.8244 42.1588H59.9141C60.0274 42.1588 60.132 42.0978 60.2192 41.967C60.3064 41.8362 60.35 41.688 60.35 41.4875C60.35 41.287 60.2977 41.1214 60.1931 40.9906C60.0884 40.8686 59.9751 40.7988 59.8618 40.7988H58.8244V42.1413V42.1588Z" fill="white"/>
<path id="Vector_51" d="M65.8159 39.3081L67.0451 43.6059L68.2482 39.3081H70.0702L67.8908 45.5935H66.1821L63.9852 39.3081H65.8072H65.8159Z" fill="white"/>
<path id="Vector_52" d="M74.0454 39.3081H72.3193V45.5935H74.0454V39.3081Z" fill="white"/>
<path id="Vector_53" d="M82.4057 44.1899C82.2575 44.5735 81.9785 44.8699 81.5688 45.1227C81.1678 45.3755 80.7058 45.5411 80.2089 45.6196C80.4965 45.9073 80.636 46.2124 80.636 46.5437C80.636 46.8226 80.5488 47.0667 80.357 47.2498C80.1827 47.4416 79.9125 47.5375 79.555 47.5375C79.1976 47.5375 78.8489 47.4329 78.4653 47.2324L78.8576 46.3693C78.9884 46.4826 79.1279 46.5349 79.2761 46.5349C79.3807 46.5349 79.4766 46.5088 79.5463 46.4478C79.6073 46.3867 79.6509 46.3083 79.6509 46.195C79.6509 46.0206 79.5376 45.8114 79.3109 45.6109C78.9099 45.5586 78.5351 45.4365 78.1863 45.2273C77.8289 45.0268 77.5413 44.774 77.2972 44.4776C77.0531 44.1899 76.87 43.8586 76.7392 43.4925C76.5997 43.1263 76.5387 42.7602 76.5387 42.394C76.5387 42.0279 76.6172 41.6356 76.7654 41.2695C76.9136 40.9033 77.1228 40.5633 77.3843 40.2669C77.6458 39.9793 77.9946 39.7352 78.3956 39.5434C78.814 39.369 79.2586 39.2644 79.7468 39.2644C80.3396 39.2644 80.8627 39.3865 81.3073 39.6305C81.7606 39.8834 82.0919 40.2146 82.3185 40.6331L81.0022 41.5659C80.9411 41.4177 80.8627 41.2869 80.7581 41.1823C80.6535 41.0777 80.5576 40.9905 80.4268 40.9382C80.3047 40.8859 80.1827 40.8336 80.0606 40.8161C79.9473 40.79 79.8166 40.7813 79.6945 40.7813C79.4504 40.7813 79.2499 40.8336 79.0581 40.9208C78.8663 41.0254 78.7268 41.1474 78.6135 41.3043C78.5002 41.47 78.4217 41.6443 78.3607 41.8361C78.2997 42.0279 78.2735 42.2284 78.2735 42.4289C78.2735 42.8822 78.3956 43.2745 78.6658 43.6058C78.9273 43.9371 79.2761 44.0853 79.7207 44.0853C79.8863 44.0853 80.0519 44.0591 80.2176 44.0068C80.3658 43.9545 80.5227 43.8761 80.6622 43.754C80.8016 43.632 80.9063 43.4838 80.976 43.3094L82.3795 44.1463V44.1725L82.4057 44.1899Z" fill="white"/>
<path id="Vector_54" d="M84.3409 42.4552C84.3409 42.0542 84.4194 41.6445 84.585 41.2609C84.7507 40.8773 84.9686 40.5373 85.2476 40.2496C85.5266 39.962 85.8665 39.7266 86.2763 39.5522C86.686 39.3779 87.1044 39.282 87.5578 39.282C88.0111 39.282 88.4557 39.3692 88.8654 39.5609C89.2664 39.7353 89.5977 39.9881 89.8767 40.2845C90.1382 40.5896 90.3561 40.9296 90.513 41.3132C90.6612 41.6968 90.7397 42.0891 90.7397 42.4901C90.7397 42.8911 90.6613 43.3008 90.4956 43.6844C90.33 44.068 90.112 44.408 89.8331 44.6957C89.5541 44.9833 89.2141 45.2274 88.8044 45.3931C88.4034 45.5674 87.9675 45.6633 87.5142 45.6633C87.0609 45.6633 86.625 45.5761 86.224 45.3844C85.8142 45.21 85.4917 44.9659 85.2127 44.6608C84.9337 44.3557 84.7332 44.0157 84.5676 43.6321C84.4194 43.2485 84.3409 42.8475 84.3409 42.4552ZM87.5316 44.129C87.7757 44.129 87.9849 44.0767 88.1767 43.9895C88.3685 43.8849 88.5167 43.7629 88.63 43.6059C88.7434 43.4403 88.8305 43.266 88.8828 43.0742C88.9439 42.8824 88.97 42.6819 88.97 42.4639C88.97 42.1762 88.9177 41.906 88.8218 41.6619C88.7172 41.4178 88.5603 41.2173 88.3249 41.0691C88.0983 40.9209 87.828 40.825 87.5229 40.825C87.2788 40.825 87.0696 40.8773 86.8865 40.9645C86.6947 41.0517 86.5465 41.1912 86.4419 41.3481C86.3286 41.5137 86.2414 41.6793 86.1891 41.8798C86.1281 42.0716 86.1019 42.2721 86.1019 42.4901C86.1019 42.708 86.1281 42.9085 86.1891 43.109C86.2501 43.3008 86.346 43.4752 86.4593 43.6408C86.5727 43.789 86.7209 43.9198 86.9127 44.007C87.1045 44.0941 87.3049 44.1464 87.549 44.1464" fill="white"/>
<path id="Vector_55" d="M96.9903 41.3654C96.9903 41.3654 96.9293 41.3305 96.8857 41.3044C96.8509 41.2782 96.755 41.2259 96.6242 41.1649C96.4934 41.1039 96.354 41.0341 96.2319 40.9905C96.1099 40.9382 95.9529 40.8859 95.7873 40.851C95.6217 40.8162 95.4735 40.79 95.3165 40.79C94.9765 40.79 94.8109 40.8946 94.8109 41.0951C94.8109 41.1474 94.8109 41.1823 94.8371 41.2172C94.8458 41.2521 94.872 41.2957 94.9243 41.3218C94.9591 41.348 95.0027 41.3828 95.0376 41.409C95.0724 41.4351 95.1422 41.4613 95.2119 41.4874C95.2904 41.5136 95.3601 41.5397 95.4124 41.5485C95.4735 41.5572 95.5519 41.5833 95.674 41.6269C95.7873 41.6618 95.8919 41.6879 95.9616 41.7141C96.2144 41.7926 96.4324 41.8623 96.6068 41.9408C96.7811 42.0192 96.9642 42.1064 97.1298 42.2197C97.2955 42.3243 97.4349 42.4464 97.5396 42.5771C97.6442 42.7079 97.7139 42.8648 97.7837 43.0479C97.8447 43.2223 97.8708 43.4402 97.8708 43.6669C97.8708 43.9545 97.8185 44.2248 97.7313 44.4514C97.6441 44.6781 97.5134 44.8699 97.3652 45.0181C97.217 45.1663 97.0339 45.2971 96.8247 45.3842C96.6068 45.4889 96.3975 45.5499 96.1796 45.5847C95.9616 45.6196 95.7263 45.6458 95.4822 45.6458C95.0289 45.6458 94.5581 45.5847 94.0612 45.4453C93.5643 45.3058 93.1197 45.1314 92.7535 44.9135L93.5033 43.3966C93.5033 43.3966 93.5817 43.4489 93.6166 43.4751C93.6689 43.5012 93.7735 43.5622 93.9304 43.6407C94.0786 43.7192 94.2443 43.7889 94.4012 43.8586C94.5494 43.9197 94.7325 43.972 94.9417 44.0243C95.1422 44.0766 95.3427 44.1027 95.5258 44.1027C95.857 44.1027 96.0314 44.0156 96.0314 43.8238C96.0314 43.7628 96.0052 43.693 95.9704 43.6494C95.9181 43.5971 95.857 43.5448 95.7524 43.5012C95.6478 43.4489 95.5606 43.414 95.4647 43.3879C95.3776 43.3617 95.2381 43.3269 95.0724 43.2571C94.8981 43.2048 94.7586 43.17 94.6453 43.1264C94.0786 42.9346 93.6689 42.7079 93.4248 42.4377C93.172 42.1674 93.0412 41.8187 93.0412 41.3567C93.0412 41.0167 93.1023 40.7116 93.233 40.4413C93.3638 40.1711 93.5381 39.9444 93.7561 39.7701C93.974 39.5957 94.2268 39.4649 94.5058 39.3778C94.7848 39.2906 95.0724 39.2383 95.395 39.2383C96.0663 39.2383 96.8509 39.4649 97.7488 39.9095L96.999 41.3392L96.9816 41.3654H96.9903Z" fill="white"/>
</g>
</g>
</svg>
